<svg width="30" height="20" viewBox="0 0 30 20" fill="none" xmlns="http://www.w3.org/2000/svg">
<path d="M15.4 19C14.6632 19 13.7116 18.592 13.27 18.3016C12.7348 17.95 10.0492 15.9304 7.8148 14.0596C7.44279 13.7476 6.88959 13.1692 6.35439 12.61C5.95719 12.196 5.59719 11.8156 5.41119 11.6584C5.28962 11.5556 5.21386 11.4087 5.20058 11.2501C5.1873 11.0914 5.23759 10.934 5.34039 10.8124C5.44319 10.6908 5.59007 10.6151 5.74873 10.6018C5.90738 10.5885 6.06482 10.6388 6.18639 10.7416C6.39039 10.9144 6.78759 11.326 7.22199 11.7796C7.7116 12.2908 8.266 12.8692 8.5864 13.1392C10.8676 15.0496 13.5088 17.02 13.93 17.2972C14.2816 17.53 15.0004 17.8 15.4 17.8C15.9616 17.8 16.0132 17.656 16.036 17.596C16.0695 17.5031 16.1255 17.4199 16.1989 17.3538C16.2724 17.2877 16.361 17.2407 16.4569 17.2171C16.5528 17.1935 16.6531 17.1939 16.7488 17.2183C16.8445 17.2428 16.9328 17.2905 17.0056 17.3572C17.2444 17.5756 17.5108 17.5336 17.6944 17.464C17.8839 17.3882 18.0496 17.2629 18.1741 17.1012C18.2986 16.9395 18.3775 16.7474 18.4024 16.5448C18.4128 16.4331 18.4544 16.3266 18.5223 16.2374C18.5902 16.1481 18.6817 16.0797 18.7866 16.0398C18.8914 15.9999 19.0053 15.9903 19.1154 16.0119C19.2254 16.0335 19.3272 16.0855 19.4092 16.162C19.5592 16.3012 19.96 16.3348 20.344 16.1404C20.4952 16.0648 20.8444 15.8464 20.8036 15.4648C20.7913 15.3506 20.8121 15.2353 20.8635 15.1325C20.9148 15.0298 20.9945 14.944 21.0932 14.8852C21.1919 14.8264 21.3054 14.7972 21.4202 14.8011C21.535 14.8049 21.6463 14.8416 21.7408 14.9068C21.9172 15.0304 22.2424 14.9656 22.48 14.7616C22.6129 14.6578 22.7041 14.5097 22.7369 14.3442C22.7698 14.1788 22.742 14.0071 22.6588 13.8604C22.2088 12.9244 20.2084 11.3068 18.4444 9.88C17.4688 9.0916 16.5424 8.3416 15.856 7.6972C15.7149 7.75448 15.5748 7.81449 15.436 7.8772C15.124 8.0176 14.9164 8.104 14.5348 8.1628C13.6108 9.3892 12.37 9.8188 11.0104 9.37C10.468 9.1912 10.1032 8.8072 9.9796 8.2888C9.6916 7.0708 10.8064 5.40999 11.6272 4.58919C13.7836 2.43159 15.2932 1.62159 18.0448 2.85159C20.4064 3.90879 22.7728 4.73559 22.7968 4.74399C22.9394 4.80216 23.0543 4.91284 23.1177 5.05319C23.1811 5.19355 23.1882 5.35289 23.1375 5.49834C23.0869 5.64379 22.9824 5.76426 22.8455 5.8349C22.7087 5.90554 22.5499 5.92097 22.402 5.878C22.378 5.8696 19.9636 5.02599 17.554 3.94839C15.43 2.99919 14.4244 3.48759 12.4744 5.43879C11.6548 6.2584 11.0224 7.4848 11.1484 8.0116C11.1664 8.0884 11.2 8.1688 11.3872 8.2312C11.974 8.428 12.8524 8.536 13.7008 7.2676C13.7501 7.19412 13.815 7.13245 13.891 7.08702C13.9669 7.04158 14.0519 7.0135 14.14 7.0048C14.5444 6.964 14.6452 6.9184 14.9452 6.784C15.142 6.6964 15.3916 6.5836 15.796 6.4372C15.9032 6.39863 16.0191 6.39135 16.1302 6.41621C16.2413 6.44107 16.3431 6.49705 16.4236 6.5776C17.08 7.234 18.1096 8.0668 19.1992 8.9476C21.1528 10.528 23.1748 12.1636 23.74 13.342C24.1384 14.1688 23.9488 15.0856 23.26 15.6748C22.8819 16.0104 22.3888 16.1871 21.8836 16.168C21.7108 16.6012 21.3628 16.972 20.8816 17.2144C20.3896 17.4616 19.8484 17.5324 19.3756 17.4316C19.1166 17.9576 18.6714 18.3686 18.1264 18.5848C17.6644 18.7648 17.1844 18.7636 16.762 18.5992C16.4464 18.8644 15.9916 19 15.4 19Z" fill="white" stroke="white" stroke-width="0.2"/>
<path d="M13 4.59978H7.6C7.44087 4.59978 7.28826 4.53657 7.17574 4.42405C7.06321 4.31152 7 4.15891 7 3.99978C7 3.84065 7.06321 3.68804 7.17574 3.57552C7.28826 3.46299 7.44087 3.39978 7.6 3.39978H13C13.1591 3.39978 13.3118 3.46299 13.4243 3.57552C13.5368 3.68804 13.6 3.84065 13.6 3.99978C13.6 4.15891 13.5368 4.31152 13.4243 4.42405C13.3118 4.53657 13.1591 4.59978 13 4.59978ZM23.2468 14.1782C23.1181 14.1785 22.9927 14.1374 22.8892 14.061C22.7856 13.9845 22.7094 13.8768 22.6717 13.7538C22.6341 13.6307 22.637 13.4988 22.68 13.3775C22.7231 13.2562 22.804 13.152 22.9108 13.0802L24.6652 11.9018C24.7973 11.813 24.9592 11.7803 25.1154 11.8109C25.2716 11.8415 25.4092 11.9329 25.498 12.065C25.5868 12.1971 25.6195 12.359 25.5889 12.5152C25.5583 12.6714 25.4669 12.809 25.3348 12.8978L23.5804 14.0762C23.4819 14.1427 23.3657 14.1783 23.2468 14.1782ZM21.4 15.9998C21.2655 16 21.1348 15.9547 21.0292 15.8714C20.3968 15.3722 17.6764 12.5366 17.368 12.215C17.3135 12.1581 17.2707 12.091 17.2421 12.0176C17.2135 11.9442 17.1996 11.8658 17.2013 11.7871C17.203 11.7083 17.2201 11.6306 17.2518 11.5585C17.2835 11.4863 17.3291 11.4211 17.386 11.3666C17.4429 11.3121 17.51 11.2693 17.5834 11.2407C17.6568 11.2121 17.7352 11.1982 17.8139 11.1999C17.8927 11.2016 17.9704 11.2187 18.0425 11.2504C18.1147 11.2821 18.1799 11.3277 18.2344 11.3846C19.4224 12.623 21.3436 14.5898 21.7732 14.9282C21.8714 15.0054 21.9431 15.1114 21.9782 15.2313C22.0132 15.3513 22.01 15.4791 21.9689 15.5971C21.9278 15.7151 21.8509 15.8174 21.7489 15.8895C21.6469 15.9617 21.525 16.0003 21.4 15.9998ZM19 17.1998C18.864 17.1997 18.7321 17.1536 18.6256 17.069C17.7352 16.3562 15.58 14.0294 15.5584 14.0066C15.4507 13.8893 15.3939 13.734 15.4007 13.5749C15.4075 13.4158 15.4771 13.2659 15.5944 13.1582C15.7117 13.0505 15.867 12.9937 16.0261 13.0005C16.1852 13.0072 16.3351 13.0769 16.4428 13.1942C16.8508 13.6382 18.6568 15.557 19.3756 16.1318C19.4719 16.2099 19.5416 16.3158 19.5753 16.4351C19.609 16.5544 19.605 16.6811 19.5639 16.7981C19.5228 16.915 19.4465 17.0163 19.3456 17.0883C19.2447 17.1602 19.124 17.1991 19 17.1998ZM16.6 18.3998C16.4585 18.3997 16.3216 18.3496 16.2136 18.2582C15.3292 17.5118 13.654 15.7358 13.162 15.209C13.0533 15.0927 12.9953 14.9379 13.0007 14.7788C13.0061 14.6197 13.0745 14.4693 13.1908 14.3606C13.3071 14.2519 13.4619 14.1939 13.621 14.1993C13.7801 14.2047 13.9305 14.2731 14.0392 14.3894C14.3812 14.7554 16.132 16.619 16.9876 17.3402C17.0821 17.4195 17.1498 17.5259 17.1816 17.645C17.2134 17.7641 17.2078 17.8901 17.1654 18.0059C17.123 18.1217 17.046 18.2216 16.9449 18.2921C16.8437 18.3626 16.7233 18.4002 16.6 18.3998Z" fill="white" stroke="white" stroke-width="0.2"/>
<path d="M5.20001 12.9999H1.6C1.52121 12.9999 1.44319 12.9844 1.37039 12.9542C1.29759 12.9241 1.23145 12.8799 1.17574 12.8242C1.12002 12.7684 1.07583 12.7023 1.04567 12.6295C1.01552 12.5567 1 12.4787 1 12.3999V1.59988C1.00002 1.51807 1.01676 1.43712 1.04922 1.36202C1.08167 1.28691 1.12914 1.21924 1.1887 1.16315C1.24827 1.10707 1.31868 1.06376 1.3956 1.03589C1.47252 1.00802 1.55433 0.996172 1.636 1.00108C2.872 1.07428 6.98441 1.38988 8.01281 2.36428C8.0784 2.42627 8.1291 2.5023 8.16111 2.58668C8.19311 2.67106 8.20559 2.76159 8.19761 2.85148C7.92521 5.97149 5.85761 12.3171 5.77001 12.5859C5.73078 12.7062 5.65454 12.811 5.55216 12.8854C5.44979 12.9597 5.32653 12.9998 5.20001 12.9999ZM2.2 11.7999H4.76201C5.20841 10.3911 6.64721 5.72189 6.96521 3.09388C6.20921 2.72668 4.1284 2.39548 2.2 2.24308V11.7999ZM29.2 14.1999H25.6C25.4687 14.1999 25.341 14.1568 25.2365 14.0773C25.1321 13.9977 25.0566 13.8861 25.0216 13.7595C24.5752 12.1419 22.2532 5.51069 21.5116 4.31669C21.4664 4.24484 21.437 4.16418 21.4254 4.08008C21.4138 3.99599 21.4203 3.91039 21.4444 3.82899C21.4684 3.74758 21.5096 3.67224 21.565 3.60797C21.6205 3.54371 21.689 3.492 21.766 3.45628C21.8752 3.40588 24.4888 2.19988 29.2 2.19988C29.3592 2.19988 29.5118 2.2631 29.6243 2.37562C29.7368 2.48814 29.8 2.64075 29.8 2.79988V13.5999C29.8 13.759 29.7368 13.9116 29.6243 14.0242C29.5118 14.1367 29.3592 14.1999 29.2 14.1999ZM26.0488 12.9999H28.6V3.40708C25.7452 3.47428 23.7784 4.00829 22.8628 4.31909C23.8 6.31589 25.48 11.1471 26.0488 12.9999Z" fill="white" stroke="white" stroke-width="0.2"/>
</svg>
