<svg width="699" height="975" viewBox="0 0 699 975" fill="none" xmlns="http://www.w3.org/2000/svg">
<path d="M635.914 732.854H70.2559V975.001H635.914V732.854Z" fill="url(#paint0_linear_1741_4827)"/>
<path style="mix-blend-mode:overlay" d="M636.301 70.7524H66.5938V741.567H636.301V70.7524Z" fill="url(#paint1_linear_1741_4827)"/>
<path d="M346.259 813.315C508.352 813.315 639.755 780.999 639.755 741.135C639.755 701.27 508.352 668.954 346.259 668.954C184.165 668.954 52.7617 701.27 52.7617 741.135C52.7617 780.999 184.165 813.315 346.259 813.315Z" fill="white"/>
<path d="M346.254 806.401C498.643 806.401 622.179 777.18 622.179 741.134C622.179 705.089 498.643 675.868 346.254 675.868C193.866 675.868 70.3301 705.089 70.3301 741.134C70.3301 777.18 193.866 806.401 346.254 806.401Z" fill="url(#paint2_linear_1741_4827)"/>
<path d="M346.26 803.807C492.595 803.807 611.222 775.748 611.222 741.135C611.222 706.521 492.595 678.462 346.26 678.462C199.926 678.462 81.2988 706.521 81.2988 741.135C81.2988 775.748 199.926 803.807 346.26 803.807Z" fill="#D1FFFF"/>
<path d="M346.686 144.659C508.78 144.659 640.183 112.342 640.183 72.478C640.183 32.6137 508.78 0.297363 346.686 0.297363C184.592 0.297363 53.1895 32.6137 53.1895 72.478C53.1895 112.342 184.592 144.659 346.686 144.659Z" fill="white"/>
<path d="M346.691 135.583C496.168 135.583 617.343 107.33 617.343 72.478C617.343 37.6261 496.168 9.37305 346.691 9.37305C197.214 9.37305 76.0391 37.6261 76.0391 72.478C76.0391 107.33 197.214 135.583 346.691 135.583Z" fill="#D1FFFF"/>
<path style="mix-blend-mode:multiply" opacity="0.41" d="M564.059 705.444C516.218 689.139 436.516 678.462 346.257 678.462C199.924 678.462 81.2988 706.521 81.2988 741.116C81.2988 745.183 82.9586 749.177 86.0876 753.013L564.059 705.444Z" fill="url(#paint3_linear_1741_4827)"/>
<path style="mix-blend-mode:multiply" opacity="0.41" d="M346.691 9.37305C197.2 9.37305 76.0391 37.6261 76.0391 72.478C76.0391 79.5165 80.9891 86.2876 90.1088 92.608L586.459 43.188C541.198 23.0874 450.818 9.37305 346.691 9.37305Z" fill="url(#paint4_linear_1741_4827)"/>
<path d="M473.341 554.773C473.341 552.982 471.889 551.53 470.098 551.53C468.307 551.53 466.855 552.982 466.855 554.773V670.896C466.855 672.687 468.307 674.138 470.098 674.138C471.889 674.138 473.341 672.687 473.341 670.896V554.773Z" fill="white"/>
<path d="M469.02 140.243C469.02 138.386 467.515 136.88 465.659 136.88C463.802 136.88 462.297 138.386 462.297 140.243V469.981C462.297 471.838 463.802 473.344 465.659 473.344C467.515 473.344 469.02 471.838 469.02 469.981V140.243Z" fill="white"/>
<path d="M416.711 476.203V549.816L469.297 573.855V498.736L416.711 476.203Z" fill="url(#paint5_linear_1741_4827)"/>
<path d="M469.301 498.736L525.642 473.949L521.886 546.811L469.301 573.855V498.736Z" fill="url(#paint6_linear_1741_4827)"/>
<path d="M476.504 505.17L518.446 486.714L515.65 540.956L476.504 561.086V505.17Z" fill="url(#paint7_linear_1741_4827)"/>
<path d="M478.543 506.991L516.403 490.334L513.878 539.296L478.543 557.466V506.991Z" fill="white"/>
<path d="M416.711 476.202L470.799 455.918L525.638 473.949L469.297 498.736L416.711 476.202Z" fill="#B6FFFF"/>
<path d="M525.638 473.587L416.711 476.203L474.631 453.702L525.638 473.587Z" fill="url(#paint8_linear_1741_4827)"/>
<path d="M516.403 489.964L478.631 557.331V507.317L516.403 489.964Z" fill="url(#paint9_linear_1741_4827)"/>
<path d="M587.454 580.131H580.969V702.74H587.454V580.131Z" fill="white"/>
<path d="M541.203 549.27V608.861L583.771 628.32V567.513L541.203 549.27Z" fill="url(#paint10_linear_1741_4827)"/>
<path d="M546.453 559.013V603.915L578.528 618.578V572.76L546.453 559.013Z" fill="url(#paint11_linear_1741_4827)"/>
<path d="M550.393 566.325V600.202L574.59 611.26V576.698L550.393 566.325Z" fill="#B6FFFF"/>
<path d="M583.779 567.512L629.389 547.445L626.348 606.428L583.779 628.32V567.512Z" fill="url(#paint12_linear_1741_4827)"/>
<path d="M541.203 549.27L584.988 532.852L629.381 547.445L583.771 567.513L541.203 549.27Z" fill="#B6FFFF"/>
<path d="M574.589 576.728L550.092 600.203L574.589 611.433V576.728Z" fill="url(#paint13_linear_1741_4827)"/>
<path d="M541.203 549.27L629.711 547.126L584.794 532.833L541.203 549.27Z" fill="url(#paint14_linear_1741_4827)"/>
<path d="M588.321 113.541H581.598V549.416H588.321V113.541Z" fill="white"/>
<path d="M293.528 597.997C293.528 596.206 292.076 594.754 290.286 594.754C288.495 594.754 287.043 596.206 287.043 597.997V668.305C287.043 670.096 288.495 671.548 290.286 671.548C292.076 671.548 293.528 670.096 293.528 668.305V597.997Z" fill="white"/>
<path d="M236.898 519.423V593.04L289.484 617.076V541.96L236.898 519.423Z" fill="url(#paint15_linear_1741_4827)"/>
<path d="M240.688 526.45V589.471L285.703 610.048V545.745L240.688 526.45Z" fill="url(#paint16_linear_1741_4827)"/>
<path d="M289.48 541.96L345.822 517.169L342.066 590.035L289.48 617.076V541.96Z" fill="url(#paint17_linear_1741_4827)"/>
<path d="M236.898 519.423L290.986 499.143L345.825 517.169L289.484 541.96L236.898 519.423Z" fill="#B6FFFF"/>
<path d="M285.696 546.104L240.783 588.976L285.696 610.411V546.104Z" fill="url(#paint18_linear_1741_4827)"/>
<path d="M236.701 519.566L336.23 513.952L288.254 499.15L236.701 519.566Z" fill="url(#paint19_linear_1741_4827)"/>
<path d="M294.388 145.432C294.388 143.574 292.882 142.068 291.026 142.068C289.169 142.068 287.664 143.574 287.664 145.432V514.07C287.664 515.928 289.169 517.433 291.026 517.433C292.882 517.433 294.388 515.928 294.388 514.07V145.432Z" fill="white"/>
<path d="M158.66 579.193H152.801V687.538H158.66V579.193Z" fill="white"/>
<path d="M102.037 503.862V577.479L154.623 601.518V526.399L102.037 503.862Z" fill="url(#paint20_linear_1741_4827)"/>
<path d="M154.621 526.399L210.962 501.612L207.207 574.474L154.621 601.518V526.399Z" fill="url(#paint21_linear_1741_4827)"/>
<path d="M160.531 531.675L205.06 512.084L202.088 569.671L160.531 591.043V531.675Z" fill="url(#paint22_linear_1741_4827)"/>
<path d="M160.143 531.814L203.015 569.583L160.143 591.017V531.814Z" fill="url(#paint23_linear_1741_4827)"/>
<path d="M102.037 503.862L156.125 483.582L210.964 501.613L154.623 526.399L102.037 503.862Z" fill="#B6FFFF"/>
<path d="M101.955 504.254L156.061 483.838L211.182 501.191L101.955 504.254Z" fill="url(#paint24_linear_1741_4827)"/>
<path d="M159.524 128.141C159.524 126.284 158.019 124.778 156.162 124.778C154.306 124.778 152.801 126.284 152.801 128.141V496.779C152.801 498.637 154.306 500.143 156.162 500.143C158.019 500.143 159.524 498.637 159.524 496.779V128.141Z" fill="white"/>
<path d="M381.7 526.751C381.7 526.751 368.733 602.823 359.221 609.737C367.868 618.38 401.584 664.199 379.106 733.353C378.241 752.373 361.815 760.151 338.476 739.406C340.205 728.168 341.931 722.98 341.931 722.98C341.931 722.98 307.361 666.789 299.572 614.925C292.658 566.513 306.489 485.256 325.509 445.059C347.984 430.363 381.7 526.751 381.7 526.751Z" fill="url(#paint25_linear_1741_4827)"/>
<path d="M381.702 526.751C381.702 526.751 373.514 503.345 362.518 481.361L348.851 496.494C349.436 496.591 350.008 496.751 350.559 496.97C355.322 498.765 367.735 507.009 359.224 543.173C348.851 588.126 347.987 608.872 335.884 608.872C323.782 608.872 325.512 619.245 324.647 627.027C323.866 634.051 325.196 655.874 306.367 644.131C319.1 685.871 341.934 722.98 341.934 722.98C341.934 722.98 340.208 728.168 338.478 739.405C361.818 760.151 378.244 752.372 379.108 733.353C401.587 664.198 367.871 618.38 359.224 609.737C368.736 602.823 381.702 526.751 381.702 526.751Z" fill="url(#paint26_linear_1741_4827)"/>
<path d="M348.852 229.378C348.852 229.378 359.224 219.87 365.706 230.675C359.745 232.507 354.674 234.119 351.874 233.269C349.397 232.514 348.852 229.378 348.852 229.378Z" fill="url(#paint27_linear_1741_4827)"/>
<path d="M348.854 741.999L335.023 748.899L321.942 747.03C320.415 746.813 318.857 747.021 317.44 747.632C316.023 748.243 314.802 749.233 313.911 750.493L310.328 755.571C309.237 757.115 308.7 758.984 308.806 760.872C308.912 762.76 309.653 764.556 310.91 765.969C311.696 766.853 312.661 767.561 313.74 768.045C314.819 768.529 315.989 768.78 317.172 768.78H373.062L392.078 749.764L366.145 736.808L348.854 741.999Z" fill="url(#paint28_linear_1741_4827)"/>
<path d="M377.382 746.334L373.062 768.809L391.214 775.727L440.791 774.202C442.687 774.143 444.51 773.459 445.976 772.255C447.443 771.052 448.469 769.397 448.896 767.548C449.233 766.091 449.183 764.57 448.751 763.138C448.319 761.705 447.52 760.41 446.434 759.382L433.577 747.199L377.382 746.334Z" fill="url(#paint29_linear_1741_4827)"/>
<path d="M411.958 431.659C411.958 431.659 440.486 490.441 444.81 554.403C449.998 619.237 451.727 664.191 432.718 704.817C430.989 714.344 435.313 740.263 440.497 743.718C446.55 748.041 444.821 757.549 437.038 753.244C429.256 748.939 401.597 773.125 379.983 756.699C360.098 739.413 373.93 735.082 373.93 735.082C373.93 735.082 358.369 678.894 389.491 604.548C384.306 576.024 378.253 529.341 373.93 514.649C367.016 498.223 353.184 499.952 349.725 499.952C346.267 499.952 321.198 480.933 325.089 449.389C328.98 417.846 411.958 431.659 411.958 431.659Z" fill="url(#paint30_linear_1741_4827)"/>
<path d="M421.907 477.474C425.227 479.998 428.059 480.867 430.484 480.577C421.574 451.46 411.967 431.659 411.967 431.659C411.967 431.659 337.994 419.337 326.46 444.52C326.136 444.682 325.822 444.862 325.518 445.058C324.401 447.418 323.302 449.924 322.221 452.551C323.602 453.76 333.663 462.898 344.098 481.365C355.343 501.249 402.026 462.349 421.907 477.474Z" fill="url(#paint31_linear_1741_4827)"/>
<path d="M379.975 756.692C401.593 773.118 429.252 748.913 437.031 753.237C444.81 757.56 446.557 748.049 440.49 743.711C435.305 740.255 430.982 714.322 432.711 704.81C451.731 664.184 450.002 619.23 444.802 554.396C442.714 523.49 434.975 493.797 427.534 471.355C421.671 469.248 415.71 470.256 410.221 476.598C387.747 502.528 433.565 556.125 443.93 600.214C454.296 644.303 424.046 600.214 409.35 612.305C397.258 635.645 429.234 645.153 439.607 661.578C444.564 669.423 442.219 680.426 438.42 689.791C435.122 697.87 429.084 704.407 421.675 709.005C418.414 711.028 413.981 715.641 408.485 725.559C397.995 744.44 379.587 735.038 372.944 730.755C373.501 733.569 373.911 735.067 373.911 735.067C373.911 735.067 360.091 739.405 379.975 756.692Z" fill="url(#paint32_linear_1741_4827)"/>
<path d="M439.629 169.731C439.629 169.731 439.629 169.629 439.629 169.438C438.713 155.596 426.893 145.054 413.029 145.556C392.32 146.289 363.792 151.148 364.433 177.51C358.38 175.781 349.737 191.342 362.704 203.444L420.628 176.645L439.629 169.731Z" fill="url(#paint33_linear_1741_4827)"/>
<path d="M362.914 203.803L363.735 194.918C363.946 192.674 364.809 190.54 366.217 188.78C367.625 187.02 369.517 185.71 371.66 185.01L373.085 184.545C374.494 184.087 375.681 183.119 376.415 181.831C377.148 180.544 377.374 179.029 377.05 177.583C376.825 176.556 376.823 175.492 377.046 174.464C377.269 173.436 377.71 172.468 378.341 171.625C378.971 170.783 379.775 170.086 380.699 169.582C381.622 169.079 382.643 168.78 383.693 168.706L411.194 166.811C413.209 166.571 415.24 167.11 416.87 168.318C418.501 169.525 419.608 171.31 419.966 173.308L420.01 173.56L420.497 176.275L362.914 203.803Z" fill="url(#paint34_linear_1741_4827)"/>
<path d="M312.107 398.811C317.119 398.811 321.183 379.072 321.183 354.723C321.183 330.373 317.119 310.634 312.107 310.634C307.095 310.634 303.031 330.373 303.031 354.723C303.031 379.072 307.095 398.811 312.107 398.811Z" fill="url(#paint35_linear_1741_4827)"/>
<path d="M267.445 356.595C267.445 356.595 272.487 399.962 319.316 381.664C320.467 375.325 322.614 360.197 321.042 347.087C315.279 338.165 267.445 356.595 267.445 356.595Z" fill="url(#paint36_linear_1741_4827)"/>
<path d="M402.45 274.328L420.106 281.055C432.284 285.693 442.873 293.73 450.616 304.211L494.951 364.231L445.674 398.812C445.674 398.812 429.248 383.251 426.654 362.505C418.875 388.435 413.687 416.098 405.036 420.422C417.128 435.983 417.128 436.848 417.128 436.848C417.128 436.848 393.784 476.613 366.121 475.748C346.361 474.986 331.277 464.207 323.219 444.575C322.204 442.064 321.777 439.354 321.971 436.652C322.165 433.951 322.974 431.329 324.337 428.988L333.27 413.504L330.676 372.878L314.25 397.082L316.844 311.502L337.919 292.589C346.263 285.099 356.009 279.336 366.594 275.636L367.851 275.192L402.45 274.328Z" fill="url(#paint37_linear_1741_4827)"/>
<path d="M376.946 253.16C376.946 253.16 377.811 271.315 368.303 275.635C370.032 292.926 376.081 294.655 382.999 294.655C389.917 294.655 401.161 286.869 402.019 274.778C400.289 261.811 401.154 250.573 402.019 249.709C402.884 248.844 376.946 253.16 376.946 253.16Z" fill="url(#paint38_linear_1741_4827)"/>
<path d="M379.857 211.315C384.237 204.607 383.844 196.594 378.979 193.418C374.114 190.242 366.62 193.105 362.241 199.813C357.861 206.521 358.254 214.534 363.119 217.71C367.983 220.886 375.477 218.023 379.857 211.315Z" fill="url(#paint39_linear_1741_4827)"/>
<path d="M377.145 209.544C380.175 204.903 379.902 199.359 376.536 197.161C373.169 194.963 367.983 196.943 364.953 201.584C361.923 206.225 362.196 211.769 365.563 213.967C368.93 216.166 374.115 214.185 377.145 209.544Z" fill="url(#paint40_linear_1741_4827)"/>
<path d="M376.943 253.16C376.943 253.16 377.698 269.055 370.004 274.639C371.557 275.665 374.034 275.624 377.808 273.906C386.998 269.737 395.012 263.356 401.133 255.333C401.313 252.124 401.665 250.053 402.016 249.698C402.881 248.826 376.943 253.16 376.943 253.16Z" fill="url(#paint41_linear_1741_4827)"/>
<path d="M414.553 174.051C414.553 174.051 386.025 169.731 373.058 195.669C360.088 220.738 357.493 242.348 376.513 254.45C389.48 262.229 413.688 250.991 418.012 243.212C423.196 226.787 443.081 207.771 443.081 207.771C443.081 207.771 447.404 171.453 414.553 174.051Z" fill="url(#paint42_linear_1741_4827)"/>
<path d="M435.733 206.47L422.33 226.783L442.215 232.836L465.558 212.952L435.733 206.47Z" fill="url(#paint43_linear_1741_4827)"/>
<path d="M442.858 241.321C447.264 234.592 446.88 226.546 442 223.351C437.119 220.155 429.591 223.02 425.185 229.75C420.779 236.479 421.163 244.525 426.043 247.72C430.923 250.916 438.451 248.051 442.858 241.321Z" fill="url(#paint44_linear_1741_4827)"/>
<path d="M435.328 240.278C438.06 236.093 437.815 231.094 434.781 229.113C431.746 227.131 427.071 228.918 424.338 233.103C421.606 237.288 421.851 242.287 424.885 244.269C427.92 246.25 432.595 244.463 435.328 240.278Z" fill="url(#paint45_linear_1741_4827)"/>
<path d="M430.13 236.545C431.996 233.686 431.829 230.272 429.757 228.919C427.684 227.566 424.491 228.787 422.625 231.645C420.759 234.504 420.926 237.918 422.998 239.271C425.071 240.623 428.263 239.403 430.13 236.545Z" fill="url(#paint46_linear_1741_4827)"/>
<path d="M413.222 211.46C414.419 209.627 414.313 207.438 412.984 206.57C411.656 205.703 409.608 206.486 408.411 208.32C407.214 210.153 407.321 212.342 408.649 213.21C409.978 214.077 412.025 213.294 413.222 211.46Z" fill="#452770"/>
<path d="M376.519 218.14C376.519 218.14 373.705 208.28 387.144 201.912C388.076 201.472 389.104 201.271 390.133 201.329C391.163 201.387 392.161 201.7 393.039 202.242C393.916 202.784 394.644 203.536 395.157 204.431C395.669 205.325 395.951 206.334 395.974 207.364C396.059 211.622 394.359 217.155 389.493 222.464C380.842 218.14 376.519 218.14 376.519 218.14Z" fill="#FFEFDB"/>
<path d="M382.099 200.221C383.296 198.387 383.189 196.198 381.861 195.331C380.533 194.463 378.485 195.246 377.288 197.08C376.091 198.913 376.198 201.102 377.526 201.97C378.855 202.837 380.902 202.054 382.099 200.221Z" fill="#452770"/>
<path d="M376.515 218.14C376.515 218.14 374.786 206.903 382.568 210.361C388.621 213.817 389.482 222.453 389.482 222.453L376.515 218.14Z" fill="url(#paint47_linear_1741_4827)"/>
<path d="M373.924 229.377C373.924 229.377 378.247 231.972 379.112 234.566" stroke="black" stroke-width="2.71" stroke-miterlimit="10" stroke-linecap="round"/>
<path d="M410.662 193.503C409.885 193.95 420.554 191.671 421.111 203.341C421.083 203.535 421.132 203.733 421.249 203.891C421.367 204.049 421.542 204.153 421.736 204.182C421.93 204.211 422.128 204.161 422.286 204.044C422.443 203.927 422.548 203.752 422.577 203.557C424.838 197.457 422.485 189.685 410.669 192.639" fill="#452770"/>
<path d="M341.508 311.07C341.508 311.07 333.345 336.191 315.838 345.512L314.273 397.086L329.904 374.054C336.858 348.465 343.882 318.669 341.508 311.07Z" fill="url(#paint48_linear_1741_4827)"/>
<path d="M381.274 188.308C381.226 188.674 388.331 183.929 392.225 189.462C394.53 183.706 383.003 182.266 381.274 188.308Z" fill="#452770"/>
<path d="M474.234 386.975C487.778 377.16 496.942 366.697 494.701 363.605C492.46 360.513 479.664 365.963 466.12 375.778C452.576 385.593 443.412 396.057 445.653 399.149C447.893 402.241 460.69 396.79 474.234 386.975Z" fill="url(#paint49_linear_1741_4827)"/>
<path d="M342.793 276.057C342.793 276.057 329.826 290.753 328.097 308.044C328.097 328.789 331.555 362.505 308.216 372.013C285.737 381.521 258.939 375.469 270.176 335.707C282.267 295.942 310.806 298.536 330.691 263.955C344.522 246.668 342.793 276.057 342.793 276.057Z" fill="url(#paint50_linear_1741_4827)"/>
<path d="M339.568 259.418C338.919 260.067 329.407 271.737 329.407 271.737C329.407 271.737 332.866 287.726 325.087 295.509C317.309 303.291 332.434 342.188 320.98 359.478C319.042 362.41 318.452 363.875 318.782 364.271C330.367 350.212 328.096 324.865 328.096 308.043C329.825 290.753 342.792 276.057 342.792 276.057C342.792 276.057 343.558 263.071 340.004 259.444C339.762 259.389 339.615 259.389 339.568 259.418Z" fill="url(#paint51_linear_1741_4827)"/>
<path d="M328.101 268.278C328.101 268.278 345.391 233.701 348.85 229.377C355.768 233.701 369.599 269.143 342.797 276.057C326.372 275.192 328.101 268.278 328.101 268.278Z" fill="url(#paint52_linear_1741_4827)"/>
<path d="M353.159 240.615C353.159 240.615 346.241 230.242 357.479 229.377C367.005 229.377 367.855 232.836 369.152 234.998C370.449 237.16 353.159 240.615 353.159 240.615Z" fill="url(#paint53_linear_1741_4827)"/>
<path d="M439.636 463.646V470.776C439.636 477.309 437.187 483.605 432.773 488.422L431.37 489.953C431.006 490.348 430.531 490.623 430.008 490.743C429.485 490.862 428.938 490.821 428.438 490.624C428.102 490.489 427.797 490.288 427.541 490.031C427.286 489.774 427.085 489.468 426.953 489.131C426.82 488.794 426.757 488.433 426.769 488.071C426.781 487.709 426.866 487.354 427.021 487.026L432.736 474.883L433.601 461.917L439.636 463.646Z" fill="url(#paint54_linear_1741_4827)"/>
<path d="M428.382 459.322C429.247 461.052 425.788 475.748 425.788 475.748L419.625 482.471C419.212 482.922 418.9 483.457 418.713 484.04C418.526 484.622 418.467 485.239 418.54 485.846C418.614 486.454 418.818 487.038 419.139 487.559C419.459 488.08 419.889 488.526 420.398 488.865C421.095 489.33 421.913 489.577 422.751 489.576H423.117C423.921 489.576 424.709 489.348 425.389 488.917C426.068 488.486 426.611 487.871 426.953 487.143L432.724 474.883L433.589 461.916L428.382 459.322Z" fill="url(#paint55_linear_1741_4827)"/>
<path d="M424.065 452.405V463.646L414.341 475.737L411.274 478.118C410.498 478.724 409.958 479.582 409.749 480.544C409.539 481.505 409.673 482.51 410.127 483.384C410.429 483.96 410.861 484.459 411.389 484.841C411.917 485.222 412.526 485.476 413.168 485.582L414.033 485.725C414.724 485.84 415.433 485.781 416.096 485.554C416.759 485.326 417.354 484.936 417.829 484.42L424.838 476.774C425.467 476.086 425.927 475.26 426.179 474.363L430.55 458.871L424.065 451.521" fill="url(#paint56_linear_1741_4827)"/>
<path d="M419.745 451.54L413.692 463.631L403.781 472.216C402.93 472.955 402.37 473.974 402.203 475.089C402.036 476.204 402.272 477.342 402.869 478.298C403.47 479.268 404.402 479.987 405.492 480.324C406.582 480.66 407.757 480.592 408.801 480.13L411.732 478.833C412.457 478.507 413.087 478.003 413.564 477.368L423.853 463.855L424.069 452.397L419.745 451.54Z" fill="url(#paint57_linear_1741_4827)"/>
<path d="M420.176 173.619L424.045 177.059C426.586 179.317 428.336 182.33 429.039 185.655L434.872 209.925C434.872 209.925 443.226 199.263 442.933 198.109C442.64 196.955 442.643 176.209 441.779 175.345C440.914 174.48 430.684 171.6 430.684 171.6L420.176 173.619Z" fill="url(#paint58_linear_1741_4827)"/>
<path d="M420.176 173.619L430.981 178.382C430.981 178.382 425.793 214.689 446.542 219.877C457.779 220.742 465.562 212.959 465.562 212.959C465.562 212.959 466.87 195.266 459.219 178.151C458.201 175.887 456.579 173.947 454.53 172.544C452.482 171.141 450.087 170.329 447.608 170.197L439.635 169.731L420.176 173.619Z" fill="url(#paint59_linear_1741_4827)"/>
<path d="M355.119 244.733C355.119 244.733 350.579 237.167 356.632 234.577C363.546 231.983 373.919 233.28 372.625 244.733C369.166 248.614 355.119 244.733 355.119 244.733Z" fill="url(#paint60_linear_1741_4827)"/>
<path d="M356.202 242.561C356.202 242.561 372.196 238.897 376.516 250.123C378.245 259.65 364.424 267.846 357.928 258.122C352.744 249.907 356.202 242.561 356.202 242.561Z" fill="url(#paint61_linear_1741_4827)"/>
<path d="M354.906 243.634C356.269 242.854 357.738 242.275 359.266 241.916C360.801 241.53 362.381 241.351 363.964 241.384C365.555 241.417 367.13 241.714 368.624 242.264C370.11 242.804 371.472 243.638 372.629 244.715C371.307 243.935 369.891 243.327 368.415 242.905C367.695 242.697 366.96 242.54 366.217 242.436C365.469 242.322 364.713 242.26 363.956 242.249C362.436 242.214 360.916 242.322 359.417 242.571C357.89 242.82 356.383 243.175 354.906 243.634Z" fill="#FFA1A2"/>
<path d="M353.607 237.156C354.458 235.913 355.629 234.923 356.997 234.291C357.165 234.21 357.334 234.119 357.506 234.045L358.041 233.855C358.22 233.793 358.407 233.723 358.579 233.668L359.133 233.536L359.69 233.408C359.873 233.368 360.056 233.364 360.25 233.338L360.818 233.28C361.005 233.253 361.194 233.241 361.382 233.243L362.518 233.269C362.885 233.291 363.251 233.357 363.639 233.408L364.196 233.492C364.383 233.521 364.563 233.584 364.742 233.628C365.109 233.719 365.475 233.822 365.842 233.924C366.552 234.155 367.23 234.474 367.915 234.753C368.564 235.119 369.212 235.485 369.835 235.852C369.124 235.632 368.439 235.383 367.758 235.119L366.706 234.833C366.34 234.745 366.021 234.606 365.662 234.551C364.965 234.389 364.259 234.267 363.548 234.185C363.181 234.159 362.841 234.089 362.485 234.078H361.423C360.007 234.109 358.607 234.379 357.282 234.877C355.923 235.394 354.675 236.168 353.607 237.156Z" fill="#FFA1A2"/>
<path d="M351.877 232.404C352.245 231.249 352.974 230.243 353.958 229.535C354.2 229.346 354.458 229.181 354.731 229.041C354.998 228.892 355.276 228.763 355.563 228.656C355.846 228.537 356.141 228.449 356.442 228.392L356.889 228.282C357.036 228.249 357.19 228.242 357.34 228.223C358.541 228.095 359.755 228.179 360.927 228.473C361.495 228.645 362.063 228.839 362.612 229.03C363.162 229.22 363.682 229.528 364.195 229.81C363.613 229.707 363.048 229.568 362.488 229.444L360.799 229.143C360.513 229.121 360.231 229.096 359.952 229.066C359.673 229.025 359.392 229.008 359.11 229.015H358.274C357.996 229.015 357.721 229.07 357.446 229.096C356.349 229.214 355.288 229.56 354.332 230.11C353.352 230.682 352.514 231.466 351.877 232.404Z" fill="#FFA1A2"/>
<path d="M358.183 260.122C358.225 259.395 358.325 258.672 358.483 257.96C358.546 257.323 358.586 256.685 358.604 256.041C353.174 263.31 348.345 261.635 342.794 264.808C336.745 268.267 342.794 276.046 342.794 276.046C352.511 273.551 356.882 267.296 358.183 260.122Z" fill="url(#paint62_linear_1741_4827)"/>
<path d="M359.025 259.202C358.401 258.389 358.112 257.368 358.219 256.348C358.276 255.82 358.443 255.309 358.71 254.85C358.975 254.397 359.314 253.992 359.714 253.652C360.108 253.324 360.538 253.042 360.996 252.813C361.446 252.595 361.913 252.414 362.392 252.274C363.334 251.994 364.312 251.852 365.294 251.853C364.382 252.219 363.48 252.527 362.623 252.908C361.778 253.258 360.988 253.73 360.278 254.307C359.594 254.858 359.105 255.613 358.882 256.462C358.688 257.372 358.737 258.317 359.025 259.202Z" fill="#FFA1A2"/>
<path d="M376.517 250.123C376.293 249.545 376.026 248.985 375.718 248.448C376.245 253.717 373.618 255.813 368.738 257.905C361.82 260.499 362.11 252.86 362.11 252.86C360.226 252.929 358.911 255.538 358.127 258.389C364.686 267.673 378.231 259.539 376.517 250.123Z" fill="url(#paint63_linear_1741_4827)"/>
<path d="M330.26 373.31C328.53 373.31 331.124 292.915 351.877 297.238C372.63 301.562 332.858 343.038 362.25 341.323C391.643 339.609 335.448 373.31 330.26 373.31Z" fill="url(#paint64_linear_1741_4827)"/>
<path d="M487.33 353.92C476.737 356.734 462.825 364.245 446.978 359.493C421.041 351.711 427.958 302.437 427.958 302.437L427.383 301.287C422.484 300.997 407.209 385.427 408.938 387.156C409.407 387.622 412.859 390.567 417.677 394.609C420.513 384.885 423.353 373.548 426.661 362.52C429.255 383.265 445.681 398.826 445.681 398.826L494.965 364.231L487.33 353.92Z" fill="url(#paint65_linear_1741_4827)"/>
<path d="M436.166 295.941C418.875 296.806 419.74 335.707 403.314 347.809C386.889 359.911 345.39 361.64 364.41 397.947C383.43 434.253 386.889 456.728 361.816 451.54C338.051 446.627 386.526 477.426 412.258 429.842C410.533 427.537 408.202 424.485 405.04 420.422C413.687 416.098 418.875 388.435 426.658 362.505C426.654 362.505 415.417 301.126 436.166 295.941Z" fill="url(#paint66_linear_1741_4827)"/>
<path d="M436.166 295.941C418.875 296.806 419.74 335.707 403.314 347.809C386.889 359.911 345.39 361.64 364.41 397.947C383.43 434.253 386.889 456.728 361.816 451.54C338.051 446.627 386.526 477.426 412.258 429.842C410.533 427.537 408.202 424.485 405.04 420.422C413.687 416.098 418.875 388.435 426.658 362.505C426.654 362.505 415.417 301.126 436.166 295.941Z" fill="url(#paint67_linear_1741_4827)"/>
<path d="M474.234 386.975C487.778 377.16 496.942 366.697 494.701 363.605C492.46 360.513 479.664 365.963 466.12 375.778C452.576 385.593 443.412 396.057 445.653 399.149C447.893 402.241 460.69 396.79 474.234 386.975Z" fill="url(#paint68_linear_1741_4827)"/>
<path d="M456.489 383.034C456.489 383.034 462.109 403.131 445.684 410.913C429.258 418.696 426.664 431.659 426.664 431.659C426.664 431.659 425.799 458.457 437.901 462.781C444.973 460.421 453.47 457.351 464.692 457.461C468.79 457.515 472.871 456.921 476.784 455.702C487.988 452.163 501.772 442.098 498.423 406.605C492.37 376.347 481.133 365.975 481.133 365.975C481.133 365.975 463.817 375.904 456.489 383.034Z" fill="url(#paint69_linear_1741_4827)"/>
<path d="M451.779 406.568C471.7 397.903 479.197 377.622 481.56 366.411C481.278 366.11 481.121 365.96 481.121 365.96C481.121 365.96 463.816 375.904 456.488 383.034C456.488 383.034 460.518 397.43 451.779 406.568Z" fill="url(#paint70_linear_1741_4827)"/>
<path d="M427.089 430.362C427.089 430.362 416.284 445.49 418.014 455.863C419.743 466.236 435.736 491.737 442.218 460.187C437.03 441.167 427.089 430.362 427.089 430.362Z" fill="url(#paint71_linear_1741_4827)"/>
<path d="M426.657 430.794C423.04 428.728 418.909 427.736 414.748 427.936C410.588 428.135 406.57 429.517 403.167 431.919L402.233 432.579C401.529 433.075 400.989 433.767 400.678 434.57C400.368 435.373 400.302 436.249 400.489 437.089C400.625 437.702 400.892 438.278 401.271 438.778C401.65 439.278 402.132 439.69 402.685 439.987C403.238 440.283 403.849 440.457 404.475 440.497C405.101 440.536 405.729 440.44 406.315 440.215L412.825 437.712L418.878 449.803L426.657 430.794Z" fill="url(#paint72_linear_1741_4827)"/>
<path d="M421.902 465.372C421.902 465.372 416.717 475.748 410.016 479.635" stroke="#FFA1A2" stroke-width="2.36" stroke-miterlimit="10" stroke-linecap="round"/>
<path d="M426.872 472.073C426.872 472.073 425.773 480.068 418.877 483.527" stroke="#FFA1A2" stroke-width="2.36" stroke-miterlimit="10" stroke-linecap="round"/>
<path d="M431.848 475.748C431.848 475.748 430.984 483.527 426.66 486.986" stroke="#FFA1A2" stroke-width="2.36" stroke-miterlimit="10" stroke-linecap="round"/>
<path d="M498.87 414.226C492.136 436.338 481.059 439.896 465.125 435.551C446.105 430.362 428.814 435.551 428.814 435.551C428.814 435.551 434.497 448.979 440.638 461.862C447.149 459.7 454.873 457.366 464.681 457.465C468.779 457.519 472.86 456.925 476.773 455.706C487.123 452.431 499.669 443.571 498.87 414.226Z" fill="url(#paint73_linear_1741_4827)"/>
<path d="M405.479 419.989C404.382 421.889 403.094 423.673 401.636 425.313C400.229 426.934 398.726 428.47 397.136 429.911C395.551 431.36 393.881 432.713 392.135 433.964C390.362 435.251 388.463 436.356 386.467 437.261C387.562 435.358 388.849 433.572 390.307 431.93C393.139 428.693 396.335 425.794 399.833 423.291C401.6 422.004 403.491 420.898 405.479 419.989Z" fill="#FF776E"/>
<path d="M333.292 413.504C334.058 416.153 334.669 418.726 335.314 421.276C335.959 423.826 336.589 426.336 337.33 428.798C338.045 431.253 338.902 433.666 339.894 436.023C340.404 437.192 340.942 438.357 341.572 439.493C342.203 440.629 342.899 441.743 343.672 442.897C342.411 442.296 341.252 441.502 340.235 440.545C339.214 439.579 338.302 438.504 337.516 437.339C335.97 435.014 334.792 432.464 334.025 429.78C333.25 427.141 332.785 424.421 332.64 421.675C332.566 420.309 332.577 418.94 332.673 417.575C332.752 416.202 332.959 414.839 333.292 413.504Z" fill="#FFFCEF"/>
<path d="M73.0811 233.269C73.0811 231.12 71.339 229.377 69.19 229.377C67.041 229.377 65.2988 231.12 65.2988 233.269V759.718C65.2988 761.867 67.041 763.61 69.19 763.61C71.339 763.61 73.0811 761.867 73.0811 759.718V233.269Z" fill="white"/>
<path d="M0.0253906 139.042V232.36L67.6371 263.266V166.687L0.0253906 139.042Z" fill="url(#paint74_linear_1741_4827)"/>
<path d="M67.6367 168.416L140.074 136.543L135.245 230.228L67.6367 264.995V168.416Z" fill="url(#paint75_linear_1741_4827)"/>
<path d="M71.957 172.278L135.754 144.208L131.501 226.71L71.957 257.33V172.278Z" fill="url(#paint76_linear_1741_4827)"/>
<path d="M74.5488 174.594L133.158 148.81L129.249 224.603L74.5488 252.732V174.594Z" fill="url(#paint77_linear_1741_4827)"/>
<path d="M100.317 184.454C100.648 183.434 101.101 182.459 101.666 181.548C103.377 178.818 105.74 176.763 109.122 176.763C110.914 176.773 112.655 177.363 114.083 178.445L121.045 175.378C117.941 170.743 113.042 167.75 107.528 167.75C98.141 167.75 90.5272 176.426 90.5272 187.125C90.5272 187.517 90.5272 187.909 90.5602 188.297H90.5272V196.831L81.2793 201.081V212.945L90.5272 208.182V236.515L99.2256 231.752V210.702C99.2256 209.889 99.1486 207.181 99.1156 203.741L114.138 196.047V185.993L99.2695 192.826C99.4381 189.308 99.7495 186.179 100.317 184.454Z" fill="white"/>
<path d="M0.0253906 139.441L69.568 113.364L140.074 136.543L67.6371 168.416L0.0253906 139.441Z" fill="#B6FFFF"/>
<path d="M140.074 136.448L0.0253906 139.042L69.1869 113.108L140.074 136.448Z" fill="url(#paint78_linear_1741_4827)"/>
<path d="M73.5147 52.1646C73.5147 50.0156 71.7726 48.2734 69.6236 48.2734C67.4746 48.2734 65.7324 50.0156 65.7324 52.1646V132.556C65.7324 134.705 67.4746 136.447 69.6236 136.447C71.7726 136.447 73.5147 134.705 73.5147 132.556V52.1646Z" fill="white"/>
<path d="M205.351 461.484C205.351 459.335 203.609 457.593 201.46 457.593C199.31 457.593 197.568 459.335 197.568 461.484V799.484C197.568 801.633 199.31 803.375 201.46 803.375C203.609 803.375 205.351 801.633 205.351 799.484V461.484Z" fill="white"/>
<path d="M132.301 362.472V457.12L199.909 488.026V391.443L132.301 362.472Z" fill="url(#paint79_linear_1741_4827)"/>
<path d="M199.896 391.443L272.337 359.574L267.508 453.255L199.896 488.026V391.443Z" fill="url(#paint80_linear_1741_4827)"/>
<path d="M204.229 395.305L268.022 367.239L263.768 449.741L204.229 480.361V395.305Z" fill="url(#paint81_linear_1741_4827)"/>
<path d="M208.049 398.72L264.2 374.014L260.459 446.634L208.049 473.586V398.72Z" fill="url(#paint82_linear_1741_4827)"/>
<path d="M132.301 362.472L201.84 336.396L272.35 359.574L199.909 391.443L132.301 362.472Z" fill="#B6FFFF"/>
<path d="M225.989 416.142L218.796 419.535L217.957 448.48L225.149 445.084L225.989 416.138V416.142ZM226.267 406.495L219.075 409.888L218.884 416.483L226.076 413.082L226.267 406.487" fill="white"/>
<path d="M247.443 405.484C246.437 405.64 245.461 405.949 244.548 406.4C241.573 407.807 239.356 410.193 237.898 413.559L237.792 413.607L237.88 410.529L231.171 413.695L230.332 442.622L237.524 439.229L237.982 423.503C238.037 421.572 238.349 420 238.913 418.799C239.603 417.329 240.8 416.158 242.284 415.501C242.704 415.29 243.154 415.144 243.618 415.069C243.945 414.997 244.286 415.031 244.592 415.167C244.898 415.303 245.152 415.533 245.318 415.823C245.743 416.523 245.93 417.82 245.875 419.704L245.417 435.499L252.609 432.106L253.14 413.786C253.213 412.248 253.082 410.707 252.752 409.203C252.353 407.631 251.653 406.572 250.634 406.011C249.657 405.49 248.536 405.304 247.443 405.484Z" fill="white"/>
<path d="M132.301 362.069L272.35 359.478L201.459 336.139L132.301 362.069Z" fill="url(#paint83_linear_1741_4827)"/>
<path d="M206.212 14.1292C206.212 11.7414 204.277 9.80566 201.89 9.80566C199.503 9.80566 197.568 11.7414 197.568 14.1292V355.584C197.568 357.972 199.503 359.908 201.89 359.908C204.277 359.908 206.212 357.972 206.212 355.584V14.1292Z" fill="white"/>
<path d="M639.325 408.752C639.325 406.603 637.583 404.861 635.434 404.861C633.285 404.861 631.543 406.603 631.543 408.752V738.105C631.543 740.254 633.285 741.996 635.434 741.996C637.583 741.996 639.325 740.254 639.325 738.105V408.752Z" fill="white"/>
<path d="M573.623 309.773V394.488L634.138 422.151V335.707L573.623 309.773Z" fill="url(#paint84_linear_1741_4827)"/>
<path d="M577.516 316.994V390.82L630.248 414.925V339.594L577.516 316.994Z" fill="url(#paint85_linear_1741_4827)"/>
<path d="M580.102 321.812V388.376L627.649 410.111V342.188L580.102 321.812Z" fill="url(#paint86_linear_1741_4827)"/>
<path d="M586.16 344.086V377.997C586.16 379.391 586.56 380.756 587.314 381.929C588.067 383.102 589.142 384.034 590.41 384.614L611.295 394.162C612.404 394.669 613.622 394.89 614.838 394.803C616.054 394.717 617.228 394.326 618.254 393.667C619.28 393.009 620.123 392.103 620.708 391.033C621.292 389.963 621.598 388.764 621.598 387.545V353.037C621.599 351.615 621.183 350.224 620.401 349.036C619.62 347.847 618.507 346.914 617.202 346.351L596.317 337.396C595.209 336.919 594 336.724 592.799 336.83C591.597 336.936 590.441 337.338 589.434 338.002C588.427 338.665 587.6 339.569 587.029 340.631C586.457 341.693 586.159 342.88 586.16 344.086Z" fill="url(#paint87_linear_1741_4827)"/>
<path d="M634.137 335.707L698.975 307.179L694.651 391.029L634.137 422.151V335.707Z" fill="url(#paint88_linear_1741_4827)"/>
<path d="M573.623 309.773L635.867 286.434L698.976 307.179L634.138 335.707L573.623 309.773Z" fill="#B6FFFF"/>
<path d="M604.092 383.686C609.313 383.262 613.06 376.923 612.46 369.527C611.859 362.13 607.14 356.478 601.918 356.902C596.696 357.326 592.95 363.665 593.55 371.061C594.15 378.457 598.87 384.11 604.092 383.686Z" fill="white"/>
<path d="M614.589 359.11C616.321 358.991 617.588 356.904 617.42 354.45C617.251 351.995 615.71 350.101 613.978 350.22C612.246 350.339 610.979 352.426 611.147 354.88C611.316 357.335 612.857 359.229 614.589 359.11Z" fill="white"/>
<path d="M573.193 309.341L698.546 306.746L633.708 285.136L573.193 309.341Z" fill="url(#paint89_linear_1741_4827)"/>
<path d="M639.761 66.8614C639.761 64.7123 638.019 62.9702 635.87 62.9702C633.721 62.9702 631.979 64.7123 631.979 66.8614V306.311C631.979 308.46 633.721 310.202 635.87 310.202C638.019 310.202 639.761 308.46 639.761 306.311V66.8614Z" fill="white"/>
<path d="M541.638 300.261H533.855V795.592H541.638V300.261Z" fill="white"/>
<path d="M475.932 201.714V286.433L536.446 314.093V227.648L475.932 201.714Z" fill="url(#paint90_linear_1741_4827)"/>
<path d="M480.818 210.793V281.824L531.557 305.017V232.536L480.818 210.793Z" fill="url(#paint91_linear_1741_4827)"/>
<path d="M482.758 239.12V269.531C482.758 272.655 483.656 275.714 485.345 278.342C487.034 280.97 489.442 283.058 492.284 284.356L506.574 290.878C517.372 295.813 529.657 287.924 529.657 276.057V245.217C529.656 242.026 528.718 238.905 526.959 236.243C525.201 233.58 522.699 231.492 519.764 230.239L505.475 224.12C502.994 223.057 500.289 222.626 497.601 222.867C494.913 223.108 492.327 224.013 490.075 225.5C487.823 226.987 485.975 229.01 484.698 231.387C483.421 233.764 482.754 236.422 482.758 239.12Z" fill="#B6FFFF"/>
<path d="M484.143 240.215V268.839C484.143 271.777 484.988 274.653 486.576 277.125C488.164 279.598 490.429 281.562 493.101 282.784L506.53 288.921C516.683 293.563 528.235 286.14 528.235 274.976V245.972C528.235 242.971 527.354 240.037 525.703 237.532C524.051 235.027 521.701 233.062 518.943 231.88L505.515 226.124C503.183 225.125 500.639 224.72 498.112 224.946C495.585 225.171 493.154 226.02 491.036 227.417C488.918 228.814 487.179 230.714 485.976 232.948C484.773 235.181 484.143 237.678 484.143 240.215Z" fill="url(#paint92_linear_1741_4827)"/>
<path d="M536.443 227.648L601.281 199.12L596.958 282.974L536.443 314.093V227.648Z" fill="url(#paint93_linear_1741_4827)"/>
<path d="M475.932 201.714L538.176 178.375L601.284 199.12L536.446 227.648L475.932 201.714Z" fill="#B6FFFF"/>
<path d="M499.279 245.833V267.12C499.277 267.44 499.362 267.755 499.525 268.03C499.689 268.305 499.924 268.531 500.207 268.681C500.489 268.832 500.807 268.903 501.127 268.886C501.446 268.87 501.755 268.766 502.02 268.586L515.577 259.393C515.798 259.243 515.982 259.045 516.114 258.813C516.247 258.582 516.326 258.323 516.343 258.056C516.361 257.79 516.318 257.523 516.216 257.276C516.115 257.029 515.959 256.808 515.76 256.63L502.203 244.539C501.952 244.314 501.641 244.167 501.307 244.115C500.974 244.062 500.633 244.107 500.324 244.243C500.016 244.38 499.753 244.602 499.568 244.884C499.383 245.166 499.282 245.495 499.279 245.833Z" fill="white"/>
<path d="M475.508 201.282L600.86 198.688L531.703 176.213L475.508 201.282Z" fill="url(#paint94_linear_1741_4827)"/>
<path d="M539.476 21.0464C539.476 18.8974 537.734 17.1553 535.585 17.1553C533.436 17.1553 531.693 18.8974 531.693 21.0464V200.85C531.693 202.999 533.436 204.741 535.585 204.741C537.734 204.741 539.476 202.999 539.476 200.85V21.0464Z" fill="white"/>
<defs>
<linearGradient id="paint0_linear_1741_4827" x1="353.083" y1="697.644" x2="353.083" y2="1060.16" gradientUnits="userSpaceOnUse">
<stop stop-color="#001B68"/>
<stop offset="0.05" stop-color="#001B68" stop-opacity="0.89"/>
<stop offset="0.2" stop-color="#021C69" stop-opacity="0.57"/>
<stop offset="0.36" stop-color="#031D6A" stop-opacity="0.32"/>
<stop offset="0.53" stop-color="#031E6B" stop-opacity="0.14"/>
<stop offset="0.7" stop-color="#041E6B" stop-opacity="0.03"/>
<stop offset="0.89" stop-color="#041E6B" stop-opacity="0"/>
</linearGradient>
<linearGradient id="paint1_linear_1741_4827" x1="351.447" y1="15.4262" x2="351.447" y2="897.25" gradientUnits="userSpaceOnUse">
<stop stop-color="#A7FFFF"/>
<stop offset="0.11" stop-color="#ABFEFF" stop-opacity="0.69"/>
<stop offset="0.23" stop-color="#AFFEFF" stop-opacity="0.41"/>
<stop offset="0.32" stop-color="#B2FDFF" stop-opacity="0.21"/>
<stop offset="0.39" stop-color="#B3FDFF" stop-opacity="0.08"/>
<stop offset="0.43" stop-color="#B4FDFF" stop-opacity="0.03"/>
<stop offset="0.48" stop-color="#B3FDFF" stop-opacity="0.09"/>
<stop offset="0.59" stop-color="#B1FDFF" stop-opacity="0.23"/>
<stop offset="0.73" stop-color="#AEFEFF" stop-opacity="0.47"/>
<stop offset="0.9" stop-color="#AAFFFF" stop-opacity="0.79"/>
<stop offset="0.99" stop-color="#A7FFFF" stop-opacity="0.98"/>
</linearGradient>
<linearGradient id="paint2_linear_1741_4827" x1="70.3301" y1="741.134" x2="622.179" y2="741.134" gradientUnits="userSpaceOnUse">
<stop stop-color="#75CAFF"/>
<stop offset="0.08" stop-color="#7AD1FF"/>
<stop offset="0.36" stop-color="#86E3FF"/>
<stop offset="0.66" stop-color="#8EEDFF"/>
<stop offset="1" stop-color="#90F1FF"/>
</linearGradient>
<linearGradient id="paint3_linear_1741_4827" x1="776365" y1="180535" x2="1.41244e+06" y2="180535" gradientUnits="userSpaceOnUse">
<stop stop-color="#75CAFF"/>
<stop offset="0.08" stop-color="#7AD1FF"/>
<stop offset="0.36" stop-color="#86E3FF"/>
<stop offset="0.66" stop-color="#8EEDFF"/>
<stop offset="1" stop-color="#90F1FF"/>
</linearGradient>
<linearGradient id="paint4_linear_1741_4827" x1="813507" y1="49803" x2="1.52456e+06" y2="49803" gradientUnits="userSpaceOnUse">
<stop stop-color="#75CAFF"/>
<stop offset="0.08" stop-color="#7AD1FF"/>
<stop offset="0.36" stop-color="#86E3FF"/>
<stop offset="0.66" stop-color="#8EEDFF"/>
<stop offset="1" stop-color="#90F1FF"/>
</linearGradient>
<linearGradient id="paint5_linear_1741_4827" x1="142176" y1="176142" x2="122244" y2="186080" gradientUnits="userSpaceOnUse">
<stop stop-color="#75CAFF"/>
<stop offset="0.08" stop-color="#7AD1FF"/>
<stop offset="0.36" stop-color="#86E3FF"/>
<stop offset="0.66" stop-color="#8EEDFF"/>
<stop offset="1" stop-color="#90F1FF"/>
</linearGradient>
<linearGradient id="paint6_linear_1741_4827" x1="465.875" y1="584.371" x2="544.695" y2="420.997" gradientUnits="userSpaceOnUse">
<stop stop-color="#75CAFF"/>
<stop offset="1" stop-color="#6383CF"/>
</linearGradient>
<linearGradient id="paint7_linear_1741_4827" x1="473.954" y1="568.916" x2="532.629" y2="447.297" gradientUnits="userSpaceOnUse">
<stop stop-color="#5E75C0"/>
<stop offset="0.1" stop-color="#5169B4"/>
<stop offset="0.48" stop-color="#26408C"/>
<stop offset="0.77" stop-color="#0C2673"/>
<stop offset="0.95" stop-color="#021D6A"/>
<stop offset="1" stop-color="#001B68"/>
</linearGradient>
<linearGradient id="paint8_linear_1741_4827" x1="275288" y1="39335.6" x2="307671" y2="39335.6" gradientUnits="userSpaceOnUse">
<stop stop-color="#75CAFF"/>
<stop offset="0.08" stop-color="#7AD1FF"/>
<stop offset="0.36" stop-color="#86E3FF"/>
<stop offset="0.66" stop-color="#8EEDFF"/>
<stop offset="1" stop-color="#90F1FF"/>
</linearGradient>
<linearGradient id="paint9_linear_1741_4827" x1="102177" y1="127693" x2="106071" y2="127693" gradientUnits="userSpaceOnUse">
<stop stop-color="#75CAFF"/>
<stop offset="0.08" stop-color="#7AD1FF"/>
<stop offset="0.36" stop-color="#86E3FF"/>
<stop offset="0.66" stop-color="#8EEDFF"/>
<stop offset="1" stop-color="#90F1FF"/>
</linearGradient>
<linearGradient id="paint10_linear_1741_4827" x1="122423" y1="163870" x2="127369" y2="163870" gradientUnits="userSpaceOnUse">
<stop stop-color="#75CAFF"/>
<stop offset="0.08" stop-color="#7AD1FF"/>
<stop offset="0.36" stop-color="#86E3FF"/>
<stop offset="0.66" stop-color="#8EEDFF"/>
<stop offset="1" stop-color="#90F1FF"/>
</linearGradient>
<linearGradient id="paint11_linear_1741_4827" x1="92842.1" y1="123623" x2="95649.9" y2="123623" gradientUnits="userSpaceOnUse">
<stop stop-color="#5E75C0"/>
<stop offset="0.1" stop-color="#5169B4"/>
<stop offset="0.48" stop-color="#26408C"/>
<stop offset="0.77" stop-color="#0C2673"/>
<stop offset="0.95" stop-color="#021D6A"/>
<stop offset="1" stop-color="#001B68"/>
</linearGradient>
<linearGradient id="paint12_linear_1741_4827" x1="142655" y1="173367" x2="130082" y2="166277" gradientUnits="userSpaceOnUse">
<stop stop-color="#75CAFF"/>
<stop offset="1" stop-color="#6383CF"/>
</linearGradient>
<linearGradient id="paint13_linear_1741_4827" x1="71285.6" y1="72779.9" x2="72923.5" y2="72779.9" gradientUnits="userSpaceOnUse">
<stop stop-color="#75CAFF"/>
<stop offset="0.08" stop-color="#7AD1FF"/>
<stop offset="0.36" stop-color="#86E3FF"/>
<stop offset="0.66" stop-color="#8EEDFF"/>
<stop offset="1" stop-color="#90F1FF"/>
</linearGradient>
<linearGradient id="paint14_linear_1741_4827" x1="253957" y1="32349.8" x2="275336" y2="32349.8" gradientUnits="userSpaceOnUse">
<stop stop-color="#75CAFF"/>
<stop offset="0.08" stop-color="#7AD1FF"/>
<stop offset="0.36" stop-color="#86E3FF"/>
<stop offset="0.66" stop-color="#8EEDFF"/>
<stop offset="1" stop-color="#90F1FF"/>
</linearGradient>
<linearGradient id="paint15_linear_1741_4827" x1="294.328" y1="615.617" x2="223.012" y2="505.401" gradientUnits="userSpaceOnUse">
<stop stop-color="#75CAFF"/>
<stop offset="0.07" stop-color="#72C0F8"/>
<stop offset="0.29" stop-color="#6CA5E6"/>
<stop offset="0.52" stop-color="#6792D9"/>
<stop offset="0.75" stop-color="#6487D2"/>
<stop offset="1" stop-color="#6383CF"/>
</linearGradient>
<linearGradient id="paint16_linear_1741_4827" x1="95401.1" y1="180306" x2="92263.4" y2="154963" gradientUnits="userSpaceOnUse">
<stop stop-color="#5E75C0"/>
<stop offset="0.1" stop-color="#5169B4"/>
<stop offset="0.48" stop-color="#26408C"/>
<stop offset="0.77" stop-color="#0C2673"/>
<stop offset="0.95" stop-color="#021D6A"/>
<stop offset="1" stop-color="#001B68"/>
</linearGradient>
<linearGradient id="paint17_linear_1741_4827" x1="122899" y1="201018" x2="131563" y2="201018" gradientUnits="userSpaceOnUse">
<stop stop-color="#75CAFF"/>
<stop offset="1" stop-color="#6383CF"/>
</linearGradient>
<linearGradient id="paint18_linear_1741_4827" x1="240.783" y1="578.259" x2="285.696" y2="578.259" gradientUnits="userSpaceOnUse">
<stop stop-color="#021D6A"/>
<stop offset="1" stop-color="#001B68"/>
</linearGradient>
<linearGradient id="paint19_linear_1741_4827" x1="202493" y1="38252.6" x2="229529" y2="38252.6" gradientUnits="userSpaceOnUse">
<stop stop-color="#75CAFF"/>
<stop offset="0.08" stop-color="#7AD1FF"/>
<stop offset="0.36" stop-color="#86E3FF"/>
<stop offset="0.66" stop-color="#8EEDFF"/>
<stop offset="1" stop-color="#90F1FF"/>
</linearGradient>
<linearGradient id="paint20_linear_1741_4827" x1="88443.8" y1="205003" x2="107733" y2="181694" gradientUnits="userSpaceOnUse">
<stop stop-color="#75CAFF"/>
<stop offset="0.07" stop-color="#72C0F8"/>
<stop offset="0.29" stop-color="#6CA5E6"/>
<stop offset="0.52" stop-color="#6792D9"/>
<stop offset="0.75" stop-color="#6487D2"/>
<stop offset="1" stop-color="#6383CF"/>
</linearGradient>
<linearGradient id="paint21_linear_1741_4827" x1="102027" y1="196759" x2="110690" y2="196759" gradientUnits="userSpaceOnUse">
<stop stop-color="#75CAFF"/>
<stop offset="1" stop-color="#6383CF"/>
</linearGradient>
<linearGradient id="paint22_linear_1741_4827" x1="87664.4" y1="163513" x2="72248.5" y2="152666" gradientUnits="userSpaceOnUse">
<stop stop-color="#5E75C0"/>
<stop offset="0.1" stop-color="#5169B4"/>
<stop offset="0.48" stop-color="#26408C"/>
<stop offset="0.77" stop-color="#0C2673"/>
<stop offset="0.95" stop-color="#021D6A"/>
<stop offset="1" stop-color="#001B68"/>
</linearGradient>
<linearGradient id="paint23_linear_1741_4827" x1="78324.7" y1="118423" x2="83341.2" y2="118423" gradientUnits="userSpaceOnUse">
<stop stop-color="#021D6A"/>
<stop offset="1" stop-color="#001B68"/>
</linearGradient>
<linearGradient id="paint24_linear_1741_4827" x1="181898" y1="37384.2" x2="214459" y2="37384.2" gradientUnits="userSpaceOnUse">
<stop stop-color="#75CAFF"/>
<stop offset="0.08" stop-color="#7AD1FF"/>
<stop offset="0.36" stop-color="#86E3FF"/>
<stop offset="0.66" stop-color="#8EEDFF"/>
<stop offset="1" stop-color="#90F1FF"/>
</linearGradient>
<linearGradient id="paint25_linear_1741_4827" x1="376.955" y1="740.036" x2="313.898" y2="447.682" gradientUnits="userSpaceOnUse">
<stop offset="0.01" stop-color="#6663B8"/>
<stop offset="0.36" stop-color="#756EBD"/>
<stop offset="1" stop-color="#9A89CA"/>
</linearGradient>
<linearGradient id="paint26_linear_1741_4827" x1="341.941" y1="458.168" x2="348.855" y2="769.373" gradientUnits="userSpaceOnUse">
<stop stop-color="#4F45B8" stop-opacity="0"/>
<stop offset="0.16" stop-color="#4F45B8" stop-opacity="0.02"/>
<stop offset="0.31" stop-color="#4F45B8" stop-opacity="0.08"/>
<stop offset="0.45" stop-color="#4F45B8" stop-opacity="0.18"/>
<stop offset="0.59" stop-color="#4F45B8" stop-opacity="0.33"/>
<stop offset="0.73" stop-color="#4F45B8" stop-opacity="0.52"/>
<stop offset="0.87" stop-color="#4F45B8" stop-opacity="0.74"/>
<stop offset="1" stop-color="#4F45B8"/>
</linearGradient>
<linearGradient id="paint27_linear_1741_4827" x1="348.852" y1="229.506" x2="365.71" y2="229.506" gradientUnits="userSpaceOnUse">
<stop stop-color="#FFD8C5"/>
<stop offset="0.15" stop-color="#FFCFC0"/>
<stop offset="0.69" stop-color="#FFB3B3"/>
<stop offset="1" stop-color="#FFA9AE"/>
</linearGradient>
<linearGradient id="paint28_linear_1741_4827" x1="308.792" y1="752.805" x2="392.078" y2="752.805" gradientUnits="userSpaceOnUse">
<stop stop-color="#5E75C0"/>
<stop offset="0.11" stop-color="#5169B4"/>
<stop offset="0.5" stop-color="#26408C"/>
<stop offset="0.82" stop-color="#0C2673"/>
<stop offset="1" stop-color="#021D6A"/>
</linearGradient>
<linearGradient id="paint29_linear_1741_4827" x1="373.062" y1="761.016" x2="449.116" y2="761.016" gradientUnits="userSpaceOnUse">
<stop stop-color="#5E75C0"/>
<stop offset="0.21" stop-color="#5A71BC"/>
<stop offset="0.42" stop-color="#4E66B1"/>
<stop offset="0.63" stop-color="#3A529E"/>
<stop offset="0.84" stop-color="#1D3784"/>
<stop offset="1" stop-color="#021D6A"/>
</linearGradient>
<linearGradient id="paint30_linear_1741_4827" x1="354.291" y1="749.379" x2="434.547" y2="353.843" gradientUnits="userSpaceOnUse">
<stop offset="0.01" stop-color="#6663B8"/>
<stop offset="0.17" stop-color="#756EBD"/>
<stop offset="0.47" stop-color="#9B89CA"/>
<stop offset="0.83" stop-color="#D29BCA"/>
<stop offset="1" stop-color="#E7A2CA"/>
</linearGradient>
<linearGradient id="paint31_linear_1741_4827" x1="385.293" y1="494.724" x2="358.439" y2="410.031" gradientUnits="userSpaceOnUse">
<stop stop-color="#4F45B8" stop-opacity="0"/>
<stop offset="0.05" stop-color="#4F45B8" stop-opacity="0.09"/>
<stop offset="0.23" stop-color="#4F45B8" stop-opacity="0.36"/>
<stop offset="0.4" stop-color="#4F45B8" stop-opacity="0.59"/>
<stop offset="0.56" stop-color="#4F45B8" stop-opacity="0.77"/>
<stop offset="0.72" stop-color="#4F45B8" stop-opacity="0.9"/>
<stop offset="0.87" stop-color="#4F45B8" stop-opacity="0.97"/>
<stop offset="1" stop-color="#4F45B8"/>
</linearGradient>
<linearGradient id="paint32_linear_1741_4827" x1="210991" y1="471485" x2="53731.9" y2="661677" gradientUnits="userSpaceOnUse">
<stop stop-color="#4F45B8" stop-opacity="0"/>
<stop offset="0.16" stop-color="#4F45B8" stop-opacity="0.02"/>
<stop offset="0.31" stop-color="#4F45B8" stop-opacity="0.08"/>
<stop offset="0.45" stop-color="#4F45B8" stop-opacity="0.18"/>
<stop offset="0.59" stop-color="#4F45B8" stop-opacity="0.33"/>
<stop offset="0.73" stop-color="#4F45B8" stop-opacity="0.52"/>
<stop offset="0.87" stop-color="#4F45B8" stop-opacity="0.74"/>
<stop offset="1" stop-color="#4F45B8"/>
</linearGradient>
<linearGradient id="paint33_linear_1741_4827" x1="355.929" y1="174.491" x2="439.618" y2="174.491" gradientUnits="userSpaceOnUse">
<stop stop-color="#B94A70"/>
<stop offset="1" stop-color="#CC8D90"/>
</linearGradient>
<linearGradient id="paint34_linear_1741_4827" x1="362.914" y1="185.285" x2="420.497" y2="185.285" gradientUnits="userSpaceOnUse">
<stop stop-color="#CC5B6A"/>
<stop offset="0.05" stop-color="#C1576A"/>
<stop offset="0.2" stop-color="#A44B6A"/>
<stop offset="0.37" stop-color="#8D426A"/>
<stop offset="0.54" stop-color="#7D3B6A"/>
<stop offset="0.74" stop-color="#73376A"/>
<stop offset="1" stop-color="#70366A"/>
</linearGradient>
<linearGradient id="paint35_linear_1741_4827" x1="303.031" y1="354.723" x2="321.186" y2="354.723" gradientUnits="userSpaceOnUse">
<stop stop-color="#FF7284"/>
<stop offset="0.31" stop-color="#FF7587"/>
<stop offset="0.58" stop-color="#FF7D92"/>
<stop offset="0.82" stop-color="#FF8BA3"/>
<stop offset="1" stop-color="#FF9AB5"/>
</linearGradient>
<linearGradient id="paint36_linear_1741_4827" x1="267.445" y1="365.407" x2="321.603" y2="365.407" gradientUnits="userSpaceOnUse">
<stop stop-color="#FFD8C5"/>
<stop offset="0.21" stop-color="#FFCBBF"/>
<stop offset="0.7" stop-color="#FFB2B2"/>
<stop offset="1" stop-color="#FFA9AE"/>
</linearGradient>
<linearGradient id="paint37_linear_1741_4827" x1="392.103" y1="234.335" x2="418.036" y2="537.739" gradientUnits="userSpaceOnUse">
<stop stop-color="#F9EDB3"/>
<stop offset="0.27" stop-color="#F9E9B0"/>
<stop offset="0.55" stop-color="#F9DCA8"/>
<stop offset="0.84" stop-color="#F9C79A"/>
<stop offset="1" stop-color="#F9B890"/>
</linearGradient>
<linearGradient id="paint38_linear_1741_4827" x1="383.985" y1="302.228" x2="386.579" y2="242.582" gradientUnits="userSpaceOnUse">
<stop stop-color="#FFD8C5"/>
<stop offset="0.17" stop-color="#FFC6BC"/>
<stop offset="0.41" stop-color="#FFB6B4"/>
<stop offset="0.66" stop-color="#FFACAF"/>
<stop offset="1" stop-color="#FFA9AE"/>
</linearGradient>
<linearGradient id="paint39_linear_1741_4827" x1="359.217" y1="205.513" x2="382.923" y2="205.513" gradientUnits="userSpaceOnUse">
<stop stop-color="#FFD8C5"/>
<stop offset="0.29" stop-color="#FFD4C3"/>
<stop offset="0.58" stop-color="#FFC8BD"/>
<stop offset="0.87" stop-color="#FFB4B4"/>
<stop offset="1" stop-color="#FFA9AE"/>
</linearGradient>
<linearGradient id="paint40_linear_1741_4827" x1="362.87" y1="205.513" x2="379.271" y2="205.513" gradientUnits="userSpaceOnUse">
<stop offset="0.01" stop-color="#FF7593"/>
<stop offset="0.23" stop-color="#FF869C"/>
<stop offset="0.73" stop-color="#FFA7AD"/>
<stop offset="1" stop-color="#FFB4B3"/>
</linearGradient>
<linearGradient id="paint41_linear_1741_4827" x1="370.004" y1="262.445" x2="402.035" y2="262.445" gradientUnits="userSpaceOnUse">
<stop offset="0.01" stop-color="#FF7593"/>
<stop offset="0.16" stop-color="#FF7693" stop-opacity="0.99"/>
<stop offset="0.28" stop-color="#FF7895" stop-opacity="0.95"/>
<stop offset="0.4" stop-color="#FF7D97" stop-opacity="0.88"/>
<stop offset="0.52" stop-color="#FF839A" stop-opacity="0.78"/>
<stop offset="0.63" stop-color="#FF8B9E" stop-opacity="0.65"/>
<stop offset="0.74" stop-color="#FF95A3" stop-opacity="0.5"/>
<stop offset="0.85" stop-color="#FFA0A9" stop-opacity="0.32"/>
<stop offset="0.95" stop-color="#FFADAF" stop-opacity="0.11"/>
<stop offset="1" stop-color="#FFB4B3" stop-opacity="0"/>
</linearGradient>
<linearGradient id="paint42_linear_1741_4827" x1="362.788" y1="215.428" x2="443.267" y2="215.428" gradientUnits="userSpaceOnUse">
<stop stop-color="#FFA9AE"/>
<stop offset="0.01" stop-color="#FFAEB0"/>
<stop offset="0.07" stop-color="#FFC1BA"/>
<stop offset="0.14" stop-color="#FFCEC0"/>
<stop offset="0.23" stop-color="#FFD6C4"/>
<stop offset="0.39" stop-color="#FFD8C5"/>
<stop offset="0.49" stop-color="#FFCFC0"/>
<stop offset="0.81" stop-color="#FFB3B3"/>
<stop offset="1" stop-color="#FFA9AE"/>
</linearGradient>
<linearGradient id="paint43_linear_1741_4827" x1="110168" y1="28116.3" x2="115268" y2="28116.3" gradientUnits="userSpaceOnUse">
<stop stop-color="#CC5B6A"/>
<stop offset="0.05" stop-color="#C1576A"/>
<stop offset="0.2" stop-color="#A44B6A"/>
<stop offset="0.37" stop-color="#8D426A"/>
<stop offset="0.54" stop-color="#7D3B6A"/>
<stop offset="0.74" stop-color="#73376A"/>
<stop offset="1" stop-color="#70366A"/>
</linearGradient>
<linearGradient id="paint44_linear_1741_4827" x1="74985.6" y1="22508.9" x2="74909.1" y2="25675" gradientUnits="userSpaceOnUse">
<stop stop-color="#FFD8C5"/>
<stop offset="0.29" stop-color="#FFD4C3"/>
<stop offset="0.58" stop-color="#FFC8BD"/>
<stop offset="0.87" stop-color="#FFB4B4"/>
<stop offset="1" stop-color="#FFA9AE"/>
</linearGradient>
<linearGradient id="paint45_linear_1741_4827" x1="46761.4" y1="14284.2" x2="46733.3" y2="15511.3" gradientUnits="userSpaceOnUse">
<stop offset="0.01" stop-color="#FF7593"/>
<stop offset="0.23" stop-color="#FF869C"/>
<stop offset="0.73" stop-color="#FFA7AD"/>
<stop offset="1" stop-color="#FFB4B3"/>
</linearGradient>
<linearGradient id="paint46_linear_1741_4827" x1="31949.9" y1="9859.96" x2="31936.8" y2="10432.3" gradientUnits="userSpaceOnUse">
<stop stop-color="#FFD8C5"/>
<stop offset="0.29" stop-color="#FFD4C3"/>
<stop offset="0.58" stop-color="#FFC8BD"/>
<stop offset="0.87" stop-color="#FFB4B4"/>
<stop offset="1" stop-color="#FFA9AE"/>
</linearGradient>
<linearGradient id="paint47_linear_1741_4827" x1="379.384" y1="209.914" x2="388.028" y2="232.822" gradientUnits="userSpaceOnUse">
<stop stop-color="#FFD8C5"/>
<stop offset="0.04" stop-color="#FFD0C1"/>
<stop offset="0.16" stop-color="#FFBEB8"/>
<stop offset="0.31" stop-color="#FFB2B2"/>
<stop offset="0.51" stop-color="#FFABAF"/>
<stop offset="1" stop-color="#FFA9AE"/>
</linearGradient>
<linearGradient id="paint48_linear_1741_4827" x1="314.273" y1="354.075" x2="341.977" y2="354.075" gradientUnits="userSpaceOnUse">
<stop stop-color="#F9B890"/>
<stop offset="0.03" stop-color="#F9B890"/>
<stop offset="1" stop-color="#F9B890"/>
</linearGradient>
<linearGradient id="paint49_linear_1741_4827" x1="445.346" y1="381.326" x2="495.067" y2="381.326" gradientUnits="userSpaceOnUse">
<stop stop-color="#FF7284"/>
<stop offset="0.44" stop-color="#FF7486"/>
<stop offset="0.65" stop-color="#FF7A8E"/>
<stop offset="0.82" stop-color="#FF859B"/>
<stop offset="0.96" stop-color="#FF94AD"/>
<stop offset="1" stop-color="#FF9AB5"/>
</linearGradient>
<linearGradient id="paint50_linear_1741_4827" x1="280.626" y1="381.151" x2="336.527" y2="257.242" gradientUnits="userSpaceOnUse">
<stop offset="0.39" stop-color="#FFD8C5"/>
<stop offset="0.49" stop-color="#FFCFC0"/>
<stop offset="0.81" stop-color="#FFB3B3"/>
<stop offset="1" stop-color="#FFA9AE"/>
</linearGradient>
<linearGradient id="paint51_linear_1741_4827" x1="318.705" y1="311.832" x2="342.876" y2="311.832" gradientUnits="userSpaceOnUse">
<stop stop-color="#FFB4B3" stop-opacity="0"/>
<stop offset="0.16" stop-color="#FFA8AD" stop-opacity="0.18"/>
<stop offset="0.47" stop-color="#FF93A2" stop-opacity="0.53"/>
<stop offset="0.72" stop-color="#FF839A" stop-opacity="0.78"/>
<stop offset="0.9" stop-color="#FF7995" stop-opacity="0.94"/>
<stop offset="1" stop-color="#FF7593"/>
</linearGradient>
<linearGradient id="paint52_linear_1741_4827" x1="328.05" y1="252.717" x2="358.63" y2="252.717" gradientUnits="userSpaceOnUse">
<stop stop-color="#FFA9AE"/>
<stop offset="0.01" stop-color="#FFAAAE"/>
<stop offset="0.65" stop-color="#FFCBBF"/>
<stop offset="1" stop-color="#FFD8C5"/>
</linearGradient>
<linearGradient id="paint53_linear_1741_4827" x1="42944.5" y1="12595.4" x2="43845.5" y2="12595.4" gradientUnits="userSpaceOnUse">
<stop stop-color="#FFD8C5"/>
<stop offset="0.15" stop-color="#FFCFC0"/>
<stop offset="0.69" stop-color="#FFB3B3"/>
<stop offset="1" stop-color="#FFA9AE"/>
</linearGradient>
<linearGradient id="paint54_linear_1741_4827" x1="427.391" y1="490.51" x2="438.416" y2="464.793" gradientUnits="userSpaceOnUse">
<stop stop-color="#FFA9AE"/>
<stop offset="1" stop-color="#FFD8C5"/>
</linearGradient>
<linearGradient id="paint55_linear_1741_4827" x1="38464.2" y1="54973.2" x2="39911.2" y2="53751.3" gradientUnits="userSpaceOnUse">
<stop stop-color="#FFA9AE"/>
<stop offset="1" stop-color="#FFD8C5"/>
</linearGradient>
<linearGradient id="paint56_linear_1741_4827" x1="52806.6" y1="61390" x2="54756.2" y2="59709.7" gradientUnits="userSpaceOnUse">
<stop stop-color="#FFA9AE"/>
<stop offset="1" stop-color="#FFD8C5"/>
</linearGradient>
<linearGradient id="paint57_linear_1741_4827" x1="399.121" y1="484.743" x2="423.973" y2="455.999" gradientUnits="userSpaceOnUse">
<stop stop-color="#FFA9AE"/>
<stop offset="0.14" stop-color="#FFB6B4"/>
<stop offset="0.42" stop-color="#FFC9BE"/>
<stop offset="0.7" stop-color="#FFD4C3"/>
<stop offset="1" stop-color="#FFD8C5"/>
</linearGradient>
<linearGradient id="paint58_linear_1741_4827" x1="58080.5" y1="37719.3" x2="59495.3" y2="37719.3" gradientUnits="userSpaceOnUse">
<stop stop-color="#CC5B6A"/>
<stop offset="0.05" stop-color="#C1576A"/>
<stop offset="0.2" stop-color="#A44B6A"/>
<stop offset="0.37" stop-color="#8D426A"/>
<stop offset="0.54" stop-color="#7D3B6A"/>
<stop offset="0.74" stop-color="#73376A"/>
<stop offset="1" stop-color="#70366A"/>
</linearGradient>
<linearGradient id="paint59_linear_1741_4827" x1="420.176" y1="194.833" x2="465.646" y2="194.833" gradientUnits="userSpaceOnUse">
<stop stop-color="#CC8D90"/>
<stop offset="0.7" stop-color="#EF91A1"/>
<stop offset="1" stop-color="#FF93A9"/>
</linearGradient>
<linearGradient id="paint60_linear_1741_4827" x1="45610.6" y1="14723.7" x2="46622.1" y2="14723.7" gradientUnits="userSpaceOnUse">
<stop stop-color="#FFD8C5"/>
<stop offset="0.15" stop-color="#FFCFC0"/>
<stop offset="0.69" stop-color="#FFB3B3"/>
<stop offset="1" stop-color="#FFA9AE"/>
</linearGradient>
<linearGradient id="paint61_linear_1741_4827" x1="355.07" y1="252.241" x2="376.666" y2="252.241" gradientUnits="userSpaceOnUse">
<stop stop-color="#FFD8C5"/>
<stop offset="0.15" stop-color="#FFCFC0"/>
<stop offset="0.68" stop-color="#FFB3B3"/>
<stop offset="0.99" stop-color="#FFA9AE"/>
</linearGradient>
<linearGradient id="paint62_linear_1741_4827" x1="340.105" y1="266.054" x2="358.604" y2="266.054" gradientUnits="userSpaceOnUse">
<stop stop-color="#FFB4B3" stop-opacity="0"/>
<stop offset="0.09" stop-color="#FFA9AE" stop-opacity="0.17"/>
<stop offset="0.23" stop-color="#FF9CA7" stop-opacity="0.39"/>
<stop offset="0.37" stop-color="#FF90A1" stop-opacity="0.57"/>
<stop offset="0.5" stop-color="#FF869C" stop-opacity="0.73"/>
<stop offset="0.63" stop-color="#FF7F98" stop-opacity="0.85"/>
<stop offset="0.76" stop-color="#FF7995" stop-opacity="0.93"/>
<stop offset="0.89" stop-color="#FF7694" stop-opacity="0.98"/>
<stop offset="1" stop-color="#FF7593"/>
</linearGradient>
<linearGradient id="paint63_linear_1741_4827" x1="358.127" y1="255.465" x2="376.667" y2="255.465" gradientUnits="userSpaceOnUse">
<stop stop-color="#FFB4B3"/>
<stop offset="0.33" stop-color="#FFB1B2"/>
<stop offset="0.55" stop-color="#FFA8AD"/>
<stop offset="0.74" stop-color="#FF99A5"/>
<stop offset="0.91" stop-color="#FF849B"/>
<stop offset="1" stop-color="#FF7593"/>
</linearGradient>
<linearGradient id="paint64_linear_1741_4827" x1="329.82" y1="335.19" x2="370.71" y2="335.19" gradientUnits="userSpaceOnUse">
<stop offset="0.01" stop-color="#F9FFD8"/>
<stop offset="0.33" stop-color="#F9FDD4"/>
<stop offset="0.67" stop-color="#F9F7C7"/>
<stop offset="1" stop-color="#F9EDB3"/>
</linearGradient>
<linearGradient id="paint65_linear_1741_4827" x1="408.803" y1="350.04" x2="494.958" y2="350.04" gradientUnits="userSpaceOnUse">
<stop stop-color="#F9B890"/>
<stop offset="0.17" stop-color="#F9B890" stop-opacity="0.78"/>
<stop offset="0.39" stop-color="#F9B890" stop-opacity="0.51"/>
<stop offset="0.6" stop-color="#F9B890" stop-opacity="0.29"/>
<stop offset="0.77" stop-color="#F9B890" stop-opacity="0.13"/>
<stop offset="0.91" stop-color="#F9B890" stop-opacity="0.04"/>
<stop offset="1" stop-color="#F9B890" stop-opacity="0"/>
</linearGradient>
<linearGradient id="paint66_linear_1741_4827" x1="418.014" y1="443.963" x2="367.448" y2="284.48" gradientUnits="userSpaceOnUse">
<stop offset="0.01" stop-color="#F9B890"/>
<stop offset="0.92" stop-color="#F9B890"/>
<stop offset="1" stop-color="#F9B890"/>
</linearGradient>
<linearGradient id="paint67_linear_1741_4827" x1="418.014" y1="443.963" x2="367.448" y2="284.48" gradientUnits="userSpaceOnUse">
<stop offset="0.01" stop-color="#F9B890"/>
<stop offset="0.92" stop-color="#F9B890"/>
<stop offset="1" stop-color="#F9B890"/>
</linearGradient>
<linearGradient id="paint68_linear_1741_4827" x1="445.346" y1="381.326" x2="495.067" y2="381.326" gradientUnits="userSpaceOnUse">
<stop stop-color="#FF7284"/>
<stop offset="0.44" stop-color="#FF7486"/>
<stop offset="0.65" stop-color="#FF7A8E"/>
<stop offset="0.82" stop-color="#FF859B"/>
<stop offset="0.96" stop-color="#FF94AD"/>
<stop offset="1" stop-color="#FF9AB5"/>
</linearGradient>
<linearGradient id="paint69_linear_1741_4827" x1="197687" y1="141711" x2="181634" y2="167961" gradientUnits="userSpaceOnUse">
<stop offset="0.39" stop-color="#FFD8C5"/>
<stop offset="0.49" stop-color="#FFCFC0"/>
<stop offset="0.81" stop-color="#FFB3B3"/>
<stop offset="1" stop-color="#FFA9AE"/>
</linearGradient>
<linearGradient id="paint70_linear_1741_4827" x1="471.807" y1="405.319" x2="457.543" y2="353.019" gradientUnits="userSpaceOnUse">
<stop stop-color="#FFB4B3" stop-opacity="0"/>
<stop offset="0.07" stop-color="#FFA9AD" stop-opacity="0.18"/>
<stop offset="0.17" stop-color="#FF9DA7" stop-opacity="0.37"/>
<stop offset="0.26" stop-color="#FF92A2" stop-opacity="0.54"/>
<stop offset="0.36" stop-color="#FF899D" stop-opacity="0.68"/>
<stop offset="0.47" stop-color="#FF8299" stop-opacity="0.8"/>
<stop offset="0.58" stop-color="#FF7C97" stop-opacity="0.89"/>
<stop offset="0.69" stop-color="#FF7895" stop-opacity="0.95"/>
<stop offset="0.83" stop-color="#FF7693" stop-opacity="0.99"/>
<stop offset="1" stop-color="#FF7593"/>
</linearGradient>
<linearGradient id="paint71_linear_1741_4827" x1="417.827" y1="452.906" x2="442.218" y2="452.906" gradientUnits="userSpaceOnUse">
<stop stop-color="#FFD8C5"/>
<stop offset="0.27" stop-color="#FFD2C2"/>
<stop offset="0.62" stop-color="#FFC2BA"/>
<stop offset="1" stop-color="#FFA9AE"/>
</linearGradient>
<linearGradient id="paint72_linear_1741_4827" x1="400.383" y1="438.863" x2="426.657" y2="438.863" gradientUnits="userSpaceOnUse">
<stop stop-color="#FFA9AE"/>
<stop offset="0.15" stop-color="#FFB7B5"/>
<stop offset="0.42" stop-color="#FFC9BE"/>
<stop offset="0.69" stop-color="#FFD4C3"/>
<stop offset="1" stop-color="#FFD8C5"/>
</linearGradient>
<linearGradient id="paint73_linear_1741_4827" x1="181348" y1="82873.3" x2="190764" y2="67040.6" gradientUnits="userSpaceOnUse">
<stop stop-color="#FFB4B3" stop-opacity="0"/>
<stop offset="0.07" stop-color="#FFA9AD" stop-opacity="0.18"/>
<stop offset="0.17" stop-color="#FF9DA7" stop-opacity="0.37"/>
<stop offset="0.26" stop-color="#FF92A2" stop-opacity="0.54"/>
<stop offset="0.36" stop-color="#FF899D" stop-opacity="0.68"/>
<stop offset="0.47" stop-color="#FF8299" stop-opacity="0.8"/>
<stop offset="0.58" stop-color="#FF7C97" stop-opacity="0.89"/>
<stop offset="0.69" stop-color="#FF7895" stop-opacity="0.95"/>
<stop offset="0.83" stop-color="#FF7693" stop-opacity="0.99"/>
<stop offset="1" stop-color="#FF7593"/>
</linearGradient>
<linearGradient id="paint74_linear_1741_4827" x1="93722.7" y1="125364" x2="106199" y2="125364" gradientUnits="userSpaceOnUse">
<stop stop-color="#75CAFF"/>
<stop offset="1" stop-color="#6383CF"/>
</linearGradient>
<linearGradient id="paint75_linear_1741_4827" x1="113846" y1="129489" x2="128167" y2="129489" gradientUnits="userSpaceOnUse">
<stop stop-color="#75CAFF"/>
<stop offset="0.08" stop-color="#7AD1FF"/>
<stop offset="0.36" stop-color="#86E3FF"/>
<stop offset="0.66" stop-color="#8EEDFF"/>
<stop offset="1" stop-color="#90F1FF"/>
</linearGradient>
<linearGradient id="paint76_linear_1741_4827" x1="111920" y1="89906.6" x2="86401" y2="123713" gradientUnits="userSpaceOnUse">
<stop stop-color="#75CAFF"/>
<stop offset="1" stop-color="#6383CF"/>
</linearGradient>
<linearGradient id="paint77_linear_1741_4827" x1="74.5488" y1="200.769" x2="133.158" y2="200.769" gradientUnits="userSpaceOnUse">
<stop stop-color="#75CAFF"/>
<stop offset="0.49" stop-color="#76CCFF"/>
<stop offset="0.71" stop-color="#7BD3FF"/>
<stop offset="0.87" stop-color="#84E0FF"/>
<stop offset="1" stop-color="#90F1FF"/>
</linearGradient>
<linearGradient id="paint78_linear_1741_4827" x1="70.0516" y1="147.212" x2="70.0516" y2="118.575" gradientUnits="userSpaceOnUse">
<stop stop-color="#75CAFF"/>
<stop offset="0.21" stop-color="#7DD5FF"/>
<stop offset="0.68" stop-color="#8BEAFF"/>
<stop offset="1" stop-color="#90F1FF"/>
</linearGradient>
<linearGradient id="paint79_linear_1741_4827" x1="133650" y1="229795" x2="92820.1" y2="195652" gradientUnits="userSpaceOnUse">
<stop stop-color="#75CAFF"/>
<stop offset="1" stop-color="#6383CF"/>
</linearGradient>
<linearGradient id="paint80_linear_1741_4827" x1="140134" y1="207902" x2="154457" y2="207902" gradientUnits="userSpaceOnUse">
<stop stop-color="#75CAFF"/>
<stop offset="0.08" stop-color="#7AD1FF"/>
<stop offset="0.36" stop-color="#86E3FF"/>
<stop offset="0.66" stop-color="#8EEDFF"/>
<stop offset="1" stop-color="#90F1FF"/>
</linearGradient>
<linearGradient id="paint81_linear_1741_4827" x1="137122" y1="196659" x2="108937" y2="180241" gradientUnits="userSpaceOnUse">
<stop stop-color="#75CAFF"/>
<stop offset="1" stop-color="#6383CF"/>
</linearGradient>
<linearGradient id="paint82_linear_1741_4827" x1="109051" y1="146637" x2="133257" y2="168380" gradientUnits="userSpaceOnUse">
<stop stop-color="#75CAFF"/>
<stop offset="0.49" stop-color="#76CCFF"/>
<stop offset="0.71" stop-color="#7BD3FF"/>
<stop offset="0.87" stop-color="#84E0FF"/>
<stop offset="1" stop-color="#90F1FF"/>
</linearGradient>
<linearGradient id="paint83_linear_1741_4827" x1="244824" y1="36945.8" x2="298355" y2="36945.8" gradientUnits="userSpaceOnUse">
<stop stop-color="#75CAFF"/>
<stop offset="0.21" stop-color="#7DD5FF"/>
<stop offset="0.68" stop-color="#8BEAFF"/>
<stop offset="1" stop-color="#90F1FF"/>
</linearGradient>
<linearGradient id="paint84_linear_1741_4827" x1="179194" y1="164142" x2="189188" y2="164142" gradientUnits="userSpaceOnUse">
<stop stop-color="#75CAFF"/>
<stop offset="0.08" stop-color="#7AD1FF"/>
<stop offset="0.36" stop-color="#86E3FF"/>
<stop offset="0.66" stop-color="#8EEDFF"/>
<stop offset="1" stop-color="#90F1FF"/>
</linearGradient>
<linearGradient id="paint85_linear_1741_4827" x1="156787" y1="143087" x2="164376" y2="143087" gradientUnits="userSpaceOnUse">
<stop stop-color="#5E75C0"/>
<stop offset="0.1" stop-color="#5169B4"/>
<stop offset="0.48" stop-color="#26408C"/>
<stop offset="0.77" stop-color="#0C2673"/>
<stop offset="0.95" stop-color="#021D6A"/>
<stop offset="1" stop-color="#001B68"/>
</linearGradient>
<linearGradient id="paint86_linear_1741_4827" x1="141767" y1="129049" x2="147937" y2="129049" gradientUnits="userSpaceOnUse">
<stop stop-color="#75CAFF"/>
<stop offset="0.08" stop-color="#7AD1FF"/>
<stop offset="0.36" stop-color="#86E3FF"/>
<stop offset="0.66" stop-color="#8EEDFF"/>
<stop offset="1" stop-color="#90F1FF"/>
</linearGradient>
<linearGradient id="paint87_linear_1741_4827" x1="109944" y1="90815" x2="100065" y2="78797.3" gradientUnits="userSpaceOnUse">
<stop stop-color="#5E75C0"/>
<stop offset="0.1" stop-color="#5169B4"/>
<stop offset="0.48" stop-color="#26408C"/>
<stop offset="0.77" stop-color="#0C2673"/>
<stop offset="0.95" stop-color="#021D6A"/>
<stop offset="1" stop-color="#001B68"/>
</linearGradient>
<linearGradient id="paint88_linear_1741_4827" x1="202312" y1="152850" x2="233952" y2="176846" gradientUnits="userSpaceOnUse">
<stop stop-color="#75CAFF"/>
<stop offset="1" stop-color="#6383CF"/>
</linearGradient>
<linearGradient id="paint89_linear_1741_4827" x1="370427" y1="31031.9" x2="413312" y2="31031.9" gradientUnits="userSpaceOnUse">
<stop stop-color="#75CAFF"/>
<stop offset="0.08" stop-color="#7AD1FF"/>
<stop offset="0.36" stop-color="#86E3FF"/>
<stop offset="0.66" stop-color="#8EEDFF"/>
<stop offset="1" stop-color="#90F1FF"/>
</linearGradient>
<linearGradient id="paint90_linear_1741_4827" x1="174203" y1="153930" x2="139743" y2="116639" gradientUnits="userSpaceOnUse">
<stop stop-color="#75CAFF"/>
<stop offset="0.08" stop-color="#7AD1FF"/>
<stop offset="0.36" stop-color="#86E3FF"/>
<stop offset="0.66" stop-color="#8EEDFF"/>
<stop offset="1" stop-color="#90F1FF"/>
</linearGradient>
<linearGradient id="paint91_linear_1741_4827" x1="145165" y1="124058" x2="122058" y2="101297" gradientUnits="userSpaceOnUse">
<stop stop-color="#75CAFF"/>
<stop offset="0.08" stop-color="#7AD1FF"/>
<stop offset="0.36" stop-color="#86E3FF"/>
<stop offset="0.66" stop-color="#8EEDFF"/>
<stop offset="1" stop-color="#90F1FF"/>
</linearGradient>
<linearGradient id="paint92_linear_1741_4827" x1="124840" y1="82547.5" x2="114918" y2="70318.6" gradientUnits="userSpaceOnUse">
<stop stop-color="#5E75C0"/>
<stop offset="0.1" stop-color="#5169B4"/>
<stop offset="0.48" stop-color="#26408C"/>
<stop offset="0.77" stop-color="#0C2673"/>
<stop offset="0.95" stop-color="#021D6A"/>
<stop offset="1" stop-color="#001B68"/>
</linearGradient>
<linearGradient id="paint93_linear_1741_4827" x1="185340" y1="133499" x2="196813" y2="133499" gradientUnits="userSpaceOnUse">
<stop stop-color="#75CAFF"/>
<stop offset="1" stop-color="#6383CF"/>
</linearGradient>
<linearGradient id="paint94_linear_1741_4827" x1="336908" y1="24598.5" x2="379794" y2="24598.5" gradientUnits="userSpaceOnUse">
<stop stop-color="#75CAFF"/>
<stop offset="0.08" stop-color="#7AD1FF"/>
<stop offset="0.36" stop-color="#86E3FF"/>
<stop offset="0.66" stop-color="#8EEDFF"/>
<stop offset="1" stop-color="#90F1FF"/>
</linearGradient>
</defs>
</svg>
