<svg width="716" height="795" viewBox="0 0 716 795" fill="none" xmlns="http://www.w3.org/2000/svg">
<path d="M712.405 794.327H0.664062V541.614L709.424 550.556L712.405 794.327Z" fill="url(#paint0_linear_1741_5431)"/>
<path d="M204.358 112.106C173.915 112.106 149.234 136.764 149.234 167.206C149.234 197.647 173.903 222.308 204.358 222.308C234.814 222.308 259.485 197.65 259.485 167.206C259.485 136.761 234.805 112.106 204.358 112.106ZM204.358 201.067C197.657 201.067 191.106 199.08 185.534 195.359C179.963 191.638 175.62 186.348 173.055 180.16C170.491 173.972 169.82 167.162 171.127 160.593C172.435 154.023 175.662 147.989 180.4 143.252C185.139 138.516 191.176 135.29 197.748 133.983C204.321 132.677 211.133 133.347 217.325 135.911C223.516 138.474 228.807 142.815 232.53 148.384C236.254 153.954 238.241 160.501 238.241 167.2C238.241 176.182 234.671 184.796 228.317 191.147C221.963 197.499 213.345 201.067 204.358 201.067V201.067Z" fill="url(#paint1_linear_1741_5431)"/>
<path d="M0 538.687L449.617 638.185L710.214 544.278L298.624 460.431L0 538.687Z" fill="url(#paint2_linear_1741_5431)"/>
<path d="M0 538.688V548.072L449.926 649.935L449.617 638.185L0 538.688Z" fill="url(#paint3_linear_1741_5431)"/>
<path d="M449.613 638.185L710.209 544.279V553.539L449.922 649.935L449.613 638.185Z" fill="url(#paint4_linear_1741_5431)"/>
<path d="M710.214 544.279L0 538.688L264.255 484.221L475.341 486.143L710.214 544.279Z" fill="url(#paint5_linear_1741_5431)"/>
<path d="M154.145 532.172L265.995 495.403L466.83 541.613L364.425 585.837L154.145 532.172Z" fill="url(#paint6_linear_1741_5431)"/>
<path d="M188.883 531.772L276.415 502.997L433.587 539.16L353.444 573.77L188.883 531.772Z" fill="url(#paint7_linear_1741_5431)"/>
<path d="M364.424 585.837L466.829 541.614V551.055L365.417 596.766C365.417 596.766 363.678 585.091 364.424 585.837Z" fill="url(#paint8_linear_1741_5431)"/>
<path d="M154.145 532.173V538.135L365.418 596.767V585.837L154.145 532.173Z" fill="url(#paint9_linear_1741_5431)"/>
<path d="M466.827 541.614L157.699 529.743L269.543 495.088L466.827 541.614Z" fill="url(#paint10_linear_1741_5431)"/>
<path d="M297.178 169.303L277.61 164.422C277.281 155.431 275.292 146.579 271.743 138.312L291.894 126.214L278.074 103.212L256.784 115.986C250.112 109.152 242.168 103.687 233.4 99.8963L238.699 78.67L212.654 72.1699L207.212 93.9696C206.258 93.9339 205.304 93.9101 204.341 93.9101C194.754 93.8993 185.258 95.7727 176.394 99.4239L165.579 81.4239L142.565 95.2648L153.86 114.073C146.395 121.155 140.502 129.727 136.565 139.232L118.016 134.604L111.516 160.637L131.048 165.509C131.048 166.074 131.028 166.641 131.028 167.205C131.013 177.951 133.373 188.566 137.938 198.295L122.269 207.7L136.089 230.703L153.657 220.16C160.165 226.39 167.766 231.369 176.079 234.847L170.492 257.229L196.536 263.726L202.344 240.471C203.01 240.489 203.681 240.498 204.35 240.498C236.479 240.498 263.775 219.845 273.687 191.096L290.687 195.339L297.178 169.303ZM204.341 210.187C195.836 210.187 187.523 207.666 180.451 202.943C173.38 198.22 167.868 191.507 164.614 183.654C161.359 175.8 160.507 167.158 162.167 158.82C163.826 150.483 167.921 142.824 173.935 136.813C179.949 130.802 187.611 126.708 195.952 125.05C204.293 123.391 212.939 124.243 220.797 127.496C228.654 130.749 235.37 136.258 240.095 143.326C244.82 150.394 247.342 158.704 247.342 167.205C247.343 178.603 242.814 189.535 234.751 197.595C226.689 205.656 215.753 210.185 204.35 210.187H204.341Z" fill="#B6FFFF"/>
<path d="M135.249 252.949C128.683 251.159 121.734 251.356 115.28 253.514C108.826 255.673 103.158 259.695 98.9914 265.074C94.8249 270.452 92.3477 276.945 91.8729 283.731C91.3981 290.517 92.9472 297.291 96.3242 303.196C99.7012 309.102 104.754 313.874 110.845 316.91C116.935 319.945 123.789 321.106 130.54 320.248C137.291 319.389 143.636 316.549 148.772 312.086C153.908 307.623 157.605 301.738 159.395 295.175C161.795 286.375 160.599 276.983 156.071 269.064C151.543 261.145 144.053 255.348 135.249 252.949V252.949ZM147.884 292.038C146.715 296.326 144.3 300.171 140.945 303.086C137.59 306.002 133.445 307.858 129.034 308.419C124.624 308.98 120.146 308.221 116.167 306.239C112.188 304.256 108.887 301.138 106.681 297.28C104.474 293.422 103.462 288.996 103.773 284.563C104.083 280.13 105.701 275.889 108.423 272.375C111.145 268.861 114.849 266.233 119.065 264.823C123.281 263.414 127.821 263.285 132.11 264.454C137.861 266.022 142.754 269.809 145.712 274.982C148.669 280.154 149.451 286.29 147.884 292.038Z" fill="url(#paint11_radial_1741_5431)"/>
<path d="M87.6897 340.087L103.678 349.041L112.469 333.355L96.4815 324.402L87.6897 340.087Z" fill="white" stroke="black" stroke-miterlimit="10"/>
<path d="M191.237 275.57L186.265 257.939L169.942 262.538C166.774 256.84 162.525 251.815 157.432 247.743L164.738 234.707L148.751 225.753L141.246 239.143C140.625 238.947 140.004 238.753 139.371 238.581C133.055 236.854 126.462 236.387 119.966 237.206L116.072 223.4L98.4326 228.356L102.501 242.788C96.3097 246.111 90.8862 250.698 86.5827 256.251L75.1905 249.873L66.2325 265.856L78.2369 272.579C78.127 272.947 78.0051 273.31 77.9041 273.684C75.9666 280.759 75.6155 288.174 76.8757 295.4L64.8594 298.784L69.8318 316.419L83.3104 312.622C89.2571 322.506 98.4374 330.034 109.298 333.93C120.159 337.827 132.033 337.853 142.911 334.006C153.789 330.158 163.003 322.672 168.994 312.815C174.985 302.957 177.385 291.334 175.788 279.911L191.237 275.57ZM154.526 294.583C152.998 300.182 149.844 305.202 145.462 309.009C141.08 312.816 135.666 315.239 129.907 315.971C124.147 316.703 118.3 315.711 113.104 313.122C107.909 310.532 103.598 306.461 100.717 301.422C97.8362 296.383 96.5149 290.604 96.9201 284.815C97.3252 279.026 99.4388 273.487 102.993 268.898C106.548 264.31 111.384 260.878 116.89 259.037C122.396 257.195 128.324 257.027 133.926 258.554C141.435 260.601 147.824 265.546 151.687 272.301C155.549 279.056 156.569 287.068 154.523 294.574L154.526 294.583Z" fill="#B6FFFF"/>
<path d="M178.029 320.917L186.986 304.936L171.294 296.148L162.337 312.129L178.029 320.917Z" fill="white" stroke="black" stroke-miterlimit="10"/>
<path d="M267.535 109.546L256.797 115.992C256.604 115.79 256.396 115.603 256.202 115.398L230.363 132.994C235.794 137.117 240.165 142.472 243.117 148.617C246.069 154.762 247.516 161.52 247.339 168.335C247.163 175.149 245.367 181.823 242.1 187.807C238.833 193.791 234.19 198.912 228.552 202.748C222.915 206.584 216.445 209.024 209.678 209.868C202.911 210.711 196.04 209.934 189.633 207.6C183.225 205.266 177.465 201.442 172.828 196.443C168.191 191.445 164.81 185.416 162.964 178.854L137.106 196.45C137.376 197.074 137.655 197.692 137.944 198.304L122.275 207.709L136.096 230.712L153.664 220.169C160.172 226.4 167.773 231.379 176.086 234.856L170.498 257.238L196.543 263.735L202.35 240.48C203.016 240.498 203.688 240.507 204.357 240.507C236.485 240.507 263.781 219.854 273.693 191.106L290.694 195.348L297.194 169.312L277.625 164.431C277.296 155.44 275.307 146.588 271.758 138.321L291.909 126.224L281.133 108.262L265.761 111.557L267.535 109.546Z" fill="url(#paint12_linear_1741_5431)"/>
<path d="M276.374 96.6489C276.374 96.6489 296.121 180.981 254.832 192.644C213.543 204.307 120.195 239.285 139.948 286.842C159.7 334.398 267.398 329.009 267.398 329.009L356.265 244.677L363.446 148.682L279.956 99.3405" fill="url(#paint13_linear_1741_5431)"/>
<path d="M243.006 256.151C243.006 256.151 181.861 276.275 144.578 275.529C107.293 274.409 42.4204 353.789 31.2363 406.707C38.6934 409.678 69.2796 419.006 81.1949 438.01C93.1101 457.015 133.02 448.447 133.02 448.447L150.915 514.398L262.019 484.212L550.595 532.66L525.989 372.413L437.999 323.222L303.031 295.644L243.006 256.151Z" fill="url(#paint14_linear_1741_5431)"/>
<path d="M552.828 532.669L528.219 372.422L472.568 341.309C452.792 369.79 417.688 411.419 383.559 407.453C332.109 401.491 229.205 402.997 200.872 448.45C172.538 493.903 230.697 333.668 183.719 316.527C136.742 299.385 133.761 391.8 79.3205 391.8C49.0345 391.8 36.9885 396.417 34.5692 402.053C34.4126 402.647 34.262 403.241 34.1174 403.835C34.0405 404.979 34.2446 406.124 34.7118 407.171C43.8333 410.597 72.0714 419.904 83.4279 437.996C95.358 457.009 135.253 448.432 135.253 448.432L153.148 514.384L264.252 484.198L552.828 532.669Z" fill="url(#paint15_linear_1741_5431)"/>
<path d="M309.366 162.609C309.366 162.609 294.452 221.134 243.001 256.151C230.325 300.118 250.83 323.231 250.83 323.231L325.023 344.843L369.766 307.207L339.937 262.859L309.366 162.609Z" fill="url(#paint16_linear_1741_5431)"/>
<path d="M339.935 262.859L312.526 172.986L302.822 180.895C297.914 192.424 291.886 203.445 284.826 213.799C274.046 248.854 263.849 308.011 313.712 317.01C334.247 320.715 347.939 320.328 357.043 317.901L369.764 307.206L339.935 262.859Z" fill="url(#paint17_linear_1741_5431)"/>
<path d="M43.5368 401.491C43.5368 401.491 0.289482 473.042 27.1337 523.724C53.9779 574.405 133.765 545.339 151.666 540.123C159.729 528.031 120.756 453.423 86.0471 416.398C69.3973 398.639 43.5368 401.491 43.5368 401.491Z" fill="url(#paint18_linear_1741_5431)"/>
<path d="M86.04 416.407C76.7253 406.47 64.5307 402.988 55.5906 401.85L50.2407 406.47C50.2407 406.47 18.9294 499.378 65.6512 513.29L88.2691 418.834C87.528 418.008 86.785 417.199 86.04 416.407Z" fill="url(#paint19_linear_1741_5431)"/>
<path d="M429.044 485.712L418.047 462.139C415.784 457.293 412.448 453.025 408.29 449.659C404.132 446.292 399.263 443.916 394.05 442.71L384.837 440.574C380.756 439.63 376.476 440.081 372.681 441.855C368.887 443.629 365.798 446.624 363.907 450.36L363.342 451.483C360.823 456.448 356.811 460.5 351.87 463.069L342.412 467.986C340.362 469.258 338.734 471.108 337.735 473.304C336.735 475.5 336.409 477.942 336.798 480.323V480.323C337.183 482.691 338.256 484.892 339.885 486.654C341.513 488.415 343.624 489.658 345.955 490.228L354.872 492.406L429.044 485.712Z" fill="url(#paint20_linear_1741_5431)"/>
<path d="M354.852 492.421L420.045 486.518L413.07 471.572C410.807 466.726 407.47 462.458 403.312 459.092C399.155 455.725 394.285 453.349 389.073 452.143L379.841 450.007C375.761 449.063 371.482 449.515 367.688 451.289C363.894 453.063 360.805 456.057 358.915 459.792L358.347 460.915C355.831 465.887 351.819 469.945 346.874 472.516L337.42 477.43C337.147 477.599 336.885 477.781 336.63 477.968C336.6 478.758 336.649 479.549 336.775 480.329C337.16 482.697 338.234 484.898 339.862 486.66C341.49 488.421 343.602 489.664 345.932 490.234L354.852 492.421Z" fill="url(#paint21_linear_1741_5431)"/>
<path d="M381.701 460.743L392.514 429.814L413.764 440.993L394.003 474.533L381.701 460.743Z" fill="url(#paint22_linear_1741_5431)"/>
<path d="M298.178 310.186L307.073 308.668C317.522 306.882 328.262 308.023 338.102 311.963C347.942 315.904 356.499 322.491 362.824 330.994L374.237 346.335C375.952 356.623 375.054 367.177 371.627 377.028C368.199 386.879 362.352 395.712 354.621 402.717L348.139 408.591C346.611 409.976 344.802 411.016 342.835 411.641C340.869 412.266 338.791 412.461 336.743 412.212C334.695 411.963 332.724 411.276 330.965 410.199C329.205 409.122 327.699 407.678 326.547 405.967L322.787 400.364L298.178 310.186Z" fill="url(#paint23_linear_1741_5431)"/>
<path d="M358.331 347.331L346.915 331.986C342.004 325.385 335.732 319.916 328.522 315.95C321.312 311.984 313.333 309.613 305.127 308.999L298.178 310.187L322.787 400.371L326.556 405.968C327.771 407.776 329.383 409.283 331.269 410.374C331.599 410.121 331.926 409.869 332.241 409.586L338.723 403.71C346.452 396.704 352.297 387.871 355.722 378.021C359.148 368.17 360.045 357.618 358.331 347.331V347.331Z" fill="url(#paint24_linear_1741_5431)"/>
<path d="M308.748 150.064C308.748 150.064 286.576 225.035 318.515 266.575C320.234 268.82 322.363 270.719 324.789 272.172C335.313 278.456 359.01 285.437 445.457 245.964C506.603 208.199 536.428 122.24 538.416 122.736C540.405 123.232 517.537 63.1092 517.537 63.1092L441.481 40.252L342.553 51.6806L308.748 150.064Z" fill="url(#paint25_linear_1741_5431)"/>
<path d="M364.907 129.693C365.186 131.918 366.767 134.925 368.735 137.922C363.308 133.282 357.417 129.432 357.961 135.157C358.537 141.187 364.916 143.897 370.2 145.112C373.144 145.781 375.812 147.336 377.844 149.568V149.568L379.33 151.555C379.33 151.555 379.785 136.158 369.011 127.412C368.617 127.101 368.14 126.913 367.639 126.873C367.138 126.833 366.637 126.941 366.198 127.185C365.759 127.429 365.402 127.798 365.173 128.244C364.943 128.69 364.85 129.195 364.907 129.693V129.693Z" fill="#452770"/>
<path d="M405.556 134.66C405.556 134.66 406.302 115.282 390.27 107.457C388.407 101.12 397.356 92.5496 405.93 98.1406C412.267 103.729 420.098 126.09 407.416 136.523C404.81 136.897 405.556 134.66 405.556 134.66Z" fill="#452770"/>
<path d="M80.9588 559.498C73.4354 557.85 66.4675 554.281 60.7342 549.14C55.001 544 50.698 537.462 48.2446 530.164C38.4366 500.988 33.5474 445.571 108.412 397.762C215.786 329.194 263.51 320.994 263.51 320.994C263.51 320.994 229.954 378.384 232.192 402.988C212.805 397.768 197.145 413.421 193.418 435.037C189.691 456.652 179.621 549.073 140.847 558.761C118.357 564.376 96.7467 562.974 80.9588 559.498Z" fill="url(#paint26_linear_1741_5431)"/>
<path d="M201.991 344.627C189.882 361.857 174.35 389.189 172.54 417.886C169.568 465.588 123.325 559.501 73.3662 529.686C54.3446 518.329 46.1267 502.75 43.2556 487.816C41.5526 504.452 44.5485 519.17 48.2458 530.164C50.6992 537.462 55.0022 544 60.7355 549.141C66.4687 554.281 73.4366 557.85 80.96 559.498C96.7479 562.974 118.358 564.376 140.848 558.755C179.623 549.068 189.689 456.643 193.419 435.031C197.149 413.418 212.806 397.762 232.194 402.982C229.956 378.384 263.511 320.988 263.511 320.988C263.511 320.988 244.038 324.342 201.991 344.627Z" fill="url(#paint27_linear_1741_5431)"/>
<path d="M232.189 402.982C232.189 402.982 239.272 413.787 251.948 415.278C264.624 416.769 333.227 367.95 328.385 334.413C324.287 312.429 304.525 310.944 304.525 310.944C304.525 310.944 269.852 298.645 250.836 323.243C231.821 347.841 217.275 369.067 232.189 402.982Z" fill="url(#paint28_linear_1741_5431)"/>
<path d="M318.942 344.844C314.84 322.86 295.078 321.375 295.078 321.375C295.078 321.375 267.396 311.571 247.934 327.02C230.399 350.058 218.05 370.827 232.182 402.991C232.182 402.991 239.265 413.796 251.941 415.288C259.172 416.137 284.584 400.627 304.194 380.919C314.055 368.804 320.549 355.982 318.942 344.844Z" fill="url(#paint29_linear_1741_5431)"/>
<path d="M436.501 488.321C436.501 488.321 510.694 504.345 524.116 465.588C537.539 426.831 525.983 372.421 525.983 372.421L619.192 450.309L631.868 500.991L607.633 533.786L427.059 531.177L436.501 488.321Z" fill="url(#paint30_linear_1741_5431)"/>
<path d="M433.144 531.551L409.248 539.611C405.307 540.941 401.226 541.81 397.086 542.202L367.896 544.967L370.135 508.819L396.233 464.097L436.499 488.321L433.144 531.551Z" fill="url(#paint31_linear_1741_5431)"/>
<path d="M367.92 544.968L360.266 543.328C356.208 542.458 352.431 540.587 349.281 537.886C346.131 535.185 343.706 531.739 342.228 527.862V527.862C341.489 525.925 341.529 523.778 342.338 521.87L342.451 521.603C342.933 520.465 343.65 519.443 344.556 518.602C345.462 517.762 346.535 517.123 347.706 516.727C348.876 516.331 350.117 516.188 351.348 516.306C352.578 516.425 353.769 516.802 354.842 517.414L369.608 525.848C370.631 526.435 371.523 527.225 372.228 528.17C372.933 529.115 373.437 530.195 373.708 531.343C373.979 532.491 374.011 533.682 373.803 534.842C373.594 536.003 373.15 537.109 372.497 538.09L367.92 544.968Z" fill="url(#paint32_linear_1741_5431)"/>
<path d="M369.301 525.69L366.876 525.559C362.713 525.336 358.75 523.7 355.642 520.922L348.182 514.249C346.951 513.146 346.142 511.65 345.893 510.016L344.781 502.693C344.541 501.108 344.844 499.489 345.64 498.097V498.097C346.528 496.552 347.963 495.395 349.662 494.855C351.36 494.314 353.2 494.429 354.818 495.177L374.619 504.386C376.518 505.269 378.131 506.666 379.274 508.42C380.417 510.174 381.045 512.213 381.086 514.306C381.115 515.843 380.828 517.369 380.241 518.79C379.654 520.211 378.78 521.495 377.674 522.564C376.569 523.632 375.254 524.461 373.814 524.999C372.373 525.537 370.837 525.772 369.301 525.69V525.69Z" fill="url(#paint33_linear_1741_5431)"/>
<path d="M376.877 505.742L372.374 505.902C366.881 506.099 361.533 504.116 357.498 500.385L355.358 498.407C353.357 496.556 351.827 494.253 350.896 491.691C349.965 489.129 349.661 486.381 350.009 483.678C350.49 479.923 352.205 476.434 354.883 473.758V473.758C356.562 472.08 358.767 471.03 361.129 470.782C363.491 470.535 365.866 471.106 367.856 472.4L383.457 482.546C385.796 484.067 387.533 486.354 388.371 489.015C389.209 491.676 389.095 494.546 388.049 497.132L387.606 498.231C386.735 500.385 385.258 502.241 383.354 503.574C381.449 504.907 379.2 505.66 376.877 505.742Z" fill="url(#paint34_linear_1741_5431)"/>
<path d="M390.938 486.639L387.232 486.815C384.338 486.941 381.453 486.42 378.787 485.289C376.121 484.158 373.741 482.446 371.821 480.279L366.471 474.23C364.788 472.329 363.693 469.98 363.319 467.469C362.945 464.958 363.308 462.392 364.364 460.083V460.083C365.125 458.419 366.226 456.933 367.597 455.719C368.967 454.505 370.576 453.592 372.321 453.037L376.116 451.831C378.273 451.144 380.571 451.027 382.786 451.491C385.002 451.955 387.06 452.984 388.759 454.478L400.904 465.128C402.746 466.747 403.885 469.02 404.078 471.464C404.271 473.909 403.504 476.332 401.938 478.22L397.777 483.235C396.938 484.248 395.896 485.074 394.718 485.661C393.54 486.247 392.253 486.58 390.938 486.639V486.639Z" fill="url(#paint35_linear_1741_5431)"/>
<path d="M507.718 82.8587C507.718 82.8587 530.832 83.233 524.121 107.082C515.175 130.935 487.21 143.231 507.718 193.532C528.225 243.834 519.276 284.462 503.988 296.024C552.832 299.378 601.673 253.914 601.673 253.914C601.673 253.914 578.555 228.573 600.927 189.448C623.298 150.322 622.552 60.8779 527.851 66.457C514.444 72.7967 507.718 82.8587 507.718 82.8587Z" fill="url(#paint36_linear_1741_5431)"/>
<path d="M600.928 189.439C615.195 164.463 620.06 118.998 597.085 90.8085C582.073 89.4331 575.062 111.307 574.456 121.601C573.71 134.271 582.287 161.846 555.068 164.457C534.471 166.43 526.687 126.583 524.12 107.077C515.694 129.521 490.439 141.743 504.602 185.054C512.347 196.735 524.536 201.458 547.995 193.898C582.668 182.716 567.382 206.568 575.956 231.924C583.949 255.542 597.445 251.32 599.243 250.64C593.944 242.616 583.265 220.335 600.928 189.439Z" fill="url(#paint37_linear_1741_5431)"/>
<path d="M357.999 393.502C355.303 390.81 348.458 393.288 342.707 399.036C338.166 403.576 335.678 408.786 336.151 412.108C338.287 412.468 340.477 412.338 342.556 411.729C344.635 411.119 346.548 410.046 348.152 408.59L354.634 402.714C356.103 401.383 357.498 399.992 358.822 398.54C359.324 396.407 359.098 394.604 357.999 393.502Z" fill="white"/>
<path d="M350.989 463.527L342.388 468.001C340.421 469.222 338.842 470.977 337.836 473.061C336.829 475.145 336.436 477.472 336.702 479.771C339.184 479.382 342.349 477.989 345.381 475.764C350.808 471.792 353.827 466.688 352.127 464.362C351.833 463.983 351.439 463.694 350.989 463.527V463.527Z" fill="white"/>
<path d="M619.197 450.31L573.426 412.07L527.498 453.245C527.031 455.458 526.508 457.645 525.913 459.798C524.365 472.276 519.078 501.336 503.12 504.839C485.721 508.653 446.237 521.16 431.025 531.228L577.551 533.346L596.067 529.187L622.998 465.562L619.197 450.31Z" fill="url(#paint38_linear_1741_5431)"/>
<path d="M363.434 469.562C363.731 470.385 370.017 487.684 388.786 486.954" stroke="#FFA1A2" stroke-width="2.51" stroke-miterlimit="10" stroke-linecap="round"/>
<path d="M351.992 494.408C351.992 494.408 357.711 509.812 384.056 505.837" stroke="#FFA1A2" stroke-width="2.51" stroke-miterlimit="10" stroke-linecap="round"/>
<path d="M350.006 516.024C350.006 516.024 359.202 530.432 376.104 523.974" stroke="#FFA1A2" stroke-width="2.51" stroke-miterlimit="10" stroke-linecap="round"/>
<path d="M456.266 56.7724C456.266 56.7724 528.967 42.6107 507.341 88.8242C486.465 99.6289 456.266 56.7724 456.266 56.7724Z" fill="url(#paint39_linear_1741_5431)"/>
<path d="M329.874 115.654C329.874 115.654 356.718 72.4261 389.528 73.9174C406.305 64.9724 343.671 52.302 329.128 66.4637C314.585 80.6255 305.639 99.2582 329.874 115.654Z" fill="url(#paint40_linear_1741_5431)"/>
<path d="M507.717 82.8589C507.717 82.8589 518.53 56.7724 489.448 58.2638C460.365 59.7551 436.505 97.395 358.582 80.2476C338.449 66.4602 317.567 90.3096 317.567 98.8804C299.297 97.7633 298.545 98.8804 298.545 98.8804C298.545 98.8804 310.104 56.0238 354.843 30.683C399.582 5.34215 465.575 -23.3527 521.499 30.683C539.409 58.6381 517.784 81.3705 507.717 82.8589Z" fill="url(#paint41_linear_1741_5431)"/>
<path d="M355.697 30.2052C350.454 54.6786 383.753 60.9796 410.41 63.1008C428.475 64.5356 428.115 73.7689 424.145 81.7751C454.237 75.0879 470.768 59.1971 489.451 58.2554C492.33 58.0653 495.221 58.24 498.055 58.7753C491.933 44.2036 485.89 43.2589 476.403 42.6023C471.181 42.6023 433.528 62.3551 420.477 55.6471C407.426 48.939 409.664 38.1194 435.017 24.3439C447.202 17.7101 449.916 8.14715 449.44 0.00719817C415.178 -0.257202 381.89 15.4523 355.697 30.2052Z" fill="url(#paint42_linear_1741_5431)"/>
<path d="M507.711 82.8589C507.711 82.8589 495.415 60.5067 471.171 62.7348C446.927 64.9629 415.619 84.3502 419.72 119.382L433.892 129.815C433.892 129.815 439.485 102.983 455.142 96.6493C446.568 110.811 434.635 127.207 445.076 140.252C454.396 150.314 485.342 160.75 501.748 120.127C505.85 125.715 483.107 151.431 474.53 154.785C475.65 165.218 503.983 179.38 513.307 157.022C522.631 134.663 537.916 89.5669 507.711 82.8589Z" fill="url(#paint43_linear_1741_5431)"/>
<path d="M301.411 149.939C321.247 149.939 337.327 133.867 337.327 114.04C337.327 94.2137 321.247 78.1411 301.411 78.1411C281.576 78.1411 265.496 94.2137 265.496 114.04C265.496 133.867 281.576 149.939 301.411 149.939Z" fill="url(#paint44_linear_1741_5431)"/>
<path d="M301.416 134.521C312.732 134.521 321.906 125.351 321.906 114.04C321.906 102.729 312.732 93.5596 301.416 93.5596C290.099 93.5596 280.926 102.729 280.926 114.04C280.926 125.351 290.099 134.521 301.416 134.521Z" fill="url(#paint45_linear_1741_5431)"/>
<path d="M310.361 131.806C316.059 131.806 320.677 127.189 320.677 121.494C320.677 115.799 316.059 111.183 310.361 111.183C304.664 111.183 300.045 115.799 300.045 121.494C300.045 127.189 304.664 131.806 310.361 131.806Z" fill="url(#paint46_linear_1741_5431)"/>
<path d="M148.75 284.914C151.173 280.722 151.966 277.644 151.565 275.443C149.161 275.541 146.81 275.574 144.575 275.529C116.446 274.685 72.6224 319.654 47.9805 364.513C81.4407 361.786 134.49 309.622 148.75 284.914Z" fill="url(#paint47_linear_1741_5431)"/>
<path d="M462.602 320.994C488.547 320.994 509.58 299.971 509.58 274.038C509.58 248.105 488.547 227.082 462.602 227.082C436.657 227.082 415.625 248.105 415.625 274.038C415.625 299.971 436.657 320.994 462.602 320.994Z" fill="url(#paint48_linear_1741_5431)"/>
<path d="M462.604 307.578C481.136 307.578 496.159 292.562 496.159 274.038C496.159 255.514 481.136 240.498 462.604 240.498C444.072 240.498 429.049 255.514 429.049 274.038C429.049 292.562 444.072 307.578 462.604 307.578Z" fill="url(#paint49_linear_1741_5431)"/>
<path d="M462.606 296.646C475.097 296.646 485.224 286.524 485.224 274.038C485.224 261.552 475.097 251.43 462.606 251.43C450.115 251.43 439.988 261.552 439.988 274.038C439.988 286.524 450.115 296.646 462.606 296.646Z" fill="url(#paint50_linear_1741_5431)"/>
<path d="M516.545 228.077C516.545 228.077 461.858 307.082 387.296 312.049C365.918 307.082 337.584 250.934 358.467 207.207C379.349 163.48 435.02 149.072 468.328 164.971C501.637 180.871 516.545 228.077 516.545 228.077Z" fill="url(#paint51_linear_1741_5431)"/>
<path d="M394.748 172.921C394.748 172.921 419.119 189.32 393.755 240.498C360.449 221.616 358.461 220.127 358.461 220.127C358.461 220.127 369.404 180.871 394.748 172.921Z" fill="#FFEFDB"/>
<path d="M364.424 205.716C364.424 205.716 394.74 217.641 393.753 240.498C389.777 250.435 376.851 250.435 355.475 242.485C353.983 239.506 360.448 207.207 364.424 205.716Z" fill="url(#paint52_linear_1741_5431)"/>
<path d="M453.101 176.712C457.009 173.718 466.6 169.716 485.221 179.386C508.587 193.301 490.689 219.138 478.759 203.238C468.817 187.336 463.845 182.865 456.388 184.852C452.661 185.847 451.294 184.356 450.86 182.618C450.304 180.396 451.288 178.1 453.101 176.712Z" fill="#452770"/>
<path d="M443.217 239.505C454.062 239.505 462.854 230.718 462.854 219.877C462.854 209.037 454.062 200.25 443.217 200.25C432.372 200.25 423.58 209.037 423.58 219.877C423.58 230.718 432.372 239.505 443.217 239.505Z" fill="#452770"/>
<path d="M437.002 154.636C388.889 154.636 349.883 193.624 349.883 241.715C349.883 289.807 388.889 328.795 437.002 328.795C485.114 328.795 524.121 289.81 524.121 241.715C524.121 193.621 485.117 154.636 437.002 154.636ZM437.002 310.124C399.205 310.124 368.566 279.498 368.566 241.715C368.566 203.933 399.205 173.31 437.002 173.31C474.798 173.31 505.441 203.936 505.441 241.724C505.441 279.513 474.801 310.124 437.002 310.124Z" fill="url(#paint53_linear_1741_5431)"/>
<g style="mix-blend-mode:screen" opacity="0.26">
<path d="M436.996 312.046C475.432 312.046 506.591 280.901 506.591 242.482C506.591 204.063 475.432 172.918 436.996 172.918C398.559 172.918 367.4 204.063 367.4 242.482C367.4 280.901 398.559 312.046 436.996 312.046Z" fill="white"/>
</g>
<path d="M372.374 297.145L322.166 338.881L346.026 373.663L389.773 317.515L372.374 297.145Z" fill="url(#paint54_linear_1741_5431)"/>
<path d="M358.588 308.609L331.135 351.95L346.031 373.663L389.778 317.516L380.074 306.155H361.537L358.588 308.609Z" fill="url(#paint55_linear_1741_5431)"/>
<path d="M254.567 405.465L234.992 421.056L279.423 457.638L316.642 408.383L254.567 405.465Z" fill="url(#paint56_linear_1741_5431)"/>
<path d="M279.419 457.639L316.639 408.383L296.007 407.415L269.412 449.401L279.419 457.639Z" fill="url(#paint57_linear_1741_5431)"/>
<path d="M245.422 414.624L251.423 419.793C255.918 423.665 261.387 426.234 267.238 427.22L285.145 430.236C287.041 430.555 288.988 430.331 290.762 429.59C292.535 428.848 294.063 427.62 295.167 426.047L296.754 423.786C297.759 422.355 298.378 420.689 298.552 418.95C298.725 417.21 298.447 415.455 297.744 413.853C297.041 412.252 295.937 410.859 294.539 409.809C293.14 408.759 291.495 408.086 289.761 407.857L269.847 405.216L263.689 397.281C262.649 395.941 261.35 394.824 259.87 393.995C258.39 393.167 256.758 392.644 255.072 392.458C253.385 392.272 251.679 392.427 250.053 392.913C248.428 393.399 246.917 394.206 245.61 395.288V395.288C244.191 396.462 243.045 397.932 242.253 399.594C241.461 401.256 241.042 403.071 241.024 404.912C241.006 406.754 241.391 408.577 242.15 410.254C242.91 411.931 244.026 413.423 245.422 414.624V414.624Z" fill="url(#paint58_linear_1741_5431)"/>
<path d="M297.644 415.614L298.132 414.919C297.563 413.061 296.47 411.406 294.984 410.154C293.497 408.901 291.682 408.104 289.753 407.857L269.84 405.216L263.682 397.281C262.642 395.941 261.343 394.824 259.863 393.995C258.383 393.167 256.751 392.644 255.064 392.458C253.378 392.272 251.672 392.427 250.046 392.913C248.421 393.399 246.91 394.207 245.602 395.288V395.288C244.924 395.85 244.306 396.482 243.76 397.174C244.321 399.907 245.775 402.377 247.894 404.194L253.895 409.36C258.39 413.233 263.86 415.802 269.712 416.787L287.616 419.805C289.513 420.126 291.462 419.902 293.237 419.16C295.012 418.418 296.54 417.188 297.644 415.614V415.614Z" fill="url(#paint59_linear_1741_5431)"/>
<path d="M264.024 399.382C266.706 403.403 270.272 406.759 274.449 409.192C278.627 411.626 283.305 413.074 288.128 413.425L310.101 415.02C312.379 415.186 314.635 414.471 316.402 413.024C317.605 412.037 318.529 410.752 319.082 409.297C319.634 407.842 319.796 406.268 319.551 404.731C319.306 403.195 318.663 401.749 317.686 400.538C316.708 399.327 315.43 398.392 313.979 397.828L301.348 392.92L285.316 363.851L270.649 372.015C268.337 373.301 266.316 375.053 264.714 377.158C263.113 379.264 261.965 381.678 261.342 384.249C260.72 386.819 260.637 389.491 261.098 392.096C261.56 394.7 262.556 397.181 264.024 399.382V399.382Z" fill="url(#paint60_linear_1741_5431)"/>
<path d="M313.979 397.828L301.348 392.92L285.316 363.851L270.649 372.015C268.041 373.458 265.809 375.493 264.131 377.956C264.611 380.461 265.589 382.845 267.008 384.964C269.689 388.987 273.255 392.343 277.432 394.777C281.61 397.21 286.289 398.658 291.112 399.007L313.085 400.606C314.477 400.705 315.874 400.477 317.162 399.94C316.268 399.012 315.182 398.292 313.979 397.828V397.828Z" fill="url(#paint61_linear_1741_5431)"/>
<path d="M280.625 378.419L283.193 382.596C285.921 387.027 289.537 390.847 293.812 393.816C298.087 396.784 302.93 398.838 308.037 399.848L320.27 402.269C322.448 402.7 324.705 402.472 326.753 401.615C328.8 400.758 330.546 399.31 331.766 397.456V397.456C333.36 395.039 333.952 392.097 333.417 389.252C332.882 386.407 331.262 383.881 328.898 382.207L317.197 373.924L308.281 360.654C306.096 357.396 302.817 355.026 299.037 353.973C295.257 352.919 291.225 353.252 287.669 354.911V354.911C285.568 355.892 283.699 357.305 282.183 359.059C280.667 360.813 279.54 362.867 278.875 365.087C278.21 367.307 278.022 369.642 278.323 371.94C278.625 374.238 279.409 376.446 280.625 378.419V378.419Z" fill="url(#paint62_linear_1741_5431)"/>
<path d="M328.893 382.207L317.192 373.924L308.275 360.654C306.091 357.396 302.812 355.026 299.032 353.973C295.252 352.919 291.22 353.252 287.664 354.911V354.911C286.066 355.657 284.599 356.654 283.318 357.864C286.16 357.711 288.993 358.297 291.54 359.566C294.087 360.835 296.261 362.743 297.849 365.104L306.765 378.375L318.467 386.669C320.829 388.344 322.448 390.87 322.983 393.714C323.518 396.559 322.927 399.5 321.335 401.918V401.918C321.231 402.075 321.118 402.215 321.008 402.376C323.084 402.645 325.194 402.326 327.097 401.454C329.001 400.583 330.621 399.194 331.773 397.447C333.363 395.029 333.951 392.088 333.414 389.245C332.876 386.402 331.256 383.879 328.893 382.207V382.207Z" fill="url(#paint63_linear_1741_5431)"/>
<path d="M317.22 331.318L321.069 333.047C328.856 336.546 334.946 342.98 338.01 350.946L345.529 370.485C346.311 372.518 346.506 374.731 346.09 376.869C345.674 379.008 344.665 380.986 343.178 382.579C341.568 384.303 339.47 385.497 337.164 386.001C334.858 386.504 332.454 386.294 330.27 385.398L322.246 382.098C318.717 380.648 315.711 378.162 313.627 374.968L301.144 355.895C298.513 351.875 297.371 347.062 297.916 342.289V342.289C298.165 340.142 298.916 338.083 300.11 336.28C301.303 334.477 302.905 332.98 304.785 331.912C306.665 330.843 308.771 330.233 310.932 330.129C313.092 330.026 315.246 330.433 317.22 331.318V331.318Z" fill="url(#paint64_linear_1741_5431)"/>
<path d="M346.309 374.566C345.106 373.848 343.712 373.513 342.314 373.606C340.915 373.698 339.578 374.215 338.481 375.086C335.508 377.463 335.11 381.889 337.571 384.937C337.791 385.205 338.029 385.457 338.284 385.692C340.633 384.933 342.677 383.445 344.121 381.444C345.564 379.442 346.331 377.033 346.309 374.566V374.566Z" fill="white"/>
<path d="M331.526 390.811C329.062 387.763 324.664 387.228 321.7 389.623C318.737 392.017 318.33 396.426 320.791 399.477C321.932 400.896 323.57 401.83 325.374 402.088C327.998 401.376 330.271 399.73 331.767 397.46V397.46C332.343 396.586 332.792 395.634 333.101 394.634C332.961 393.234 332.414 391.904 331.526 390.811V390.811Z" fill="white"/>
<path d="M312.749 403.781C309.777 406.158 309.379 410.584 311.857 413.635C312.192 414.048 312.572 414.423 312.99 414.752C314.24 414.433 315.405 413.846 316.405 413.032C317.405 412.218 318.216 411.196 318.782 410.037C319.347 408.878 319.654 407.61 319.68 406.321C319.706 405.032 319.452 403.753 318.934 402.572C317.882 402.261 316.77 402.209 315.693 402.419C314.617 402.63 313.606 403.097 312.749 403.781V403.781Z" fill="white"/>
<path d="M298.347 419.134C295.886 416.083 291.485 415.551 288.521 417.946C285.558 420.34 285.151 424.749 287.63 427.797C288.323 428.656 289.203 429.345 290.204 429.811C292.216 429.11 293.958 427.794 295.182 426.05L296.769 423.789C297.699 422.475 298.302 420.957 298.528 419.363C298.457 419.286 298.407 419.208 298.347 419.134Z" fill="white"/>
<path d="M279.295 458.226C282.865 454.056 275.969 442.304 263.893 431.976C251.817 421.649 239.134 416.658 235.565 420.828C231.995 424.998 238.891 436.75 250.967 447.078C263.043 457.405 275.726 462.396 279.295 458.226Z" fill="url(#paint65_linear_1741_5431)"/>
<path d="M436.996 144.598C382.636 144.598 338.568 188.645 338.568 242.981C338.568 297.317 382.636 341.368 436.996 341.368C491.356 341.368 535.427 297.317 535.427 242.981C535.427 188.645 491.356 144.598 436.996 144.598ZM436.996 318.51C395.265 318.51 361.436 284.694 361.436 242.981C361.436 201.268 395.256 167.455 436.996 167.455C478.737 167.455 512.56 201.271 512.56 242.981C512.56 284.691 478.728 318.51 436.996 318.51V318.51Z" fill="#B6FFFF"/>
<g style="mix-blend-mode:screen" opacity="0.39">
<path d="M437.003 312.047C475.442 312.047 506.602 280.904 506.602 242.483C506.623 228.496 502.405 214.831 494.505 203.286L367.482 245.608C369.108 282.576 399.617 312.047 437.003 312.047Z" fill="white"/>
</g>
<path d="M524.12 241.725C524.142 226.189 519.987 210.933 512.089 197.553L493.852 203.628C501.427 214.889 505.463 228.155 505.443 241.725C505.443 279.508 474.803 310.134 437.004 310.134C400.42 310.134 370.541 281.442 368.663 245.341L350.426 251.416C355.247 294.947 392.166 328.805 437.004 328.805C485.117 328.796 524.12 289.81 524.12 241.725Z" fill="#B6FFFF"/>
<path d="M535.431 242.981C535.456 225.829 530.976 208.971 522.436 194.094L500.145 201.521C508.258 213.828 512.571 228.248 512.548 242.987C512.548 284.7 478.716 318.516 436.985 318.516C396.834 318.516 364.004 287.213 361.576 247.69L339.303 255.117C345.28 303.734 386.732 341.379 436.985 341.379C491.36 341.368 535.431 297.317 535.431 242.981Z" fill="url(#paint66_linear_1741_5431)"/>
<path d="M437.249 300.87C451.25 300.87 462.601 294.529 462.601 286.708C462.601 278.887 451.25 272.546 437.249 272.546C423.247 272.546 411.896 278.887 411.896 286.708C411.896 294.529 423.247 300.87 437.249 300.87Z" fill="white"/>
<path d="M476.769 280.003C482.124 280.003 486.465 275.665 486.465 270.313C486.465 264.961 482.124 260.622 476.769 260.622C471.415 260.622 467.074 264.961 467.074 270.313C467.074 275.665 471.415 280.003 476.769 280.003Z" fill="white"/>
<path d="M417.865 356.991C409.38 356.991 401.086 359.506 394.031 364.218C386.976 368.93 381.477 375.627 378.23 383.462C374.983 391.297 374.134 399.919 375.789 408.237C377.444 416.555 381.53 424.196 387.53 430.192C393.53 436.189 401.174 440.273 409.495 441.928C417.817 443.582 426.443 442.733 434.282 439.488C442.121 436.242 448.82 430.746 453.534 423.695C458.248 416.643 460.764 408.352 460.764 399.872C460.764 388.499 456.245 377.592 448.199 369.551C440.154 361.509 429.242 356.991 417.865 356.991V356.991ZM417.865 433.554C411.199 433.554 404.683 431.579 399.141 427.877C393.599 424.175 389.279 418.914 386.729 412.759C384.178 406.603 383.511 399.83 384.811 393.296C386.112 386.761 389.322 380.759 394.035 376.048C398.749 371.337 404.754 368.129 411.292 366.83C417.829 365.53 424.605 366.198 430.763 368.748C436.921 371.298 442.185 375.616 445.887 381.156C449.59 386.696 451.566 393.209 451.566 399.872C451.566 408.806 448.015 417.374 441.695 423.691C435.375 430.008 426.803 433.557 417.865 433.557V433.554Z" fill="url(#paint67_linear_1741_5431)"/>
<g style="mix-blend-mode:screen" opacity="0.72">
<path d="M417.861 434.505C436.789 434.505 452.133 419.168 452.133 400.248C452.133 381.329 436.789 365.992 417.861 365.992C398.934 365.992 383.59 381.329 383.59 400.248C383.59 419.168 398.934 434.505 417.861 434.505Z" fill="white"/>
</g>
<path d="M417.858 352.051C408.272 352.051 398.9 354.892 390.93 360.216C382.959 365.539 376.746 373.106 373.078 381.959C369.409 390.812 368.45 400.553 370.32 409.951C372.191 419.349 376.807 427.982 383.586 434.757C390.365 441.532 399.002 446.146 408.404 448.015C417.806 449.884 427.552 448.924 436.408 445.257C445.265 441.59 452.835 435.38 458.16 427.412C463.486 419.445 466.328 410.077 466.327 400.495C466.327 394.133 465.074 387.833 462.638 381.956C460.202 376.078 456.632 370.737 452.131 366.239C447.63 361.74 442.287 358.172 436.406 355.738C430.526 353.303 424.223 352.05 417.858 352.051V352.051ZM417.858 437.687C410.499 437.687 403.305 435.505 397.186 431.419C391.068 427.332 386.298 421.524 383.482 414.728C380.666 407.932 379.929 400.454 381.365 393.24C382.801 386.025 386.344 379.398 391.548 374.197C396.752 368.996 403.381 365.454 410.599 364.019C417.817 362.584 425.298 363.32 432.097 366.135C438.896 368.95 444.707 373.717 448.795 379.833C452.884 385.949 455.066 393.14 455.066 400.495C455.066 405.379 454.104 410.216 452.234 414.728C450.364 419.24 447.623 423.34 444.168 426.794C440.713 430.247 436.611 432.987 432.097 434.856C427.583 436.725 422.744 437.687 417.858 437.687V437.687Z" fill="url(#paint68_linear_1741_5431)"/>
<path d="M466.332 400.495C466.342 392.053 464.136 383.755 459.933 376.432L448.963 380.086C452.092 384.848 454.086 390.265 454.789 395.919C455.492 401.572 454.886 407.312 453.018 412.695C451.15 418.077 448.069 422.959 444.014 426.963C439.96 430.967 435.039 433.987 429.631 435.788C424.224 437.59 418.475 438.126 412.827 437.355C407.18 436.583 401.785 434.525 397.06 431.34C392.334 428.154 388.404 423.926 385.572 418.981C382.741 414.037 381.084 408.508 380.729 402.822L369.762 406.476C371.28 418.715 377.411 429.914 386.905 437.791C396.399 445.668 408.541 449.629 420.855 448.868C433.17 448.106 444.731 442.679 453.181 433.693C461.631 424.706 466.334 412.837 466.332 400.504V400.495Z" fill="url(#paint69_linear_1741_5431)"/>
<path d="M417.983 429C424.877 429 430.466 425.878 430.466 422.028C430.466 418.177 424.877 415.055 417.983 415.055C411.089 415.055 405.5 418.177 405.5 422.028C405.5 425.878 411.089 429 417.983 429Z" fill="white"/>
<path d="M437.447 418.724C440.083 418.724 442.22 416.587 442.22 413.953C442.22 411.318 440.083 409.182 437.447 409.182C434.811 409.182 432.674 411.318 432.674 413.953C432.674 416.587 434.811 418.724 437.447 418.724Z" fill="white"/>
<path d="M544.622 569.934L683.317 531.177L597.565 506.582L479.004 538.631L544.622 569.934Z" fill="url(#paint70_linear_1741_5431)"/>
<path d="M483.236 309.566L459.625 490.929L651.758 428.323L689.54 242.485L483.236 309.566Z" fill="url(#paint71_linear_1741_5431)"/>
<path d="M681.818 280.461L473.885 381.387L459.625 490.929L651.758 428.323L681.818 280.461Z" fill="url(#paint72_linear_1741_5431)"/>
<path d="M483.231 309.565L457.383 295.653L669.153 233.044L689.536 242.485L483.231 309.565Z" fill="url(#paint73_linear_1741_5431)"/>
<path d="M457.385 295.653L437.998 477.513L459.623 490.929L483.234 309.565L457.385 295.653Z" fill="url(#paint74_linear_1741_5431)"/>
<path d="M544.166 391.8L532.078 484.634L630.423 452.588L649.762 357.463L544.166 391.8Z" fill="url(#paint75_linear_1741_5431)"/>
<path d="M544.169 391.8L530.938 384.679L639.334 352.633L649.766 357.464L544.169 391.8Z" fill="url(#paint76_linear_1741_5431)"/>
<path d="M530.939 384.679L521.016 477.765L532.084 484.634L544.171 391.8L530.939 384.679Z" fill="url(#paint77_linear_1741_5431)"/>
<path d="M566.252 440.247L558.049 448.446C558.049 448.446 578.928 526.706 521.51 551.301L536.424 553.538L629.633 508.819L566.252 440.247Z" fill="url(#paint78_linear_1741_5431)"/>
<path d="M566.26 440.248C566.26 440.248 590.866 534.906 533.447 554.284L632.624 526.706C632.624 526.706 649.773 500.62 619.202 427.577C587.882 434.285 566.26 440.248 566.26 440.248Z" fill="url(#paint79_linear_1741_5431)"/>
<path d="M479.004 538.631V549.81L545.369 587.079V569.935L479.004 538.631Z" fill="url(#paint80_linear_1741_5431)"/>
<path d="M683.319 531.177V542.359L545.371 587.078V569.934L683.319 531.177Z" fill="url(#paint81_linear_1741_5431)"/>
<path d="M449.922 365.672L437.998 477.513L459.623 490.929L473.884 381.387L449.922 365.672Z" fill="url(#paint82_linear_1741_5431)"/>
<defs>
<linearGradient id="paint0_linear_1741_5431" x1="356.535" y1="297.118" x2="356.535" y2="864.408" gradientUnits="userSpaceOnUse">
<stop offset="0.13" stop-color="#001B68"/>
<stop offset="0.26" stop-color="#001B68" stop-opacity="0.92"/>
<stop offset="0.45" stop-color="#011C69" stop-opacity="0.69"/>
<stop offset="0.7" stop-color="#031D6A" stop-opacity="0.32"/>
<stop offset="0.89" stop-color="#041E6B" stop-opacity="0"/>
</linearGradient>
<linearGradient id="paint1_linear_1741_5431" x1="149.234" y1="167.209" x2="259.485" y2="167.209" gradientUnits="userSpaceOnUse">
<stop stop-color="#90F1FF"/>
<stop offset="0.01" stop-color="#8FEFFF"/>
<stop offset="0.12" stop-color="#83DEFF"/>
<stop offset="0.26" stop-color="#7BD3FF"/>
<stop offset="0.46" stop-color="#76CCFF"/>
<stop offset="1" stop-color="#75CAFF"/>
</linearGradient>
<linearGradient id="paint2_linear_1741_5431" x1="0" y1="549.308" x2="710.214" y2="549.308" gradientUnits="userSpaceOnUse">
<stop offset="0.01" stop-color="#6663B8"/>
<stop offset="0.36" stop-color="#756EBD"/>
<stop offset="1" stop-color="#9A89CA"/>
</linearGradient>
<linearGradient id="paint3_linear_1741_5431" x1="0" y1="594.31" x2="449.926" y2="594.31" gradientUnits="userSpaceOnUse">
<stop stop-color="#9A89CA"/>
<stop offset="0.01" stop-color="#9B89CA"/>
<stop offset="0.68" stop-color="#D29BCA"/>
<stop offset="1" stop-color="#E7A2CA"/>
</linearGradient>
<linearGradient id="paint4_linear_1741_5431" x1="449.61" y1="597.105" x2="710.209" y2="597.105" gradientUnits="userSpaceOnUse">
<stop offset="0.01" stop-color="#4F45B8"/>
<stop offset="0.24" stop-color="#5348B9"/>
<stop offset="0.47" stop-color="#5E53BC"/>
<stop offset="0.69" stop-color="#7265C0"/>
<stop offset="0.91" stop-color="#8D7DC7"/>
<stop offset="1" stop-color="#9A89CA"/>
</linearGradient>
<linearGradient id="paint5_linear_1741_5431" x1="0" y1="514.25" x2="710.214" y2="514.25" gradientUnits="userSpaceOnUse">
<stop stop-color="#452770"/>
<stop offset="0.23" stop-color="#462972" stop-opacity="0.97"/>
<stop offset="0.41" stop-color="#483079" stop-opacity="0.88"/>
<stop offset="0.58" stop-color="#4C3C86" stop-opacity="0.73"/>
<stop offset="0.74" stop-color="#514D97" stop-opacity="0.52"/>
<stop offset="0.89" stop-color="#5862AD" stop-opacity="0.24"/>
<stop offset="1" stop-color="#5E75C0" stop-opacity="0"/>
</linearGradient>
<linearGradient id="paint6_linear_1741_5431" x1="154.145" y1="540.618" x2="466.83" y2="540.618" gradientUnits="userSpaceOnUse">
<stop stop-color="#9A89CA"/>
<stop offset="0.39" stop-color="#9C8ACA"/>
<stop offset="0.58" stop-color="#A48CCA"/>
<stop offset="0.73" stop-color="#B190CA"/>
<stop offset="0.85" stop-color="#C396CA"/>
<stop offset="0.96" stop-color="#DB9ECA"/>
<stop offset="1" stop-color="#E7A2CA"/>
</linearGradient>
<linearGradient id="paint7_linear_1741_5431" x1="188.883" y1="538.382" x2="433.587" y2="538.382" gradientUnits="userSpaceOnUse">
<stop stop-color="#9A89CA"/>
<stop offset="0.01" stop-color="#9C8ACA"/>
<stop offset="0.15" stop-color="#B792CA"/>
<stop offset="0.31" stop-color="#CC99CA"/>
<stop offset="0.49" stop-color="#DB9ECA"/>
<stop offset="0.69" stop-color="#E4A1CA"/>
<stop offset="1" stop-color="#E7A2CA"/>
</linearGradient>
<linearGradient id="paint8_linear_1741_5431" x1="246543" y1="130166" x2="281955" y2="130166" gradientUnits="userSpaceOnUse">
<stop offset="0.01" stop-color="#4F45B8"/>
<stop offset="0.24" stop-color="#5348B9"/>
<stop offset="0.47" stop-color="#5E53BC"/>
<stop offset="0.69" stop-color="#7265C0"/>
<stop offset="0.91" stop-color="#8D7DC7"/>
<stop offset="1" stop-color="#9A89CA"/>
</linearGradient>
<linearGradient id="paint9_linear_1741_5431" x1="357785" y1="151320" x2="507969" y2="151320" gradientUnits="userSpaceOnUse">
<stop stop-color="#9A89CA"/>
<stop offset="0.01" stop-color="#9B89CA"/>
<stop offset="0.68" stop-color="#D29BCA"/>
<stop offset="1" stop-color="#E7A2CA"/>
</linearGradient>
<linearGradient id="paint10_linear_1741_5431" x1="157.699" y1="518.35" x2="466.827" y2="518.35" gradientUnits="userSpaceOnUse">
<stop stop-color="#452770"/>
<stop offset="0.05" stop-color="#472D76" stop-opacity="0.93"/>
<stop offset="0.35" stop-color="#514C96" stop-opacity="0.53"/>
<stop offset="0.62" stop-color="#5862AD" stop-opacity="0.24"/>
<stop offset="0.85" stop-color="#5C70BB" stop-opacity="0.06"/>
<stop offset="1" stop-color="#5E75C0" stop-opacity="0"/>
</linearGradient>
<radialGradient id="paint11_radial_1741_5431" cx="0" cy="0" r="1" gradientUnits="userSpaceOnUse" gradientTransform="translate(126.199 286.129) scale(34.4173 34.4017)">
<stop stop-color="#5E75C0"/>
<stop offset="0.6" stop-color="#5E75C0"/>
<stop offset="0.63" stop-color="#5E75C0"/>
</radialGradient>
<linearGradient id="paint12_linear_1741_5431" x1="122.272" y1="185.996" x2="297.191" y2="185.996" gradientUnits="userSpaceOnUse">
<stop stop-color="#90F1FF"/>
<stop offset="0.43" stop-color="#8EEFFF"/>
<stop offset="0.67" stop-color="#89E7FF"/>
<stop offset="0.87" stop-color="#7FD9FF"/>
<stop offset="1" stop-color="#75CAFF"/>
</linearGradient>
<linearGradient id="paint13_linear_1741_5431" x1="137.231" y1="212.92" x2="363.428" y2="212.92" gradientUnits="userSpaceOnUse">
<stop stop-color="#70366A"/>
<stop offset="0.05" stop-color="#75386A"/>
<stop offset="0.46" stop-color="#9C476A"/>
<stop offset="0.79" stop-color="#B3516A"/>
<stop offset="1" stop-color="#BC546A"/>
</linearGradient>
<linearGradient id="paint14_linear_1741_5431" x1="414.513" y1="643.996" x2="132.82" y2="116.142" gradientUnits="userSpaceOnUse">
<stop stop-color="#F9B890"/>
<stop offset="0.05" stop-color="#F9C095"/>
<stop offset="0.21" stop-color="#F9D4A3"/>
<stop offset="0.4" stop-color="#F9E2AC"/>
<stop offset="0.62" stop-color="#F9EBB1"/>
<stop offset="1" stop-color="#F9EDB3"/>
</linearGradient>
<linearGradient id="paint15_linear_1741_5431" x1="415.296" y1="640.357" x2="165.72" y2="172.686" gradientUnits="userSpaceOnUse">
<stop stop-color="#F97C5B"/>
<stop offset="0.09" stop-color="#F98B68"/>
<stop offset="0.24" stop-color="#F99F7A"/>
<stop offset="0.42" stop-color="#F9AD86"/>
<stop offset="0.64" stop-color="#F9B58E"/>
<stop offset="1" stop-color="#F9B890"/>
</linearGradient>
<linearGradient id="paint16_linear_1741_5431" x1="342.865" y1="209.203" x2="252.334" y2="389.227" gradientUnits="userSpaceOnUse">
<stop stop-color="#FF7593"/>
<stop offset="0.19" stop-color="#FF92A2"/>
<stop offset="0.38" stop-color="#FFABAE"/>
<stop offset="0.5" stop-color="#FFB4B3"/>
</linearGradient>
<linearGradient id="paint17_linear_1741_5431" x1="365.829" y1="184.326" x2="265.241" y2="383.355" gradientUnits="userSpaceOnUse">
<stop stop-color="#FF7593"/>
<stop offset="0.11" stop-color="#FF7694" stop-opacity="0.98"/>
<stop offset="0.23" stop-color="#FF7995" stop-opacity="0.93"/>
<stop offset="0.34" stop-color="#FF7E98" stop-opacity="0.85"/>
<stop offset="0.46" stop-color="#FF869B" stop-opacity="0.74"/>
<stop offset="0.59" stop-color="#FF8FA0" stop-opacity="0.59"/>
<stop offset="0.71" stop-color="#FF9BA6" stop-opacity="0.4"/>
<stop offset="0.83" stop-color="#FFA8AD" stop-opacity="0.19"/>
<stop offset="0.93" stop-color="#FFB4B3" stop-opacity="0"/>
</linearGradient>
<linearGradient id="paint18_linear_1741_5431" x1="94.91" y1="560.597" x2="46.8567" y2="321.348" gradientUnits="userSpaceOnUse">
<stop stop-color="#FF7593"/>
<stop offset="0.26" stop-color="#FF8099"/>
<stop offset="0.71" stop-color="#FF9EA8"/>
<stop offset="1" stop-color="#FFB4B3"/>
</linearGradient>
<linearGradient id="paint19_linear_1741_5431" x1="50.7965" y1="532.877" x2="76.4975" y2="348.414" gradientUnits="userSpaceOnUse">
<stop stop-color="#FFA9AE"/>
<stop offset="0.02" stop-color="#FFAEB0"/>
<stop offset="0.1" stop-color="#FFC1BA"/>
<stop offset="0.19" stop-color="#FFCEC0"/>
<stop offset="0.31" stop-color="#FFD6C4"/>
<stop offset="0.55" stop-color="#FFD8C5"/>
<stop offset="0.67" stop-color="#FFD1C2"/>
<stop offset="0.85" stop-color="#FFBEB8"/>
<stop offset="1" stop-color="#FFA9AE"/>
</linearGradient>
<linearGradient id="paint20_linear_1741_5431" x1="336.614" y1="466.257" x2="429.044" y2="466.257" gradientUnits="userSpaceOnUse">
<stop stop-color="#FFA9AE"/>
<stop offset="0.03" stop-color="#FFAEB0"/>
<stop offset="0.18" stop-color="#FFC1BA"/>
<stop offset="0.35" stop-color="#FFCEC0"/>
<stop offset="0.57" stop-color="#FFD6C4"/>
<stop offset="1" stop-color="#FFD8C5"/>
</linearGradient>
<linearGradient id="paint21_linear_1741_5431" x1="416.493" y1="505.183" x2="337.477" y2="448.506" gradientUnits="userSpaceOnUse">
<stop stop-color="#FF7593"/>
<stop offset="0.09" stop-color="#FF7694" stop-opacity="0.98"/>
<stop offset="0.22" stop-color="#FF7B96" stop-opacity="0.91"/>
<stop offset="0.36" stop-color="#FF8299" stop-opacity="0.8"/>
<stop offset="0.52" stop-color="#FF8B9E" stop-opacity="0.64"/>
<stop offset="0.69" stop-color="#FF98A5" stop-opacity="0.44"/>
<stop offset="0.86" stop-color="#FFA7AC" stop-opacity="0.21"/>
<stop offset="1" stop-color="#FFB4B3" stop-opacity="0"/>
</linearGradient>
<linearGradient id="paint22_linear_1741_5431" x1="381.701" y1="452.172" x2="413.764" y2="452.172" gradientUnits="userSpaceOnUse">
<stop stop-color="#4B81E8"/>
<stop offset="0.02" stop-color="#4A7FE5"/>
<stop offset="0.24" stop-color="#456ECD"/>
<stop offset="0.46" stop-color="#4162BC"/>
<stop offset="0.71" stop-color="#3F5BB1"/>
<stop offset="1" stop-color="#3E59AE"/>
</linearGradient>
<linearGradient id="paint23_linear_1741_5431" x1="337.303" y1="281.634" x2="335.316" y2="435.669" gradientUnits="userSpaceOnUse">
<stop stop-color="#FFD8C5"/>
<stop offset="0.28" stop-color="#FFD1C2"/>
<stop offset="0.67" stop-color="#FFBEB8"/>
<stop offset="1" stop-color="#FFA9AE"/>
</linearGradient>
<linearGradient id="paint24_linear_1741_5431" x1="365.229" y1="418.971" x2="271.835" y2="248.006" gradientUnits="userSpaceOnUse">
<stop stop-color="#FF7593"/>
<stop offset="0.03" stop-color="#FF7B96" stop-opacity="0.91"/>
<stop offset="0.09" stop-color="#FF879C" stop-opacity="0.72"/>
<stop offset="0.16" stop-color="#FF92A1" stop-opacity="0.55"/>
<stop offset="0.23" stop-color="#FF9BA6" stop-opacity="0.4"/>
<stop offset="0.3" stop-color="#FFA3AA" stop-opacity="0.28"/>
<stop offset="0.39" stop-color="#FFA9AD" stop-opacity="0.17"/>
<stop offset="0.48" stop-color="#FFAEB0" stop-opacity="0.1"/>
<stop offset="0.58" stop-color="#FFB1B2" stop-opacity="0.04"/>
<stop offset="0.71" stop-color="#FFB3B3" stop-opacity="0.01"/>
<stop offset="0.93" stop-color="#FFB4B3" stop-opacity="0"/>
</linearGradient>
<linearGradient id="paint25_linear_1741_5431" x1="520511" y1="325638" x2="676078" y2="118586" gradientUnits="userSpaceOnUse">
<stop stop-color="#FFA9AE"/>
<stop offset="0.02" stop-color="#FFAEB0"/>
<stop offset="0.1" stop-color="#FFC1BA"/>
<stop offset="0.19" stop-color="#FFCEC0"/>
<stop offset="0.31" stop-color="#FFD6C4"/>
<stop offset="0.55" stop-color="#FFD8C5"/>
<stop offset="0.67" stop-color="#FFD1C2"/>
<stop offset="0.85" stop-color="#FFBEB8"/>
<stop offset="1" stop-color="#FFA9AE"/>
</linearGradient>
<linearGradient id="paint26_linear_1741_5431" x1="290979" y1="464426" x2="454932" y2="464426" gradientUnits="userSpaceOnUse">
<stop stop-color="#FFA9AE"/>
<stop offset="0.02" stop-color="#FFAEB0"/>
<stop offset="0.1" stop-color="#FFC1BA"/>
<stop offset="0.19" stop-color="#FFCEC0"/>
<stop offset="0.31" stop-color="#FFD6C4"/>
<stop offset="0.55" stop-color="#FFD8C5"/>
<stop offset="0.67" stop-color="#FFD1C2"/>
<stop offset="0.85" stop-color="#FFBEB8"/>
<stop offset="1" stop-color="#FFA9AE"/>
</linearGradient>
<linearGradient id="paint27_linear_1741_5431" x1="42.7652" y1="441.769" x2="263.511" y2="441.769" gradientUnits="userSpaceOnUse">
<stop stop-color="#FF7593"/>
<stop offset="0.07" stop-color="#FF8099" stop-opacity="0.83"/>
<stop offset="0.15" stop-color="#FF8C9F" stop-opacity="0.64"/>
<stop offset="0.24" stop-color="#FF97A4" stop-opacity="0.47"/>
<stop offset="0.34" stop-color="#FFA0A9" stop-opacity="0.32"/>
<stop offset="0.43" stop-color="#FFA7AC" stop-opacity="0.2"/>
<stop offset="0.54" stop-color="#FFADAF" stop-opacity="0.11"/>
<stop offset="0.64" stop-color="#FFB1B1" stop-opacity="0.05"/>
<stop offset="0.77" stop-color="#FFB3B3" stop-opacity="0.01"/>
<stop offset="0.93" stop-color="#FFB4B3" stop-opacity="0"/>
</linearGradient>
<linearGradient id="paint28_linear_1741_5431" x1="188.3" y1="304.946" x2="387.332" y2="433.591" gradientUnits="userSpaceOnUse">
<stop stop-color="#FFA9AE"/>
<stop offset="0.15" stop-color="#FFBAB6"/>
<stop offset="0.38" stop-color="#FFCBBE"/>
<stop offset="0.62" stop-color="#FFD5C3"/>
<stop offset="0.92" stop-color="#FFD8C5"/>
</linearGradient>
<linearGradient id="paint29_linear_1741_5431" x1="188009" y1="182492" x2="201586" y2="142740" gradientUnits="userSpaceOnUse">
<stop stop-color="#FF7593"/>
<stop offset="0.07" stop-color="#FF8099" stop-opacity="0.83"/>
<stop offset="0.15" stop-color="#FF8C9F" stop-opacity="0.64"/>
<stop offset="0.24" stop-color="#FF97A4" stop-opacity="0.47"/>
<stop offset="0.34" stop-color="#FFA0A9" stop-opacity="0.32"/>
<stop offset="0.43" stop-color="#FFA7AC" stop-opacity="0.2"/>
<stop offset="0.54" stop-color="#FFADAF" stop-opacity="0.11"/>
<stop offset="0.64" stop-color="#FFB1B1" stop-opacity="0.05"/>
<stop offset="0.77" stop-color="#FFB3B3" stop-opacity="0.01"/>
<stop offset="0.93" stop-color="#FFB4B3" stop-opacity="0"/>
</linearGradient>
<linearGradient id="paint30_linear_1741_5431" x1="427.056" y1="453.105" x2="631.868" y2="453.105" gradientUnits="userSpaceOnUse">
<stop offset="0.55" stop-color="#FFD8C5"/>
<stop offset="0.67" stop-color="#FFD1C2"/>
<stop offset="0.85" stop-color="#FFBEB8"/>
<stop offset="1" stop-color="#FFA9AE"/>
</linearGradient>
<linearGradient id="paint31_linear_1741_5431" x1="165834" y1="172932" x2="181669" y2="172932" gradientUnits="userSpaceOnUse">
<stop stop-color="#FFA9AE"/>
<stop offset="0.03" stop-color="#FFAEB0"/>
<stop offset="0.18" stop-color="#FFC1BA"/>
<stop offset="0.35" stop-color="#FFCEC0"/>
<stop offset="0.57" stop-color="#FFD6C4"/>
<stop offset="1" stop-color="#FFD8C5"/>
</linearGradient>
<linearGradient id="paint32_linear_1741_5431" x1="392.57" y1="545.47" x2="332.925" y2="520.11" gradientUnits="userSpaceOnUse">
<stop stop-color="#FFD8C5"/>
<stop offset="0.05" stop-color="#FFCEC0"/>
<stop offset="0.15" stop-color="#FFBDB8"/>
<stop offset="0.29" stop-color="#FFB2B2"/>
<stop offset="0.48" stop-color="#FFABAF"/>
<stop offset="1" stop-color="#FFA9AE"/>
</linearGradient>
<linearGradient id="paint33_linear_1741_5431" x1="384.572" y1="530.972" x2="337.615" y2="486.232" gradientUnits="userSpaceOnUse">
<stop stop-color="#FFD8C5"/>
<stop offset="0.02" stop-color="#FFD4C3"/>
<stop offset="0.18" stop-color="#FFC1BA"/>
<stop offset="0.36" stop-color="#FFB3B3"/>
<stop offset="0.59" stop-color="#FFABAF"/>
<stop offset="1" stop-color="#FFA9AE"/>
</linearGradient>
<linearGradient id="paint34_linear_1741_5431" x1="395.604" y1="511.187" x2="347.151" y2="473.152" gradientUnits="userSpaceOnUse">
<stop stop-color="#FFD8C5"/>
<stop offset="0.37" stop-color="#FFBFB9"/>
<stop offset="0.73" stop-color="#FFAFB1"/>
<stop offset="1" stop-color="#FFA9AE"/>
</linearGradient>
<linearGradient id="paint35_linear_1741_5431" x1="104843" y1="75614" x2="98274.4" y2="67462.3" gradientUnits="userSpaceOnUse">
<stop stop-color="#FFD8C5"/>
<stop offset="0.28" stop-color="#FFD1C2"/>
<stop offset="0.67" stop-color="#FFBEB8"/>
<stop offset="1" stop-color="#FFA9AE"/>
</linearGradient>
<linearGradient id="paint36_linear_1741_5431" x1="500.365" y1="181.207" x2="612.982" y2="181.207" gradientUnits="userSpaceOnUse">
<stop stop-color="#CC5968"/>
<stop offset="0.58" stop-color="#CC8D90"/>
</linearGradient>
<linearGradient id="paint37_linear_1741_5431" x1="500.366" y1="171.064" x2="612.974" y2="171.064" gradientUnits="userSpaceOnUse">
<stop stop-color="#F9B890" stop-opacity="0"/>
<stop offset="0.12" stop-color="#F9BD93" stop-opacity="0.09"/>
<stop offset="0.38" stop-color="#F9CA9C" stop-opacity="0.34"/>
<stop offset="0.75" stop-color="#F9DEA9" stop-opacity="0.72"/>
<stop offset="1" stop-color="#F9EDB3"/>
</linearGradient>
<linearGradient id="paint38_linear_1741_5431" x1="588.714" y1="468.405" x2="433.651" y2="555.669" gradientUnits="userSpaceOnUse">
<stop stop-color="#FF7593"/>
<stop offset="0.17" stop-color="#FF839A" stop-opacity="0.77"/>
<stop offset="0.4" stop-color="#FF94A3" stop-opacity="0.5"/>
<stop offset="0.6" stop-color="#FFA2AA" stop-opacity="0.29"/>
<stop offset="0.78" stop-color="#FFACAF" stop-opacity="0.13"/>
<stop offset="0.92" stop-color="#FFB2B2" stop-opacity="0.04"/>
<stop offset="1" stop-color="#FFB4B3" stop-opacity="0"/>
</linearGradient>
<linearGradient id="paint39_linear_1741_5431" x1="456.266" y1="72.6483" x2="511.36" y2="72.6483" gradientUnits="userSpaceOnUse">
<stop stop-color="#BC546A"/>
<stop offset="0.14" stop-color="#A44A6A"/>
<stop offset="0.32" stop-color="#8D416A"/>
<stop offset="0.51" stop-color="#7D3B6A"/>
<stop offset="0.72" stop-color="#73376A"/>
<stop offset="1" stop-color="#70366A"/>
</linearGradient>
<linearGradient id="paint40_linear_1741_5431" x1="173526" y1="40616" x2="193765" y2="40616" gradientUnits="userSpaceOnUse">
<stop stop-color="#BC546A"/>
<stop offset="0.14" stop-color="#A44A6A"/>
<stop offset="0.32" stop-color="#8D416A"/>
<stop offset="0.51" stop-color="#7D3B6A"/>
<stop offset="0.72" stop-color="#73376A"/>
<stop offset="1" stop-color="#70366A"/>
</linearGradient>
<linearGradient id="paint41_linear_1741_5431" x1="500998" y1="59403.4" x2="678706" y2="59403.4" gradientUnits="userSpaceOnUse">
<stop stop-color="#CC5968"/>
<stop offset="0.58" stop-color="#CC8D90"/>
</linearGradient>
<linearGradient id="paint42_linear_1741_5431" x1="355.147" y1="40.8971" x2="498.055" y2="40.8971" gradientUnits="userSpaceOnUse">
<stop stop-color="#F9EDB3"/>
<stop offset="0.07" stop-color="#F9E7AF" stop-opacity="0.88"/>
<stop offset="0.21" stop-color="#F9DAA7" stop-opacity="0.65"/>
<stop offset="0.35" stop-color="#F9D0A0" stop-opacity="0.45"/>
<stop offset="0.49" stop-color="#F9C79A" stop-opacity="0.29"/>
<stop offset="0.63" stop-color="#F9C196" stop-opacity="0.16"/>
<stop offset="0.76" stop-color="#F9BC93" stop-opacity="0.07"/>
<stop offset="0.89" stop-color="#F9B991" stop-opacity="0.02"/>
<stop offset="1" stop-color="#F9B890" stop-opacity="0"/>
</linearGradient>
<linearGradient id="paint43_linear_1741_5431" x1="508.587" y1="43.5286" x2="438.547" y2="186.657" gradientUnits="userSpaceOnUse">
<stop stop-color="#CC5968"/>
<stop offset="0.34" stop-color="#CC5C6A"/>
<stop offset="0.58" stop-color="#CC6571"/>
<stop offset="0.79" stop-color="#CC757D"/>
<stop offset="0.98" stop-color="#CC8A8E"/>
<stop offset="1" stop-color="#CC8D90"/>
</linearGradient>
<linearGradient id="paint44_linear_1741_5431" x1="148768" y1="58823.3" x2="166128" y2="58823.3" gradientUnits="userSpaceOnUse">
<stop stop-color="#FFA9AE"/>
<stop offset="0.03" stop-color="#FFAEB0"/>
<stop offset="0.18" stop-color="#FFC1BA"/>
<stop offset="0.35" stop-color="#FFCEC0"/>
<stop offset="0.57" stop-color="#FFD6C4"/>
<stop offset="1" stop-color="#FFD8C5"/>
</linearGradient>
<linearGradient id="paint45_linear_1741_5431" x1="317.798" y1="155.465" x2="286.511" y2="76.2896" gradientUnits="userSpaceOnUse">
<stop offset="0.01" stop-color="#FF7593"/>
<stop offset="0.23" stop-color="#FF869C"/>
<stop offset="0.73" stop-color="#FFA7AD"/>
<stop offset="1" stop-color="#FFB4B3"/>
</linearGradient>
<linearGradient id="paint46_linear_1741_5431" x1="46643" y1="18950.2" x2="45549.5" y2="16183.1" gradientUnits="userSpaceOnUse">
<stop stop-color="#FFA9AE"/>
<stop offset="0.02" stop-color="#FFAEB0"/>
<stop offset="0.1" stop-color="#FFC1BA"/>
<stop offset="0.19" stop-color="#FFCEC0"/>
<stop offset="0.31" stop-color="#FFD6C4"/>
<stop offset="0.55" stop-color="#FFD8C5"/>
<stop offset="0.67" stop-color="#FFD1C2"/>
<stop offset="0.85" stop-color="#FFBEB8"/>
<stop offset="1" stop-color="#FFA9AE"/>
</linearGradient>
<linearGradient id="paint47_linear_1741_5431" x1="110.398" y1="339.861" x2="82.4233" y2="287.443" gradientUnits="userSpaceOnUse">
<stop offset="0.01" stop-color="#F9FFD8"/>
<stop offset="0.33" stop-color="#F9FDD4"/>
<stop offset="0.67" stop-color="#F9F7C7"/>
<stop offset="1" stop-color="#F9EDB3"/>
</linearGradient>
<linearGradient id="paint48_linear_1741_5431" x1="242115" y1="127645" x2="271816" y2="127645" gradientUnits="userSpaceOnUse">
<stop stop-color="#FFA9AE"/>
<stop offset="0.03" stop-color="#FFAEB0"/>
<stop offset="0.18" stop-color="#FFC1BA"/>
<stop offset="0.35" stop-color="#FFCEC0"/>
<stop offset="0.57" stop-color="#FFD6C4"/>
<stop offset="1" stop-color="#FFD8C5"/>
</linearGradient>
<linearGradient id="paint49_linear_1741_5431" x1="429.049" y1="274.038" x2="496.159" y2="274.038" gradientUnits="userSpaceOnUse">
<stop offset="0.01" stop-color="#FF7593"/>
<stop offset="0.25" stop-color="#FF7995"/>
<stop offset="0.51" stop-color="#FF859B"/>
<stop offset="0.76" stop-color="#FF9AA6"/>
<stop offset="1" stop-color="#FFB4B3"/>
</linearGradient>
<linearGradient id="paint50_linear_1741_5431" x1="439.988" y1="274.038" x2="485.224" y2="274.038" gradientUnits="userSpaceOnUse">
<stop stop-color="#FFA9AE"/>
<stop offset="0.35" stop-color="#FFB6B4"/>
<stop offset="1" stop-color="#FFD8C5"/>
</linearGradient>
<linearGradient id="paint51_linear_1741_5431" x1="351.152" y1="235.373" x2="516.545" y2="235.373" gradientUnits="userSpaceOnUse">
<stop offset="0.55" stop-color="#FFD8C5"/>
<stop offset="0.75" stop-color="#FFD6C4"/>
<stop offset="0.84" stop-color="#FFCEC0"/>
<stop offset="0.92" stop-color="#FFC1BA"/>
<stop offset="0.99" stop-color="#FFAEB1"/>
<stop offset="1" stop-color="#FFA9AE"/>
</linearGradient>
<linearGradient id="paint52_linear_1741_5431" x1="358.01" y1="184.763" x2="394.888" y2="305.511" gradientUnits="userSpaceOnUse">
<stop offset="0.01" stop-color="#FF7593"/>
<stop offset="0.13" stop-color="#FF899D"/>
<stop offset="0.36" stop-color="#FFA8AD"/>
<stop offset="0.48" stop-color="#FFB4B3"/>
</linearGradient>
<linearGradient id="paint53_linear_1741_5431" x1="410039" y1="217500" x2="512184" y2="217500" gradientUnits="userSpaceOnUse">
<stop stop-color="#90F1FF"/>
<stop offset="0.01" stop-color="#8FEFFF"/>
<stop offset="0.12" stop-color="#83DEFF"/>
<stop offset="0.26" stop-color="#7BD3FF"/>
<stop offset="0.46" stop-color="#76CCFF"/>
<stop offset="1" stop-color="#75CAFF"/>
</linearGradient>
<linearGradient id="paint54_linear_1741_5431" x1="322.166" y1="335.402" x2="389.773" y2="335.402" gradientUnits="userSpaceOnUse">
<stop stop-color="#90F1FF"/>
<stop offset="0.13" stop-color="#85E1FF"/>
<stop offset="0.31" stop-color="#7CD4FF"/>
<stop offset="0.54" stop-color="#77CCFF"/>
<stop offset="1" stop-color="#75CAFF"/>
</linearGradient>
<linearGradient id="paint55_linear_1741_5431" x1="379.61" y1="296.869" x2="321.244" y2="412.355" gradientUnits="userSpaceOnUse">
<stop stop-color="#4B81E8" stop-opacity="0"/>
<stop offset="0.07" stop-color="#4A7DE3" stop-opacity="0.09"/>
<stop offset="0.4" stop-color="#456ECC" stop-opacity="0.48"/>
<stop offset="0.67" stop-color="#4163BC" stop-opacity="0.76"/>
<stop offset="0.88" stop-color="#3F5CB2" stop-opacity="0.93"/>
<stop offset="1" stop-color="#3E59AE"/>
</linearGradient>
<linearGradient id="paint56_linear_1741_5431" x1="160657" y1="98854.8" x2="183088" y2="98854.8" gradientUnits="userSpaceOnUse">
<stop stop-color="#90F1FF"/>
<stop offset="0.13" stop-color="#85E1FF"/>
<stop offset="0.31" stop-color="#7CD4FF"/>
<stop offset="0.54" stop-color="#77CCFF"/>
<stop offset="1" stop-color="#75CAFF"/>
</linearGradient>
<linearGradient id="paint57_linear_1741_5431" x1="98528.8" y1="95344.2" x2="106033" y2="95344.2" gradientUnits="userSpaceOnUse">
<stop stop-color="#4B81E8" stop-opacity="0"/>
<stop offset="0.07" stop-color="#4A7DE3" stop-opacity="0.09"/>
<stop offset="0.4" stop-color="#456ECC" stop-opacity="0.48"/>
<stop offset="0.67" stop-color="#4163BC" stop-opacity="0.76"/>
<stop offset="0.88" stop-color="#3F5CB2" stop-opacity="0.93"/>
<stop offset="1" stop-color="#3E59AE"/>
</linearGradient>
<linearGradient id="paint58_linear_1741_5431" x1="114951" y1="67172.2" x2="122321" y2="75322.2" gradientUnits="userSpaceOnUse">
<stop stop-color="#FFD8C5"/>
<stop offset="0.28" stop-color="#FFD1C2"/>
<stop offset="0.67" stop-color="#FFBEB8"/>
<stop offset="1" stop-color="#FFA9AE"/>
</linearGradient>
<linearGradient id="paint59_linear_1741_5431" x1="314.583" y1="434.52" x2="228.602" y2="381.816" gradientUnits="userSpaceOnUse">
<stop stop-color="#FF7593"/>
<stop offset="0.09" stop-color="#FF7995" stop-opacity="0.94"/>
<stop offset="0.25" stop-color="#FF829A" stop-opacity="0.79"/>
<stop offset="0.48" stop-color="#FF92A1" stop-opacity="0.55"/>
<stop offset="0.76" stop-color="#FFA6AC" stop-opacity="0.21"/>
<stop offset="0.93" stop-color="#FFB4B3" stop-opacity="0"/>
</linearGradient>
<linearGradient id="paint60_linear_1741_5431" x1="252.792" y1="358.917" x2="317.884" y2="427.518" gradientUnits="userSpaceOnUse">
<stop stop-color="#FFD8C5"/>
<stop offset="0.38" stop-color="#FFD5C4"/>
<stop offset="0.62" stop-color="#FFCDC0"/>
<stop offset="0.82" stop-color="#FFBEB8"/>
<stop offset="1" stop-color="#FFA9AE"/>
</linearGradient>
<linearGradient id="paint61_linear_1741_5431" x1="121104" y1="68721.3" x2="110973" y2="55222.4" gradientUnits="userSpaceOnUse">
<stop stop-color="#FF7593"/>
<stop offset="0.09" stop-color="#FF7995" stop-opacity="0.94"/>
<stop offset="0.25" stop-color="#FF829A" stop-opacity="0.79"/>
<stop offset="0.48" stop-color="#FF92A1" stop-opacity="0.55"/>
<stop offset="0.76" stop-color="#FFA6AC" stop-opacity="0.21"/>
<stop offset="0.93" stop-color="#FFB4B3" stop-opacity="0"/>
</linearGradient>
<linearGradient id="paint62_linear_1741_5431" x1="279.647" y1="342.03" x2="327.837" y2="414.594" gradientUnits="userSpaceOnUse">
<stop stop-color="#FFD8C5"/>
<stop offset="0.3" stop-color="#FFCEC0"/>
<stop offset="0.81" stop-color="#FFB4B4"/>
<stop offset="1" stop-color="#FFA9AE"/>
</linearGradient>
<linearGradient id="paint63_linear_1741_5431" x1="116523" y1="86945.5" x2="105649" y2="80143.8" gradientUnits="userSpaceOnUse">
<stop stop-color="#FF7593"/>
<stop offset="0.09" stop-color="#FF7995" stop-opacity="0.94"/>
<stop offset="0.25" stop-color="#FF829A" stop-opacity="0.79"/>
<stop offset="0.48" stop-color="#FF92A1" stop-opacity="0.55"/>
<stop offset="0.76" stop-color="#FFA6AC" stop-opacity="0.21"/>
<stop offset="0.93" stop-color="#FFB4B3" stop-opacity="0"/>
</linearGradient>
<linearGradient id="paint64_linear_1741_5431" x1="106956" y1="84494.5" x2="116609" y2="105210" gradientUnits="userSpaceOnUse">
<stop stop-color="#FFD8C5"/>
<stop offset="0.28" stop-color="#FFD1C2"/>
<stop offset="0.67" stop-color="#FFBEB8"/>
<stop offset="1" stop-color="#FFA9AE"/>
</linearGradient>
<linearGradient id="paint65_linear_1741_5431" x1="234.661" y1="439.486" x2="280.275" y2="439.486" gradientUnits="userSpaceOnUse">
<stop stop-color="#4B81E8"/>
<stop offset="0.5" stop-color="#4B80E6"/>
<stop offset="0.68" stop-color="#497BDF"/>
<stop offset="0.81" stop-color="#4673D4"/>
<stop offset="0.91" stop-color="#4367C3"/>
<stop offset="1" stop-color="#3E59AE"/>
</linearGradient>
<linearGradient id="paint66_linear_1741_5431" x1="339.318" y1="267.731" x2="535.431" y2="267.731" gradientUnits="userSpaceOnUse">
<stop stop-color="#90F1FF"/>
<stop offset="0.31" stop-color="#8CEBFF"/>
<stop offset="0.71" stop-color="#80DAFF"/>
<stop offset="1" stop-color="#75CAFF"/>
</linearGradient>
<linearGradient id="paint67_linear_1741_5431" x1="209357" y1="153041" x2="234126" y2="153041" gradientUnits="userSpaceOnUse">
<stop stop-color="#90F1FF"/>
<stop offset="0.01" stop-color="#8FEFFF"/>
<stop offset="0.12" stop-color="#83DEFF"/>
<stop offset="0.26" stop-color="#7BD3FF"/>
<stop offset="0.46" stop-color="#76CCFF"/>
<stop offset="1" stop-color="#75CAFF"/>
</linearGradient>
<linearGradient id="paint68_linear_1741_5431" x1="234667" y1="173062" x2="266285" y2="173062" gradientUnits="userSpaceOnUse">
<stop stop-color="#90F1FF"/>
<stop offset="0.13" stop-color="#85E1FF"/>
<stop offset="0.31" stop-color="#7CD4FF"/>
<stop offset="0.54" stop-color="#77CCFF"/>
<stop offset="1" stop-color="#75CAFF"/>
</linearGradient>
<linearGradient id="paint69_linear_1741_5431" x1="233897" y1="132628" x2="265274" y2="132628" gradientUnits="userSpaceOnUse">
<stop stop-color="#4B81E8" stop-opacity="0"/>
<stop offset="0.07" stop-color="#4A7DE3" stop-opacity="0.09"/>
<stop offset="0.4" stop-color="#456ECC" stop-opacity="0.48"/>
<stop offset="0.67" stop-color="#4163BC" stop-opacity="0.76"/>
<stop offset="0.88" stop-color="#3F5CB2" stop-opacity="0.93"/>
<stop offset="1" stop-color="#3E59AE"/>
</linearGradient>
<linearGradient id="paint70_linear_1741_5431" x1="569649" y1="142806" x2="710100" y2="142806" gradientUnits="userSpaceOnUse">
<stop offset="0.01" stop-color="#6663B8"/>
<stop offset="0.36" stop-color="#756EBD"/>
<stop offset="1" stop-color="#9A89CA"/>
</linearGradient>
<linearGradient id="paint71_linear_1741_5431" x1="574.581" y1="495.403" x2="574.581" y2="203.277" gradientUnits="userSpaceOnUse">
<stop stop-color="#452770"/>
<stop offset="0.21" stop-color="#48317B"/>
<stop offset="0.57" stop-color="#514D97"/>
<stop offset="1" stop-color="#5E75C0"/>
</linearGradient>
<linearGradient id="paint72_linear_1741_5431" x1="691.308" y1="448.004" x2="427.404" y2="311.519" gradientUnits="userSpaceOnUse">
<stop stop-color="#452770"/>
<stop offset="0.26" stop-color="#462972" stop-opacity="0.98"/>
<stop offset="0.44" stop-color="#482F78" stop-opacity="0.89"/>
<stop offset="0.6" stop-color="#4B3A83" stop-opacity="0.76"/>
<stop offset="0.74" stop-color="#504993" stop-opacity="0.57"/>
<stop offset="0.87" stop-color="#565CA6" stop-opacity="0.32"/>
<stop offset="0.99" stop-color="#5E74BF" stop-opacity="0.02"/>
<stop offset="1" stop-color="#5E75C0" stop-opacity="0"/>
</linearGradient>
<linearGradient id="paint73_linear_1741_5431" x1="457.383" y1="271.305" x2="689.536" y2="271.305" gradientUnits="userSpaceOnUse">
<stop stop-color="#9A89CA"/>
<stop offset="0.3" stop-color="#9D8ACA"/>
<stop offset="0.51" stop-color="#A68DCA"/>
<stop offset="0.69" stop-color="#B592CA"/>
<stop offset="0.85" stop-color="#CA99CA"/>
<stop offset="0.99" stop-color="#E6A2CA"/>
<stop offset="1" stop-color="#E7A2CA"/>
</linearGradient>
<linearGradient id="paint74_linear_1741_5431" x1="118621" y1="419492" x2="211626" y2="339148" gradientUnits="userSpaceOnUse">
<stop offset="0.01" stop-color="#4F45B8"/>
<stop offset="0.24" stop-color="#5348B9"/>
<stop offset="0.47" stop-color="#5E53BC"/>
<stop offset="0.69" stop-color="#7265C0"/>
<stop offset="0.91" stop-color="#8D7DC7"/>
<stop offset="1" stop-color="#9A89CA"/>
</linearGradient>
<linearGradient id="paint75_linear_1741_5431" x1="532.078" y1="421.05" x2="649.762" y2="421.05" gradientUnits="userSpaceOnUse">
<stop stop-color="#452770"/>
<stop offset="0.3" stop-color="#462A73"/>
<stop offset="0.5" stop-color="#49327C"/>
<stop offset="0.68" stop-color="#4D418B"/>
<stop offset="0.84" stop-color="#5456A1"/>
<stop offset="0.98" stop-color="#5D71BC"/>
<stop offset="1" stop-color="#5E75C0"/>
</linearGradient>
<linearGradient id="paint76_linear_1741_5431" x1="352323" y1="66436.7" x2="399832" y2="66436.7" gradientUnits="userSpaceOnUse">
<stop stop-color="#9A89CA"/>
<stop offset="0.01" stop-color="#9B89CA"/>
<stop offset="0.68" stop-color="#D29BCA"/>
<stop offset="1" stop-color="#E7A2CA"/>
</linearGradient>
<linearGradient id="paint77_linear_1741_5431" x1="68412" y1="206660" x2="98684.1" y2="168408" gradientUnits="userSpaceOnUse">
<stop offset="0.01" stop-color="#4F45B8"/>
<stop offset="0.24" stop-color="#5348B9"/>
<stop offset="0.47" stop-color="#5E53BC"/>
<stop offset="0.69" stop-color="#7265C0"/>
<stop offset="0.91" stop-color="#8D7DC7"/>
<stop offset="1" stop-color="#9A89CA"/>
</linearGradient>
<linearGradient id="paint78_linear_1741_5431" x1="317190" y1="239135" x2="356524" y2="239135" gradientUnits="userSpaceOnUse">
<stop stop-color="#9A89CA"/>
<stop offset="0.01" stop-color="#9B89CA"/>
<stop offset="0.68" stop-color="#D29BCA"/>
<stop offset="1" stop-color="#E7A2CA"/>
</linearGradient>
<linearGradient id="paint79_linear_1741_5431" x1="585.433" y1="553.221" x2="585.433" y2="396.018" gradientUnits="userSpaceOnUse">
<stop offset="0.01" stop-color="#4F45B8"/>
<stop offset="0.28" stop-color="#5F53BC"/>
<stop offset="0.79" stop-color="#8878C6"/>
<stop offset="1" stop-color="#9A89CA"/>
</linearGradient>
<linearGradient id="paint80_linear_1741_5431" x1="185356" y1="113371" x2="200175" y2="113371" gradientUnits="userSpaceOnUse">
<stop stop-color="#9A89CA"/>
<stop offset="0.01" stop-color="#9B89CA"/>
<stop offset="0.68" stop-color="#D29BCA"/>
<stop offset="1" stop-color="#E7A2CA"/>
</linearGradient>
<linearGradient id="paint81_linear_1741_5431" x1="415641" y1="130021" x2="479668" y2="130021" gradientUnits="userSpaceOnUse">
<stop offset="0.01" stop-color="#4F45B8"/>
<stop offset="0.24" stop-color="#5348B9"/>
<stop offset="0.47" stop-color="#5E53BC"/>
<stop offset="0.69" stop-color="#7265C0"/>
<stop offset="0.91" stop-color="#8D7DC7"/>
<stop offset="1" stop-color="#9A89CA"/>
</linearGradient>
<linearGradient id="paint82_linear_1741_5431" x1="102390" y1="209295" x2="74947.2" y2="221250" gradientUnits="userSpaceOnUse">
<stop stop-color="#452770"/>
<stop offset="0.21" stop-color="#48317B"/>
<stop offset="0.57" stop-color="#514D97"/>
<stop offset="1" stop-color="#5E75C0"/>
</linearGradient>
</defs>
</svg>
