<svg width="720" height="871" viewBox="0 0 720 871" fill="none" xmlns="http://www.w3.org/2000/svg">
<path d="M715.236 870.329H0L4.38077 743.36L715.236 749.303V870.329Z" fill="url(#paint0_linear_1741_5232)"/>
<path d="M4.06055 735.263L240.736 870.473L715.239 749.303L396.742 625.751L4.06055 735.263Z" fill="url(#paint1_linear_1741_5232)"/>
<path d="M3.62305 734.824V749.718L212.404 870.474H240.735L3.62305 734.824Z" fill="url(#paint2_linear_1741_5232)"/>
<path d="M715.237 749.304L3.62305 734.824L240.44 870.474H374.492L715.237 749.304Z" fill="url(#paint3_linear_1741_5232)"/>
<path d="M0.0585938 678.077L56.0716 704.553L125.012 686.696L67.767 663.299L0.0585938 678.077Z" fill="url(#paint4_linear_1741_5232)"/>
<path d="M54.2285 704.553L54.5357 780.435L125.629 759.963L125.322 686.696L54.2285 704.553Z" fill="url(#paint5_linear_1741_5232)"/>
<path d="M0.0585938 678.077V747.65L54.5325 780.127L55.4541 704.245L0.0585938 678.077Z" fill="url(#paint6_linear_1741_5232)"/>
<path d="M123.693 710.257L181.654 737.651L252.988 719.177L193.755 694.966L123.693 710.257Z" fill="url(#paint7_linear_1741_5232)"/>
<path d="M123.693 710.256V738.603L179.743 768.327L180.708 737.242L123.693 710.256Z" fill="url(#paint8_linear_1741_5232)"/>
<path d="M180.887 737.777L179.818 768.549L253.625 746.667L253.262 719.278L180.887 737.777Z" fill="url(#paint9_linear_1741_5232)"/>
<path d="M123.693 658.653L181.654 686.048L252.988 667.571L193.755 643.363L123.693 658.653Z" fill="url(#paint10_linear_1741_5232)"/>
<path d="M123.693 658.653V687.001L179.743 716.725L180.708 685.639L123.693 658.653Z" fill="url(#paint11_linear_1741_5232)"/>
<path d="M180.887 686.174L179.818 716.946L253.625 695.064L253.262 667.675L180.887 686.174Z" fill="url(#paint12_linear_1741_5232)"/>
<path d="M0.0585938 568.055L56.0716 594.528L125.012 576.675L67.767 553.278L0.0585938 568.055Z" fill="url(#paint13_linear_1741_5232)"/>
<path d="M54.2285 594.528L54.5357 670.413L125.629 649.942L125.322 576.675L54.2285 594.528Z" fill="url(#paint14_linear_1741_5232)"/>
<path d="M0.0585938 568.056V637.629L54.5325 670.106L55.4541 594.221L0.0585938 568.056Z" fill="url(#paint15_linear_1741_5232)"/>
<path d="M462.914 514.818C462.914 514.818 511.096 587.842 565.119 579.81C619.141 571.777 666.595 563.744 684.847 467.342C682.656 408.192 529.348 376.79 529.348 376.79L462.914 514.818Z" fill="url(#paint16_linear_1741_5232)"/>
<path d="M546.133 487.069C546.133 487.069 614.026 449.098 641.767 463.715C675.351 465.178 543.633 378.341 543.633 378.341L546.133 487.069Z" fill="url(#paint17_linear_1741_5232)"/>
<path d="M272.364 274.57C272.364 274.57 272.364 324.966 241.701 330.067C234.399 360.737 282.584 412.586 303.757 412.586C324.93 412.586 376.031 389.217 359.976 327.876C354.139 321.306 343.915 281.871 346.106 265.075C348.296 248.279 272.364 274.57 272.364 274.57Z" fill="url(#paint18_linear_1741_5232)"/>
<path d="M346.108 265.075C346.111 265.021 346.111 264.966 346.108 264.912L272.283 277.219C271.997 283.104 270.71 297.718 264.91 310.157C268.597 333.109 279.527 359.575 310.555 355.636C339.328 350.643 347.02 318.549 348.599 293.871C346.44 283.008 345.196 272.075 346.108 265.075Z" fill="url(#paint19_linear_1741_5232)"/>
<path d="M248.275 321.306C248.275 321.306 259.227 384.106 307.41 396.521C332.963 397.98 362.163 368.769 359.973 327.875C382.605 338.83 386.985 345.391 424.947 346.132C462.909 346.872 505.982 352.704 561.467 383.375C532.264 441.065 451.96 600.256 451.96 600.256L392.097 665.979L196.443 636.037L138.768 640.419L62.1141 430.848C62.1141 430.848 45.3252 414.052 62.1141 400.906C78.9029 387.76 79.6248 364.394 90.586 354.17C101.547 343.947 127.819 322.04 173.811 328.613C219.803 335.186 248.275 321.306 248.275 321.306Z" fill="url(#paint20_linear_1741_5232)"/>
<path d="M451.822 600.69C451.822 600.69 471.649 561.735 495.24 515.414L493.046 506.638C493.046 506.638 490.856 506.638 415.095 461.079C490.054 529.263 370.827 589.44 368.093 539.044C365.359 488.649 306.344 457.032 278.422 504.398C250.5 551.763 196.665 501.909 196.665 501.909L170.746 603.314L183.79 636.434L196.18 635.536L391.723 666.185L451.822 600.69Z" fill="url(#paint21_linear_1741_5232)"/>
<path d="M680.131 488.05C678.699 490.201 676.89 494.764 674.626 502.403C657.115 561.553 616.954 565.935 582.642 554.98C548.33 544.026 551.979 500.944 551.979 500.944L470.441 499.18L462.914 514.818C462.914 514.818 511.096 587.842 565.119 579.809C614.991 572.404 659.262 564.973 680.131 488.05Z" fill="url(#paint22_linear_1741_5232)"/>
<path d="M187.437 173.543C187.437 173.543 159.696 106.37 201.08 57.2003C242.464 8.03106 361.675 8.52886 386.497 41.1353C391.794 48.0954 396.248 54.5453 399.978 60.3869C413.593 81.7066 419.808 106.99 417.356 132.17C415.82 148.007 412.048 166.097 403.532 180.368C348.047 210.064 187.437 173.543 187.437 173.543Z" fill="url(#paint23_linear_1741_5232)"/>
<path d="M61.3776 521.634C61.3776 521.634 53.1015 444.716 74.0315 411.123C93.0107 409.664 139.734 424.269 157.742 455.914C156.283 492.911 61.3776 521.634 61.3776 521.634Z" fill="url(#paint24_linear_1741_5232)"/>
<path d="M197.171 489.503C195.223 489.503 181.595 490.477 169.915 469.056C158.235 447.635 116.378 433.518 101.291 444.716C80.8498 451.043 51.6467 461.755 65.2744 560.564C80.8497 646.245 193.764 635.051 193.764 635.051L197.171 489.503Z" fill="url(#paint25_linear_1741_5232)"/>
<path d="M424.738 197.839C427.237 185.028 421.024 173.035 410.861 171.052C400.698 169.068 390.433 177.846 387.935 190.657C385.436 203.468 391.649 215.461 401.812 217.444C411.975 219.428 422.24 210.65 424.738 197.839Z" fill="url(#paint26_linear_1741_5232)"/>
<path d="M205.235 213.273C213.568 207.66 214.589 194.594 207.517 184.091C200.444 173.587 187.957 169.622 179.624 175.236C171.292 180.849 170.27 193.914 177.343 204.418C184.415 214.922 196.903 218.886 205.235 213.273Z" fill="url(#paint27_linear_1741_5232)"/>
<path d="M412.755 161.273C407.204 160.191 401.637 161.371 396.679 164.26C391.573 103.174 349.302 55.498 297.912 55.498C246.117 55.498 203.599 103.921 199.037 165.707C190.396 161.568 180.946 161.473 173.659 166.383C161.454 174.606 159.958 193.732 170.32 209.133C179.456 222.7 194.758 228.8 206.619 224.433C221.792 267.656 256.955 297.937 297.912 297.937C339.517 297.937 375.141 266.688 389.908 222.368C392.768 224.809 396.205 226.477 399.892 227.211C414.331 230.032 428.927 217.556 432.478 199.346C436.029 181.136 427.197 164.091 412.755 161.273ZM177.333 204.407C170.268 193.904 171.284 180.838 179.616 175.215C185.072 171.527 192.304 171.985 198.635 175.673C198.635 176.017 198.635 176.358 198.635 176.705C198.635 177.194 198.635 177.676 198.635 178.162C196.662 178.117 194.722 178.679 193.078 179.772C187.812 183.321 187.164 191.581 191.637 198.209C194.156 201.955 197.781 204.382 201.378 205.154C201.993 208.227 202.693 211.254 203.48 214.237C195.237 218.306 183.929 214.2 177.333 204.407ZM424.721 197.834C422.223 210.645 411.96 219.424 401.797 217.439C398.283 216.754 395.251 214.864 392.888 212.163C393.257 210.686 393.603 209.198 393.926 207.698C394.095 207.741 394.261 207.79 394.433 207.824C400.384 208.986 406.393 203.848 407.858 196.344C409.324 188.84 405.683 181.821 399.733 180.672C398.882 180.507 398.011 180.469 397.149 180.558C397.183 179.286 397.204 178.011 397.204 176.73C397.204 176.075 397.204 175.421 397.183 174.769C401.207 171.595 406.04 170.12 410.854 171.057C421.01 173.03 427.225 185.023 424.721 197.834Z" fill="url(#paint28_linear_1741_5232)"/>
<path d="M281.129 216.87L278.951 197.686C277.993 189.291 279.829 180.814 284.173 173.567L289.107 165.341C290.256 163.432 291.836 161.817 293.72 160.627C295.604 159.437 297.74 158.703 299.958 158.486C302.258 158.255 304.58 158.586 306.724 159.45C308.868 160.314 310.772 161.685 312.27 163.445L315.576 167.326C321.164 173.888 324.386 182.138 324.725 190.751L325.662 214.698L281.129 216.87Z" fill="#FFEFDB"/>
<path d="M281.123 216.87L282.754 210.577C283.787 206.593 285.969 203.001 289.028 200.248C292.087 197.496 295.888 195.704 299.958 195.096C304.432 194.425 309.003 195.219 312.99 197.359C316.976 199.499 320.164 202.872 322.077 206.973L325.671 214.679L281.123 216.87Z" fill="#FFB4B3"/>
<path d="M346.83 174.041C351.803 174.041 355.835 170.008 355.835 165.034C355.835 160.06 351.803 156.027 346.83 156.027C341.858 156.027 337.826 160.06 337.826 165.034C337.826 170.008 341.858 174.041 346.83 174.041Z" fill="#452770"/>
<path d="M248.522 174.041C253.495 174.041 257.526 170.008 257.526 165.034C257.526 160.06 253.495 156.027 248.522 156.027C243.549 156.027 239.518 160.06 239.518 165.034C239.518 170.008 243.549 174.041 248.522 174.041Z" fill="#452770"/>
<path d="M294.998 246.576L327.608 242.194L322.204 250.903C321.153 252.597 319.743 254.041 318.074 255.131C316.405 256.222 314.516 256.933 312.543 257.215C310.295 257.535 308.002 257.289 305.873 256.5C303.744 255.71 301.845 254.401 300.35 252.691L294.998 246.576Z" fill="white"/>
<path d="M337.344 132.584C342.766 129.511 350.415 127.806 358.292 134.535C360.538 136.456 363.769 133.838 362.326 131.26C357.134 121.992 343.454 112.168 333.783 128.952C332.456 131.257 335.024 133.902 337.344 132.584Z" fill="#452770"/>
<path d="M258.983 141.834C253.561 138.761 245.912 137.056 238.035 143.785C235.789 145.706 232.558 143.088 234.001 140.513C239.193 131.242 252.873 121.418 262.544 138.202C263.871 140.506 261.291 143.143 258.983 141.834Z" fill="#452770"/>
<path d="M388.931 25.0703C388.931 25.0703 422.512 40.1613 424.945 58.6601C426.736 72.2791 422.198 97.5044 400.267 105.789C386.135 111.133 370.142 107.507 359.205 97.065L358.754 96.6348L386.498 66.4498L388.931 25.0703Z" fill="url(#paint29_linear_1741_5232)"/>
<path d="M318.852 8.52884C318.852 8.52884 368.982 -10.4555 399.159 33.8464C413.76 70.8439 386.505 98.1066 357.787 99.0807L355.842 91.7764L368.496 62.08L318.852 8.52884Z" fill="url(#paint30_linear_1741_5232)"/>
<path d="M353.399 92.2524C353.399 92.2524 330.524 59.1482 279.905 88.8446C279.414 44.0572 305.219 28.4777 305.219 28.4777L350.483 27.9922L366.544 54.7663L363.626 76.1873L353.399 92.2524Z" fill="url(#paint31_linear_1741_5232)"/>
<path d="M353.402 92.2526C353.402 92.2526 373.37 58.1743 344.152 39.1869C316.411 23.1219 311.545 53.7923 311.545 53.7923C302.126 77.976 275.116 123.163 227.945 124.991C195.995 126.22 173.471 93.3404 187.273 64.5136C191.476 55.7313 198.64 47.1303 209.825 39.6786C252.168 11.4418 291.589 -15.8208 348.047 10.9563C369.948 28.4717 386.009 53.7954 356.32 94.6894C354.861 95.6604 353.402 92.2526 353.402 92.2526Z" fill="url(#paint32_linear_1741_5232)"/>
<path d="M448.071 405.094L448.206 414.512C448.28 419.582 446.713 424.541 443.739 428.647C440.124 433.641 434.693 437.014 428.616 438.041L420.88 439.35C415.466 440.266 409.916 439.951 404.641 438.429C399.365 436.907 394.5 434.217 390.405 430.559C387.272 427.762 383.237 426.188 379.039 426.125L363.371 425.906C358.555 425.839 353.801 427.004 349.562 429.291C345.323 431.578 341.738 434.91 339.148 438.972L338.92 439.329C336.09 443.748 334.503 448.849 334.327 454.095C334.151 459.34 335.392 464.536 337.919 469.136L338.324 469.87C340.587 473.978 343.807 477.48 347.711 480.077C351.615 482.674 356.088 484.291 360.75 484.789L391.388 488.049L393.729 486.839C397.445 484.915 401.517 483.775 405.692 483.49C409.866 483.204 414.055 483.779 417.999 485.179C423.591 487.164 428.725 490.257 433.094 494.273C437.463 498.289 440.977 503.145 443.426 508.552C445.346 512.791 448.392 516.421 452.233 519.048C456.073 521.674 460.561 523.196 465.207 523.446L467.803 523.587L477.44 521.178C481.02 520.283 484.773 520.346 488.321 521.363C491.869 522.379 495.087 524.312 497.651 526.967C499.263 528.639 501.243 529.912 503.432 530.685C505.622 531.458 507.961 531.711 510.265 531.423L525.53 529.512C533.569 528.507 541.101 525.038 547.09 519.58C551.075 515.948 554.233 511.501 556.35 506.542C558.466 501.582 559.492 496.225 559.357 490.833L558.328 450.075L489.206 392.63L491.178 368.969C492.131 357.517 491.952 346 490.644 334.583L490.152 330.306C489.519 324.805 488.628 319.346 487.479 313.927L484.472 299.774C483.388 294.67 481.029 289.924 477.615 285.98C474.201 282.035 469.843 279.02 464.949 277.216C457.409 274.437 449.082 274.709 441.739 277.975L438.541 279.394C433.656 281.563 429.418 284.963 426.24 289.262C423.063 293.561 421.056 298.611 420.416 303.919L419.605 310.649C418.986 315.783 419.431 320.99 420.911 325.945C422.39 330.9 424.874 335.497 428.207 339.451C434.975 347.483 439.309 357.281 440.698 367.694L441.494 373.655C445.675 383.618 447.907 394.29 448.071 405.094Z" fill="url(#paint33_linear_1741_5232)"/>
<path d="M454.148 341.021C470.277 341.021 483.352 327.943 483.352 311.81C483.352 295.678 470.277 282.6 454.148 282.6C438.02 282.6 424.945 295.678 424.945 311.81C424.945 327.943 438.02 341.021 454.148 341.021Z" fill="url(#paint34_radial_1741_5232)"/>
<path d="M365.811 484.15C381.939 484.15 395.014 471.072 395.014 454.939C395.014 438.806 381.939 425.728 365.811 425.728C349.682 425.728 336.607 438.806 336.607 454.939C336.607 471.072 349.682 484.15 365.811 484.15Z" fill="url(#paint35_radial_1741_5232)"/>
<path d="M547.069 519.575C551.055 515.943 554.213 511.496 556.329 506.536C558.445 501.576 559.471 496.219 559.336 490.828L558.611 462.164L554.415 450.069L507.203 453.483C507.203 453.483 500.389 472.956 516.453 482.694C528.947 490.268 547.038 508.159 542.304 523.296C543.986 522.18 545.579 520.936 547.069 519.575Z" fill="url(#paint36_linear_1741_5232)"/>
<path d="M565.117 424.269L570.511 425.077C574.688 425.704 578.588 427.544 581.729 430.368C584.87 433.192 587.112 436.876 588.179 440.964C589.617 446.484 588.812 452.349 585.939 457.278L578.566 469.895C573.004 479.437 564.363 486.806 554.064 490.79L545.36 494.171C543.685 494.819 541.863 494.993 540.096 494.674C538.328 494.355 536.682 493.554 535.339 492.361C534.036 491.202 533.066 489.715 532.53 488.054C531.995 486.394 531.914 484.62 532.295 482.918L537.364 460.298L565.117 424.269Z" fill="url(#paint37_linear_1741_5232)"/>
<path d="M538.349 385.809L549.673 386.979C554.801 387.511 559.696 389.398 563.855 392.445C568.015 395.493 571.289 399.592 573.343 404.323C576.197 410.895 576.526 418.29 574.265 425.089L571.279 434.05C565.768 450.585 554.115 464.368 538.73 472.55L536.325 473.831C532.829 475.69 528.829 476.378 524.913 475.792C520.997 475.206 517.373 473.378 514.574 470.577C512.857 468.861 511.495 466.822 510.566 464.579C509.636 462.335 509.158 459.931 509.158 457.502V439.845L538.349 385.809Z" fill="url(#paint38_linear_1741_5232)"/>
<path d="M193.76 635.066L197.167 489.503C195.219 489.503 181.591 490.477 169.911 469.056C167.862 465.301 164.885 461.774 161.291 458.565C162.584 469.754 171.512 556.216 138.275 549.381C115.078 544.615 79.8505 543.171 64.8281 557.242C64.9725 558.348 65.1138 559.451 65.2705 560.579C80.8459 646.26 193.76 635.066 193.76 635.066Z" fill="url(#paint39_linear_1741_5232)"/>
<path d="M500.42 529.235C496.036 520.542 485.321 505.076 465.823 508.976C439.056 514.332 452.195 487.069 427.861 468.57C408.989 454.223 393.34 476.759 387.264 487.622L391.359 488.058L393.7 486.848C397.416 484.924 401.488 483.784 405.662 483.499C409.837 483.213 414.026 483.788 417.969 485.188C423.561 487.173 428.695 490.266 433.064 494.282C437.433 498.298 440.947 503.155 443.396 508.561C445.316 512.8 448.362 516.431 452.203 519.057C456.044 521.683 460.532 523.205 465.177 523.455L467.773 523.596L477.41 521.187C480.991 520.292 484.744 520.356 488.292 521.372C491.84 522.388 495.058 524.321 497.621 526.977C498.46 527.839 499.4 528.598 500.42 529.235Z" fill="url(#paint40_linear_1741_5232)"/>
<path d="M489.188 392.64L491.161 368.979C492.114 357.527 491.934 346.01 490.626 334.593L490.135 330.316C489.766 327.098 489.296 323.893 488.749 320.701C486.341 331.951 480.203 345.671 464.852 351.758C436.625 362.956 475.561 358.574 478.479 373.665C481.398 388.756 465.34 394.112 469.232 410.177C473.125 426.242 469.232 448.637 496.488 454.479C505.845 456.485 512.278 439.148 516.69 415.515L489.188 392.64Z" fill="url(#paint41_linear_1741_5232)"/>
<path d="M215.303 635.49L215.503 635.183C218.621 630.504 222.845 626.667 227.801 624.012C232.757 621.358 238.292 619.968 243.913 619.966H244.294C246.931 619.966 249.54 619.42 251.955 618.362C254.371 617.304 256.542 615.758 258.331 613.82L263.102 608.651C267.697 603.672 270.572 597.348 271.301 590.61L271.356 590.113C272.215 582.202 275.224 574.679 280.058 568.36C284.892 562.042 291.366 557.17 298.774 554.273L299.146 554.126C301.981 553.029 304.54 551.324 306.645 549.131C308.749 546.937 310.347 544.31 311.327 541.432C312.964 536.592 314.989 530.655 316.654 525.76C317.612 522.953 317.727 519.926 316.984 517.055C316.24 514.183 314.672 511.592 312.473 509.603L312.276 509.428C309.981 507.34 307.117 505.983 304.048 505.53C300.979 505.078 297.845 505.55 295.045 506.886L288.425 510.048C278.994 514.549 271.419 522.186 266.994 531.654L265.074 535.762C264.187 537.665 262.909 539.359 261.325 540.736C259.74 542.112 257.884 543.14 255.876 543.752L255.661 543.816C252.635 544.744 249.396 544.718 246.385 543.743C243.374 542.768 240.735 540.89 238.826 538.365C237.33 536.383 235.806 534.37 234.525 532.696C232.551 530.089 231.457 526.922 231.401 523.652L230.894 494.208C230.851 491.716 230.313 489.258 229.311 486.977C228.309 484.696 226.863 482.637 225.057 480.921C224.049 479.964 223.285 478.779 222.83 477.466C222.374 476.152 222.241 474.749 222.439 473.373C222.638 471.998 223.164 470.69 223.973 469.559C224.782 468.429 225.85 467.509 227.088 466.877C241.192 459.666 252.094 447.444 257.655 432.609C258.988 429.052 259.245 425.182 258.395 421.48C257.545 417.778 255.625 414.408 252.875 411.79L244.454 403.779C241.064 400.555 236.621 398.669 231.947 398.469C227.274 398.269 222.686 399.769 219.033 402.691L217.208 404.151C214.795 406.081 213.01 408.685 212.08 411.631C211.151 414.578 211.117 417.735 211.985 420.701C213.329 425.282 212.924 430.198 210.849 434.497C208.773 438.796 205.176 442.17 200.754 443.966L195.759 445.997C195.087 446.27 194.505 446.725 194.077 447.311C193.65 447.896 193.394 448.59 193.338 449.313C192.014 466.521 187.262 483.29 179.36 498.633L178.924 499.484L135.119 603.907L149.699 634.15C152.152 639.241 155.792 643.668 160.312 647.057C164.832 650.447 170.101 652.701 175.674 653.629L176.113 653.703C181.331 654.583 186.679 654.309 191.78 652.9C196.882 651.49 201.612 648.979 205.638 645.544L208.686 642.945C211.226 640.778 213.453 638.269 215.303 635.49Z" fill="url(#paint42_linear_1741_5232)"/>
<path d="M299.131 554.126C301.965 553.029 304.525 551.324 306.629 549.131C308.734 546.938 310.332 544.31 311.312 541.432C312.697 537.333 314.359 532.456 315.849 528.086C314.819 529.278 313.869 530.538 313.007 531.857C313.007 531.857 297.92 557.669 269.691 554.252C241.462 550.835 254.119 579.567 252.656 587.842C251.194 596.117 253.145 618.027 228.323 614.619C203.5 611.211 218.587 630.684 201.067 630.195C183.547 629.707 170.893 624.842 184.521 599.039C198.149 573.236 220.05 565.935 194.253 545.488C185.274 538.371 171.339 542.879 156.986 551.778L135.119 603.907L149.699 634.15C152.152 639.241 155.792 643.668 160.312 647.058C164.832 650.447 170.101 652.701 175.674 653.629L176.113 653.703C181.331 654.584 186.679 654.309 191.78 652.9C196.882 651.49 201.612 648.98 205.638 645.545L208.686 642.945C211.226 640.778 213.453 638.269 215.303 635.49L215.503 635.183C218.621 630.504 222.845 626.667 227.801 624.012C232.757 621.358 238.292 619.968 243.913 619.966H244.294C246.931 619.966 249.54 619.42 251.955 618.362C254.371 617.304 256.542 615.758 258.331 613.82L263.102 608.651C267.697 603.672 270.572 597.348 271.301 590.61L271.356 590.113C272.215 582.203 275.224 574.679 280.058 568.361C284.892 562.042 291.366 557.17 298.774 554.274L299.131 554.126Z" fill="url(#paint43_linear_1741_5232)"/>
<path d="M146.547 615.593C146.547 615.593 124.646 604.395 120.266 591.738C115.885 579.081 126.594 563.013 126.594 563.013L163.582 582.986L162.193 602.422C162.058 604.325 161.542 606.182 160.676 607.882C159.811 609.582 158.614 611.091 157.155 612.321C155.696 613.55 154.006 614.474 152.184 615.038C150.362 615.602 148.445 615.795 146.547 615.605V615.593Z" fill="url(#paint44_linear_1741_5232)"/>
<path d="M126.706 557.844C124.569 557.937 122.487 558.547 120.638 559.622C118.79 560.698 117.229 562.206 116.092 564.017L113.942 567.444C112.512 569.718 111.809 572.374 111.927 575.059C112.045 577.743 112.978 580.327 114.602 582.467L119.677 589.163C123.081 593.65 127.39 597.37 132.325 600.083C137.26 602.796 142.71 604.44 148.321 604.908L158.044 605.716C160.327 605.908 162.621 605.502 164.7 604.539C166.779 603.576 168.572 602.088 169.902 600.222C171.478 598.02 172.339 595.386 172.368 592.678C172.398 589.97 171.595 587.319 170.068 585.082L167.967 582.009L134.546 560.017C132.226 558.485 129.483 557.725 126.706 557.844Z" fill="url(#paint45_linear_1741_5232)"/>
<path d="M150.934 525.041L139.377 524.427C137.398 524.319 135.425 524.71 133.637 525.565C131.849 526.419 130.304 527.709 129.144 529.316C127.5 531.591 126.72 534.377 126.941 537.176L128.302 554.415C128.676 559.145 130.231 563.705 132.824 567.678C135.417 571.651 138.965 574.909 143.143 577.154L155.521 583.807C157.597 584.924 159.888 585.585 162.24 585.747C164.592 585.908 166.951 585.567 169.161 584.744C172.145 583.638 174.748 581.696 176.66 579.15C178.571 576.605 179.71 573.563 179.941 570.388L180.137 567.711C180.451 563.449 179.108 559.23 176.389 555.933L150.934 525.041Z" fill="url(#paint46_linear_1741_5232)"/>
<path d="M236.45 535.237L234.523 532.696C232.549 530.089 231.455 526.922 231.399 523.652L230.892 494.208C230.849 491.716 230.311 489.259 229.309 486.977C228.307 484.696 226.861 482.637 225.055 480.921C224.047 479.964 223.283 478.779 222.828 477.466C222.373 476.153 222.239 474.749 222.438 473.374C222.637 471.998 223.162 470.69 223.971 469.56C224.78 468.429 225.848 467.51 227.086 466.878C237.064 461.769 245.513 454.112 251.576 444.682C247.979 447.755 243.002 449.574 236.112 448.609C211.775 445.201 194.255 458.347 203.502 471.49C212.748 484.633 207.397 508.979 197.665 508.979C187.932 508.979 181.118 542.083 202.045 544.517C219.39 546.533 222.358 529.485 236.45 535.237Z" fill="url(#paint47_linear_1741_5232)"/>
<path d="M169.314 497.748C166.131 497.172 162.851 497.493 159.84 498.676C156.83 499.858 154.207 501.855 152.267 504.443C150.645 506.607 149.548 509.119 149.064 511.779C148.579 514.44 148.72 517.177 149.474 519.774L153.975 535.261C155.622 540.93 158.442 546.189 162.252 550.697C166.063 555.205 170.779 558.861 176.094 561.427L183.912 565.197C184.706 565.577 185.575 565.775 186.456 565.775C187.336 565.775 188.205 565.577 189 565.197C194.283 562.681 198.691 558.639 201.657 553.593C204.622 548.547 206.009 542.728 205.638 536.887C205.193 529.866 202.237 523.24 197.309 518.219L185.749 506.441C181.302 501.912 175.56 498.874 169.314 497.748Z" fill="url(#paint48_linear_1741_5232)"/>
<path d="M74.0454 411.123C74.0454 411.123 64.7984 410.638 54.0769 414.046C45.9605 416.63 57.9846 430.686 64.2731 437.332C66.4574 427.407 69.5847 418.28 74.0454 411.123Z" fill="url(#paint49_linear_1741_5232)"/>
<path d="M489.191 392.64L506.942 378.76C509.785 376.536 513.057 374.926 516.553 374.03C520.049 373.134 523.693 372.972 527.254 373.554C527.595 373.613 527.933 373.674 528.268 373.742C539.635 376.062 547.683 386.221 547.908 397.808L548.08 406.757L476.049 435.968L489.191 392.64Z" fill="url(#paint50_linear_1741_5232)"/>
<path d="M499.328 394.268L494.155 400.697C489.959 405.914 487.356 412.232 486.659 418.891L484.582 438.73C484.207 442.327 484.783 445.959 486.253 449.262C487.723 452.566 490.036 455.424 492.96 457.551C496.41 460.062 500.554 461.44 504.82 461.495C509.086 461.55 513.264 460.28 516.778 457.859C523.254 453.394 528.454 447.316 531.865 440.226L545.689 411.458C547.273 408.164 547.878 404.484 547.433 400.855C546.987 397.227 545.51 393.803 543.176 390.99C539.889 387.026 535.482 384.149 530.531 382.735C525.581 381.321 520.319 381.436 515.435 383.065C509.103 385.176 503.512 389.066 499.328 394.268Z" fill="url(#paint51_linear_1741_5232)"/>
<path d="M519.531 456.914C523.969 450.179 523.564 442.081 518.628 438.826C513.691 435.571 506.091 438.392 501.653 445.127C497.215 451.862 497.619 459.96 502.556 463.215C507.493 466.47 515.093 463.649 519.531 456.914Z" fill="white"/>
<path d="M197.226 561.33C201.712 557.477 201.68 550.08 197.154 544.807C192.628 539.534 185.322 538.383 180.836 542.236C176.35 546.089 176.382 553.487 180.908 558.76C185.434 564.032 192.74 565.183 197.226 561.33Z" fill="white"/>
<path d="M173.371 584.697C177.857 580.844 177.824 573.446 173.298 568.174C168.772 562.901 161.466 561.75 156.98 565.603C152.494 569.456 152.527 576.853 157.053 582.126C161.579 587.399 168.884 588.55 173.371 584.697Z" fill="white"/>
<path d="M167.479 603.432C170.695 598.468 168.576 591.381 162.746 587.601C156.916 583.821 149.582 584.78 146.366 589.743C143.15 594.706 145.269 601.794 151.1 605.574C156.93 609.354 164.263 608.395 167.479 603.432Z" fill="white"/>
<path d="M540.949 470.545C545.387 463.81 544.983 455.712 540.046 452.457C535.109 449.202 527.509 452.023 523.071 458.758C518.633 465.493 519.037 473.591 523.974 476.846C528.911 480.101 536.511 477.28 540.949 470.545Z" fill="white"/>
<path d="M554.718 492.541C561.04 487.534 563.19 479.716 559.52 475.079C555.85 470.442 547.749 470.742 541.426 475.749C535.104 480.756 532.954 488.574 536.624 493.211C540.295 497.848 548.395 497.548 554.718 492.541Z" fill="white"/>
<path d="M303.821 60.6883C272.065 71.6432 312.583 5.92332 257.829 37.6878C229.745 53.9741 215.49 49.2326 208.268 40.7453C197.983 47.945 191.273 56.1466 187.27 64.511C183.01 73.2655 182.002 83.2507 184.429 92.6801C198.099 92.0656 213.985 86.9461 228.264 76.022C265.494 47.5548 263.307 55.2124 272.065 82.5857C275.174 92.3052 280.769 95.1231 286.692 94.7144C297.137 82.9022 304.632 69.6857 309.336 59.0689C307.47 59.5082 305.629 60.0488 303.821 60.6883Z" fill="url(#paint52_linear_1741_5232)"/>
<path style="mix-blend-mode:multiply" opacity="0.39" d="M239.638 297.144C293.836 297.144 337.772 253.196 337.772 198.984C337.772 144.771 293.836 100.823 239.638 100.823C185.44 100.823 141.504 144.771 141.504 198.984C141.504 253.196 185.44 297.144 239.638 297.144Z" fill="url(#paint53_radial_1741_5232)"/>
<path style="mix-blend-mode:multiply" opacity="0.39" d="M368.12 282.163C414.251 282.163 451.647 244.757 451.647 198.615C451.647 152.472 414.251 115.066 368.12 115.066C321.99 115.066 284.594 152.472 284.594 198.615C284.594 244.757 321.99 282.163 368.12 282.163Z" fill="url(#paint54_radial_1741_5232)"/>
<path d="M407.428 668.179L465.597 695.672L537.192 677.13L477.744 652.833L407.428 668.179Z" fill="url(#paint55_linear_1741_5232)"/>
<path d="M463.674 695.673L463.993 774.48L537.825 753.219L537.505 677.131L463.674 695.673Z" fill="url(#paint56_linear_1741_5232)"/>
<path d="M407.428 668.18V740.433L464 774.161L464.958 695.353L407.428 668.18Z" fill="url(#paint57_linear_1741_5232)"/>
<path d="M603.781 682.216L653.5 705.715L714.689 689.868L663.88 669.101L603.781 682.216Z" fill="url(#paint58_linear_1741_5232)"/>
<path d="M651.859 705.715L652.133 773.069L715.236 754.899L714.963 689.868L651.859 705.715Z" fill="url(#paint59_linear_1741_5232)"/>
<path d="M603.781 682.216V743.969L652.132 772.796L652.953 705.441L603.781 682.216Z" fill="url(#paint60_linear_1741_5232)"/>
<path d="M547.596 614.06L581.68 630.171L623.632 619.305L588.798 605.068L547.596 614.06Z" fill="url(#paint61_linear_1741_5232)"/>
<path d="M580.545 630.171L580.732 676.347L623.996 663.89L623.809 619.305L580.545 630.171Z" fill="url(#paint62_linear_1741_5232)"/>
<path d="M547.596 614.06V656.398L580.743 676.16L581.305 629.983L547.596 614.06Z" fill="url(#paint63_linear_1741_5232)"/>
<path d="M547.596 552.722L581.68 568.833L623.632 557.967L588.798 543.73L547.596 552.722Z" fill="url(#paint64_linear_1741_5232)"/>
<path d="M580.545 568.832L580.732 615.012L623.996 602.554L623.809 557.967L580.545 568.832Z" fill="url(#paint65_linear_1741_5232)"/>
<path d="M547.596 552.722V595.06L580.743 614.825L581.305 568.645L547.596 552.722Z" fill="url(#paint66_linear_1741_5232)"/>
<path d="M411.318 576.487L465.052 601.885L531.187 584.756L476.271 562.312L411.318 576.487Z" fill="url(#paint67_linear_1741_5232)"/>
<path d="M463.279 601.885L463.574 674.681L531.774 655.042L531.479 584.756L463.279 601.885Z" fill="url(#paint68_linear_1741_5232)"/>
<path d="M411.318 576.487V643.227L463.577 674.386L464.462 601.589L411.318 576.487Z" fill="url(#paint69_linear_1741_5232)"/>
<path d="M289.16 598.554L333.45 619.486L387.961 605.369L342.697 586.868L289.16 598.554Z" fill="url(#paint70_linear_1741_5232)"/>
<path d="M263.127 657.083L322.615 685.2L395.828 666.237L335.035 641.39L263.127 657.083Z" fill="url(#paint71_linear_1741_5232)"/>
<path d="M263.127 657.083V686.18L320.655 716.688L321.644 684.782L263.127 657.083Z" fill="url(#paint72_linear_1741_5232)"/>
<path d="M321.831 685.329L320.734 716.912L396.485 694.456L396.111 666.342L321.831 685.329Z" fill="url(#paint73_linear_1741_5232)"/>
<path d="M331.99 619.486L332.233 679.487L388.446 663.299L388.203 605.369L331.99 619.486Z" fill="url(#paint74_linear_1741_5232)"/>
<path d="M289.16 598.554V653.565L332.234 679.245L332.965 619.243L289.16 598.554Z" fill="url(#paint75_linear_1741_5232)"/>
<path d="M316.832 561.996L336.429 571.26L360.548 565.013L340.521 556.827L316.832 561.996Z" fill="url(#paint76_linear_1741_5232)"/>
<path d="M335.787 571.261L335.898 597.808L360.769 590.645L360.662 565.014L335.787 571.261Z" fill="url(#paint77_linear_1741_5232)"/>
<path d="M316.832 561.995V586.339L335.891 597.699L336.214 571.152L316.832 561.995Z" fill="url(#paint78_linear_1741_5232)"/>
<path d="M441.492 530.609L474.492 546.207L515.108 535.688L481.383 521.903L441.492 530.609Z" fill="url(#paint79_linear_1741_5232)"/>
<path d="M473.406 546.207L473.588 590.914L515.472 578.853L515.291 535.688L473.406 546.207Z" fill="url(#paint80_linear_1741_5232)"/>
<path d="M441.492 530.609V571.599L473.586 590.733L474.13 546.026L441.492 530.609Z" fill="url(#paint81_linear_1741_5232)"/>
<defs>
<linearGradient id="paint0_linear_1741_5232" x1="357.617" y1="620.528" x2="357.617" y2="905.538" gradientUnits="userSpaceOnUse">
<stop offset="0.13" stop-color="#001B68"/>
<stop offset="0.69" stop-color="#031D6A" stop-opacity="0.33"/>
<stop offset="1" stop-color="#041E6B" stop-opacity="0"/>
</linearGradient>
<linearGradient id="paint1_linear_1741_5232" x1="4.06055" y1="748.114" x2="715.239" y2="748.114" gradientUnits="userSpaceOnUse">
<stop stop-color="#452770"/>
<stop offset="0.56" stop-color="#5E75C0"/>
<stop offset="0.7" stop-color="#5D72BD"/>
<stop offset="0.79" stop-color="#5A69B4"/>
<stop offset="0.88" stop-color="#5559A3"/>
<stop offset="0.96" stop-color="#4E448D"/>
<stop offset="1" stop-color="#4A3780"/>
</linearGradient>
<linearGradient id="paint2_linear_1741_5232" x1="3.62305" y1="802.649" x2="240.735" y2="802.649" gradientUnits="userSpaceOnUse">
<stop stop-color="#5E75C0"/>
<stop offset="0.35" stop-color="#7297D4"/>
<stop offset="1" stop-color="#9CDDFF"/>
</linearGradient>
<linearGradient id="paint3_linear_1741_5232" x1="3.62305" y1="802.649" x2="715.237" y2="802.649" gradientUnits="userSpaceOnUse">
<stop stop-color="#452770"/>
<stop offset="0.06" stop-color="#4A3881"/>
<stop offset="0.15" stop-color="#524E98"/>
<stop offset="0.27" stop-color="#5760AA"/>
<stop offset="0.4" stop-color="#5B6CB7"/>
<stop offset="0.58" stop-color="#5D73BE"/>
<stop offset="1" stop-color="#5E75C0"/>
</linearGradient>
<linearGradient id="paint4_linear_1741_5232" x1="0.0585938" y1="683.928" x2="125.012" y2="683.928" gradientUnits="userSpaceOnUse">
<stop stop-color="#CC8D90"/>
<stop offset="0.28" stop-color="#D19290"/>
<stop offset="0.62" stop-color="#E0A090"/>
<stop offset="0.99" stop-color="#F8B790"/>
<stop offset="1" stop-color="#F9B890"/>
</linearGradient>
<linearGradient id="paint5_linear_1741_5232" x1="54.2285" y1="733.567" x2="125.629" y2="733.567" gradientUnits="userSpaceOnUse">
<stop offset="0.01" stop-color="#F9B890"/>
<stop offset="0.92" stop-color="#F9B890"/>
<stop offset="1" stop-color="#F9B890"/>
</linearGradient>
<linearGradient id="paint6_linear_1741_5232" x1="56.7076" y1="771.314" x2="-9.01968" y2="668.373" gradientUnits="userSpaceOnUse">
<stop stop-color="#F9EDB3"/>
<stop offset="0.27" stop-color="#F9E9B0"/>
<stop offset="0.55" stop-color="#F9DCA8"/>
<stop offset="0.84" stop-color="#F9C79A"/>
<stop offset="1" stop-color="#F9B890"/>
</linearGradient>
<linearGradient id="paint7_linear_1741_5232" x1="123.693" y1="716.31" x2="252.988" y2="716.31" gradientUnits="userSpaceOnUse">
<stop stop-color="#70366A"/>
<stop offset="0.11" stop-color="#813D6A"/>
<stop offset="0.32" stop-color="#9B476A"/>
<stop offset="0.53" stop-color="#AD4E6A"/>
<stop offset="0.75" stop-color="#B8536A"/>
<stop offset="1" stop-color="#BC546A"/>
</linearGradient>
<linearGradient id="paint8_linear_1741_5232" x1="194.459" y1="760.322" x2="101.373" y2="711.057" gradientUnits="userSpaceOnUse">
<stop stop-color="#CC5968"/>
<stop offset="1" stop-color="#CC8D90"/>
</linearGradient>
<linearGradient id="paint9_linear_1741_5232" x1="179.818" y1="743.914" x2="253.625" y2="743.914" gradientUnits="userSpaceOnUse">
<stop stop-color="#CC8D90"/>
<stop offset="0.01" stop-color="#CC8D90"/>
<stop offset="0.38" stop-color="#E5A590"/>
<stop offset="0.72" stop-color="#F4B390"/>
<stop offset="1" stop-color="#F9B890"/>
</linearGradient>
<linearGradient id="paint10_linear_1741_5232" x1="212180" y1="105239" x2="266596" y2="105239" gradientUnits="userSpaceOnUse">
<stop stop-color="#70366A"/>
<stop offset="0.11" stop-color="#813D6A"/>
<stop offset="0.32" stop-color="#9B476A"/>
<stop offset="0.53" stop-color="#AD4E6A"/>
<stop offset="0.75" stop-color="#B8536A"/>
<stop offset="1" stop-color="#BC546A"/>
</linearGradient>
<linearGradient id="paint11_linear_1741_5232" x1="104911" y1="151918" x2="89451.5" y2="139776" gradientUnits="userSpaceOnUse">
<stop stop-color="#CC5968"/>
<stop offset="1" stop-color="#CC8D90"/>
</linearGradient>
<linearGradient id="paint12_linear_1741_5232" x1="134714" y1="125825" x2="152446" y2="125825" gradientUnits="userSpaceOnUse">
<stop stop-color="#CC8D90"/>
<stop offset="0.01" stop-color="#CC8D90"/>
<stop offset="0.38" stop-color="#E5A590"/>
<stop offset="0.72" stop-color="#F4B390"/>
<stop offset="1" stop-color="#F9B890"/>
</linearGradient>
<linearGradient id="paint13_linear_1741_5232" x1="154649" y1="89443" x2="205472" y2="89443" gradientUnits="userSpaceOnUse">
<stop stop-color="#70366A"/>
<stop offset="0.11" stop-color="#813D6A"/>
<stop offset="0.32" stop-color="#9B476A"/>
<stop offset="0.53" stop-color="#AD4E6A"/>
<stop offset="0.75" stop-color="#B8536A"/>
<stop offset="1" stop-color="#BC546A"/>
</linearGradient>
<linearGradient id="paint14_linear_1741_5232" x1="101013" y1="217714" x2="117608" y2="217714" gradientUnits="userSpaceOnUse">
<stop stop-color="#CC8D90"/>
<stop offset="0.01" stop-color="#CC8D90"/>
<stop offset="0.38" stop-color="#E5A590"/>
<stop offset="0.72" stop-color="#F4B390"/>
<stop offset="1" stop-color="#F9B890"/>
</linearGradient>
<linearGradient id="paint15_linear_1741_5232" x1="80655.4" y1="250946" x2="46152.4" y2="227298" gradientUnits="userSpaceOnUse">
<stop stop-color="#CC5968"/>
<stop offset="1" stop-color="#CC8D90"/>
</linearGradient>
<linearGradient id="paint16_linear_1741_5232" x1="462.914" y1="478.616" x2="684.847" y2="478.616" gradientUnits="userSpaceOnUse">
<stop stop-color="#FFD8C5"/>
<stop offset="0.27" stop-color="#FFD3C2"/>
<stop offset="0.61" stop-color="#FFC3BB"/>
<stop offset="0.99" stop-color="#FFAAAE"/>
<stop offset="1" stop-color="#FFA9AE"/>
</linearGradient>
<linearGradient id="paint17_linear_1741_5232" x1="543.633" y1="432.698" x2="647.248" y2="432.698" gradientUnits="userSpaceOnUse">
<stop stop-color="#FF7593"/>
<stop offset="1" stop-color="#FFB4B3"/>
</linearGradient>
<linearGradient id="paint18_linear_1741_5232" x1="301.997" y1="422.078" x2="301.997" y2="212.433" gradientUnits="userSpaceOnUse">
<stop stop-color="#FFD8C5"/>
<stop offset="0.34" stop-color="#FFC2BA"/>
<stop offset="0.73" stop-color="#FFB0B1"/>
<stop offset="1" stop-color="#FFA9AE"/>
</linearGradient>
<linearGradient id="paint19_linear_1741_5232" x1="306.779" y1="269.457" x2="306.779" y2="416.163" gradientUnits="userSpaceOnUse">
<stop stop-color="#FF7593"/>
<stop offset="0.1" stop-color="#FF7694" stop-opacity="0.98"/>
<stop offset="0.21" stop-color="#FF7A95" stop-opacity="0.93"/>
<stop offset="0.34" stop-color="#FF7F98" stop-opacity="0.83"/>
<stop offset="0.46" stop-color="#FF889C" stop-opacity="0.7"/>
<stop offset="0.6" stop-color="#FF92A2" stop-opacity="0.54"/>
<stop offset="0.73" stop-color="#FF9FA8" stop-opacity="0.34"/>
<stop offset="0.87" stop-color="#FFAEB0" stop-opacity="0.1"/>
<stop offset="0.93" stop-color="#FFB4B3" stop-opacity="0"/>
</linearGradient>
<linearGradient id="paint20_linear_1741_5232" x1="308.061" y1="660.866" x2="308.061" y2="293.011" gradientUnits="userSpaceOnUse">
<stop offset="0.01" stop-color="#6663B8"/>
<stop offset="0.17" stop-color="#756EBD"/>
<stop offset="0.47" stop-color="#9B89CA"/>
<stop offset="0.83" stop-color="#D29BCA"/>
<stop offset="1" stop-color="#E7A2CA"/>
</linearGradient>
<linearGradient id="paint21_linear_1741_5232" x1="170.868" y1="562.808" x2="495.043" y2="563.996" gradientUnits="userSpaceOnUse">
<stop stop-color="#4F45B8" stop-opacity="0"/>
<stop offset="0.2" stop-color="#4F45B8" stop-opacity="0.17"/>
<stop offset="0.62" stop-color="#4F45B8" stop-opacity="0.59"/>
<stop offset="1" stop-color="#4F45B8"/>
</linearGradient>
<linearGradient id="paint22_linear_1741_5232" x1="462.914" y1="534.238" x2="680.131" y2="534.238" gradientUnits="userSpaceOnUse">
<stop stop-color="#FF7593"/>
<stop offset="0.24" stop-color="#FF90A1"/>
<stop offset="0.5" stop-color="#FFA4AB"/>
<stop offset="0.75" stop-color="#FFB0B1"/>
<stop offset="1" stop-color="#FFB4B3"/>
</linearGradient>
<linearGradient id="paint23_linear_1741_5232" x1="298.108" y1="292.826" x2="298.108" y2="65.9181" gradientUnits="userSpaceOnUse">
<stop stop-color="#B94A70"/>
<stop offset="0.32" stop-color="#BA4D71"/>
<stop offset="0.53" stop-color="#BC5676"/>
<stop offset="0.72" stop-color="#C1657D"/>
<stop offset="0.89" stop-color="#C77B87"/>
<stop offset="1" stop-color="#CC8D90"/>
</linearGradient>
<linearGradient id="paint24_linear_1741_5232" x1="140366" y1="200040" x2="171615" y2="200040" gradientUnits="userSpaceOnUse">
<stop stop-color="#FFD8C5"/>
<stop offset="0.27" stop-color="#FFD3C2"/>
<stop offset="0.61" stop-color="#FFC3BB"/>
<stop offset="0.99" stop-color="#FFAAAE"/>
<stop offset="1" stop-color="#FFA9AE"/>
</linearGradient>
<linearGradient id="paint25_linear_1741_5232" x1="61.7783" y1="538.162" x2="197.171" y2="538.162" gradientUnits="userSpaceOnUse">
<stop stop-color="#FFD8C5"/>
<stop offset="0.07" stop-color="#FFD2C2"/>
<stop offset="0.4" stop-color="#FFBCB7"/>
<stop offset="0.72" stop-color="#FFAEB0"/>
<stop offset="1" stop-color="#FFA9AE"/>
</linearGradient>
<linearGradient id="paint26_linear_1741_5232" x1="372.499" y1="216.084" x2="452.815" y2="164.258" gradientUnits="userSpaceOnUse">
<stop offset="0.01" stop-color="#FF7593"/>
<stop offset="0.31" stop-color="#FF859B"/>
<stop offset="0.91" stop-color="#FFAEB0"/>
<stop offset="1" stop-color="#FFB4B3"/>
</linearGradient>
<linearGradient id="paint27_linear_1741_5232" x1="223.402" y1="226.786" x2="165.711" y2="166.192" gradientUnits="userSpaceOnUse">
<stop offset="0.01" stop-color="#FF7593"/>
<stop offset="0.5" stop-color="#FF7794"/>
<stop offset="0.67" stop-color="#FF7E97"/>
<stop offset="0.8" stop-color="#FF899D"/>
<stop offset="0.9" stop-color="#FF9AA6"/>
<stop offset="0.99" stop-color="#FFB0B1"/>
<stop offset="1" stop-color="#FFB4B3"/>
</linearGradient>
<linearGradient id="paint28_linear_1741_5232" x1="163.429" y1="176.717" x2="433.261" y2="176.717" gradientUnits="userSpaceOnUse">
<stop stop-color="#FFA9AE"/>
<stop offset="0.28" stop-color="#FFD8C5"/>
<stop offset="0.54" stop-color="#FFD5C4"/>
<stop offset="0.72" stop-color="#FFCCBF"/>
<stop offset="0.87" stop-color="#FFBDB8"/>
<stop offset="1" stop-color="#FFA9AE"/>
</linearGradient>
<linearGradient id="paint29_linear_1741_5232" x1="383.493" y1="110.266" x2="418.55" y2="6.21766" gradientUnits="userSpaceOnUse">
<stop stop-color="#CC8D90"/>
<stop offset="0.17" stop-color="#D78E95"/>
<stop offset="0.7" stop-color="#F492A4"/>
<stop offset="1" stop-color="#FF93A9"/>
</linearGradient>
<linearGradient id="paint30_linear_1741_5232" x1="378.407" y1="136.094" x2="348.826" y2="-45.7236" gradientUnits="userSpaceOnUse">
<stop stop-color="#CC8D90"/>
<stop offset="0.05" stop-color="#D68E95"/>
<stop offset="0.19" stop-color="#E8909E"/>
<stop offset="0.36" stop-color="#F592A4"/>
<stop offset="0.57" stop-color="#FD93A8"/>
<stop offset="1" stop-color="#FF93A9"/>
</linearGradient>
<linearGradient id="paint31_linear_1741_5232" x1="279.899" y1="60.1223" x2="366.538" y2="60.1223" gradientUnits="userSpaceOnUse">
<stop stop-color="#CC5B6A"/>
<stop offset="0.05" stop-color="#C1576A"/>
<stop offset="0.2" stop-color="#A44B6A"/>
<stop offset="0.37" stop-color="#8D426A"/>
<stop offset="0.54" stop-color="#7D3B6A"/>
<stop offset="0.74" stop-color="#73376A"/>
<stop offset="1" stop-color="#70366A"/>
</linearGradient>
<linearGradient id="paint32_linear_1741_5232" x1="319.345" y1="108.693" x2="206.527" y2="-4.09239" gradientUnits="userSpaceOnUse">
<stop stop-color="#CC8D90"/>
<stop offset="0.7" stop-color="#EF91A1"/>
<stop offset="1" stop-color="#FF93A9"/>
</linearGradient>
<linearGradient id="paint33_linear_1741_5232" x1="523722" y1="410253" x2="688602" y2="410253" gradientUnits="userSpaceOnUse">
<stop stop-color="#FFD8C5"/>
<stop offset="0.27" stop-color="#FFD3C2"/>
<stop offset="0.61" stop-color="#FFC3BB"/>
<stop offset="0.99" stop-color="#FFAAAE"/>
<stop offset="1" stop-color="#FFA9AE"/>
</linearGradient>
<radialGradient id="paint34_radial_1741_5232" cx="0" cy="0" r="1" gradientUnits="userSpaceOnUse" gradientTransform="translate(454.148 311.81) scale(29.2031 29.2109)">
<stop stop-color="#FFEAE5"/>
<stop offset="0.29" stop-color="#FFEAE5" stop-opacity="0.99"/>
<stop offset="0.42" stop-color="#FFE9E4" stop-opacity="0.96"/>
<stop offset="0.53" stop-color="#FFE8E2" stop-opacity="0.91"/>
<stop offset="0.62" stop-color="#FFE7E0" stop-opacity="0.84"/>
<stop offset="0.7" stop-color="#FFE5DD" stop-opacity="0.74"/>
<stop offset="0.77" stop-color="#FFE3D9" stop-opacity="0.63"/>
<stop offset="0.84" stop-color="#FFE1D5" stop-opacity="0.49"/>
<stop offset="0.9" stop-color="#FFDED0" stop-opacity="0.33"/>
<stop offset="0.96" stop-color="#FFDBCA" stop-opacity="0.15"/>
<stop offset="1" stop-color="#FFD8C5" stop-opacity="0"/>
</radialGradient>
<radialGradient id="paint35_radial_1741_5232" cx="0" cy="0" r="1" gradientUnits="userSpaceOnUse" gradientTransform="translate(142160 103700) scale(5552.09 5553.56)">
<stop stop-color="#FFEAE5"/>
<stop offset="0.29" stop-color="#FFEAE5" stop-opacity="0.99"/>
<stop offset="0.42" stop-color="#FFE9E4" stop-opacity="0.96"/>
<stop offset="0.53" stop-color="#FFE8E2" stop-opacity="0.91"/>
<stop offset="0.62" stop-color="#FFE7E0" stop-opacity="0.84"/>
<stop offset="0.7" stop-color="#FFE5DD" stop-opacity="0.74"/>
<stop offset="0.77" stop-color="#FFE3D9" stop-opacity="0.63"/>
<stop offset="0.84" stop-color="#FFE1D5" stop-opacity="0.49"/>
<stop offset="0.9" stop-color="#FFDED0" stop-opacity="0.33"/>
<stop offset="0.96" stop-color="#FFDBCA" stop-opacity="0.15"/>
<stop offset="1" stop-color="#FFD8C5" stop-opacity="0"/>
</radialGradient>
<linearGradient id="paint36_linear_1741_5232" x1="155019" y1="137460" x2="164364" y2="137460" gradientUnits="userSpaceOnUse">
<stop stop-color="#FF7593"/>
<stop offset="0.1" stop-color="#FF7694" stop-opacity="0.98"/>
<stop offset="0.21" stop-color="#FF7A95" stop-opacity="0.93"/>
<stop offset="0.34" stop-color="#FF7F98" stop-opacity="0.83"/>
<stop offset="0.46" stop-color="#FF889C" stop-opacity="0.7"/>
<stop offset="0.6" stop-color="#FF92A2" stop-opacity="0.54"/>
<stop offset="0.73" stop-color="#FF9FA8" stop-opacity="0.34"/>
<stop offset="0.87" stop-color="#FFAEB0" stop-opacity="0.1"/>
<stop offset="0.93" stop-color="#FFB4B3" stop-opacity="0"/>
</linearGradient>
<linearGradient id="paint37_linear_1741_5232" x1="542.393" y1="501.364" x2="585.485" y2="406.442" gradientUnits="userSpaceOnUse">
<stop stop-color="#FFD8C5"/>
<stop offset="0.08" stop-color="#FFD1C2"/>
<stop offset="0.41" stop-color="#FFBBB7"/>
<stop offset="0.72" stop-color="#FFAEB0"/>
<stop offset="1" stop-color="#FFA9AE"/>
</linearGradient>
<linearGradient id="paint38_linear_1741_5232" x1="524.196" y1="483.831" x2="564.367" y2="366.268" gradientUnits="userSpaceOnUse">
<stop stop-color="#FFD8C5"/>
<stop offset="0.44" stop-color="#FFD6C4"/>
<stop offset="0.65" stop-color="#FFCEC0"/>
<stop offset="0.82" stop-color="#FFC1BA"/>
<stop offset="0.97" stop-color="#FFAEB1"/>
<stop offset="1" stop-color="#FFA9AE"/>
</linearGradient>
<linearGradient id="paint39_linear_1741_5232" x1="247243" y1="318599" x2="190575" y2="405538" gradientUnits="userSpaceOnUse">
<stop stop-color="#FF7593"/>
<stop offset="1" stop-color="#FFB4B3"/>
</linearGradient>
<linearGradient id="paint40_linear_1741_5232" x1="336525" y1="137092" x2="298744" y2="96909.8" gradientUnits="userSpaceOnUse">
<stop stop-color="#FF7593"/>
<stop offset="0.1" stop-color="#FF7694" stop-opacity="0.98"/>
<stop offset="0.21" stop-color="#FF7A95" stop-opacity="0.93"/>
<stop offset="0.34" stop-color="#FF7F98" stop-opacity="0.83"/>
<stop offset="0.46" stop-color="#FF889C" stop-opacity="0.7"/>
<stop offset="0.6" stop-color="#FF92A2" stop-opacity="0.54"/>
<stop offset="0.73" stop-color="#FF9FA8" stop-opacity="0.34"/>
<stop offset="0.87" stop-color="#FFAEB0" stop-opacity="0.1"/>
<stop offset="0.93" stop-color="#FFB4B3" stop-opacity="0"/>
</linearGradient>
<linearGradient id="paint41_linear_1741_5232" x1="454.64" y1="387.64" x2="516.69" y2="387.64" gradientUnits="userSpaceOnUse">
<stop stop-color="#FFD8C5"/>
<stop offset="0.04" stop-color="#FFD0C1"/>
<stop offset="0.17" stop-color="#FFBFB9"/>
<stop offset="0.32" stop-color="#FFB2B3"/>
<stop offset="0.53" stop-color="#FFABAF"/>
<stop offset="1" stop-color="#FFA9AE"/>
</linearGradient>
<linearGradient id="paint42_linear_1741_5232" x1="379633" y1="393470" x2="317659" y2="633832" gradientUnits="userSpaceOnUse">
<stop stop-color="#FFD8C5"/>
<stop offset="0.27" stop-color="#FFD3C2"/>
<stop offset="0.61" stop-color="#FFC3BB"/>
<stop offset="0.99" stop-color="#FFAAAE"/>
<stop offset="1" stop-color="#FFA9AE"/>
</linearGradient>
<linearGradient id="paint43_linear_1741_5232" x1="135.119" y1="591.145" x2="315.849" y2="591.145" gradientUnits="userSpaceOnUse">
<stop stop-color="#FF7593"/>
<stop offset="0.23" stop-color="#FF92A2"/>
<stop offset="0.48" stop-color="#FFABAE"/>
<stop offset="0.63" stop-color="#FFB4B3"/>
</linearGradient>
<linearGradient id="paint44_linear_1741_5232" x1="119.215" y1="589.338" x2="163.582" y2="589.338" gradientUnits="userSpaceOnUse">
<stop stop-color="#FF7593"/>
<stop offset="0.31" stop-color="#FF7593"/>
</linearGradient>
<linearGradient id="paint45_linear_1741_5232" x1="96946.3" y1="105074" x2="108843" y2="105074" gradientUnits="userSpaceOnUse">
<stop stop-color="#FFD8C5"/>
<stop offset="0.04" stop-color="#FFD0C1"/>
<stop offset="0.17" stop-color="#FFBFB9"/>
<stop offset="0.32" stop-color="#FFB2B3"/>
<stop offset="0.53" stop-color="#FFABAF"/>
<stop offset="1" stop-color="#FFA9AE"/>
</linearGradient>
<linearGradient id="paint46_linear_1741_5232" x1="88064.4" y1="129026" x2="97303.8" y2="129026" gradientUnits="userSpaceOnUse">
<stop stop-color="#FFD8C5"/>
<stop offset="0.34" stop-color="#FFC2BA"/>
<stop offset="0.73" stop-color="#FFB0B1"/>
<stop offset="1" stop-color="#FFA9AE"/>
</linearGradient>
<linearGradient id="paint47_linear_1741_5232" x1="117208" y1="190155" x2="130226" y2="190155" gradientUnits="userSpaceOnUse">
<stop stop-color="#FFD8C5"/>
<stop offset="0.04" stop-color="#FFD0C1"/>
<stop offset="0.17" stop-color="#FFBFB9"/>
<stop offset="0.32" stop-color="#FFB2B3"/>
<stop offset="0.53" stop-color="#FFABAF"/>
<stop offset="1" stop-color="#FFA9AE"/>
</linearGradient>
<linearGradient id="paint48_linear_1741_5232" x1="195.703" y1="557.524" x2="138.741" y2="474.291" gradientUnits="userSpaceOnUse">
<stop stop-color="#FFD8C5"/>
<stop offset="0.35" stop-color="#FFCBBF"/>
<stop offset="1" stop-color="#FFA9AE"/>
</linearGradient>
<linearGradient id="paint49_linear_1741_5232" x1="51.3673" y1="424.217" x2="74.0454" y2="424.217" gradientUnits="userSpaceOnUse">
<stop offset="0.19" stop-color="#4F45B8" stop-opacity="0.96"/>
<stop offset="1" stop-color="#4F45B8"/>
</linearGradient>
<linearGradient id="paint50_linear_1741_5232" x1="476.049" y1="404.575" x2="548.08" y2="404.575" gradientUnits="userSpaceOnUse">
<stop offset="0.36" stop-color="#FFA9AE"/>
<stop offset="0.45" stop-color="#FFA9AE"/>
<stop offset="1" stop-color="#FFA9AE"/>
</linearGradient>
<linearGradient id="paint51_linear_1741_5232" x1="502.511" y1="469.954" x2="526.187" y2="375.278" gradientUnits="userSpaceOnUse">
<stop stop-color="#FFD8C5"/>
<stop offset="0.22" stop-color="#FFCABE"/>
<stop offset="0.7" stop-color="#FFB2B2"/>
<stop offset="1" stop-color="#FFA9AE"/>
</linearGradient>
<linearGradient id="paint52_linear_1741_5232" x1="409.921" y1="67.968" x2="165.732" y2="58.1154" gradientUnits="userSpaceOnUse">
<stop stop-color="#FF93A9" stop-opacity="0"/>
<stop offset="0.11" stop-color="#FE97AB" stop-opacity="0.07"/>
<stop offset="0.32" stop-color="#FCA3B2" stop-opacity="0.26"/>
<stop offset="0.61" stop-color="#F9B5BC" stop-opacity="0.56"/>
<stop offset="0.98" stop-color="#F4CECA" stop-opacity="0.98"/>
<stop offset="1" stop-color="#F4CFCB"/>
</linearGradient>
<radialGradient id="paint53_radial_1741_5232" cx="0" cy="0" r="1" gradientUnits="userSpaceOnUse" gradientTransform="translate(239.638 198.984) scale(98.1342 98.1603)">
<stop offset="0.01" stop-color="#FF7593"/>
<stop offset="0.21" stop-color="#FF849B" stop-opacity="0.75"/>
<stop offset="0.5" stop-color="#FF99A5" stop-opacity="0.43"/>
<stop offset="0.73" stop-color="#FFA7AD" stop-opacity="0.2"/>
<stop offset="0.9" stop-color="#FFB1B1" stop-opacity="0.05"/>
<stop offset="0.99" stop-color="#FFB4B3" stop-opacity="0"/>
</radialGradient>
<radialGradient id="paint54_radial_1741_5232" cx="0" cy="0" r="1" gradientUnits="userSpaceOnUse" gradientTransform="translate(407184 156116) scale(45420 45432.1)">
<stop offset="0.01" stop-color="#FF7593"/>
<stop offset="0.21" stop-color="#FF849B" stop-opacity="0.75"/>
<stop offset="0.5" stop-color="#FF99A5" stop-opacity="0.43"/>
<stop offset="0.73" stop-color="#FFA7AD" stop-opacity="0.2"/>
<stop offset="0.9" stop-color="#FFB1B1" stop-opacity="0.05"/>
<stop offset="0.99" stop-color="#FFB4B3" stop-opacity="0"/>
</radialGradient>
<linearGradient id="paint55_linear_1741_5232" x1="333082" y1="106956" x2="387894" y2="106956" gradientUnits="userSpaceOnUse">
<stop stop-color="#CC8D90"/>
<stop offset="0.28" stop-color="#D19290"/>
<stop offset="0.62" stop-color="#E0A090"/>
<stop offset="0.99" stop-color="#F8B790"/>
<stop offset="1" stop-color="#F9B890"/>
</linearGradient>
<linearGradient id="paint56_linear_1741_5232" x1="204140" y1="258575" x2="222038" y2="258575" gradientUnits="userSpaceOnUse">
<stop offset="0.01" stop-color="#F9B890"/>
<stop offset="0.92" stop-color="#F9B890"/>
<stop offset="1" stop-color="#F9B890"/>
</linearGradient>
<linearGradient id="paint57_linear_1741_5232" x1="158206" y1="298187" x2="135270" y2="271432" gradientUnits="userSpaceOnUse">
<stop stop-color="#F9EDB3"/>
<stop offset="0.27" stop-color="#F9E9B0"/>
<stop offset="0.55" stop-color="#F9DCA8"/>
<stop offset="0.84" stop-color="#F9C79A"/>
<stop offset="1" stop-color="#F9B890"/>
</linearGradient>
<linearGradient id="paint58_linear_1741_5232" x1="603.781" y1="687.406" x2="714.689" y2="687.406" gradientUnits="userSpaceOnUse">
<stop offset="0.01" stop-color="#F9FFD8"/>
<stop offset="0.33" stop-color="#F9FDD4"/>
<stop offset="0.67" stop-color="#F9F7C7"/>
<stop offset="1" stop-color="#F9EDB3"/>
</linearGradient>
<linearGradient id="paint59_linear_1741_5232" x1="213557" y1="222641" x2="226631" y2="222641" gradientUnits="userSpaceOnUse">
<stop offset="0.01" stop-color="#F9B890"/>
<stop offset="0.92" stop-color="#F9B890"/>
<stop offset="1" stop-color="#F9B890"/>
</linearGradient>
<linearGradient id="paint60_linear_1741_5232" x1="166709" y1="254488" x2="146487" y2="236455" gradientUnits="userSpaceOnUse">
<stop stop-color="#F9EDB3"/>
<stop offset="0.27" stop-color="#F9E9B0"/>
<stop offset="0.55" stop-color="#F9DCA8"/>
<stop offset="0.84" stop-color="#F9C79A"/>
<stop offset="1" stop-color="#F9B890"/>
</linearGradient>
<linearGradient id="paint61_linear_1741_5232" x1="230175" y1="58268.9" x2="248995" y2="58268.9" gradientUnits="userSpaceOnUse">
<stop stop-color="#CC8D90"/>
<stop offset="0.28" stop-color="#D19290"/>
<stop offset="0.62" stop-color="#E0A090"/>
<stop offset="0.99" stop-color="#F8B790"/>
<stop offset="1" stop-color="#F9B890"/>
</linearGradient>
<linearGradient id="paint62_linear_1741_5232" x1="136463" y1="137261" x2="142609" y2="137261" gradientUnits="userSpaceOnUse">
<stop offset="0.01" stop-color="#F9B890"/>
<stop offset="0.92" stop-color="#F9B890"/>
<stop offset="1" stop-color="#F9B890"/>
</linearGradient>
<linearGradient id="paint63_linear_1741_5232" x1="105784" y1="157544" x2="97448.6" y2="143427" gradientUnits="userSpaceOnUse">
<stop stop-color="#F9EDB3"/>
<stop offset="0.27" stop-color="#F9E9B0"/>
<stop offset="0.55" stop-color="#F9DCA8"/>
<stop offset="0.84" stop-color="#F9C79A"/>
<stop offset="1" stop-color="#F9B890"/>
</linearGradient>
<linearGradient id="paint64_linear_1741_5232" x1="230175" y1="53197.1" x2="248995" y2="53197.1" gradientUnits="userSpaceOnUse">
<stop offset="0.01" stop-color="#F9FFD8"/>
<stop offset="0.33" stop-color="#F9FDD4"/>
<stop offset="0.67" stop-color="#F9F7C7"/>
<stop offset="1" stop-color="#F9EDB3"/>
</linearGradient>
<linearGradient id="paint65_linear_1741_5232" x1="136463" y1="125820" x2="142609" y2="125820" gradientUnits="userSpaceOnUse">
<stop offset="0.01" stop-color="#F9B890"/>
<stop offset="0.92" stop-color="#F9B890"/>
<stop offset="1" stop-color="#F9B890"/>
</linearGradient>
<linearGradient id="paint66_linear_1741_5232" x1="106535" y1="143839" x2="96029.9" y2="133433" gradientUnits="userSpaceOnUse">
<stop stop-color="#F9EDB3"/>
<stop offset="0.27" stop-color="#F9E9B0"/>
<stop offset="0.55" stop-color="#F9DCA8"/>
<stop offset="0.84" stop-color="#F9C79A"/>
<stop offset="1" stop-color="#F9B890"/>
</linearGradient>
<linearGradient id="paint67_linear_1741_5232" x1="309236" y1="86892.1" x2="356008" y2="86892.1" gradientUnits="userSpaceOnUse">
<stop stop-color="#CC8D90"/>
<stop offset="0.28" stop-color="#D19290"/>
<stop offset="0.62" stop-color="#E0A090"/>
<stop offset="0.99" stop-color="#F8B790"/>
<stop offset="1" stop-color="#F9B890"/>
</linearGradient>
<linearGradient id="paint68_linear_1741_5232" x1="188516" y1="210696" x2="203787" y2="210696" gradientUnits="userSpaceOnUse">
<stop offset="0.01" stop-color="#F9B890"/>
<stop offset="0.92" stop-color="#F9B890"/>
<stop offset="1" stop-color="#F9B890"/>
</linearGradient>
<linearGradient id="paint69_linear_1741_5232" x1="149058" y1="247489" x2="120650" y2="223432" gradientUnits="userSpaceOnUse">
<stop stop-color="#F9EDB3"/>
<stop offset="0.27" stop-color="#F9E9B0"/>
<stop offset="0.55" stop-color="#F9DCA8"/>
<stop offset="0.84" stop-color="#F9C79A"/>
<stop offset="1" stop-color="#F9B890"/>
</linearGradient>
<linearGradient id="paint70_linear_1741_5232" x1="215546" y1="73983.6" x2="247322" y2="73983.6" gradientUnits="userSpaceOnUse">
<stop stop-color="#CC8D90"/>
<stop offset="0.28" stop-color="#D19290"/>
<stop offset="0.62" stop-color="#E0A090"/>
<stop offset="0.99" stop-color="#F8B790"/>
<stop offset="1" stop-color="#F9B890"/>
</linearGradient>
<linearGradient id="paint71_linear_1741_5232" x1="263.127" y1="663.296" x2="395.828" y2="663.296" gradientUnits="userSpaceOnUse">
<stop stop-color="#70366A"/>
<stop offset="0.05" stop-color="#75386A"/>
<stop offset="0.46" stop-color="#9C476A"/>
<stop offset="0.79" stop-color="#B3516A"/>
<stop offset="1" stop-color="#BC546A"/>
</linearGradient>
<linearGradient id="paint72_linear_1741_5232" x1="135344" y1="155830" x2="119718" y2="144842" gradientUnits="userSpaceOnUse">
<stop stop-color="#CC5968"/>
<stop offset="1" stop-color="#CC8D90"/>
</linearGradient>
<linearGradient id="paint73_linear_1741_5232" x1="173145" y1="129014" x2="191824" y2="129014" gradientUnits="userSpaceOnUse">
<stop stop-color="#CC8D90"/>
<stop offset="0.01" stop-color="#CC8D90"/>
<stop offset="0.38" stop-color="#E5A590"/>
<stop offset="0.72" stop-color="#F4B390"/>
<stop offset="1" stop-color="#F9B890"/>
</linearGradient>
<linearGradient id="paint74_linear_1741_5232" x1="131202" y1="176849" x2="141577" y2="176849" gradientUnits="userSpaceOnUse">
<stop offset="0.01" stop-color="#F9B890"/>
<stop offset="0.92" stop-color="#F9B890"/>
<stop offset="1" stop-color="#F9B890"/>
</linearGradient>
<linearGradient id="paint75_linear_1741_5232" x1="102539" y1="204483" x2="86057.1" y2="186588" gradientUnits="userSpaceOnUse">
<stop stop-color="#F9EDB3"/>
<stop offset="0.27" stop-color="#F9E9B0"/>
<stop offset="0.55" stop-color="#F9DCA8"/>
<stop offset="0.84" stop-color="#F9C79A"/>
<stop offset="1" stop-color="#F9B890"/>
</linearGradient>
<linearGradient id="paint76_linear_1741_5232" x1="99498.7" y1="31195.7" x2="105719" y2="31195.7" gradientUnits="userSpaceOnUse">
<stop offset="0.01" stop-color="#F9FFD8"/>
<stop offset="0.33" stop-color="#F9FDD4"/>
<stop offset="0.67" stop-color="#F9F7C7"/>
<stop offset="1" stop-color="#F9EDB3"/>
</linearGradient>
<linearGradient id="paint77_linear_1741_5232" x1="58556" y1="72033" x2="60587.6" y2="72033" gradientUnits="userSpaceOnUse">
<stop offset="0.01" stop-color="#F9B890"/>
<stop offset="0.92" stop-color="#F9B890"/>
<stop offset="1" stop-color="#F9B890"/>
</linearGradient>
<linearGradient id="paint78_linear_1741_5232" x1="45451.9" y1="79994" x2="42206.8" y2="76639.1" gradientUnits="userSpaceOnUse">
<stop stop-color="#F9EDB3"/>
<stop offset="0.27" stop-color="#F9E9B0"/>
<stop offset="0.55" stop-color="#F9DCA8"/>
<stop offset="0.84" stop-color="#F9C79A"/>
<stop offset="1" stop-color="#F9B890"/>
</linearGradient>
<linearGradient id="paint79_linear_1741_5232" x1="197333" y1="49741.5" x2="214974" y2="49741.5" gradientUnits="userSpaceOnUse">
<stop offset="0.01" stop-color="#F9FFD8"/>
<stop offset="0.33" stop-color="#F9FDD4"/>
<stop offset="0.67" stop-color="#F9F7C7"/>
<stop offset="1" stop-color="#F9EDB3"/>
</linearGradient>
<linearGradient id="paint80_linear_1741_5232" x1="117352" y1="117635" x2="123112" y2="117635" gradientUnits="userSpaceOnUse">
<stop offset="0.01" stop-color="#F9B890"/>
<stop offset="0.92" stop-color="#F9B890"/>
<stop offset="1" stop-color="#F9B890"/>
</linearGradient>
<linearGradient id="paint81_linear_1741_5232" x1="91716.3" y1="133410" x2="83260" y2="126462" gradientUnits="userSpaceOnUse">
<stop stop-color="#F9EDB3"/>
<stop offset="0.27" stop-color="#F9E9B0"/>
<stop offset="0.55" stop-color="#F9DCA8"/>
<stop offset="0.84" stop-color="#F9C79A"/>
<stop offset="1" stop-color="#F9B890"/>
</linearGradient>
</defs>
</svg>
