<svg width="119" height="135" viewBox="0 0 119 135" fill="none" xmlns="http://www.w3.org/2000/svg">
<path d="M4.2948 15L7 17.8537L9.7052 15L11 16.3659L7 20.5854L3 16.3659L4.2948 15Z" fill="#212B36"/>
<path d="M4.2948 22.9512L7 25.8049L9.7052 22.9512L11 24.3171L7 28.5366L3 24.3171L4.2948 22.9512Z" fill="#212B36"/>
<path d="M3 31.7805L4.2948 30.4146L7 33.2683L9.7052 30.4146L11 31.7805L7 36L3 31.7805Z" fill="#212B36"/>
<path d="M32.5102 102.981C33.3334 102.981 34.0008 102.314 34.0008 101.49C34.0008 100.667 33.3334 100 32.5102 100C31.6869 100 31.0195 100.667 31.0195 101.49C31.0195 102.314 31.6869 102.981 32.5102 102.981Z" fill="#6851FF"/>
<path d="M34.0008 112.514C34.0008 111.699 33.3258 111.024 32.5102 111.024C31.6945 111.024 31.0195 111.699 31.0195 112.514C31.0195 113.33 31.6945 114.004 32.5102 114.004C33.3539 114.004 34.0008 113.33 34.0008 112.514Z" fill="#6851FF"/>
<path d="M34.0008 123.51V123.481V123.453C34.0008 122.638 33.3258 121.963 32.5102 121.963C31.6945 121.963 31.0195 122.638 31.0195 123.453V123.481V123.51C31.0195 124.325 31.6945 125 32.5102 125C33.3539 125 34.0008 124.325 34.0008 123.51Z" fill="#6851FF"/>
<path d="M20.5004 102.981C21.3236 102.981 21.991 102.314 21.991 101.49C21.991 100.667 21.3236 100 20.5004 100C19.6771 100 19.0098 100.667 19.0098 101.49C19.0098 102.314 19.6771 102.981 20.5004 102.981Z" fill="#6851FF"/>
<path d="M22.0184 112.514C22.0184 111.699 21.3434 111.024 20.5277 111.024C19.7121 111.024 19.0371 111.699 19.0371 112.514C19.0371 113.33 19.7121 114.004 20.5277 114.004C21.3434 114.004 22.0184 113.33 22.0184 112.514Z" fill="#6851FF"/>
<path d="M22.0184 123.51V123.481V123.453C22.0184 122.638 21.3434 121.963 20.5277 121.963C19.7121 121.963 19.0371 122.638 19.0371 123.453V123.481V123.51C19.0371 124.325 19.7121 125 20.5277 125C21.3434 125 22.0184 124.325 22.0184 123.51Z" fill="#6851FF"/>
<path d="M8.49063 102.981C9.31387 102.981 9.98125 102.314 9.98125 101.49C9.98125 100.667 9.31387 100 8.49063 100C7.66738 100 7 100.667 7 101.49C7 102.314 7.66738 102.981 8.49063 102.981Z" fill="#6851FF"/>
<path d="M10.0086 112.514C10.0086 111.699 9.33359 111.024 8.51797 111.024C7.70234 111.024 7.02734 111.699 7.02734 112.514C7.02734 113.33 7.70234 114.004 8.51797 114.004C9.33359 114.004 10.0086 113.33 10.0086 112.514Z" fill="#6851FF"/>
<path d="M10.0094 123.51V123.481V123.453C10.0094 122.638 9.33438 121.963 8.51875 121.963C7.675 121.935 7 122.61 7 123.425V123.453V123.481C7 124.297 7.675 124.972 8.49063 124.972C9.33438 125 10.0094 124.325 10.0094 123.51Z" fill="#6851FF"/>
<circle cx="59.5" cy="65.5" r="59.5" fill="#F7F5FF"/>
<g clip-path="url(#clip0_2152_4657)">
<path d="M82.7027 10.2172C82.784 10.2172 82.8449 10.1969 82.9059 10.1359L90.1168 2.925C90.2387 2.80313 90.2387 2.62032 90.1168 2.49844C89.9949 2.37657 89.8121 2.37657 89.6902 2.49844L82.4996 9.70938C82.3777 9.83125 82.3777 10.0141 82.4996 10.1359C82.5605 10.1969 82.6418 10.2172 82.7027 10.2172Z" fill="#FFF6DB"/>
<path d="M80.5484 15.9047C80.6297 15.9047 80.6906 15.8844 80.7516 15.8234L95.8031 0.751566C95.925 0.629691 95.925 0.446878 95.8031 0.325003C95.6813 0.203128 95.4984 0.203128 95.3766 0.325003L80.3453 15.3969C80.2234 15.5188 80.2234 15.7016 80.3453 15.8234C80.4063 15.8641 80.4875 15.9047 80.5484 15.9047Z" fill="#FFF6DB"/>
<path d="M80.5082 19.5813L99.5816 0.507814C99.7035 0.385939 99.7035 0.203127 99.5816 0.0812515C99.4598 -0.0406235 99.277 -0.0406235 99.1551 0.0812515L80.0816 19.1547C79.9598 19.2766 79.9598 19.4594 80.0816 19.5813C80.1426 19.6422 80.2238 19.6625 80.2848 19.6625C80.3457 19.6625 80.4473 19.6422 80.5082 19.5813Z" fill="#FFF6DB"/>
<path d="M102.933 0.24375C102.811 0.121875 102.628 0.121875 102.506 0.24375L80.2438 22.5266C80.1219 22.6484 80.1219 22.8312 80.2438 22.9531C80.3047 23.0141 80.3859 23.0344 80.4469 23.0344C80.5078 23.0344 80.5891 23.0141 80.65 22.9531L102.933 0.65C103.055 0.548438 103.055 0.365625 102.933 0.24375Z" fill="#FFF6DB"/>
<path d="M105.777 0.934378C105.655 0.812503 105.473 0.812503 105.351 0.934378L80.9352 25.35C80.8133 25.4719 80.8133 25.6547 80.9352 25.7766C80.9961 25.8375 81.0773 25.8578 81.1383 25.8578C81.2195 25.8578 81.2805 25.8375 81.3414 25.7766L105.777 1.34063C105.879 1.23907 105.879 1.03594 105.777 0.934378Z" fill="#FFF6DB"/>
<path d="M108.255 1.95C108.133 1.82813 107.95 1.82813 107.828 1.95L81.9703 27.8281C81.8484 27.95 81.8484 28.1328 81.9703 28.2547C82.0313 28.3156 82.1125 28.3359 82.1734 28.3359C82.2547 28.3359 82.3156 28.3156 82.3766 28.2547L108.255 2.37657C108.377 2.25469 108.377 2.07188 108.255 1.95Z" fill="#FFF6DB"/>
<path d="M110.489 3.22969C110.368 3.10781 110.185 3.10781 110.063 3.22969L83.2301 30.0828C83.1082 30.2047 83.1082 30.3875 83.2301 30.5094C83.291 30.5703 83.3723 30.5906 83.4332 30.5906C83.5145 30.5906 83.5754 30.5703 83.6363 30.5094L110.489 3.65625C110.611 3.53438 110.611 3.35156 110.489 3.22969Z" fill="#FFF6DB"/>
<path d="M112.459 4.77344C112.337 4.65156 112.154 4.65156 112.032 4.77344L84.773 32.0531C84.6512 32.175 84.6512 32.3578 84.773 32.4797C84.834 32.5406 84.9152 32.5609 84.9762 32.5609C85.0574 32.5609 85.1184 32.5406 85.1793 32.4797L112.459 5.2C112.581 5.07812 112.581 4.89531 112.459 4.77344Z" fill="#FFF6DB"/>
<path d="M114.227 6.54063C114.105 6.41875 113.922 6.41875 113.8 6.54063L86.5406 33.8C86.4188 33.9219 86.4188 34.1047 86.5406 34.2266C86.6016 34.2875 86.6828 34.3078 86.7437 34.3078C86.825 34.3078 86.8859 34.2875 86.9469 34.2266L114.227 6.94688C114.348 6.84531 114.348 6.64219 114.227 6.54063Z" fill="#FFF6DB"/>
<path d="M115.771 8.51094C115.649 8.38906 115.466 8.38906 115.344 8.51094L88.5113 35.3438C88.3895 35.4656 88.3895 35.6484 88.5113 35.7703C88.5723 35.8313 88.6535 35.8516 88.7145 35.8516C88.7957 35.8516 88.8566 35.8313 88.9176 35.7703L115.771 8.91719C115.893 8.81563 115.893 8.6125 115.771 8.51094Z" fill="#FFF6DB"/>
<path d="M117.05 10.7453C116.929 10.6234 116.746 10.6234 116.624 10.7453L90.7457 36.6234C90.6238 36.7453 90.6238 36.9281 90.7457 37.05C90.8066 37.1109 90.8879 37.1313 90.9488 37.1313C91.0098 37.1313 91.091 37.1109 91.152 37.05L117.05 11.1719C117.152 11.05 117.152 10.8672 117.05 10.7453Z" fill="#FFF6DB"/>
<path d="M118.066 13.2234C117.944 13.1016 117.761 13.1016 117.639 13.2234L93.2437 37.6594C93.1219 37.7812 93.1219 37.9641 93.2437 38.0859C93.3047 38.1469 93.3859 38.1672 93.4469 38.1672C93.5281 38.1672 93.5891 38.1469 93.65 38.0859L118.066 13.65C118.187 13.5281 118.187 13.3453 118.066 13.2234Z" fill="#FFF6DB"/>
<path d="M118.757 16.0672C118.635 15.9453 118.452 15.9453 118.33 16.0672L96.068 38.35C95.9461 38.4719 95.9461 38.6547 96.068 38.7766C96.1289 38.8375 96.2102 38.8578 96.2711 38.8578C96.3523 38.8578 96.4133 38.8375 96.4742 38.7766L118.757 16.4734C118.879 16.3719 118.879 16.1688 118.757 16.0672Z" fill="#FFF6DB"/>
<path d="M118.92 19.4188C118.798 19.2969 118.615 19.2969 118.493 19.4188L99.4195 38.4922C99.2977 38.6141 99.2977 38.7969 99.4195 38.9188C99.4805 38.9797 99.5617 39 99.6227 39C99.7039 39 99.7648 38.9797 99.8258 38.9188L118.899 19.8453C119.041 19.7234 119.041 19.5406 118.92 19.4188Z" fill="#FFF6DB"/>
<path d="M118.248 23.1969L103.197 38.2484C103.075 38.3703 103.075 38.5531 103.197 38.675C103.258 38.7359 103.339 38.7563 103.4 38.7563C103.481 38.7563 103.542 38.7359 103.603 38.675L118.655 23.6234C118.777 23.5016 118.777 23.3188 118.655 23.1969C118.553 23.075 118.35 23.075 118.248 23.1969Z" fill="#FFF6DB"/>
<path d="M116.076 28.8641L108.865 36.075C108.743 36.1969 108.743 36.3797 108.865 36.5016C108.926 36.5625 109.007 36.5828 109.068 36.5828C109.129 36.5828 109.21 36.5625 109.271 36.5016L116.482 29.2906C116.604 29.1687 116.604 28.9859 116.482 28.8641C116.38 28.7422 116.198 28.7422 116.076 28.8641Z" fill="#FFF6DB"/>
</g>
<g clip-path="url(#clip1_2152_4657)">
<path d="M96.0199 135C92.151 135 89 131.849 89 128.02C89 124.151 92.151 121 96.0199 121C99.8889 121 103.04 124.151 103.04 128.02C103 131.849 99.849 135 96.0199 135ZM96.2991 124.39C94.1852 124.39 92.51 125.946 92.51 127.821C92.51 129.695 94.2251 131.251 96.2991 131.251C98.3732 131.251 100.088 129.695 100.088 127.821C100.088 125.946 98.4131 124.39 96.2991 124.39Z" fill="#6851FF"/>
</g>
<path d="M101 55.4C100.995 55.014 100.911 54.6332 100.752 54.2814C100.593 53.9297 100.363 53.6146 100.076 53.356C99.684 52.992 100.944 53.832 87 44.956V27.4C87 25.1722 86.115 23.0356 84.5397 21.4603C82.9644 19.885 80.8278 19 78.6 19H39.4C37.1722 19 35.0356 19.885 33.4603 21.4603C31.885 23.0356 31 25.1722 31 27.4V44.872C17.504 53.552 18.148 53.104 17.784 53.44C17.2978 53.9793 17.0199 54.6742 17 55.4V100.2C17 102.428 17.885 104.564 19.4603 106.14C21.0356 107.715 23.1722 108.6 25.4 108.6H33.8C34.5426 108.6 35.2548 108.305 35.7799 107.78C36.305 107.255 36.6 106.543 36.6 105.8C36.6 105.057 36.305 104.345 35.7799 103.82C35.2548 103.295 34.5426 103 33.8 103H25.4C24.6574 103 23.9452 102.705 23.4201 102.18C22.895 101.655 22.6 100.943 22.6 100.2V60.524L54.464 81.02C55.8175 81.8884 57.3919 82.35 59 82.35C60.6081 82.35 62.1825 81.8884 63.536 81.02L95.4 60.524V100.2C95.4 100.943 95.105 101.655 94.5799 102.18C94.0548 102.705 93.3426 103 92.6 103H45C44.2574 103 43.5452 103.295 43.0201 103.82C42.495 104.345 42.2 105.057 42.2 105.8C42.2 106.543 42.495 107.255 43.0201 107.78C43.5452 108.305 44.2574 108.6 45 108.6H92.6C94.8278 108.6 96.9644 107.715 98.5397 106.14C100.115 104.564 101 102.428 101 100.2V55.4ZM31 59.264L24.98 55.4L31 51.536V59.264ZM81.4 62.876L60.512 76.288C60.0608 76.5775 59.536 76.7313 59 76.7313C58.464 76.7313 57.9392 76.5775 57.488 76.288L36.6 62.876V27.4C36.6 26.6574 36.895 25.9452 37.4201 25.4201C37.9452 24.895 38.6574 24.6 39.4 24.6H78.6C79.3426 24.6 80.0548 24.895 80.5799 25.4201C81.105 25.9452 81.4 26.6574 81.4 27.4V62.876ZM87 59.264V51.536L93.02 55.4L87 59.264Z" fill="#212B36"/>
<rect x="41" y="46" width="36" height="11" rx="3" fill="#6851FF"/>
<rect x="41" y="30" width="19" height="3" rx="1.5" fill="#212B36"/>
<rect x="41" y="36" width="26" height="3" rx="1.5" fill="#212B36"/>
<mask id="path-35-inside-1_2152_4657" fill="white">
<path fill-rule="evenodd" clip-rule="evenodd" d="M61.0826 50.4831C59.9673 49.8264 58.5996 50.7957 58.8498 52.0656L60.4684 60.2832C60.6787 61.3506 61.9198 61.8462 62.8075 61.2171L64.8352 59.78L66.8183 62.5782C67.1212 63.0055 67.7131 63.1064 68.1404 62.8036C68.5677 62.5008 68.6686 61.9089 68.3657 61.4816L66.3826 58.6833L68.406 57.2494C69.2936 56.6203 69.2373 55.285 68.2998 54.733L61.0826 50.4831Z"/>
</mask>
<path fill-rule="evenodd" clip-rule="evenodd" d="M61.0826 50.4831C59.9673 49.8264 58.5996 50.7957 58.8498 52.0656L60.4684 60.2832C60.6787 61.3506 61.9198 61.8462 62.8075 61.2171L64.8352 59.78L66.8183 62.5782C67.1212 63.0055 67.7131 63.1064 68.1404 62.8036C68.5677 62.5008 68.6686 61.9089 68.3657 61.4816L66.3826 58.6833L68.406 57.2494C69.2936 56.6203 69.2373 55.285 68.2998 54.733L61.0826 50.4831Z" fill="#F7F5FF"/>
<path d="M58.8498 52.0656L60.8121 51.679L60.8121 51.679L58.8498 52.0656ZM61.0826 50.4831L62.0975 48.7597L62.0975 48.7597L61.0826 50.4831ZM60.4684 60.2832L62.4307 59.8966L62.4307 59.8966L60.4684 60.2832ZM64.8352 59.78L66.467 58.6236L65.3105 56.9918L63.6788 58.1483L64.8352 59.78ZM66.3826 58.6833L65.2262 57.0516L63.5944 58.208L64.7509 59.8398L66.3826 58.6833ZM68.2998 54.733L67.2849 56.4564L67.2849 56.4564L68.2998 54.733ZM60.8121 51.679C60.8954 52.1024 60.4395 52.4254 60.0678 52.2065L62.0975 48.7597C59.4951 47.2273 56.3038 49.489 56.8875 52.4521L60.8121 51.679ZM62.4307 59.8966L60.8121 51.679L56.8875 52.4521L58.5061 60.6697L62.4307 59.8966ZM61.651 59.5853C61.9469 59.3756 62.3606 59.5408 62.4307 59.8966L58.5061 60.6697C58.9967 63.1604 61.8927 64.3167 63.9639 62.8488L61.651 59.5853ZM63.6788 58.1483L61.651 59.5853L63.9639 62.8488L65.9916 61.4118L63.6788 58.1483ZM68.4501 61.4218L66.467 58.6236L63.2034 60.9365L65.1866 63.7347L68.4501 61.4218ZM66.9839 61.1718C67.4578 60.836 68.1142 60.9479 68.4501 61.4218L65.1866 63.7347C66.1281 65.0632 67.9683 65.3769 69.2968 64.4354L66.9839 61.1718ZM66.734 62.638C66.3981 62.1641 66.51 61.5077 66.9839 61.1718L69.2968 64.4354C70.6253 63.4938 70.939 61.6536 69.9975 60.3251L66.734 62.638ZM64.7509 59.8398L66.734 62.638L69.9975 60.3251L68.0144 57.5269L64.7509 59.8398ZM67.2495 55.6176L65.2262 57.0516L67.5391 60.3151L69.5624 58.8811L67.2495 55.6176ZM67.2849 56.4564C66.9724 56.2724 66.9537 55.8273 67.2495 55.6176L69.5624 58.8811C71.6336 57.4132 71.5021 54.2977 69.3146 53.0096L67.2849 56.4564ZM60.0678 52.2065L67.2849 56.4564L69.3146 53.0096L62.0975 48.7597L60.0678 52.2065Z" fill="#212B36" mask="url(#path-35-inside-1_2152_4657)"/>
<defs>
<clipPath id="clip0_2152_4657">
<rect width="39" height="39" fill="white" transform="translate(80)"/>
</clipPath>
<clipPath id="clip1_2152_4657">
<rect width="14" height="14" fill="white" transform="translate(89 121)"/>
</clipPath>
</defs>
</svg>
