<svg width="509" height="340" viewBox="0 0 509 340" fill="none" xmlns="http://www.w3.org/2000/svg">
<path d="M1.94336 306.884L5.82068 306.41C9.98521 302.47 17.2071 299.265 25.6955 298.052C34.9063 296.735 43.3287 298.091 48.3405 301.21L52.9186 300.651L53.0622 307.804C53.7544 314.942 43.2727 322.257 29.3847 324.244C15.3029 326.256 3.05916 322.024 2.03956 314.79C2.01515 314.623 2.00367 314.454 1.99362 314.286L1.95772 314.276L1.94336 306.884Z" fill="url(#paint0_linear_2096_4681)"/>
<path d="M29.0315 317.112C43.0359 315.124 53.5663 307.718 52.5517 300.572C51.5372 293.425 39.3618 289.243 25.3573 291.231C11.3529 293.219 0.822481 300.625 1.83706 307.771C2.85164 314.918 15.027 319.1 29.0315 317.112Z" fill="url(#paint1_linear_2096_4681)"/>
<path d="M28.7205 314.917C40.3495 313.267 49.0937 307.117 48.2512 301.182C47.4086 295.248 37.2985 291.775 25.6695 293.426C14.0404 295.077 5.29629 301.226 6.13881 307.161C6.98134 313.096 17.0915 316.568 28.7205 314.917Z" fill="url(#paint2_linear_2096_4681)"/>
<path d="M28.4279 312.88C37.8524 311.542 44.939 306.559 44.2562 301.749C43.5735 296.94 35.3798 294.125 25.9553 295.463C16.5307 296.801 9.44413 301.785 10.1269 306.594C10.8097 311.404 19.0033 314.218 28.4279 312.88Z" fill="url(#paint3_linear_2096_4681)"/>
<path d="M39.495 302.443L37.7577 302.758C38.0421 306.271 35.3011 307.935 32.7307 308.444L32.1621 305.36C33.2212 305.133 34.1041 304.421 34.1268 303.354L29.8718 304.15L29.7695 305.092C29.5505 307.149 28.0819 309.092 24.7794 309.709C21.3362 310.352 19.0502 308.771 18.2796 306.373L16.5011 306.705L16.1855 304.979L17.9925 304.643C17.9569 301.918 20.088 299.951 22.9398 299.398L23.4872 302.395C22.6086 302.579 21.6475 303.185 21.558 304.036L25.5386 303.293L25.6367 302.4C25.7973 300.422 26.9304 298.383 30.5414 297.709C33.8581 297.09 36.454 298.304 37.4051 301.056L39.1666 300.719L39.495 302.443ZM25.4448 305.086C25.4448 305.044 25.4604 305.012 25.4675 304.972L21.8281 305.651C22.0698 306.341 22.8517 306.742 23.8312 306.558C24.7425 306.389 25.2841 305.861 25.4448 305.086ZM29.9514 302.338C29.9514 302.378 29.9386 302.428 29.9315 302.47L33.8226 301.751C33.6008 301.008 32.7151 300.601 31.6375 300.798C30.658 300.973 30.0993 301.554 29.9528 302.338H29.9514Z" fill="url(#paint4_linear_2096_4681)"/>
<path d="M128.408 273.507L73.9883 330.15H446.053L402.737 293.498L128.408 273.507Z" fill="#452770"/>
<path d="M444.382 330.15H73.9824V339.591H444.382V330.15Z" fill="url(#paint5_linear_2096_4681)"/>
<path d="M180.05 131.312V63.9102C179.236 64.6448 124.446 117.957 110.725 131.312H180.05Z" fill="url(#paint6_linear_2096_4681)"/>
<path d="M171.166 97.4702C168.853 115.406 150.87 126.873 133.633 121.415C130.087 120.291 126.267 120.393 122.787 121.705C119.306 123.018 116.37 125.464 114.449 128.649L106.305 142.157C103.342 147.07 101.577 152.611 101.153 158.332C100.728 164.053 101.656 169.794 103.861 175.09L106.793 182.142C108.86 187.101 111.993 191.543 115.972 195.153C119.95 198.763 124.674 201.452 129.81 203.029L176.702 217.427L255.003 222.98C255.003 222.98 282.77 264.074 291.1 259.63C299.43 255.186 354.407 205.209 361.631 205.209C363.63 205.209 366.948 201.164 370.704 195.313C385.853 171.702 384.199 141.033 366.731 119.081C360.038 105.831 342.949 101.916 331.161 110.923C329.04 112.543 326.379 113.29 323.725 113.011C321.07 112.731 318.624 111.446 316.887 109.42L299.99 89.7102L236.695 43.0488L171.166 97.4702Z" fill="url(#paint7_linear_2096_4681)"/>
<path d="M190.433 124.448C188.893 124.448 162.742 115.214 173.505 85.2063C184.269 55.1987 214.285 19.8028 241.215 36.7303C251.218 29.037 270.456 18.2651 287.383 49.812C303.542 81.3588 317.391 102.134 293.539 120.601C228.127 132.141 190.433 124.448 190.433 124.448Z" fill="url(#paint8_linear_2096_4681)"/>
<path d="M260.442 160.611C248.9 155.226 231.203 161.382 231.203 161.382C231.203 161.382 230.664 172.359 223.275 182.31C229.431 191.143 248.414 213.032 268.424 182.168C262.753 177.846 259.123 171.494 260.442 160.611Z" fill="url(#paint9_linear_2096_4681)"/>
<path d="M286.601 135.989C293.825 135.989 299.682 130.133 299.682 122.909C299.682 115.685 293.825 109.829 286.601 109.829C279.378 109.829 273.521 115.685 273.521 122.909C273.521 130.133 279.378 135.989 286.601 135.989Z" fill="#FFD8C5"/>
<path d="M201.197 135.989C208.421 135.989 214.277 130.133 214.277 122.909C214.277 115.685 208.421 109.829 201.197 109.829C193.973 109.829 188.117 115.685 188.117 122.909C188.117 130.133 193.973 135.989 201.197 135.989Z" fill="#FFD8C5"/>
<path d="M201.199 130.603C205.449 130.603 208.894 127.158 208.894 122.909C208.894 118.659 205.449 115.214 201.199 115.214C196.949 115.214 193.504 118.659 193.504 122.909C193.504 127.158 196.949 130.603 201.199 130.603Z" fill="url(#paint10_linear_2096_4681)"/>
<path d="M230.805 161.987C230.805 161.987 230.76 169.741 226.629 178.306C232.32 181.774 238.631 183.596 245.211 183.31C252.017 183.013 258.335 180.492 263.831 176.292C260.986 172.44 259.417 167.257 259.982 159.946C248.218 155.068 230.805 161.987 230.805 161.987Z" fill="url(#paint11_linear_2096_4681)"/>
<path d="M285.068 130.603C289.318 130.603 292.763 127.158 292.763 122.909C292.763 118.659 289.318 115.214 285.068 115.214C280.818 115.214 277.373 118.659 277.373 122.909C277.373 127.158 280.818 130.603 285.068 130.603Z" fill="url(#paint12_linear_2096_4681)"/>
<path d="M244.286 168.306C267.234 168.306 285.836 142.986 285.836 111.752C285.836 80.5184 267.234 55.1985 244.286 55.1985C221.339 55.1985 202.736 80.5184 202.736 111.752C202.736 142.986 221.339 168.306 244.286 168.306Z" fill="url(#paint13_linear_2096_4681)"/>
<path d="M244.286 168.306C267.234 168.306 285.836 142.986 285.836 111.752C285.836 80.5184 267.234 55.1985 244.286 55.1985C221.339 55.1985 202.736 80.5184 202.736 111.752C202.736 142.986 221.339 168.306 244.286 168.306Z" fill="url(#paint14_linear_2096_4681)"/>
<path d="M236.935 129.649L235.946 131.703C235.131 133.398 234.988 135.34 235.547 137.136C236.106 138.933 237.325 140.45 238.958 141.384L239.326 141.595C240.695 142.377 242.276 142.703 243.842 142.527C245.408 142.352 246.878 141.683 248.039 140.618L248.324 140.357C249.817 138.989 250.81 137.16 251.145 135.162C251.48 133.165 251.138 131.112 250.173 129.331C247.283 123.994 239.567 124.178 236.935 129.649Z" fill="#FFB4B3"/>
<path d="M243.519 113.676L236.533 128.183C235.713 129.885 235.569 131.834 236.129 133.638C236.69 135.442 237.914 136.967 239.554 137.904C240.928 138.689 242.516 139.018 244.088 138.842C245.66 138.666 247.137 137.996 248.303 136.927C249.793 135.561 250.784 133.736 251.118 131.742C251.453 129.749 251.111 127.701 250.149 125.923L243.519 113.676Z" fill="#FFEFDB"/>
<path d="M220.819 118.29C223.581 118.29 225.82 116.052 225.82 113.29C225.82 110.528 223.581 108.289 220.819 108.289C218.057 108.289 215.818 110.528 215.818 113.29C215.818 116.052 218.057 118.29 220.819 118.29Z" fill="#452770"/>
<path d="M263.905 116.753C266.667 116.753 268.906 114.514 268.906 111.752C268.906 108.99 266.667 106.751 263.905 106.751C261.143 106.751 258.904 108.99 258.904 111.752C258.904 114.514 261.143 116.753 263.905 116.753Z" fill="#452770"/>
<path d="M215.818 105.215C215.818 105.215 219.666 94.4435 230.438 102.138C228.13 96.7451 218.897 95.2091 215.818 105.215Z" fill="#452770"/>
<path d="M258.904 101.365C258.904 101.365 265.829 92.8945 272.75 102.902C269.676 96.7452 263.521 92.8994 258.904 101.365Z" fill="#452770"/>
<path d="M223.514 182.156C223.514 182.156 206.971 192.544 201.584 195.621C207.74 230.246 216.589 256.791 230.438 236.017C244.287 215.244 244.284 197.162 244.284 197.162C244.284 197.162 237.364 199.854 223.514 182.156Z" fill="url(#paint15_linear_2096_4681)"/>
<path d="M244.287 196.776C244.287 196.776 241.69 222.743 251.428 235.727C257.476 243.792 269.86 243.126 275.281 234.63C283.248 222.141 285.483 199.771 281.989 187.541C274.294 184.464 268.144 182.156 268.144 182.156C268.144 182.156 258.137 199.084 244.287 196.776Z" fill="url(#paint16_linear_2096_4681)"/>
<path d="M243.52 210.24C246.282 210.24 248.521 206.795 248.521 202.545C248.521 198.296 246.282 194.851 243.52 194.851C240.758 194.851 238.52 198.296 238.52 202.545C238.52 206.795 240.758 210.24 243.52 210.24Z" fill="url(#paint17_linear_2096_4681)"/>
<path style="mix-blend-mode:multiply" opacity="0.39" d="M273.718 162.616C294.329 162.616 311.036 146.419 311.036 126.44C311.036 106.46 294.329 90.2637 273.718 90.2637C253.108 90.2637 236.4 106.46 236.4 126.44C236.4 146.419 253.108 162.616 273.718 162.616Z" fill="url(#paint18_radial_2096_4681)"/>
<path style="mix-blend-mode:multiply" opacity="0.39" d="M205.236 168.583C225.846 168.583 242.554 152.386 242.554 132.406C242.554 112.427 225.846 96.2302 205.236 96.2302C184.626 96.2302 167.918 112.427 167.918 132.406C167.918 152.386 184.626 168.583 205.236 168.583Z" fill="url(#paint19_radial_2096_4681)"/>
<path d="M245.825 135.604C247.312 135.604 248.518 133.882 248.518 131.757C248.518 129.632 247.312 127.909 245.825 127.909C244.338 127.909 243.133 129.632 243.133 131.757C243.133 133.882 244.338 135.604 245.825 135.604Z" fill="white"/>
<path d="M274.993 73.4308C267.252 61.9927 256.098 54.8125 243.718 54.8125C223.422 54.8125 206.47 74.0726 202.355 99.77C203.409 99.3872 209.599 96.5986 230.001 78.4852C252.731 58.3065 268.407 77.7083 274.677 87.7976C274.672 82.274 274.796 77.5242 274.993 73.4308Z" fill="url(#paint20_linear_2096_4681)"/>
<path d="M287.378 48.2725C270.451 16.7256 251.217 27.4975 241.21 35.1924C241.036 35.0817 240.862 34.9839 240.688 34.878L243.52 49.0413C243.52 49.0413 248.905 39.0399 259.677 45.1955C270.449 51.3511 268.147 72.1244 271.988 85.206C275.292 96.4357 285.968 113.902 305.962 100.606C308.404 86.3968 298.432 69.8553 287.378 48.2725Z" fill="url(#paint21_linear_2096_4681)"/>
<path d="M243.904 49.4275C243.904 49.4275 231.593 56.352 224.667 80.9744C216.197 104.826 192.351 118.292 171.576 94.0544C188.504 96.3625 231.972 42.1171 243.904 49.4275Z" fill="url(#paint22_linear_2096_4681)"/>
<path d="M366.739 119.071C360.046 105.821 342.958 101.905 331.169 110.913C327.323 114.759 321.282 114.528 317.744 110.398L315.736 108.056C310.593 102.057 307.042 94.8962 305.136 87.229C304.395 84.3418 303.464 81.5067 302.349 78.7424C301.861 88.2145 297.177 92.2069 294.298 82.1273C289.681 65.9703 281.218 65.9703 281.218 79.0503C281.218 86.1507 275.775 83.7285 270.801 80.0276C271.102 81.7732 271.496 83.5012 271.983 85.2043C272.052 85.4372 272.125 85.6734 272.2 85.9128C274.358 92.7689 274.743 100.06 273.122 107.062C270.31 119.206 269.765 136.989 287.225 144.67C314.991 156.887 349.977 113.573 362.749 132.454C375.521 151.334 390.515 183.544 342.202 217.971L342.35 218.039C351.71 210.615 359.263 205.197 361.639 205.197C363.638 205.197 366.956 201.152 370.712 195.301C385.866 171.695 384.208 141.027 366.739 119.071Z" fill="url(#paint23_linear_2096_4681)"/>
<path d="M240.82 34.8064C214.159 19.4003 184.135 54.0404 173.495 83.6733C172.346 86.7954 171.557 90.0383 171.143 93.3392C170.788 94.2226 170.528 95.141 170.366 96.079C167.334 113.743 147.138 125.805 130.591 117.532C127.366 115.919 123.651 115.582 120.187 116.587C116.724 117.592 113.766 119.865 111.905 122.954L102.167 139.096C99.0869 144.207 97.2525 149.971 96.8125 155.922C96.3725 161.873 97.3391 167.844 99.6343 173.352L102.69 180.682C104.839 185.841 108.099 190.462 112.238 194.217C116.377 197.973 121.292 200.769 126.635 202.408L139.075 206.228C141.984 201.845 144.18 198.481 144.18 198.481L119.225 170.179C117.229 167.916 115.893 165.147 115.365 162.175C114.837 159.204 115.137 156.144 116.231 153.331C117.519 150.023 119.842 147.221 122.854 145.342C125.866 143.463 129.405 142.609 132.942 142.906L146.802 144.068C162.249 145.371 187.688 130.331 200.377 119.274C206.438 113.994 208.493 105.872 212.792 99.0761L218.518 90.0244L218.267 89.8778C219.031 88.7064 219.727 87.4919 220.352 86.2404C228.122 70.5623 230.925 51.558 243.518 49.0381C241.904 42.0729 241.505 37.7661 240.82 34.8064Z" fill="url(#paint24_linear_2096_4681)"/>
<path d="M212.596 50.4127C206.162 50.4127 202.601 46.992 200.651 42.7878C188.705 53.234 178.742 69.057 173.499 83.6731C172.35 86.7952 171.561 90.0381 171.147 93.339C170.792 94.2225 170.532 95.1408 170.37 96.0788C169.9 98.8061 169.021 101.447 167.764 103.912C177.917 106.375 193.337 85.043 206.675 75.5954C215.285 69.4952 220.419 73.5658 223.425 79.3843C226.427 72.0542 228.847 64.6362 232.043 58.9318C229.005 52.8756 221.973 50.4127 212.596 50.4127Z" fill="url(#paint25_linear_2096_4681)"/>
<path d="M158.257 128.049C132.401 135.182 127.827 124.774 127.837 116.484C124.84 115.694 121.667 115.896 118.795 117.061C115.922 118.225 113.505 120.29 111.905 122.944L102.167 139.097C99.0869 144.207 97.2525 149.971 96.8125 155.922C96.3725 161.873 97.3391 167.844 99.6343 173.352L102.69 180.682C104.839 185.841 108.099 190.462 112.238 194.217C116.377 197.973 121.292 200.769 126.635 202.409L139.075 206.228C141.984 201.845 144.18 198.481 144.18 198.481L119.225 170.179C117.229 167.916 115.893 165.147 115.365 162.175C114.837 159.204 115.137 156.144 116.231 153.332C117.519 150.024 119.842 147.221 122.854 145.342C125.866 143.463 129.405 142.609 132.942 142.907L146.802 144.068C157.564 144.97 173.172 137.947 185.943 129.866C183.518 125.507 176.259 123.086 158.257 128.049Z" fill="url(#paint26_linear_2096_4681)"/>
<path d="M344.366 216.401L344.386 216.438C352.792 209.851 359.435 205.199 361.637 205.199C363.636 205.199 366.954 201.154 370.71 195.303C385.859 171.692 384.206 141.024 366.737 119.071C360.044 105.822 342.955 101.906 331.167 110.913C327.321 114.759 321.28 114.528 317.74 110.399L317.447 110.055C313.259 117.222 307.599 121.798 301.3 112.847C292.487 100.326 277.451 99.6317 272.274 111.394C270.417 123.122 271.743 137.862 287.223 144.672C314.989 156.889 349.974 113.575 362.746 132.456C375.331 151.048 390.061 182.565 344.366 216.401Z" fill="url(#paint27_linear_2096_4681)"/>
<path d="M337.735 215.537C356.962 218.7 375.173 226.355 390.886 237.879L394.751 240.714L423.284 262.404L399.193 282.928L356.617 270.711L323.666 236.28L337.735 215.547V215.537Z" fill="url(#paint28_linear_2096_4681)"/>
<path d="M72.275 296.611C71.4662 291.297 71.8638 285.87 73.4383 280.731C75.0129 275.592 77.7241 270.874 81.3708 266.926L132.253 211.828L135.955 260.695L101.152 314.009L72.275 296.611Z" fill="url(#paint29_linear_2096_4681)"/>
<path d="M120.406 258.483L100.785 269.221L99.3496 269.563C94.9062 270.621 90.7343 272.599 87.1037 275.371C83.4732 278.143 80.4649 281.646 78.2733 285.653L72.2773 296.611L75.7469 304.543C77.8805 309.42 81.1455 313.718 85.2714 317.081C89.3973 320.444 94.2652 322.775 99.4718 323.882C107.696 325.629 116.277 324.221 123.511 319.935C129.296 316.506 134.444 312.101 138.725 306.915L158.54 282.928L120.406 258.483Z" fill="url(#paint30_linear_2096_4681)"/>
<path d="M364.761 261.446L365.463 260.884C371.471 256.078 378.611 252.891 386.201 251.628C393.791 250.366 401.578 251.069 408.819 253.671L418.267 259C421.616 260.887 424.44 263.581 426.483 266.838C428.526 270.094 429.723 273.809 429.965 277.646C430.274 282.513 429.031 287.353 426.417 291.471C423.803 295.589 419.951 298.772 415.415 300.564C405.881 304.33 395.846 306.671 385.63 307.513L377.697 311.712C367.337 317.197 355.783 320.04 344.061 319.99L332.544 319.943L331.434 284.77L364.761 261.446Z" fill="url(#paint31_linear_2096_4681)"/>
<path d="M99.4711 323.888C107.696 325.636 116.276 324.227 123.51 319.941C129.296 316.513 134.443 312.108 138.724 306.922L158.54 282.928L120.406 258.495L107.448 265.9C97.1858 280.475 105.891 300.334 101.525 310.694C97.9172 319.259 83.8304 309.21 73.1074 298.526L75.7462 304.553C77.8798 309.43 81.1449 313.728 85.2707 317.091C89.3966 320.454 94.2645 322.785 99.4711 323.892V323.888Z" fill="url(#paint32_linear_2096_4681)"/>
<path d="M345.877 247.068C346.592 247.068 346.593 245.957 345.877 245.957C345.16 245.957 345.162 247.068 345.877 247.068Z" fill="url(#paint33_linear_2096_4681)"/>
<path d="M415.419 300.564C419.956 298.772 423.807 295.589 426.422 291.471C429.036 287.353 430.278 282.513 429.97 277.646C429.743 274.038 428.67 270.534 426.839 267.418C412.437 304.522 358.219 275.639 358.219 275.639C358.219 275.639 343.73 285.529 331.727 293.891L332.541 319.943L344.057 319.99C355.78 320.04 367.334 317.197 377.694 311.712L385.627 307.513C395.842 306.671 405.878 304.33 415.411 300.564H415.419Z" fill="url(#paint34_linear_2096_4681)"/>
<path d="M337.547 158.402H159.466C152.207 158.402 146.322 164.287 146.322 171.546V287.295C146.322 294.554 152.207 300.439 159.466 300.439H337.547C344.806 300.439 350.69 294.554 350.69 287.295V171.546C350.69 164.287 344.806 158.402 337.547 158.402Z" fill="#452770"/>
<path d="M331.417 163.292H165.593C158.835 163.292 153.355 168.771 153.355 175.53V283.313C153.355 290.071 158.835 295.55 165.593 295.55H331.417C338.175 295.55 343.654 290.071 343.654 283.313V175.53C343.654 168.771 338.175 163.292 331.417 163.292Z" fill="#B6FFFF"/>
<path d="M197.078 244.323V206.571H221.714L220.709 212.188H206.175V222.213H218.853L217.926 227.444H206.175V244.323H197.078Z" fill="url(#paint35_linear_2096_4681)"/>
<path d="M227.151 217.007H234.702L235.784 225.022C236.059 224.523 236.334 224.017 236.609 223.501C236.901 222.986 237.167 222.513 237.408 222.084C237.665 221.637 237.889 221.251 238.078 220.924C238.284 220.598 238.43 220.357 238.516 220.203C238.842 219.67 239.211 219.181 239.624 218.734C240.036 218.27 240.491 217.875 240.99 217.548C241.488 217.222 242.046 216.964 242.665 216.775C243.283 216.586 243.97 216.492 244.726 216.492C245.224 216.492 245.766 216.561 246.35 216.698C246.951 216.818 247.501 217.024 247.999 217.316L247.02 225.357C246.865 225.322 246.659 225.296 246.401 225.279C246.144 225.245 245.869 225.219 245.577 225.202C245.302 225.185 245.027 225.176 244.752 225.176C244.494 225.159 244.262 225.15 244.056 225.15C242.321 225.15 240.766 225.485 239.392 226.155C238.035 226.825 236.935 227.684 236.093 228.732V244.323H227.151V217.007Z" fill="url(#paint36_linear_2096_4681)"/>
<path d="M276.268 241.463C275.341 242.115 274.387 242.665 273.408 243.112C272.446 243.541 271.484 243.885 270.522 244.143C269.56 244.4 268.615 244.581 267.687 244.684C266.759 244.787 265.866 244.838 265.007 244.838C262.808 244.838 260.824 244.546 259.054 243.962C257.285 243.361 255.781 242.502 254.544 241.385C253.307 240.269 252.354 238.894 251.684 237.262C251.031 235.63 250.705 233.766 250.705 231.67C250.705 229.299 251.117 227.178 251.942 225.305C252.766 223.415 253.866 221.826 255.24 220.538C256.632 219.232 258.238 218.236 260.059 217.548C261.88 216.844 263.787 216.492 265.78 216.492C267.498 216.492 269.079 216.758 270.522 217.291C271.982 217.823 273.236 218.614 274.284 219.662C275.349 220.692 276.174 221.981 276.758 223.527C277.342 225.056 277.634 226.825 277.634 228.836C277.634 229.488 277.6 230.09 277.531 230.639C277.479 231.189 277.411 231.644 277.325 232.005H259.905C259.905 233.208 260.111 234.239 260.523 235.098C260.952 235.957 261.554 236.67 262.327 237.236C263.117 237.786 264.062 238.19 265.162 238.448C266.261 238.705 267.489 238.834 268.847 238.834C269.328 238.834 269.86 238.817 270.444 238.783C271.046 238.748 271.664 238.688 272.3 238.602C272.953 238.499 273.614 238.379 274.284 238.241C274.954 238.087 275.615 237.889 276.268 237.649V241.463ZM269.517 228.861C269.517 227.676 269.396 226.654 269.156 225.795C268.932 224.936 268.615 224.231 268.202 223.682C267.79 223.115 267.3 222.702 266.733 222.445C266.167 222.17 265.548 222.032 264.878 222.032C264.139 222.032 263.461 222.187 262.842 222.496C262.241 222.805 261.717 223.252 261.27 223.836C260.841 224.42 260.506 225.133 260.265 225.975C260.025 226.817 259.905 227.779 259.905 228.861H269.517Z" fill="url(#paint37_linear_2096_4681)"/>
<path d="M307.759 241.463C306.831 242.115 305.878 242.665 304.898 243.112C303.936 243.541 302.974 243.885 302.012 244.143C301.05 244.4 300.105 244.581 299.177 244.684C298.25 244.787 297.356 244.838 296.497 244.838C294.298 244.838 292.314 244.546 290.545 243.962C288.775 243.361 287.272 242.502 286.035 241.385C284.798 240.269 283.845 238.894 283.175 237.262C282.522 235.63 282.195 233.766 282.195 231.67C282.195 229.299 282.608 227.178 283.432 225.305C284.257 223.415 285.356 221.826 286.731 220.538C288.122 219.232 289.729 218.236 291.55 217.548C293.371 216.844 295.278 216.492 297.271 216.492C298.988 216.492 300.569 216.758 302.012 217.291C303.472 217.823 304.727 218.614 305.774 219.662C306.84 220.692 307.664 221.981 308.248 223.527C308.832 225.056 309.125 226.825 309.125 228.836C309.125 229.488 309.09 230.09 309.021 230.639C308.97 231.189 308.901 231.644 308.815 232.005H291.395C291.395 233.208 291.601 234.239 292.013 235.098C292.443 235.957 293.044 236.67 293.817 237.236C294.608 237.786 295.553 238.19 296.652 238.448C297.752 238.705 298.98 238.834 300.337 238.834C300.818 238.834 301.351 238.817 301.935 238.783C302.536 238.748 303.155 238.688 303.79 238.602C304.443 238.499 305.104 238.379 305.774 238.241C306.444 238.087 307.106 237.889 307.759 237.649V241.463ZM301.007 228.861C301.007 227.676 300.887 226.654 300.646 225.795C300.423 224.936 300.105 224.231 299.693 223.682C299.281 223.115 298.791 222.702 298.224 222.445C297.657 222.17 297.039 222.032 296.369 222.032C295.63 222.032 294.951 222.187 294.333 222.496C293.731 222.805 293.207 223.252 292.761 223.836C292.331 224.42 291.996 225.133 291.756 225.975C291.515 226.817 291.395 227.779 291.395 228.861H301.007Z" fill="url(#paint38_linear_2096_4681)"/>
<path style="mix-blend-mode:overlay" opacity="0.46" d="M335.293 298.637C338.69 298.637 341.948 297.287 344.351 294.885C346.753 292.483 348.102 289.225 348.102 285.827V173.013C348.103 171.184 347.711 169.375 346.952 167.71C346.193 166.046 345.086 164.563 343.704 163.364C314.164 190.981 233.694 265.841 198.43 298.637H335.293Z" fill="url(#paint39_linear_2096_4681)"/>
<path style="mix-blend-mode:overlay" opacity="0.46" d="M161.724 160.204C158.326 160.204 155.068 161.553 152.666 163.956C150.264 166.358 148.914 169.616 148.914 173.013V285.828C148.913 287.686 149.316 289.522 150.097 291.208C150.877 292.894 152.016 294.39 153.434 295.591C188.341 263.991 280.864 180.221 302.745 160.204H161.724Z" fill="url(#paint40_linear_2096_4681)"/>
<path d="M111.892 226.643L117.075 239.231L106.412 269.024C105.148 272.556 104.769 276.345 105.309 280.058C105.946 284.439 107.837 288.542 110.754 291.872C113.67 295.202 117.488 297.617 121.747 298.826C126.225 300.098 131 299.833 135.311 298.074C139.621 296.315 143.218 293.163 145.528 289.121L146.322 287.732H153.362C158.127 287.731 162.776 286.258 166.671 283.513C170.567 280.768 173.518 276.886 175.122 272.399L175.202 272.173C177.632 268.286 180.947 265.029 184.876 262.668L196.472 255.703C198.132 254.848 199.559 253.602 200.63 252.073C201.702 250.544 202.386 248.778 202.623 246.926C202.937 244.485 202.46 242.007 201.263 239.856C200.066 237.705 198.212 235.994 195.972 234.973L194.343 234.231C192.291 233.297 190.01 232.987 187.782 233.338C185.555 233.689 183.48 234.686 181.814 236.205L174.839 242.558L165.583 259.588L157.439 254.405L136.706 234.043L141.52 218.494L155.46 224.118C157.697 225.021 160.107 225.412 162.514 225.262C164.922 225.112 167.265 224.425 169.372 223.252L175.981 219.572C177.84 218.538 179.467 217.133 180.763 215.445C182.058 213.757 182.994 211.822 183.513 209.758L183.633 209.279C184.338 206.48 184.259 203.54 183.406 200.783C182.553 198.025 180.958 195.554 178.795 193.642L178.602 193.471C176.893 191.959 174.816 190.924 172.581 190.469C170.345 190.014 168.029 190.155 165.865 190.878L165.686 190.936C162.463 192.013 159.573 193.902 157.292 196.421L153.738 200.351L127.28 196.922C125.944 196.75 124.588 197.022 123.421 197.696C119.714 199.843 116.659 202.955 114.582 206.702C112.506 210.449 111.486 214.69 111.631 218.971L111.892 226.643Z" fill="url(#paint41_linear_2096_4681)"/>
<path d="M317.382 270.731C314.078 274.135 309.98 276.666 305.457 278.095C300.933 279.524 296.125 279.807 291.465 278.92L288.924 278.431C285.252 277.732 281.847 276.024 279.092 273.497L272.05 268.136C270.683 267.096 269.088 266.395 267.397 266.091C265.706 265.788 263.966 265.89 262.322 266.39L260.878 266.83C258.143 267.662 255.848 269.54 254.491 272.055C253.133 274.57 252.824 277.52 253.629 280.262C254.107 281.889 254.961 283.382 256.121 284.619C257.28 285.857 258.715 286.805 260.308 287.388L277.39 293.651L290.717 308.09L291.52 309.15C294.492 313.077 298.333 316.261 302.741 318.454C307.15 320.647 312.007 321.788 316.931 321.789H338.475L362.908 253.295L339.583 243.301L318.85 269.216L317.382 270.731Z" fill="url(#paint42_linear_2096_4681)"/>
<path d="M186.687 233.573C184.867 234.038 183.189 234.943 181.8 236.207L174.825 242.559L165.57 259.589L157.425 254.406L143.534 240.763C139.462 240.878 136.816 240.831 136.816 240.831L117.811 280.817C117.811 280.817 129.905 282.791 125.216 291.923C122.033 298.123 130.448 299.543 138.268 296.575C141.281 294.745 143.778 292.178 145.526 289.116L146.319 287.727H148.905C155.148 279.815 161.447 284.632 171.872 267.488C182.978 249.223 185.941 254.9 193.839 248.484C200.112 243.388 195.789 234.081 186.687 233.573Z" fill="url(#paint43_linear_2096_4681)"/>
<path d="M482.798 304.086C495.213 301.679 502.969 287.821 500.122 273.132C497.274 258.443 484.901 248.487 472.486 250.894C460.071 253.301 452.314 267.159 455.162 281.848C458.009 296.537 470.382 306.493 482.798 304.086Z" fill="url(#paint44_linear_2096_4681)"/>
<path d="M485.594 301.573C498.01 299.167 505.766 285.308 502.919 270.619C500.071 255.931 487.698 245.974 475.283 248.381C462.867 250.788 455.111 264.646 457.959 279.335C460.806 294.024 473.179 303.98 485.594 301.573Z" fill="url(#paint45_linear_2096_4681)"/>
<path d="M484.859 297.774C495.526 295.706 502.195 283.823 499.754 271.233C497.313 258.643 486.688 250.112 476.021 252.18C465.354 254.248 458.686 266.131 461.126 278.721C463.567 291.311 474.193 299.842 484.859 297.774Z" fill="url(#paint46_linear_2096_4681)"/>
<path d="M484.245 294.607C493.513 292.81 499.323 282.565 497.221 271.723C495.119 260.882 485.902 253.549 476.634 255.346C467.367 257.142 461.557 267.388 463.659 278.229C465.761 289.071 474.978 296.403 484.245 294.607Z" fill="url(#paint47_linear_2096_4681)"/>
<path d="M483.789 288.125L483.314 286.143C477.642 287.141 475.012 284.243 474.245 281.32L479.231 280.073C479.577 281.273 480.706 282.175 482.428 281.999L481.228 277.152L479.709 277.209C476.395 277.345 473.289 275.988 472.359 272.226C471.389 268.304 473.981 265.319 477.866 263.958L477.364 261.933L480.159 261.233L480.668 263.29C485.064 262.731 488.203 264.859 489.032 268.104L484.188 269.317C484.027 268.741 483.682 268.235 483.209 267.88C482.735 267.525 482.16 267.343 481.577 267.362L482.702 271.906L484.137 271.852C487.322 271.665 490.589 272.609 491.605 276.712C492.54 280.491 490.531 283.77 486.073 285.41L486.585 287.416L483.789 288.125ZM479.798 272.126L479.979 272.129L478.954 267.986C477.836 268.401 477.175 269.395 477.453 270.503C477.711 271.551 478.552 272.085 479.798 272.129L479.798 272.126ZM484.144 276.896C484.077 276.895 483.997 276.899 483.93 276.899L485.025 281.324C486.228 280.921 486.899 279.805 486.605 278.575C486.331 277.469 485.404 276.923 484.145 276.9L484.144 276.896Z" fill="url(#paint48_linear_2096_4681)"/>
<path d="M145.844 243.033L136.696 234.048L141.51 218.499L155.45 224.124C157.686 225.026 160.097 225.417 162.504 225.267C164.911 225.117 167.255 224.43 169.362 223.257L175.97 219.577C177.83 218.543 179.457 217.138 180.753 215.45C182.048 213.762 182.984 211.827 183.502 209.763L183.623 209.284C184.327 206.485 184.249 203.545 183.396 200.788C182.542 198.03 180.948 195.559 178.785 193.647L178.591 193.476C176.584 191.703 174.077 190.593 171.414 190.298C170.66 190.826 169.906 191.381 169.154 191.964C146.94 209.242 181.248 210.229 172.856 219.361C164.464 228.492 161.749 217.14 144.471 206.774C127.193 196.408 122.997 214.177 126.947 226.272C130.897 238.367 125.713 250.955 125.713 250.955L145.844 243.033Z" fill="url(#paint49_linear_2096_4681)"/>
<path d="M176.131 210.764C179.766 210.074 182.04 205.966 181.209 201.587C180.379 197.208 176.759 194.218 173.123 194.907C169.488 195.597 167.214 199.705 168.045 204.084C168.875 208.463 172.496 211.453 176.131 210.764Z" fill="white"/>
<path d="M178.127 217.553C185.709 216.083 190.42 207.488 188.649 198.355C186.878 189.222 179.297 183.011 171.715 184.48C164.133 185.95 159.422 194.546 161.192 203.678C162.963 212.811 170.545 219.023 178.127 217.553Z" stroke="white" stroke-width="9.07408" stroke-miterlimit="10"/>
<path d="M137.81 232.507L153.728 235.9L161.276 243.688C162.407 244.855 163.125 246.361 163.319 247.975C163.513 249.589 163.173 251.222 162.351 252.624C161.412 254.225 159.908 255.417 158.135 255.966C156.362 256.515 154.448 256.382 152.768 255.592L133.145 246.359C131.556 245.612 130.287 244.321 129.567 242.719C128.847 241.118 128.723 239.311 129.219 237.627C129.743 235.848 130.918 234.332 132.511 233.383C134.104 232.434 135.997 232.121 137.81 232.507Z" fill="url(#paint50_linear_2096_4681)"/>
<path d="M132.302 243.846L148.544 244.414L155.607 251.684C157.35 253.478 158.703 255.613 159.582 257.955C160.462 260.297 160.847 262.796 160.715 265.294C160.625 267.047 159.946 268.719 158.79 270.04C157.633 271.361 156.066 272.255 154.34 272.576L148.544 273.663L127.486 256.885C126.206 255.865 125.305 254.445 124.928 252.852C124.55 251.259 124.718 249.585 125.404 248.099C126.007 246.789 126.983 245.686 128.21 244.93C129.438 244.173 130.861 243.796 132.302 243.846Z" fill="url(#paint51_linear_2096_4681)"/>
<path d="M128.359 252.614C135.127 255.23 146.323 259.594 146.323 259.594L154.467 272.923L141.509 276.626L123.676 272.168C122.312 271.827 121.044 271.178 119.969 270.272C118.893 269.367 118.039 268.227 117.472 266.94L116.594 264.948C115.775 263.093 115.591 261.019 116.068 259.049C116.546 257.078 117.66 255.319 119.237 254.044C120.498 253.026 122.005 252.357 123.607 252.106C125.208 251.855 126.847 252.03 128.359 252.614Z" fill="url(#paint52_linear_2096_4681)"/>
<path d="M128.359 252.614C135.127 255.23 146.323 259.594 146.323 259.594L154.467 272.923L141.509 276.626L123.676 272.168C122.312 271.827 121.044 271.178 119.969 270.272C118.893 269.367 118.039 268.227 117.472 266.94L116.594 264.948C115.775 263.093 115.591 261.019 116.068 259.049C116.546 257.078 117.66 255.319 119.237 254.044C120.498 253.026 122.005 252.357 123.607 252.106C125.208 251.855 126.847 252.03 128.359 252.614Z" fill="url(#paint53_linear_2096_4681)"/>
<path d="M137.064 269.962L128.074 267.464C126.688 267.079 125.236 266.991 123.814 267.204C122.392 267.418 121.03 267.929 119.819 268.704C118.607 269.479 117.572 270.501 116.782 271.702C115.992 272.904 115.463 274.259 115.231 275.678L115.173 276.041C114.856 277.982 115.105 279.972 115.889 281.775C116.674 283.578 117.961 285.117 119.597 286.207C121.779 287.662 124.436 288.224 127.02 287.776L142.248 285.14L154.465 272.924L137.064 269.962Z" fill="url(#paint54_linear_2096_4681)"/>
<path d="M162.834 246.104C161.115 244.108 158.436 243.519 156.603 244.82C154.649 246.218 154.422 249.262 156.105 251.619C157.432 253.481 159.548 254.352 161.345 253.953C162.321 252.926 162.98 251.64 163.244 250.248C163.508 248.856 163.366 247.417 162.834 246.104Z" fill="white"/>
<path d="M160.717 265.294C160.865 262.487 160.359 259.685 159.24 257.107C157.997 256.732 156.702 256.863 155.677 257.596C153.723 258.992 153.498 262.036 155.189 264.395C156.537 266.286 158.704 267.164 160.518 266.709C160.63 266.245 160.7 265.772 160.725 265.296L160.717 265.294Z" fill="white"/>
<path d="M291.468 278.919L288.926 278.431C285.254 277.732 281.849 276.023 279.094 273.497L272.053 268.136C270.685 267.095 269.09 266.394 267.399 266.091C265.708 265.787 263.969 265.89 262.325 266.39L260.88 266.83C259.331 267.3 257.907 268.112 256.713 269.205C255.519 270.299 254.586 271.646 253.982 273.148C253.864 273.568 253.767 273.985 253.69 274.399C251.099 288.468 282.196 282.544 287.752 294.021C293.308 305.498 311.076 296.243 311.076 281.063C311.101 279.067 311.37 277.081 311.878 275.15C305.785 278.913 298.503 280.258 291.468 278.919Z" fill="url(#paint55_linear_2096_4681)"/>
<path d="M274.925 277.233C276.1 274.213 273.684 270.456 269.531 268.841C265.377 267.226 261.058 268.364 259.884 271.383C258.71 274.403 261.125 278.16 265.279 279.775C269.432 281.39 273.751 280.252 274.925 277.233Z" fill="white"/>
<path d="M284.327 280.89C286.97 274.095 281.534 265.64 272.186 262.005C262.838 258.37 253.118 260.931 250.476 267.726C247.833 274.521 253.269 282.976 262.617 286.611C271.965 290.246 281.685 287.685 284.327 280.89Z" stroke="white" stroke-width="9.09" stroke-miterlimit="10"/>
<path d="M346.433 152.227H150.581C148.855 152.227 147.146 152.567 145.551 153.227C143.957 153.888 142.508 154.856 141.287 156.076C140.067 157.297 139.099 158.746 138.438 160.341C137.777 161.935 137.438 163.644 137.438 165.37V293.47C137.437 295.196 137.777 296.905 138.438 298.5C139.098 300.095 140.066 301.544 141.287 302.764C142.507 303.985 143.956 304.953 145.551 305.614C147.146 306.274 148.855 306.614 150.581 306.614H346.433C348.159 306.614 349.868 306.274 351.463 305.614C353.058 304.953 354.507 303.985 355.727 302.764C356.948 301.544 357.916 300.095 358.577 298.5C359.237 296.905 359.577 295.196 359.577 293.47V165.37C359.577 161.884 358.192 158.541 355.727 156.076C353.262 153.612 349.919 152.227 346.433 152.227ZM348.099 285.827C348.099 289.225 346.75 292.483 344.348 294.885C341.945 297.287 338.687 298.637 335.29 298.637H161.724C158.327 298.637 155.069 297.287 152.667 294.885C150.264 292.483 148.915 289.225 148.915 285.827V173.013C148.915 169.616 150.264 166.358 152.667 163.955C155.069 161.553 158.327 160.204 161.724 160.204H335.29C338.687 160.204 341.945 161.553 344.348 163.955C346.75 166.358 348.099 169.616 348.099 173.013V285.827Z" fill="url(#paint56_linear_2096_4681)"/>
<path d="M343.656 283.311V236.961C330.772 236.011 314.722 236.584 315.765 245.525C317.493 260.335 326.625 270.949 312.556 272.182C301.544 273.148 298.547 286.815 299.539 295.55H331.417C334.663 295.55 337.776 294.261 340.071 291.965C342.367 289.67 343.656 286.557 343.656 283.311Z" fill="url(#paint57_linear_2096_4681)"/>
<path d="M346.431 306.614C348.157 306.614 349.866 306.275 351.461 305.614C353.055 304.954 354.504 303.986 355.725 302.765C356.945 301.544 357.914 300.095 358.574 298.501C359.235 296.906 359.574 295.197 359.574 293.471V238.73L359.204 238.862C359.204 238.862 354.455 238.007 348.097 237.354V285.828C348.097 289.225 346.747 292.483 344.345 294.886C341.943 297.288 338.685 298.637 335.287 298.637H300.111C300.346 299.575 300.713 300.474 301.201 301.307C302.092 302.733 301.623 304.601 300.403 306.614H346.431Z" fill="#452770"/>
<path d="M335.289 160.204H161.724C158.326 160.204 155.068 161.553 152.666 163.956C150.264 166.358 148.914 169.616 148.914 173.013V285.828C148.914 289.225 150.264 292.483 152.666 294.885C155.068 297.288 158.326 298.637 161.724 298.637H335.289C338.686 298.637 341.945 297.288 344.347 294.885C346.749 292.483 348.099 289.225 348.099 285.828V173.013C348.099 169.616 346.749 166.358 344.347 163.956C341.945 161.553 338.686 160.204 335.289 160.204ZM343.657 283.311C343.657 286.557 342.367 289.67 340.072 291.966C337.777 294.261 334.663 295.55 331.417 295.55H165.596C162.349 295.55 159.236 294.261 156.941 291.966C154.646 289.67 153.356 286.557 153.356 283.311V175.53C153.356 173.923 153.673 172.331 154.288 170.847C154.903 169.362 155.804 168.012 156.941 166.876C158.078 165.74 159.427 164.838 160.912 164.223C162.397 163.608 163.988 163.292 165.596 163.292H331.417C333.024 163.292 334.616 163.608 336.101 164.223C337.586 164.838 338.935 165.74 340.072 166.876C341.208 168.012 342.11 169.362 342.725 170.847C343.34 172.331 343.657 173.923 343.657 175.53V283.311Z" fill="#452770"/>
<path d="M349.576 311.797L357.474 311.427L352.951 318.254C350.012 321.243 346.337 323.404 342.297 324.52C338.257 325.635 333.994 325.665 329.938 324.607L323.129 322.83C321.476 322.399 319.958 321.558 318.715 320.386C317.472 319.214 316.545 317.747 316.019 316.122C315.313 313.943 315.363 311.589 316.161 309.443C316.959 307.296 318.459 305.481 320.417 304.293L320.684 304.13C322.062 303.294 323.619 302.798 325.227 302.682C326.834 302.566 328.446 302.834 329.93 303.464L349.576 311.797Z" fill="url(#paint58_linear_2096_4681)"/>
<path d="M365.976 244.765L364.359 244.204C355.699 241.207 346.333 240.916 337.503 243.369L336.526 243.638C334.87 244.098 333.368 244.992 332.174 246.229C330.981 247.465 330.14 248.999 329.738 250.67C329.162 253.072 329.531 255.604 330.769 257.742L336.985 268.48L351.425 268.851L359.2 277.737L364.953 274.942C367.217 273.842 369.22 272.272 370.828 270.337C372.437 268.402 373.614 266.146 374.282 263.72C374.9 261.474 375.068 259.128 374.777 256.816C374.485 254.505 373.741 252.274 372.585 250.251C371.118 247.683 368.77 245.735 365.976 244.765Z" fill="url(#paint59_linear_2096_4681)"/>
<path d="M336.62 285.14L331.098 283.969C329.144 283.555 327.109 283.761 325.277 284.559C323.445 285.357 321.908 286.706 320.88 288.419C319.942 289.985 319.469 291.785 319.517 293.61C319.566 295.434 320.133 297.207 321.154 298.72L328.476 309.577L343.625 313.649C346.318 314.374 349.15 314.413 351.862 313.763L356.985 312.533L357.017 312.41C357.875 309.084 357.687 305.575 356.478 302.361C355.27 299.146 353.099 296.382 350.262 294.446L336.62 285.14Z" fill="url(#paint60_linear_2096_4681)"/>
<path d="M365.617 278.791L351.431 268.854L339.289 262.923C336.864 261.739 334.076 261.537 331.506 262.36C329.168 263.108 327.167 264.654 325.853 266.728C324.539 268.802 323.997 271.271 324.32 273.705L325.352 281.498C325.695 284.082 326.989 286.445 328.981 288.126L344.767 301.434L355.881 303.089C357.845 303.382 359.85 303.234 361.751 302.657C363.651 302.08 365.4 301.087 366.87 299.751L366.941 299.686C368.772 298.021 370.107 295.882 370.797 293.506C371.487 291.129 371.505 288.608 370.851 286.222C370.025 283.211 368.174 280.582 365.617 278.791Z" fill="url(#paint61_linear_2096_4681)"/>
<path d="M334.218 262.815C333.551 262.556 332.868 262.341 332.172 262.171C331.949 262.227 331.726 262.287 331.506 262.357C329.168 263.105 327.167 264.651 325.853 266.725C324.539 268.799 323.997 271.268 324.32 273.702L324.818 277.462C325.787 278.103 326.821 278.638 327.905 279.058C334.075 281.457 340.491 279.765 342.239 275.28C343.987 270.796 340.39 265.214 334.218 262.815Z" fill="white"/>
<path d="M347.786 254.911C349.475 250.565 346.157 245.19 340.337 242.678C339.387 242.877 338.439 243.1 337.499 243.362L336.522 243.631C335.159 244.009 333.895 244.684 332.822 245.606C331.749 246.528 330.893 247.676 330.314 248.966C329.735 250.257 329.447 251.66 329.472 253.075C329.497 254.489 329.833 255.881 330.458 257.151C331.399 257.764 332.401 258.279 333.448 258.685C339.63 261.101 346.046 259.402 347.786 254.911Z" fill="white"/>
<path d="M326.305 284.832C326.167 284.658 326.025 284.488 325.881 284.322C323.79 285.067 322.021 286.515 320.879 288.419C319.693 290.396 319.26 292.734 319.657 295.005C322.87 297.665 326.386 298.577 328.382 296.982C330.954 294.926 330.027 289.487 326.305 284.832Z" fill="white"/>
<path d="M328.019 321.457C330.151 318.946 328.2 313.786 323.66 309.927C321.754 308.308 319.697 307.179 317.796 306.596C316.732 307.912 316.013 309.472 315.704 311.135C315.395 312.798 315.506 314.512 316.027 316.122C316.464 317.469 317.177 318.71 318.122 319.766C319.066 320.821 320.221 321.668 321.511 322.251C324.262 323.17 326.735 322.968 328.019 321.457Z" fill="white"/>
<path d="M63.8292 147.395L63.773 147.359L61.8906 133.07L63.917 132.388C65.3895 125.46 69.0324 119.195 74.3058 114.523C88.5649 101.929 110.921 104.189 124.239 119.577C125.934 121.537 127.434 123.661 128.717 125.919L130.743 126.046L132.506 135.219C132.932 136.846 133.9 142.478 133.9 142.478L133.675 142.721C134.236 153.023 130.485 163.206 122.521 170.243C108.262 182.838 85.9058 180.575 72.5901 165.187C68.1877 160.127 65.168 153.995 63.8292 147.395Z" fill="url(#paint62_linear_2096_4681)"/>
<path d="M121.675 163.156C135.993 150.635 136.757 128.087 123.383 112.794C110.009 97.5002 87.5604 95.2527 73.2428 107.774C58.9251 120.295 58.1603 142.843 71.5345 158.136C84.9086 173.429 107.357 175.677 121.675 163.156Z" fill="url(#paint63_linear_2096_4681)"/>
<path d="M117.676 158.579C129.627 148.127 130.266 129.305 119.102 116.54C107.939 103.774 89.1997 101.898 77.248 112.35C65.2962 122.802 64.6574 141.624 75.8212 154.389C86.985 167.155 105.724 169.031 117.676 158.579Z" fill="url(#paint64_linear_2096_4681)"/>
<path d="M115.206 155.756C125.697 146.581 126.257 130.059 116.457 118.853C106.657 107.647 90.2074 105.999 79.7164 115.174C69.2254 124.348 68.6652 140.87 78.4653 152.077C88.2653 163.283 104.715 164.93 115.206 155.756Z" fill="url(#paint65_linear_2096_4681)"/>
<path d="M103.778 152.202L102.607 149.482C94.4956 152.379 89.9328 148.9 88.0987 144.907L95.1362 141.831C95.9341 143.462 97.8131 144.465 100.306 143.766L97.3838 137.123L95.1609 137.598C90.3172 138.649 85.4217 137.506 83.1516 132.349C80.7848 126.971 83.8866 122.017 89.2787 119.062L88.0582 116.286L92.0051 114.561L93.2459 117.379C99.582 115.441 104.709 117.686 106.707 122.127L99.8652 125.118C99.4906 124.333 98.8621 123.696 98.0807 123.31C97.2993 122.923 96.4103 122.81 95.5565 122.988L98.2964 129.219L100.4 128.77C105.044 127.677 110.079 128.186 112.56 133.825C114.839 139.005 112.666 144.23 106.491 147.734L107.725 150.479L103.778 152.202ZM94.0797 130.278C94.1764 130.26 94.2528 130.254 94.3495 130.238L91.8478 124.556C90.3037 125.439 89.5687 127.038 90.2407 128.567C90.8678 130 92.2322 130.538 94.0797 130.278ZM101.616 136.001C101.52 136.016 101.391 136.043 101.301 136.059L103.976 142.135C105.651 141.239 106.383 139.467 105.644 137.784C104.97 136.254 103.475 135.707 101.616 136.001Z" fill="url(#paint66_linear_2096_4681)"/>
<path d="M385.45 44.2208C391.024 30.5477 387.321 16.1118 377.18 11.9773C367.039 7.84272 354.298 15.5752 348.724 29.2483C343.15 42.9214 346.852 57.3573 356.994 61.4918C367.135 65.6264 379.875 57.8939 385.45 44.2208Z" fill="white"/>
<path d="M387.28 39.7298C392.854 26.0567 389.152 11.6208 379.01 7.48629C368.869 3.35176 356.128 11.0843 350.554 24.7574C344.98 38.4304 348.682 52.8663 358.824 57.0009C368.965 61.1354 381.705 53.4029 387.28 39.7298Z" fill="url(#paint67_linear_2096_4681)"/>
<path d="M383.471 38.1769C387.89 27.3394 384.955 15.8973 376.917 12.6204C368.879 9.34345 358.782 15.4725 354.363 26.3101C349.945 37.1476 352.879 48.5896 360.917 51.8665C368.955 55.1435 379.053 49.0144 383.471 38.1769Z" fill="url(#paint68_linear_2096_4681)"/>
<path d="M381.838 37.5116C385.761 27.8902 383.155 17.7321 376.019 14.8227C368.882 11.9132 359.917 17.3543 355.995 26.9757C352.072 36.5971 354.678 46.7553 361.814 49.6647C368.951 52.5741 377.916 47.133 381.838 37.5116Z" fill="url(#paint69_linear_2096_4681)"/>
<path d="M363.807 41.4734L364.508 39.8225C359.772 37.5321 359.358 34.0913 360.337 31.6163L364.704 33.3658C364.324 34.3972 364.683 35.6411 366.052 36.4172L367.737 32.352L366.579 31.5936C364.049 29.9402 362.469 27.3413 363.771 24.1863C365.133 20.8997 368.652 20.1413 372.248 21.241L372.952 19.5447L375.397 20.5256L374.683 22.2497C378.241 24.1761 379.433 27.3363 378.331 30.0742L374.092 28.3728C374.28 27.8802 374.293 27.3397 374.13 26.8388C373.967 26.3379 373.637 25.9057 373.193 25.6121L371.616 29.4219L372.71 30.1425C375.174 31.6896 377.098 34.0838 375.67 37.5321C374.357 40.6998 371.126 41.9613 366.936 40.768L366.253 42.4568L363.807 41.4734ZM369.34 28.0416L369.474 28.1427L370.912 24.6666C369.864 24.3708 368.844 24.7247 368.457 25.6601C368.092 26.5298 368.439 27.354 369.34 28.0416ZM370.031 33.7147L369.872 33.6034L368.331 37.3197C369.438 37.6686 370.535 37.2363 370.961 36.2074C371.352 35.272 370.953 34.3947 370.031 33.7147Z" fill="url(#paint70_linear_2096_4681)"/>
<path d="M429.272 250.448L429.322 250.436L434.297 240.416L432.964 239.381C433.61 233.892 432.48 228.321 429.741 223.493C422.324 210.465 405.168 206.251 391.421 214.078C389.67 215.075 388.023 216.245 386.503 217.569L384.967 217.13L381.355 223.421C380.638 224.499 379.993 225.625 379.425 226.79L378.503 228.398L378.6 228.633C375.598 236.072 375.821 244.558 379.965 251.836C387.382 264.862 404.539 269.075 418.286 261.248C422.83 258.682 426.617 254.959 429.272 250.448Z" fill="url(#paint71_linear_2096_4681)"/>
<path d="M383.29 244.45C390.67 257.41 407.795 261.571 421.54 253.744C435.286 245.918 440.446 229.067 433.067 216.107C425.687 203.147 408.562 198.985 394.817 206.812C381.071 214.639 375.911 231.49 383.29 244.45Z" fill="url(#paint72_linear_2096_4681)"/>
<path d="M387.049 242.781C393.199 253.581 407.576 256.988 419.161 250.391C430.747 243.795 435.153 229.692 429.004 218.892C422.854 208.092 408.477 204.684 396.892 211.281C385.306 217.878 380.9 231.981 387.049 242.781Z" fill="url(#paint73_linear_2096_4681)"/>
<path d="M389.894 241.161C395.149 250.39 407.527 253.249 417.542 247.547C427.556 241.844 431.415 229.74 426.16 220.511C420.905 211.282 408.526 208.423 398.512 214.125C388.497 219.828 384.639 231.932 389.894 241.161Z" fill="url(#paint74_linear_2096_4681)"/>
<path d="M397.601 241.47L398.937 239.539C393.596 235.453 394.019 230.974 395.933 228.064L400.949 231.369C400.186 232.589 400.3 234.25 401.812 235.586L405.05 230.83L403.799 229.576C401.065 226.844 399.782 223.143 402.297 219.451C404.918 215.602 409.554 215.522 413.789 217.799L415.137 215.817L417.949 217.67L416.576 219.689C420.535 223.017 421.167 227.338 419.024 230.549L414.154 227.335C414.525 226.754 414.69 226.069 414.622 225.391C414.554 224.713 414.258 224.082 413.78 223.597L410.745 228.055L411.927 229.243C414.606 231.823 416.374 235.344 413.625 239.382C411.1 243.089 406.681 243.895 401.738 241.343L400.411 243.326L397.601 241.47ZM408.267 225.743C408.319 225.798 408.354 225.845 408.407 225.902L411.177 221.834C409.935 221.199 408.554 221.398 407.808 222.493C407.117 223.512 407.32 224.642 408.268 225.744L408.267 225.743ZM407.58 233.131C407.527 233.074 407.46 233.007 407.409 232.951L404.447 237.3C405.746 238.019 407.244 237.732 408.068 236.536C408.815 235.441 408.552 234.222 407.581 233.133L407.58 233.131Z" fill="url(#paint75_linear_2096_4681)"/>
<defs>
<linearGradient id="paint0_linear_2096_4681" x1="-148656" y1="27156.2" x2="-166289" y2="23401.9" gradientUnits="userSpaceOnUse">
<stop stop-color="#F98872"/>
<stop offset="1" stop-color="#F9B890"/>
</linearGradient>
<linearGradient id="paint1_linear_2096_4681" x1="-149006" y1="23148.8" x2="-166185" y2="19390.1" gradientUnits="userSpaceOnUse">
<stop stop-color="#F9B890"/>
<stop offset="0.15" stop-color="#F9C898"/>
<stop offset="0.49" stop-color="#F9E6A7"/>
<stop offset="0.79" stop-color="#F9F8B0"/>
<stop offset="0.99" stop-color="#F9FFB3"/>
</linearGradient>
<linearGradient id="paint2_linear_2096_4681" x1="-124916" y1="19014.1" x2="-136761" y2="16422.2" gradientUnits="userSpaceOnUse">
<stop stop-color="#F98872"/>
<stop offset="1" stop-color="#F9B890"/>
</linearGradient>
<linearGradient id="paint3_linear_2096_4681" x1="-102117" y1="15269.4" x2="-109897" y2="13567.1" gradientUnits="userSpaceOnUse">
<stop stop-color="#F9B890"/>
<stop offset="0.12" stop-color="#F9CB99"/>
<stop offset="0.3" stop-color="#F9E2A5"/>
<stop offset="0.49" stop-color="#F9F2AD"/>
<stop offset="0.71" stop-color="#F9FCB1"/>
<stop offset="0.99" stop-color="#F9FFB3"/>
</linearGradient>
<linearGradient id="paint4_linear_2096_4681" x1="-5163.7" y1="-86440.4" x2="-522.039" y2="-90117.4" gradientUnits="userSpaceOnUse">
<stop stop-color="#F98872"/>
<stop offset="1" stop-color="#F9B890"/>
</linearGradient>
<linearGradient id="paint5_linear_2096_4681" x1="73.9824" y1="334.87" x2="444.382" y2="334.87" gradientUnits="userSpaceOnUse">
<stop offset="0.01" stop-color="#4F45B8"/>
<stop offset="0.02" stop-color="#5247B9"/>
<stop offset="0.13" stop-color="#7164C0"/>
<stop offset="0.24" stop-color="#8878C6"/>
<stop offset="0.34" stop-color="#9585C9"/>
<stop offset="0.43" stop-color="#9A89CA"/>
<stop offset="0.81" stop-color="#6458BD"/>
<stop offset="1" stop-color="#4F45B8"/>
</linearGradient>
<linearGradient id="paint6_linear_2096_4681" x1="110.725" y1="97.612" x2="180.05" y2="97.612" gradientUnits="userSpaceOnUse">
<stop stop-color="#F9B890"/>
<stop offset="0.03" stop-color="#F9B890"/>
<stop offset="1" stop-color="#F9B890"/>
</linearGradient>
<linearGradient id="paint7_linear_2096_4681" x1="241.055" y1="233.679" x2="241.055" y2="10.7022" gradientUnits="userSpaceOnUse">
<stop stop-color="#CC5B6A"/>
<stop offset="0.76" stop-color="#70366A"/>
<stop offset="0.77" stop-color="#75386A"/>
<stop offset="0.87" stop-color="#9C476A"/>
<stop offset="0.95" stop-color="#B3516A"/>
<stop offset="1" stop-color="#BC546A"/>
</linearGradient>
<linearGradient id="paint8_linear_2096_4681" x1="170.902" y1="77.7508" x2="306.334" y2="77.7508" gradientUnits="userSpaceOnUse">
<stop stop-color="#CC5B6A"/>
<stop offset="0.46" stop-color="#70366A"/>
<stop offset="0.49" stop-color="#75386A"/>
<stop offset="0.71" stop-color="#9C476A"/>
<stop offset="0.89" stop-color="#B3516A"/>
<stop offset="1" stop-color="#BC546A"/>
</linearGradient>
<linearGradient id="paint9_linear_2096_4681" x1="244.324" y1="200.853" x2="248.171" y2="153.916" gradientUnits="userSpaceOnUse">
<stop stop-color="#FFD8C5"/>
<stop offset="0.34" stop-color="#FFC2BA"/>
<stop offset="0.73" stop-color="#FFB0B1"/>
<stop offset="1" stop-color="#FFA9AE"/>
</linearGradient>
<linearGradient id="paint10_linear_2096_4681" x1="212.608" y1="133.557" x2="189.525" y2="112.013" gradientUnits="userSpaceOnUse">
<stop offset="0.01" stop-color="#FF7593"/>
<stop offset="0.25" stop-color="#FF7F98"/>
<stop offset="0.68" stop-color="#FF9BA7"/>
<stop offset="1" stop-color="#FFB4B3"/>
</linearGradient>
<linearGradient id="paint11_linear_2096_4681" x1="239.701" y1="155.328" x2="250.797" y2="197.975" gradientUnits="userSpaceOnUse">
<stop offset="0.24" stop-color="#FF7593"/>
<stop offset="0.35" stop-color="#FF829A" stop-opacity="0.79"/>
<stop offset="0.51" stop-color="#FF94A3" stop-opacity="0.51"/>
<stop offset="0.65" stop-color="#FFA2AA" stop-opacity="0.29"/>
<stop offset="0.77" stop-color="#FFACAF" stop-opacity="0.13"/>
<stop offset="0.87" stop-color="#FFB2B2" stop-opacity="0.04"/>
<stop offset="0.93" stop-color="#FFB4B3" stop-opacity="0"/>
</linearGradient>
<linearGradient id="paint12_linear_2096_4681" x1="277.373" y1="122.909" x2="292.761" y2="122.909" gradientUnits="userSpaceOnUse">
<stop offset="0.01" stop-color="#FF7593"/>
<stop offset="0.32" stop-color="#FF7894"/>
<stop offset="0.55" stop-color="#FF8199"/>
<stop offset="0.74" stop-color="#FF90A1"/>
<stop offset="0.91" stop-color="#FFA6AC"/>
<stop offset="1" stop-color="#FFB4B3"/>
</linearGradient>
<linearGradient id="paint13_linear_2096_4681" x1="202.736" y1="111.752" x2="285.836" y2="111.752" gradientUnits="userSpaceOnUse">
<stop stop-color="#FFA9AE"/>
<stop offset="0.02" stop-color="#FFAEB0"/>
<stop offset="0.1" stop-color="#FFC1BA"/>
<stop offset="0.19" stop-color="#FFCEC0"/>
<stop offset="0.31" stop-color="#FFD6C4"/>
<stop offset="0.55" stop-color="#FFD8C5"/>
<stop offset="0.67" stop-color="#FFD1C2"/>
<stop offset="0.85" stop-color="#FFBEB8"/>
<stop offset="1" stop-color="#FFA9AE"/>
</linearGradient>
<linearGradient id="paint14_linear_2096_4681" x1="202.736" y1="111.752" x2="285.836" y2="111.752" gradientUnits="userSpaceOnUse">
<stop stop-color="#FFA9AE"/>
<stop offset="0.02" stop-color="#FFAEB0"/>
<stop offset="0.1" stop-color="#FFC1BA"/>
<stop offset="0.19" stop-color="#FFCEC0"/>
<stop offset="0.31" stop-color="#FFD6C4"/>
<stop offset="0.55" stop-color="#FFD8C5"/>
<stop offset="0.67" stop-color="#FFD1C2"/>
<stop offset="0.85" stop-color="#FFBEB8"/>
<stop offset="1" stop-color="#FFA9AE"/>
</linearGradient>
<linearGradient id="paint15_linear_2096_4681" x1="201.584" y1="212.749" x2="244.289" y2="212.749" gradientUnits="userSpaceOnUse">
<stop stop-color="#FFFFCA"/>
<stop offset="0.02" stop-color="#FFFDCA"/>
<stop offset="0.18" stop-color="#FFF1CA"/>
<stop offset="0.41" stop-color="#FFEACA"/>
<stop offset="0.99" stop-color="#FFE8CA"/>
</linearGradient>
<linearGradient id="paint16_linear_2096_4681" x1="90830" y1="107912" x2="100464" y2="107912" gradientUnits="userSpaceOnUse">
<stop stop-color="#FFFFCA"/>
<stop offset="0.2" stop-color="#FFF2CA"/>
<stop offset="0.46" stop-color="#FFEACA"/>
<stop offset="0.99" stop-color="#FFE8CA"/>
</linearGradient>
<linearGradient id="paint17_linear_2096_4681" x1="22773.6" y1="27304.3" x2="23387.8" y2="27304.3" gradientUnits="userSpaceOnUse">
<stop offset="0.01" stop-color="#FF7593"/>
<stop offset="0.32" stop-color="#FF7894"/>
<stop offset="0.55" stop-color="#FF8199"/>
<stop offset="0.74" stop-color="#FF90A1"/>
<stop offset="0.91" stop-color="#FFA6AC"/>
<stop offset="1" stop-color="#FFB4B3"/>
</linearGradient>
<radialGradient id="paint18_radial_2096_4681" cx="0" cy="0" r="1" gradientUnits="userSpaceOnUse" gradientTransform="translate(273.72 126.582) scale(37.318 36.1985)">
<stop offset="0.01" stop-color="#FF7593"/>
<stop offset="0.21" stop-color="#FF849B" stop-opacity="0.75"/>
<stop offset="0.5" stop-color="#FF99A5" stop-opacity="0.43"/>
<stop offset="0.73" stop-color="#FFA7AD" stop-opacity="0.2"/>
<stop offset="0.9" stop-color="#FFB1B1" stop-opacity="0.05"/>
<stop offset="0.99" stop-color="#FFB4B3" stop-opacity="0"/>
</radialGradient>
<radialGradient id="paint19_radial_2096_4681" cx="0" cy="0" r="1" gradientUnits="userSpaceOnUse" gradientTransform="translate(152767 106618) scale(17099.1 16575.9)">
<stop offset="0.01" stop-color="#FF7593"/>
<stop offset="0.21" stop-color="#FF849B" stop-opacity="0.75"/>
<stop offset="0.5" stop-color="#FF99A5" stop-opacity="0.43"/>
<stop offset="0.73" stop-color="#FFA7AD" stop-opacity="0.2"/>
<stop offset="0.9" stop-color="#FFB1B1" stop-opacity="0.05"/>
<stop offset="0.99" stop-color="#FFB4B3" stop-opacity="0"/>
</radialGradient>
<linearGradient id="paint20_linear_2096_4681" x1="238.672" y1="54.8125" x2="238.672" y2="110.618" gradientUnits="userSpaceOnUse">
<stop stop-color="#FF7593"/>
<stop offset="0.02" stop-color="#FF7895" stop-opacity="0.95"/>
<stop offset="0.15" stop-color="#FF8A9E" stop-opacity="0.67"/>
<stop offset="0.27" stop-color="#FF99A5" stop-opacity="0.43"/>
<stop offset="0.39" stop-color="#FFA5AB" stop-opacity="0.24"/>
<stop offset="0.48" stop-color="#FFADAF" stop-opacity="0.11"/>
<stop offset="0.56" stop-color="#FFB2B2" stop-opacity="0.03"/>
<stop offset="0.62" stop-color="#FFB4B3" stop-opacity="0"/>
</linearGradient>
<linearGradient id="paint21_linear_2096_4681" x1="240.688" y1="66.1968" x2="306.335" y2="66.1968" gradientUnits="userSpaceOnUse">
<stop stop-color="#F9B890"/>
<stop offset="1" stop-color="#F9EDB3"/>
</linearGradient>
<linearGradient id="paint22_linear_2096_4681" x1="149473" y1="47542.8" x2="149473" y2="73275.5" gradientUnits="userSpaceOnUse">
<stop stop-color="#CC5B6A"/>
<stop offset="0.46" stop-color="#70366A"/>
<stop offset="0.49" stop-color="#75386A"/>
<stop offset="0.71" stop-color="#9C476A"/>
<stop offset="0.89" stop-color="#B3516A"/>
<stop offset="1" stop-color="#BC546A"/>
</linearGradient>
<linearGradient id="paint23_linear_2096_4681" x1="242.684" y1="20.5729" x2="380.041" y2="206.428" gradientUnits="userSpaceOnUse">
<stop stop-color="#CC8D90"/>
<stop offset="0.08" stop-color="#D19290"/>
<stop offset="0.18" stop-color="#E0A090"/>
<stop offset="0.29" stop-color="#F9B890"/>
<stop offset="0.3" stop-color="#F7B690"/>
<stop offset="0.41" stop-color="#E4A490"/>
<stop offset="0.54" stop-color="#D69790"/>
<stop offset="0.7" stop-color="#CE8F90"/>
<stop offset="1" stop-color="#CC8D90"/>
</linearGradient>
<linearGradient id="paint24_linear_2096_4681" x1="220.896" y1="8.1935" x2="103.878" y2="217.264" gradientUnits="userSpaceOnUse">
<stop stop-color="#CC8D90"/>
<stop offset="0.05" stop-color="#DB9B90"/>
<stop offset="0.14" stop-color="#F1B090"/>
<stop offset="0.2" stop-color="#F9B890"/>
<stop offset="0.23" stop-color="#F1B190"/>
<stop offset="0.31" stop-color="#E0A190"/>
<stop offset="0.42" stop-color="#D59590"/>
<stop offset="0.58" stop-color="#CE8F90"/>
<stop offset="1" stop-color="#CC8D90"/>
</linearGradient>
<linearGradient id="paint25_linear_2096_4681" x1="137286" y1="48186.3" x2="121860" y2="77076.9" gradientUnits="userSpaceOnUse">
<stop stop-color="#F9B890"/>
<stop offset="1" stop-color="#F9EDB3"/>
</linearGradient>
<linearGradient id="paint26_linear_2096_4681" x1="159.596" y1="106.696" x2="105.254" y2="203.787" gradientUnits="userSpaceOnUse">
<stop stop-color="#CC5B6A" stop-opacity="0"/>
<stop offset="0.06" stop-color="#C4586A" stop-opacity="0.09"/>
<stop offset="0.36" stop-color="#A0496A" stop-opacity="0.48"/>
<stop offset="0.62" stop-color="#863F6A" stop-opacity="0.76"/>
<stop offset="0.85" stop-color="#76386A" stop-opacity="0.94"/>
<stop offset="1" stop-color="#70366A"/>
</linearGradient>
<linearGradient id="paint27_linear_2096_4681" x1="292519" y1="105202" x2="324281" y2="215300" gradientUnits="userSpaceOnUse">
<stop stop-color="#CC5B6A" stop-opacity="0"/>
<stop offset="0.06" stop-color="#C4586A" stop-opacity="0.09"/>
<stop offset="0.36" stop-color="#A0496A" stop-opacity="0.48"/>
<stop offset="0.62" stop-color="#863F6A" stop-opacity="0.76"/>
<stop offset="0.85" stop-color="#76386A" stop-opacity="0.94"/>
<stop offset="1" stop-color="#70366A"/>
</linearGradient>
<linearGradient id="paint28_linear_2096_4681" x1="276856" y1="138239" x2="337780" y2="138239" gradientUnits="userSpaceOnUse">
<stop stop-color="#FFA9AE"/>
<stop offset="0.02" stop-color="#FFAEB0"/>
<stop offset="0.1" stop-color="#FFC1BA"/>
<stop offset="0.19" stop-color="#FFCEC0"/>
<stop offset="0.31" stop-color="#FFD6C4"/>
<stop offset="0.55" stop-color="#FFD8C5"/>
<stop offset="0.67" stop-color="#FFD1C2"/>
<stop offset="0.85" stop-color="#FFBEB8"/>
<stop offset="1" stop-color="#FFA9AE"/>
</linearGradient>
<linearGradient id="paint29_linear_2096_4681" x1="141.391" y1="234.307" x2="81.4164" y2="301.501" gradientUnits="userSpaceOnUse">
<stop offset="0.01" stop-color="#FF7593"/>
<stop offset="0.09" stop-color="#FF839A"/>
<stop offset="0.27" stop-color="#FF99A5"/>
<stop offset="0.46" stop-color="#FFA8AD"/>
<stop offset="0.68" stop-color="#FFB1B2"/>
<stop offset="1" stop-color="#FFB4B3"/>
</linearGradient>
<linearGradient id="paint30_linear_2096_4681" x1="106402" y1="152884" x2="152085" y2="152884" gradientUnits="userSpaceOnUse">
<stop stop-color="#FFA9AE"/>
<stop offset="0.02" stop-color="#FFAEB0"/>
<stop offset="0.1" stop-color="#FFC1BA"/>
<stop offset="0.19" stop-color="#FFCEC0"/>
<stop offset="0.31" stop-color="#FFD6C4"/>
<stop offset="0.55" stop-color="#FFD8C5"/>
<stop offset="0.67" stop-color="#FFD1C2"/>
<stop offset="0.85" stop-color="#FFBEB8"/>
<stop offset="1" stop-color="#FFA9AE"/>
</linearGradient>
<linearGradient id="paint31_linear_2096_4681" x1="331.44" y1="285.505" x2="430.019" y2="285.505" gradientUnits="userSpaceOnUse">
<stop stop-color="#FFA9AE"/>
<stop offset="0.37" stop-color="#FFC8BD"/>
<stop offset="0.55" stop-color="#FFD8C5"/>
<stop offset="0.67" stop-color="#FFD1C2"/>
<stop offset="0.85" stop-color="#FFBEB8"/>
<stop offset="1" stop-color="#FFA9AE"/>
</linearGradient>
<linearGradient id="paint32_linear_2096_4681" x1="140.172" y1="265.512" x2="72.7898" y2="338.819" gradientUnits="userSpaceOnUse">
<stop stop-color="#FF7593"/>
<stop offset="0.09" stop-color="#FF7794" stop-opacity="0.97"/>
<stop offset="0.22" stop-color="#FF7C96" stop-opacity="0.89"/>
<stop offset="0.37" stop-color="#FF849B" stop-opacity="0.76"/>
<stop offset="0.55" stop-color="#FF8FA0" stop-opacity="0.58"/>
<stop offset="0.75" stop-color="#FF9EA8" stop-opacity="0.35"/>
<stop offset="0.95" stop-color="#FFB0B1" stop-opacity="0.07"/>
<stop offset="1" stop-color="#FFB4B3" stop-opacity="0"/>
</linearGradient>
<linearGradient id="paint33_linear_2096_4681" x1="3469.17" y1="2502.68" x2="3476.25" y2="2502.68" gradientUnits="userSpaceOnUse">
<stop stop-color="#FFA9AE"/>
<stop offset="0.02" stop-color="#FFAEB0"/>
<stop offset="0.1" stop-color="#FFC1BA"/>
<stop offset="0.19" stop-color="#FFCEC0"/>
<stop offset="0.31" stop-color="#FFD6C4"/>
<stop offset="0.55" stop-color="#FFD8C5"/>
<stop offset="0.67" stop-color="#FFD1C2"/>
<stop offset="0.85" stop-color="#FFBEB8"/>
<stop offset="1" stop-color="#FFA9AE"/>
</linearGradient>
<linearGradient id="paint34_linear_2096_4681" x1="278041" y1="122298" x2="337351" y2="122298" gradientUnits="userSpaceOnUse">
<stop stop-color="#FF7593"/>
<stop offset="0.09" stop-color="#FF7794" stop-opacity="0.97"/>
<stop offset="0.22" stop-color="#FF7C96" stop-opacity="0.89"/>
<stop offset="0.37" stop-color="#FF849B" stop-opacity="0.76"/>
<stop offset="0.55" stop-color="#FF8FA0" stop-opacity="0.58"/>
<stop offset="0.75" stop-color="#FF9EA8" stop-opacity="0.35"/>
<stop offset="0.95" stop-color="#FFB0B1" stop-opacity="0.07"/>
<stop offset="1" stop-color="#FFB4B3" stop-opacity="0"/>
</linearGradient>
<linearGradient id="paint35_linear_2096_4681" x1="212.081" y1="249.134" x2="284.081" y2="227.987" gradientUnits="userSpaceOnUse">
<stop stop-color="#6663B8"/>
<stop offset="1" stop-color="#C697CA"/>
</linearGradient>
<linearGradient id="paint36_linear_2096_4681" x1="212.081" y1="249.134" x2="284.081" y2="227.987" gradientUnits="userSpaceOnUse">
<stop stop-color="#6663B8"/>
<stop offset="1" stop-color="#C697CA"/>
</linearGradient>
<linearGradient id="paint37_linear_2096_4681" x1="212.081" y1="249.134" x2="284.081" y2="227.987" gradientUnits="userSpaceOnUse">
<stop stop-color="#6663B8"/>
<stop offset="1" stop-color="#C697CA"/>
</linearGradient>
<linearGradient id="paint38_linear_2096_4681" x1="212.081" y1="249.134" x2="284.081" y2="227.987" gradientUnits="userSpaceOnUse">
<stop stop-color="#6663B8"/>
<stop offset="1" stop-color="#C697CA"/>
</linearGradient>
<linearGradient id="paint39_linear_2096_4681" x1="223.235" y1="158.356" x2="336.526" y2="329.403" gradientUnits="userSpaceOnUse">
<stop offset="0.18" stop-color="#E7FFFF"/>
<stop offset="1" stop-color="#B6FFFF"/>
</linearGradient>
<linearGradient id="paint40_linear_2096_4681" x1="262141" y1="259719" x2="407417" y2="259719" gradientUnits="userSpaceOnUse">
<stop offset="0.18" stop-color="#E7FFFF"/>
<stop offset="1" stop-color="#B6FFFF"/>
</linearGradient>
<linearGradient id="paint41_linear_2096_4681" x1="169394" y1="261331" x2="169394" y2="186054" gradientUnits="userSpaceOnUse">
<stop stop-color="#FFA9AE"/>
<stop offset="0.02" stop-color="#FFAEB0"/>
<stop offset="0.1" stop-color="#FFC1BA"/>
<stop offset="0.19" stop-color="#FFCEC0"/>
<stop offset="0.31" stop-color="#FFD6C4"/>
<stop offset="0.55" stop-color="#FFD8C5"/>
<stop offset="0.67" stop-color="#FFD1C2"/>
<stop offset="0.85" stop-color="#FFBEB8"/>
<stop offset="1" stop-color="#FFA9AE"/>
</linearGradient>
<linearGradient id="paint42_linear_2096_4681" x1="253.186" y1="282.549" x2="362.907" y2="282.549" gradientUnits="userSpaceOnUse">
<stop stop-color="#FFD8C5"/>
<stop offset="0.23" stop-color="#FFD3C2"/>
<stop offset="0.52" stop-color="#FFC3BB"/>
<stop offset="0.84" stop-color="#FFA9AE"/>
</linearGradient>
<linearGradient id="paint43_linear_2096_4681" x1="117.814" y1="265.82" x2="196.796" y2="265.82" gradientUnits="userSpaceOnUse">
<stop stop-color="#FFEFDB"/>
<stop offset="0.7" stop-color="#FFEFDB"/>
<stop offset="0.82" stop-color="#FFEFDB"/>
</linearGradient>
<linearGradient id="paint44_linear_2096_4681" x1="455.162" y1="281.848" x2="500.122" y2="273.132" gradientUnits="userSpaceOnUse">
<stop stop-color="#F98872"/>
<stop offset="1" stop-color="#F9B890"/>
</linearGradient>
<linearGradient id="paint45_linear_2096_4681" x1="128389" y1="82005.2" x2="139829" y2="79787.5" gradientUnits="userSpaceOnUse">
<stop stop-color="#F9B890"/>
<stop offset="0.12" stop-color="#F9CB99"/>
<stop offset="0.3" stop-color="#F9E2A5"/>
<stop offset="0.49" stop-color="#F9F2AD"/>
<stop offset="0.71" stop-color="#F9FCB1"/>
<stop offset="0.99" stop-color="#F9FFB3"/>
</linearGradient>
<linearGradient id="paint46_linear_2096_4681" x1="111069" y1="70144.7" x2="119427" y2="68524.6" gradientUnits="userSpaceOnUse">
<stop stop-color="#F98872"/>
<stop offset="1" stop-color="#F9B890"/>
</linearGradient>
<linearGradient id="paint47_linear_2096_4681" x1="96898.7" y1="60210.1" x2="103231" y2="58982.7" gradientUnits="userSpaceOnUse">
<stop stop-color="#F9B890"/>
<stop offset="0.15" stop-color="#F9C898"/>
<stop offset="0.49" stop-color="#F9E6A7"/>
<stop offset="0.79" stop-color="#F9F8B0"/>
<stop offset="0.99" stop-color="#F9FFB3"/>
</linearGradient>
<linearGradient id="paint48_linear_2096_4681" x1="77559.2" y1="4505.96" x2="83870.2" y2="15356.4" gradientUnits="userSpaceOnUse">
<stop stop-color="#F98872"/>
<stop offset="1" stop-color="#F9B890"/>
</linearGradient>
<linearGradient id="paint49_linear_2096_4681" x1="101928" y1="126051" x2="101928" y2="102914" gradientUnits="userSpaceOnUse">
<stop stop-color="#FFEFDB"/>
<stop offset="0.7" stop-color="#FFEFDB"/>
<stop offset="0.82" stop-color="#FFEFDB"/>
</linearGradient>
<linearGradient id="paint50_linear_2096_4681" x1="166.107" y1="227.904" x2="135.007" y2="253.45" gradientUnits="userSpaceOnUse">
<stop offset="0.05" stop-color="#FFD8C5"/>
<stop offset="0.46" stop-color="#FFD6C4"/>
<stop offset="0.67" stop-color="#FFCEC0"/>
<stop offset="0.83" stop-color="#FFC0B9"/>
<stop offset="0.97" stop-color="#FFAEB0"/>
<stop offset="1" stop-color="#FFA9AE"/>
</linearGradient>
<linearGradient id="paint51_linear_2096_4681" x1="158.207" y1="243.927" x2="127.017" y2="272.549" gradientUnits="userSpaceOnUse">
<stop stop-color="#FFD8C5"/>
<stop offset="1" stop-color="#FFA9AE"/>
</linearGradient>
<linearGradient id="paint52_linear_2096_4681" x1="147.619" y1="246.863" x2="123.554" y2="283.145" gradientUnits="userSpaceOnUse">
<stop stop-color="#FFD8C5"/>
<stop offset="0.74" stop-color="#FFB6B4"/>
<stop offset="1" stop-color="#FFA9AE"/>
</linearGradient>
<linearGradient id="paint53_linear_2096_4681" x1="147.619" y1="246.863" x2="123.554" y2="283.145" gradientUnits="userSpaceOnUse">
<stop stop-color="#FFD8C5"/>
<stop offset="0.74" stop-color="#FFB6B4"/>
<stop offset="1" stop-color="#FFA9AE"/>
</linearGradient>
<linearGradient id="paint54_linear_2096_4681" x1="161.912" y1="256.985" x2="114.893" y2="287.343" gradientUnits="userSpaceOnUse">
<stop stop-color="#FFD8C5"/>
<stop offset="0.28" stop-color="#FFD3C3"/>
<stop offset="0.6" stop-color="#FFC5BC"/>
<stop offset="0.95" stop-color="#FFADB0"/>
<stop offset="1" stop-color="#FFA9AE"/>
</linearGradient>
<linearGradient id="paint55_linear_2096_4681" x1="137085" y1="75140.3" x2="157981" y2="75140.3" gradientUnits="userSpaceOnUse">
<stop stop-color="#FFEFDB"/>
<stop offset="0.7" stop-color="#FFEFDB"/>
<stop offset="0.82" stop-color="#FFEFDB"/>
</linearGradient>
<linearGradient id="paint56_linear_2096_4681" x1="248.507" y1="299.525" x2="248.507" y2="112.825" gradientUnits="userSpaceOnUse">
<stop offset="0.01" stop-color="#6663B8"/>
<stop offset="0.17" stop-color="#756EBD"/>
<stop offset="0.47" stop-color="#9B89CA"/>
<stop offset="0.83" stop-color="#D29BCA"/>
<stop offset="1" stop-color="#E7A2CA"/>
</linearGradient>
<linearGradient id="paint57_linear_2096_4681" x1="321.508" y1="225.534" x2="321.508" y2="306.682" gradientUnits="userSpaceOnUse">
<stop stop-color="#5E75C0" stop-opacity="0"/>
<stop offset="0.41" stop-color="#5E75C0" stop-opacity="0.39"/>
<stop offset="1" stop-color="#5E75C0"/>
</linearGradient>
<linearGradient id="paint58_linear_2096_4681" x1="307.641" y1="311.584" x2="361.201" y2="317.262" gradientUnits="userSpaceOnUse">
<stop stop-color="#FFD8C5"/>
<stop offset="0.6" stop-color="#FFA9AE"/>
</linearGradient>
<linearGradient id="paint59_linear_2096_4681" x1="329.479" y1="259.729" x2="374.922" y2="259.729" gradientUnits="userSpaceOnUse">
<stop offset="0.13" stop-color="#FFD8C5"/>
<stop offset="0.37" stop-color="#FFD1C2"/>
<stop offset="0.71" stop-color="#FFBEB8"/>
<stop offset="1" stop-color="#FFA9AE"/>
</linearGradient>
<linearGradient id="paint60_linear_2096_4681" x1="103124" y1="71739.1" x2="113771" y2="72386" gradientUnits="userSpaceOnUse">
<stop offset="0.13" stop-color="#FFD8C5"/>
<stop offset="0.37" stop-color="#FFD1C2"/>
<stop offset="0.71" stop-color="#FFBEB8"/>
<stop offset="1" stop-color="#FFA9AE"/>
</linearGradient>
<linearGradient id="paint61_linear_2096_4681" x1="327.89" y1="292.97" x2="384.535" y2="261.501" gradientUnits="userSpaceOnUse">
<stop stop-color="#FFD8C5"/>
<stop offset="0.17" stop-color="#FFD1C2"/>
<stop offset="0.41" stop-color="#FFBEB8"/>
<stop offset="0.61" stop-color="#FFA9AE"/>
</linearGradient>
<linearGradient id="paint62_linear_2096_4681" x1="51010.8" y1="172871" x2="34247" y2="187474" gradientUnits="userSpaceOnUse">
<stop stop-color="#F98872"/>
<stop offset="1" stop-color="#F9B890"/>
</linearGradient>
<linearGradient id="paint63_linear_2096_4681" x1="57791.9" y1="189144" x2="37813.2" y2="166841" gradientUnits="userSpaceOnUse">
<stop stop-color="#F9B890"/>
<stop offset="0.12" stop-color="#F9CB99"/>
<stop offset="0.3" stop-color="#F9E2A5"/>
<stop offset="0.49" stop-color="#F9F2AD"/>
<stop offset="0.71" stop-color="#F9FCB1"/>
<stop offset="0.99" stop-color="#F9FFB3"/>
</linearGradient>
<linearGradient id="paint64_linear_2096_4681" x1="46876" y1="156396" x2="32955.4" y2="140856" gradientUnits="userSpaceOnUse">
<stop stop-color="#F98872"/>
<stop offset="1" stop-color="#F9B890"/>
</linearGradient>
<linearGradient id="paint65_linear_2096_4681" x1="40413.5" y1="136488" x2="29686.5" y2="124513" gradientUnits="userSpaceOnUse">
<stop stop-color="#F9B890"/>
<stop offset="0.12" stop-color="#F9CB99"/>
<stop offset="0.3" stop-color="#F9E2A5"/>
<stop offset="0.49" stop-color="#F9F2AD"/>
<stop offset="0.71" stop-color="#F9FCB1"/>
<stop offset="0.99" stop-color="#F9FFB3"/>
</linearGradient>
<linearGradient id="paint66_linear_2096_4681" x1="119825" y1="-23210.2" x2="133272" y2="-7441.25" gradientUnits="userSpaceOnUse">
<stop stop-color="#F98872"/>
<stop offset="1" stop-color="#F9B890"/>
</linearGradient>
<linearGradient id="paint67_linear_2096_4681" x1="85197.1" y1="43070.6" x2="78718.9" y2="54382.8" gradientUnits="userSpaceOnUse">
<stop stop-color="#F9B890"/>
<stop offset="0.12" stop-color="#F9CC9A"/>
<stop offset="0.3" stop-color="#F9E2A5"/>
<stop offset="0.49" stop-color="#F9F2AD"/>
<stop offset="0.7" stop-color="#F9FCB2"/>
<stop offset="0.99" stop-color="#F9FFB3"/>
</linearGradient>
<linearGradient id="paint68_linear_2096_4681" x1="67004.5" y1="35075.7" x2="62935.1" y2="42182.1" gradientUnits="userSpaceOnUse">
<stop stop-color="#F9B890"/>
<stop offset="0.3" stop-color="#F9BB92"/>
<stop offset="0.56" stop-color="#F9C699"/>
<stop offset="0.79" stop-color="#F9D7A4"/>
<stop offset="1" stop-color="#F9EDB3"/>
</linearGradient>
<linearGradient id="paint69_linear_2096_4681" x1="59307.7" y1="31500.8" x2="56100.1" y2="37102.3" gradientUnits="userSpaceOnUse">
<stop stop-color="#F9B890"/>
<stop offset="0.12" stop-color="#F9CC9A"/>
<stop offset="0.3" stop-color="#F9E2A5"/>
<stop offset="0.49" stop-color="#F9F2AD"/>
<stop offset="0.7" stop-color="#F9FCB2"/>
<stop offset="0.99" stop-color="#F9FFB3"/>
</linearGradient>
<linearGradient id="paint70_linear_2096_4681" x1="28442.7" y1="18486.6" x2="26829.4" y2="21889.7" gradientUnits="userSpaceOnUse">
<stop stop-color="#F9B890"/>
<stop offset="0.3" stop-color="#F9BB92"/>
<stop offset="0.56" stop-color="#F9C699"/>
<stop offset="0.79" stop-color="#F9D7A4"/>
<stop offset="1" stop-color="#F9EDB3"/>
</linearGradient>
<linearGradient id="paint71_linear_2096_4681" x1="-22427.2" y1="188084" x2="-14080.6" y2="202743" gradientUnits="userSpaceOnUse">
<stop stop-color="#F98872"/>
<stop offset="1" stop-color="#F9B890"/>
</linearGradient>
<linearGradient id="paint72_linear_2096_4681" x1="377.279" y1="247.415" x2="439.926" y2="212.657" gradientUnits="userSpaceOnUse">
<stop stop-color="#F9B890"/>
<stop offset="0.12" stop-color="#F9CB99"/>
<stop offset="0.3" stop-color="#F9E2A5"/>
<stop offset="0.49" stop-color="#F9F2AD"/>
<stop offset="0.71" stop-color="#F9FCB1"/>
<stop offset="0.99" stop-color="#F9FFB3"/>
</linearGradient>
<linearGradient id="paint73_linear_2096_4681" x1="-23150.1" y1="163846" x2="-8743.3" y2="155870" gradientUnits="userSpaceOnUse">
<stop stop-color="#F98872"/>
<stop offset="1" stop-color="#F9B890"/>
</linearGradient>
<linearGradient id="paint74_linear_2096_4681" x1="-19719" y1="140057" x2="-9037.84" y2="134145" gradientUnits="userSpaceOnUse">
<stop stop-color="#F9B890"/>
<stop offset="0.15" stop-color="#F9C898"/>
<stop offset="0.49" stop-color="#F9E6A7"/>
<stop offset="0.79" stop-color="#F9F8B0"/>
<stop offset="0.99" stop-color="#F9FFB3"/>
</linearGradient>
<linearGradient id="paint75_linear_2096_4681" x1="85854.4" y1="94098.5" x2="81337.4" y2="109395" gradientUnits="userSpaceOnUse">
<stop stop-color="#F98872"/>
<stop offset="1" stop-color="#F9B890"/>
</linearGradient>
</defs>
</svg>
