<svg width="119" height="135" viewBox="0 0 119 135" fill="none" xmlns="http://www.w3.org/2000/svg">
<path d="M4.2948 15L7 17.8537L9.7052 15L11 16.3659L7 20.5854L3 16.3659L4.2948 15Z" fill="#212B36"/>
<path d="M4.2948 22.9512L7 25.8048L9.7052 22.9512L11 24.317L7 28.5365L3 24.317L4.2948 22.9512Z" fill="#212B36"/>
<path d="M3 31.7805L4.2948 30.4147L7 33.2683L9.7052 30.4147L11 31.7805L7 36L3 31.7805Z" fill="#212B36"/>
<path d="M32.5094 102.981C33.3327 102.981 34 102.314 34 101.49C34 100.667 33.3327 100 32.5094 100C31.6862 100 31.0188 100.667 31.0188 101.49C31.0188 102.314 31.6862 102.981 32.5094 102.981Z" fill="#212b36"/>
<path d="M34 112.514C34 111.699 33.325 111.024 32.5094 111.024C31.6938 111.024 31.0188 111.699 31.0188 112.514C31.0188 113.33 31.6938 114.005 32.5094 114.005C33.3532 114.005 34 113.33 34 112.514Z" fill="#212b36"/>
<path d="M34 123.51V123.481V123.453C34 122.638 33.325 121.963 32.5094 121.963C31.6938 121.963 31.0188 122.638 31.0188 123.453V123.481V123.51C31.0188 124.325 31.6938 125 32.5094 125C33.3532 125 34 124.325 34 123.51Z" fill="#212b36"/>
<path d="M20.4999 102.981C21.3232 102.981 21.9905 102.314 21.9905 101.49C21.9905 100.667 21.3232 100 20.4999 100C19.6767 100 19.0093 100.667 19.0093 101.49C19.0093 102.314 19.6767 102.981 20.4999 102.981Z" fill="#212b36"/>
<path d="M22.0188 112.514C22.0188 111.699 21.3438 111.024 20.5282 111.024C19.7126 111.024 19.0376 111.699 19.0376 112.514C19.0376 113.33 19.7126 114.005 20.5282 114.005C21.3438 114.005 22.0188 113.33 22.0188 112.514Z" fill="#212b36"/>
<path d="M22.0188 123.51V123.481V123.453C22.0188 122.638 21.3438 121.963 20.5282 121.963C19.7126 121.963 19.0376 122.638 19.0376 123.453V123.481V123.51C19.0376 124.325 19.7126 125 20.5282 125C21.3438 125 22.0188 124.325 22.0188 123.51Z" fill="#212b36"/>
<path d="M8.49063 102.981C9.31387 102.981 9.98125 102.314 9.98125 101.49C9.98125 100.667 9.31387 100 8.49063 100C7.66738 100 7 100.667 7 101.49C7 102.314 7.66738 102.981 8.49063 102.981Z" fill="#212b36"/>
<path d="M10.0093 112.514C10.0093 111.699 9.33433 111.024 8.5187 111.024C7.70308 111.024 7.02808 111.699 7.02808 112.514C7.02808 113.33 7.70308 114.005 8.5187 114.005C9.33433 114.005 10.0093 113.33 10.0093 112.514Z" fill="#212b36"/>
<path d="M10.0094 123.51V123.481V123.453C10.0094 122.638 9.33438 121.963 8.51875 121.963C7.675 121.935 7 122.61 7 123.425V123.453V123.481C7 124.297 7.675 124.972 8.49063 124.972C9.33438 125 10.0094 124.325 10.0094 123.51Z" fill="#212b36"/>
<circle cx="59.5" cy="65.5" r="59.5" fill="#F4F2FC"/>
<g clip-path="url(#clip0_1955_5164)">
<path d="M82.7015 10.2173C82.7828 10.2173 82.8437 10.1969 82.9046 10.136L90.1156 2.92507C90.2375 2.8032 90.2375 2.62039 90.1156 2.49851C89.9937 2.37664 89.8109 2.37664 89.689 2.49851L82.4984 9.70945C82.3765 9.83132 82.3765 10.0141 82.4984 10.136C82.5593 10.1969 82.6406 10.2173 82.7015 10.2173Z" fill="#FFF6DB"/>
<path d="M80.5484 15.9047C80.6297 15.9047 80.6906 15.8844 80.7516 15.8235L95.8031 0.751611C95.925 0.629736 95.925 0.446924 95.8031 0.325049C95.6813 0.203174 95.4984 0.203174 95.3766 0.325049L80.3453 15.3969C80.2234 15.5188 80.2234 15.7016 80.3453 15.8235C80.4063 15.8641 80.4875 15.9047 80.5484 15.9047Z" fill="#FFF6DB"/>
<path d="M80.5077 19.5813L99.5812 0.507837C99.703 0.385962 99.703 0.203149 99.5812 0.0812744C99.4593 -0.0406006 99.2765 -0.0406006 99.1546 0.0812744L80.0812 19.1547C79.9593 19.2766 79.9593 19.4594 80.0812 19.5813C80.1421 19.6422 80.2233 19.6625 80.2843 19.6625C80.3452 19.6625 80.4468 19.6422 80.5077 19.5813Z" fill="#FFF6DB"/>
<path d="M102.933 0.24375C102.811 0.121875 102.628 0.121875 102.506 0.24375L80.2438 22.5266C80.1219 22.6484 80.1219 22.8312 80.2438 22.9531C80.3047 23.0141 80.3859 23.0344 80.4469 23.0344C80.5078 23.0344 80.5891 23.0141 80.65 22.9531L102.933 0.65C103.055 0.548438 103.055 0.365625 102.933 0.24375Z" fill="#FFF6DB"/>
<path d="M105.776 0.934424C105.654 0.812549 105.472 0.812549 105.35 0.934424L80.9342 25.35C80.8123 25.4719 80.8123 25.6547 80.9342 25.7766C80.9951 25.8375 81.0764 25.8579 81.1373 25.8579C81.2186 25.8579 81.2795 25.8375 81.3404 25.7766L105.776 1.34067C105.878 1.23911 105.878 1.03599 105.776 0.934424Z" fill="#FFF6DB"/>
<path d="M108.255 1.95005C108.133 1.82817 107.95 1.82817 107.828 1.95005L81.9703 27.8282C81.8484 27.95 81.8484 28.1329 81.9703 28.2547C82.0313 28.3157 82.1125 28.336 82.1734 28.336C82.2547 28.336 82.3156 28.3157 82.3766 28.2547L108.255 2.37661C108.377 2.25474 108.377 2.07192 108.255 1.95005Z" fill="#FFF6DB"/>
<path d="M110.489 3.22971C110.367 3.10784 110.184 3.10784 110.062 3.22971L83.2296 30.0828C83.1077 30.2047 83.1077 30.3875 83.2296 30.5094C83.2905 30.5703 83.3718 30.5907 83.4327 30.5907C83.514 30.5907 83.5749 30.5703 83.6358 30.5094L110.489 3.65627C110.611 3.5344 110.611 3.35159 110.489 3.22971Z" fill="#FFF6DB"/>
<path d="M112.459 4.77341C112.337 4.65154 112.155 4.65154 112.033 4.77341L84.7733 32.0531C84.6514 32.175 84.6514 32.3578 84.7733 32.4797C84.8342 32.5406 84.9155 32.5609 84.9764 32.5609C85.0577 32.5609 85.1186 32.5406 85.1795 32.4797L112.459 5.19998C112.581 5.0781 112.581 4.89529 112.459 4.77341Z" fill="#FFF6DB"/>
<path d="M114.227 6.54063C114.105 6.41875 113.922 6.41875 113.8 6.54063L86.5406 33.8C86.4188 33.9219 86.4188 34.1047 86.5406 34.2266C86.6016 34.2875 86.6828 34.3078 86.7437 34.3078C86.825 34.3078 86.8859 34.2875 86.9469 34.2266L114.227 6.94688C114.348 6.84531 114.348 6.64219 114.227 6.54063Z" fill="#FFF6DB"/>
<path d="M115.77 8.51096C115.648 8.38909 115.466 8.38909 115.344 8.51096L88.5108 35.3438C88.389 35.4657 88.389 35.6485 88.5108 35.7703C88.5718 35.8313 88.653 35.8516 88.714 35.8516C88.7952 35.8516 88.8562 35.8313 88.9171 35.7703L115.77 8.91721C115.892 8.81565 115.892 8.61252 115.77 8.51096Z" fill="#FFF6DB"/>
<path d="M117.05 10.7453C116.928 10.6235 116.745 10.6235 116.623 10.7453L90.7452 36.6235C90.6233 36.7453 90.6233 36.9281 90.7452 37.05C90.8062 37.111 90.8874 37.1313 90.9483 37.1313C91.0093 37.1313 91.0905 37.111 91.1515 37.05L117.05 11.1719C117.151 11.05 117.151 10.8672 117.05 10.7453Z" fill="#FFF6DB"/>
<path d="M118.066 13.2235C117.944 13.1016 117.761 13.1016 117.639 13.2235L93.2437 37.6594C93.1219 37.7813 93.1219 37.9641 93.2437 38.086C93.3047 38.1469 93.3859 38.1672 93.4469 38.1672C93.5281 38.1672 93.5891 38.1469 93.65 38.086L118.066 13.65C118.187 13.5282 118.187 13.3454 118.066 13.2235Z" fill="#FFF6DB"/>
<path d="M118.756 16.0672C118.634 15.9454 118.451 15.9454 118.329 16.0672L96.067 38.35C95.9451 38.4719 95.9451 38.6547 96.067 38.7766C96.1279 38.8375 96.2092 38.8579 96.2701 38.8579C96.3514 38.8579 96.4123 38.8375 96.4732 38.7766L118.756 16.4735C118.878 16.3719 118.878 16.1688 118.756 16.0672Z" fill="#FFF6DB"/>
<path d="M118.919 19.4188C118.797 19.2969 118.614 19.2969 118.492 19.4188L99.4186 38.4922C99.2967 38.6141 99.2967 38.7969 99.4186 38.9188C99.4795 38.9797 99.5607 39 99.6217 39C99.7029 39 99.7639 38.9797 99.8248 38.9188L118.898 19.8454C119.04 19.7235 119.04 19.5407 118.919 19.4188Z" fill="#FFF6DB"/>
<path d="M118.248 23.1969L103.197 38.2484C103.075 38.3703 103.075 38.5531 103.197 38.675C103.258 38.7359 103.339 38.7563 103.4 38.7563C103.481 38.7563 103.542 38.7359 103.603 38.675L118.655 23.6234C118.777 23.5016 118.777 23.3188 118.655 23.1969C118.553 23.075 118.35 23.075 118.248 23.1969Z" fill="#FFF6DB"/>
<path d="M116.075 28.8641L108.864 36.0751C108.742 36.1969 108.742 36.3797 108.864 36.5016C108.925 36.5626 109.006 36.5829 109.067 36.5829C109.128 36.5829 109.209 36.5626 109.27 36.5016L116.481 29.2907C116.603 29.1688 116.603 28.986 116.481 28.8641C116.379 28.7422 116.197 28.7422 116.075 28.8641Z" fill="#FFF6DB"/>
</g>
<path d="M102.219 51.8125C102.956 51.8125 103.664 51.5195 104.185 50.9979C104.707 50.4763 105 49.7689 105 49.0312V32.3438C105 30.1308 104.121 28.0086 102.556 26.4438C100.991 24.8791 98.8691 24 96.6562 24H24.3438C22.1308 24 20.0086 24.8791 18.4438 26.4438C16.8791 28.0086 16 30.1308 16 32.3438V104.656C16 106.869 16.8791 108.991 18.4438 110.556C20.0086 112.121 22.1308 113 24.3438 113H96.6562C98.8691 113 100.991 112.121 102.556 110.556C104.121 108.991 105 106.869 105 104.656V60.1562C105 59.4186 104.707 58.7112 104.185 58.1896C103.664 57.668 102.956 57.375 102.219 57.375C101.481 57.375 100.774 57.668 100.252 58.1896C99.7305 58.7112 99.4375 59.4186 99.4375 60.1562V104.656C99.4375 105.394 99.1445 106.101 98.6229 106.623C98.1013 107.144 97.3939 107.438 96.6562 107.438H24.3438C23.6061 107.438 22.8987 107.144 22.3771 106.623C21.8555 106.101 21.5625 105.394 21.5625 104.656V51.8125H102.219ZM21.5625 32.3438C21.5625 31.6061 21.8555 30.8987 22.3771 30.3771C22.8987 29.8555 23.6061 29.5625 24.3438 29.5625H96.6562C97.3939 29.5625 98.1013 29.8555 98.6229 30.3771C99.1445 30.8987 99.4375 31.6061 99.4375 32.3438V46.25H21.5625V32.3438Z" fill="#212B36"/>
<path d="M91.0938 35.125C90.5437 35.125 90.0059 35.2881 89.5486 35.5937C89.0912 35.8993 88.7347 36.3337 88.5242 36.8419C88.3137 37.3501 88.2586 37.9093 88.3659 38.4488C88.4733 38.9884 88.7381 39.4839 89.1271 39.8729C89.5161 40.2619 90.0116 40.5267 90.5512 40.6341C91.0907 40.7414 91.6499 40.6863 92.1581 40.4758C92.6663 40.2653 93.1007 39.9088 93.4063 39.4514C93.7119 38.9941 93.875 38.4563 93.875 37.9063C93.875 37.1686 93.582 36.4612 93.0604 35.9396C92.5388 35.418 91.8314 35.125 91.0938 35.125Z" fill="#212b36"/>
<path d="M79.9688 35.125C79.4187 35.125 78.8809 35.2881 78.4236 35.5937C77.9662 35.8993 77.6097 36.3337 77.3992 36.8419C77.1887 37.3501 77.1336 37.9093 77.2409 38.4488C77.3483 38.9884 77.6131 39.4839 78.0021 39.8729C78.3911 40.2619 78.8866 40.5267 79.4262 40.6341C79.9657 40.7414 80.5249 40.6863 81.0331 40.4758C81.5413 40.2653 81.9757 39.9088 82.2813 39.4514C82.5869 38.9941 82.75 38.4563 82.75 37.9063C82.75 37.1686 82.457 36.4612 81.9354 35.9396C81.4138 35.418 80.7064 35.125 79.9688 35.125Z" fill="#212b36"/>
<path d="M68.8438 35.125C68.2937 35.125 67.7559 35.2881 67.2986 35.5937C66.8412 35.8993 66.4847 36.3337 66.2742 36.8419C66.0637 37.3501 66.0086 37.9093 66.1159 38.4488C66.2233 38.9884 66.4881 39.4839 66.8771 39.8729C67.2661 40.2619 67.7616 40.5267 68.3012 40.6341C68.8407 40.7414 69.3999 40.6863 69.9081 40.4758C70.4163 40.2653 70.8507 39.9088 71.1563 39.4514C71.4619 38.9941 71.625 38.4563 71.625 37.9063C71.625 37.1686 71.332 36.4612 70.8104 35.9396C70.2888 35.418 69.5814 35.125 68.8438 35.125Z" fill="#212b36"/>
<path d="M84.5855 77.539L62.3355 58.0702C61.828 57.6243 61.1755 57.3784 60.4999 57.3784C59.8243 57.3784 59.1718 57.6243 58.6643 58.0702L49.3749 66.1915V62.9374C49.3749 62.1998 49.0819 61.4923 48.5603 60.9708C48.0387 60.4492 47.3313 60.1561 46.5937 60.1561C45.856 60.1561 45.1486 60.4492 44.627 60.9708C44.1054 61.4923 43.8124 62.1998 43.8124 62.9374V71.0586L36.4143 77.539C35.9908 77.9124 35.6911 78.4059 35.5548 78.9538C35.4186 79.5017 35.4523 80.0781 35.6516 80.6064C35.8508 81.1346 36.2061 81.5897 36.6702 81.9112C37.1343 82.2327 37.6853 82.4053 38.2499 82.4061H43.8124V96.3124C43.8124 97.05 44.1054 97.7575 44.627 98.279C45.1486 98.8006 45.856 99.0936 46.5937 99.0936H74.4062C75.1438 99.0936 75.8512 98.8006 76.3728 98.279C76.8944 97.7575 77.1874 97.05 77.1874 96.3124V82.4061H82.7499C83.3145 82.4053 83.8655 82.2327 84.3296 81.9112C84.7937 81.5897 85.149 81.1346 85.3482 80.6064C85.5475 80.0781 85.5812 79.5017 85.445 78.9538C85.3087 78.4059 85.009 77.9124 84.5855 77.539ZM74.4062 76.8436C73.6685 76.8436 72.9611 77.1367 72.4395 77.6583C71.9179 78.1798 71.6249 78.8873 71.6249 79.6249V93.5311H63.2812V87.9686C63.2812 87.231 62.9881 86.5236 62.4666 86.002C61.945 85.4804 61.2375 85.1874 60.4999 85.1874C59.7623 85.1874 59.0549 85.4804 58.5333 86.002C58.0117 86.5236 57.7187 87.231 57.7187 87.9686V93.5311H49.3749V79.6249C49.3749 78.8873 49.0819 78.1798 48.5603 77.6583C48.0387 77.1367 47.3313 76.8436 46.5937 76.8436H45.648L60.4999 63.8552L75.3518 76.8436H74.4062Z" fill="#212b36"/>
<g clip-path="url(#clip1_1955_5164)">
<path d="M96.0199 135C92.151 135 89 131.849 89 128.02C89 124.151 92.151 121 96.0199 121C99.8889 121 103.04 124.151 103.04 128.02C103 131.849 99.849 135 96.0199 135ZM96.2991 124.39C94.1852 124.39 92.51 125.946 92.51 127.821C92.51 129.695 94.2251 131.251 96.2991 131.251C98.3732 131.251 100.088 129.695 100.088 127.821C100.088 125.946 98.4131 124.39 96.2991 124.39Z" fill="#212b36"/>
</g>
<defs>
<clipPath id="clip0_1955_5164">
<rect width="39" height="39" fill="white" transform="translate(80)"/>
</clipPath>
<clipPath id="clip1_1955_5164">
<rect width="14" height="14" fill="white" transform="translate(89 121)"/>
</clipPath>
</defs>
</svg>
