<svg width="119" height="135" viewBox="0 0 119 135" fill="none" xmlns="http://www.w3.org/2000/svg">
<path d="M4.2948 15L7 17.8537L9.7052 15L11 16.3659L7 20.5854L3 16.3659L4.2948 15Z" fill="#212B36"/>
<path d="M4.2948 22.9512L7 25.8048L9.7052 22.9512L11 24.317L7 28.5365L3 24.317L4.2948 22.9512Z" fill="#212B36"/>
<path d="M3 31.7805L4.2948 30.4147L7 33.2683L9.7052 30.4147L11 31.7805L7 36L3 31.7805Z" fill="#212B36"/>
<path d="M32.5094 102.981C33.3327 102.981 34 102.314 34 101.49C34 100.667 33.3327 100 32.5094 100C31.6862 100 31.0188 100.667 31.0188 101.49C31.0188 102.314 31.6862 102.981 32.5094 102.981Z" fill="#212b36"/>
<path d="M34 112.514C34 111.699 33.325 111.024 32.5094 111.024C31.6938 111.024 31.0188 111.699 31.0188 112.514C31.0188 113.33 31.6938 114.005 32.5094 114.005C33.3532 114.005 34 113.33 34 112.514Z" fill="#212b36"/>
<path d="M34 123.51V123.481V123.453C34 122.638 33.325 121.963 32.5094 121.963C31.6938 121.963 31.0188 122.638 31.0188 123.453V123.481V123.51C31.0188 124.325 31.6938 125 32.5094 125C33.3532 125 34 124.325 34 123.51Z" fill="#212b36"/>
<path d="M20.4999 102.981C21.3232 102.981 21.9905 102.314 21.9905 101.49C21.9905 100.667 21.3232 100 20.4999 100C19.6767 100 19.0093 100.667 19.0093 101.49C19.0093 102.314 19.6767 102.981 20.4999 102.981Z" fill="#212b36"/>
<path d="M22.0188 112.514C22.0188 111.699 21.3438 111.024 20.5282 111.024C19.7126 111.024 19.0376 111.699 19.0376 112.514C19.0376 113.33 19.7126 114.005 20.5282 114.005C21.3438 114.005 22.0188 113.33 22.0188 112.514Z" fill="#212b36"/>
<path d="M22.0188 123.51V123.481V123.453C22.0188 122.638 21.3438 121.963 20.5282 121.963C19.7126 121.963 19.0376 122.638 19.0376 123.453V123.481V123.51C19.0376 124.325 19.7126 125 20.5282 125C21.3438 125 22.0188 124.325 22.0188 123.51Z" fill="#212b36"/>
<path d="M8.49063 102.981C9.31387 102.981 9.98125 102.314 9.98125 101.49C9.98125 100.667 9.31387 100 8.49063 100C7.66738 100 7 100.667 7 101.49C7 102.314 7.66738 102.981 8.49063 102.981Z" fill="#212b36"/>
<path d="M10.0093 112.514C10.0093 111.699 9.33433 111.024 8.5187 111.024C7.70308 111.024 7.02808 111.699 7.02808 112.514C7.02808 113.33 7.70308 114.005 8.5187 114.005C9.33433 114.005 10.0093 113.33 10.0093 112.514Z" fill="#212b36"/>
<path d="M10.0094 123.51V123.481V123.453C10.0094 122.638 9.33438 121.963 8.51875 121.963C7.675 121.935 7 122.61 7 123.425V123.453V123.481C7 124.297 7.675 124.972 8.49063 124.972C9.33438 125 10.0094 124.325 10.0094 123.51Z" fill="#212b36"/>
<circle cx="59.5" cy="65.5" r="59.5" fill="#F4F2FC"/>
<g clip-path="url(#clip0_1955_5118)">
<path d="M82.7015 10.2173C82.7828 10.2173 82.8437 10.1969 82.9046 10.136L90.1156 2.92507C90.2375 2.8032 90.2375 2.62039 90.1156 2.49851C89.9937 2.37664 89.8109 2.37664 89.689 2.49851L82.4984 9.70945C82.3765 9.83132 82.3765 10.0141 82.4984 10.136C82.5593 10.1969 82.6406 10.2173 82.7015 10.2173Z" fill="#FFF6DB"/>
<path d="M80.5484 15.9047C80.6297 15.9047 80.6906 15.8844 80.7516 15.8235L95.8031 0.751611C95.925 0.629736 95.925 0.446924 95.8031 0.325049C95.6813 0.203174 95.4984 0.203174 95.3766 0.325049L80.3453 15.3969C80.2234 15.5188 80.2234 15.7016 80.3453 15.8235C80.4063 15.8641 80.4875 15.9047 80.5484 15.9047Z" fill="#FFF6DB"/>
<path d="M80.5077 19.5813L99.5812 0.507837C99.703 0.385962 99.703 0.203149 99.5812 0.0812744C99.4593 -0.0406006 99.2765 -0.0406006 99.1546 0.0812744L80.0812 19.1547C79.9593 19.2766 79.9593 19.4594 80.0812 19.5813C80.1421 19.6422 80.2233 19.6625 80.2843 19.6625C80.3452 19.6625 80.4468 19.6422 80.5077 19.5813Z" fill="#FFF6DB"/>
<path d="M102.933 0.24375C102.811 0.121875 102.628 0.121875 102.506 0.24375L80.2438 22.5266C80.1219 22.6484 80.1219 22.8312 80.2438 22.9531C80.3047 23.0141 80.3859 23.0344 80.4469 23.0344C80.5078 23.0344 80.5891 23.0141 80.65 22.9531L102.933 0.65C103.055 0.548438 103.055 0.365625 102.933 0.24375Z" fill="#FFF6DB"/>
<path d="M105.776 0.934424C105.654 0.812549 105.472 0.812549 105.35 0.934424L80.9342 25.35C80.8123 25.4719 80.8123 25.6547 80.9342 25.7766C80.9951 25.8375 81.0764 25.8579 81.1373 25.8579C81.2186 25.8579 81.2795 25.8375 81.3404 25.7766L105.776 1.34067C105.878 1.23911 105.878 1.03599 105.776 0.934424Z" fill="#FFF6DB"/>
<path d="M108.255 1.95005C108.133 1.82817 107.95 1.82817 107.828 1.95005L81.9703 27.8282C81.8484 27.95 81.8484 28.1329 81.9703 28.2547C82.0313 28.3157 82.1125 28.336 82.1734 28.336C82.2547 28.336 82.3156 28.3157 82.3766 28.2547L108.255 2.37661C108.377 2.25474 108.377 2.07192 108.255 1.95005Z" fill="#FFF6DB"/>
<path d="M110.489 3.22971C110.367 3.10784 110.184 3.10784 110.062 3.22971L83.2296 30.0828C83.1077 30.2047 83.1077 30.3875 83.2296 30.5094C83.2905 30.5703 83.3718 30.5907 83.4327 30.5907C83.514 30.5907 83.5749 30.5703 83.6358 30.5094L110.489 3.65627C110.611 3.5344 110.611 3.35159 110.489 3.22971Z" fill="#FFF6DB"/>
<path d="M112.459 4.77341C112.337 4.65154 112.155 4.65154 112.033 4.77341L84.7733 32.0531C84.6514 32.175 84.6514 32.3578 84.7733 32.4797C84.8342 32.5406 84.9155 32.5609 84.9764 32.5609C85.0577 32.5609 85.1186 32.5406 85.1795 32.4797L112.459 5.19998C112.581 5.0781 112.581 4.89529 112.459 4.77341Z" fill="#FFF6DB"/>
<path d="M114.227 6.54063C114.105 6.41875 113.922 6.41875 113.8 6.54063L86.5406 33.8C86.4188 33.9219 86.4188 34.1047 86.5406 34.2266C86.6016 34.2875 86.6828 34.3078 86.7437 34.3078C86.825 34.3078 86.8859 34.2875 86.9469 34.2266L114.227 6.94688C114.348 6.84531 114.348 6.64219 114.227 6.54063Z" fill="#FFF6DB"/>
<path d="M115.77 8.51096C115.648 8.38909 115.466 8.38909 115.344 8.51096L88.5108 35.3438C88.389 35.4657 88.389 35.6485 88.5108 35.7703C88.5718 35.8313 88.653 35.8516 88.714 35.8516C88.7952 35.8516 88.8562 35.8313 88.9171 35.7703L115.77 8.91721C115.892 8.81565 115.892 8.61252 115.77 8.51096Z" fill="#FFF6DB"/>
<path d="M117.05 10.7453C116.928 10.6235 116.745 10.6235 116.623 10.7453L90.7452 36.6235C90.6233 36.7453 90.6233 36.9281 90.7452 37.05C90.8062 37.111 90.8874 37.1313 90.9483 37.1313C91.0093 37.1313 91.0905 37.111 91.1515 37.05L117.05 11.1719C117.151 11.05 117.151 10.8672 117.05 10.7453Z" fill="#FFF6DB"/>
<path d="M118.066 13.2235C117.944 13.1016 117.761 13.1016 117.639 13.2235L93.2437 37.6594C93.1219 37.7813 93.1219 37.9641 93.2437 38.086C93.3047 38.1469 93.3859 38.1672 93.4469 38.1672C93.5281 38.1672 93.5891 38.1469 93.65 38.086L118.066 13.65C118.187 13.5282 118.187 13.3454 118.066 13.2235Z" fill="#FFF6DB"/>
<path d="M118.756 16.0672C118.634 15.9454 118.451 15.9454 118.329 16.0672L96.067 38.35C95.9451 38.4719 95.9451 38.6547 96.067 38.7766C96.1279 38.8375 96.2092 38.8579 96.2701 38.8579C96.3514 38.8579 96.4123 38.8375 96.4732 38.7766L118.756 16.4735C118.878 16.3719 118.878 16.1688 118.756 16.0672Z" fill="#FFF6DB"/>
<path d="M118.919 19.4188C118.797 19.2969 118.614 19.2969 118.492 19.4188L99.4186 38.4922C99.2967 38.6141 99.2967 38.7969 99.4186 38.9188C99.4795 38.9797 99.5607 39 99.6217 39C99.7029 39 99.7639 38.9797 99.8248 38.9188L118.898 19.8454C119.04 19.7235 119.04 19.5407 118.919 19.4188Z" fill="#FFF6DB"/>
<path d="M118.248 23.1969L103.197 38.2484C103.075 38.3703 103.075 38.5531 103.197 38.675C103.258 38.7359 103.339 38.7563 103.4 38.7563C103.481 38.7563 103.542 38.7359 103.603 38.675L118.655 23.6234C118.777 23.5016 118.777 23.3188 118.655 23.1969C118.553 23.075 118.35 23.075 118.248 23.1969Z" fill="#FFF6DB"/>
<path d="M116.075 28.8641L108.864 36.0751C108.742 36.1969 108.742 36.3797 108.864 36.5016C108.925 36.5626 109.006 36.5829 109.067 36.5829C109.128 36.5829 109.209 36.5626 109.27 36.5016L116.481 29.2907C116.603 29.1688 116.603 28.986 116.481 28.8641C116.379 28.7422 116.197 28.7422 116.075 28.8641Z" fill="#FFF6DB"/>
</g>
<g clip-path="url(#clip1_1955_5118)">
<path d="M96.0199 135C92.151 135 89 131.849 89 128.02C89 124.151 92.151 121 96.0199 121C99.8889 121 103.04 124.151 103.04 128.02C103 131.849 99.849 135 96.0199 135ZM96.2991 124.39C94.1852 124.39 92.51 125.946 92.51 127.821C92.51 129.695 94.2251 131.251 96.2991 131.251C98.3732 131.251 100.088 129.695 100.088 127.821C100.088 125.946 98.4131 124.39 96.2991 124.39Z" fill="#212b36"/>
</g>
<path d="M97.2513 62.5C96.5265 62.5 95.8314 62.7897 95.3189 63.3055C94.8064 63.8212 94.5185 64.5207 94.5185 65.25V103.75C94.5185 104.479 94.2306 105.179 93.7181 105.695C93.2056 106.21 92.5105 106.5 91.7857 106.5H42.5952C41.8704 106.5 41.1753 106.21 40.6628 105.695C40.1503 105.179 39.8624 104.479 39.8624 103.75V43.25C39.8624 42.5207 40.1503 41.8212 40.6628 41.3055C41.1753 40.7897 41.8704 40.5 42.5952 40.5H78.1217V54.25C78.1217 54.9793 78.4096 55.6788 78.9221 56.1945C79.4346 56.7103 80.1297 57 80.8545 57H97.2513C97.7941 57.0032 98.3255 56.8436 98.7779 56.5417C99.2302 56.2397 99.5829 55.809 99.7911 55.3046C99.9992 54.8001 100.053 54.2447 99.9466 53.7091C99.8398 53.1736 99.577 52.6821 99.1916 52.2975L83.5873 36.6225V32.25C83.5873 30.062 82.7235 27.9635 81.186 26.4164C79.6485 24.8692 77.5632 24 75.3889 24H26.1984C24.0241 24 21.9388 24.8692 20.4013 26.4164C18.8638 27.9635 18 30.062 18 32.25V92.75C18 94.938 18.8638 97.0365 20.4013 98.5836C21.9388 100.131 24.0241 101 26.1984 101H34.3968V103.75C34.3968 105.938 35.2606 108.036 36.7981 109.584C38.3356 111.131 40.4209 112 42.5952 112H91.7857C93.96 112 96.0453 111.131 97.5828 109.584C99.1203 108.036 99.9841 105.938 99.9841 103.75V65.25C99.9841 64.5207 99.6962 63.8212 99.1837 63.3055C98.6712 62.7897 97.9761 62.5 97.2513 62.5ZM83.5873 51.5V44.3775L90.6652 51.5H83.5873ZM26.1984 95.5C25.4736 95.5 24.7785 95.2103 24.266 94.6945C23.7535 94.1788 23.4656 93.4793 23.4656 92.75V32.25C23.4656 31.5207 23.7535 30.8212 24.266 30.3055C24.7785 29.7897 25.4736 29.5 26.1984 29.5H75.3889C76.1137 29.5 76.8088 29.7897 77.3213 30.3055C77.8338 30.8212 78.1217 31.5207 78.1217 32.25V35H42.5952C40.4209 35 38.3356 35.8692 36.7981 37.4164C35.2606 38.9635 34.3968 41.062 34.3968 43.25V95.5H26.1984Z" fill="#212B36"/>
<path d="M84.2857 96H51.7143C50.9944 96 50.304 95.6839 49.795 95.1213C49.286 94.5587 49 93.7956 49 93C49 92.2044 49.286 91.4413 49.795 90.8787C50.304 90.3161 50.9944 90 51.7143 90H84.2857C85.0056 90 85.696 90.3161 86.205 90.8787C86.714 91.4413 87 92.2044 87 93C87 93.7956 86.714 94.5587 86.205 95.1213C85.696 95.6839 85.0056 96 84.2857 96Z" fill="#212b36"/>
<path d="M84.2857 87H51.7143C50.9944 87 50.304 86.6839 49.795 86.1213C49.286 85.5587 49 84.7956 49 84C49 83.2044 49.286 82.4413 49.795 81.8787C50.304 81.3161 50.9944 81 51.7143 81H84.2857C85.0056 81 85.696 81.3161 86.205 81.8787C86.714 82.4413 87 83.2044 87 84C87 84.7956 86.714 85.5587 86.205 86.1213C85.696 86.6839 85.0056 87 84.2857 87Z" fill="#212b36"/>
<path d="M84.2857 78H51.7143C50.9944 78 50.304 77.6839 49.795 77.1213C49.286 76.5587 49 75.7956 49 75C49 74.2044 49.286 73.4413 49.795 72.8787C50.304 72.3161 50.9944 72 51.7143 72H84.2857C85.0056 72 85.696 72.3161 86.205 72.8787C86.714 73.4413 87 74.2044 87 75C87 75.7956 86.714 76.5587 86.205 77.1213C85.696 77.6839 85.0056 78 84.2857 78Z" fill="#212b36"/>
<path d="M68.0807 69L51.7143 69C50.9944 69 50.304 68.6839 49.795 68.1213C49.286 67.5587 49 66.7956 49 66C49 65.2044 49.286 64.4413 49.795 63.8787C50.304 63.3161 50.9944 63 51.7143 63L68.0807 63C68.8006 63 69.491 63.3161 70 63.8787C70.509 64.4413 70.795 65.2044 70.795 66C70.795 66.7957 70.509 67.5587 70 68.1214C69.491 68.684 68.8006 69 68.0807 69Z" fill="#212b36"/>
<path d="M61.2857 60L51.7143 60C50.9944 60 50.304 59.684 49.795 59.1214C49.286 58.5587 49 57.7957 49 57C49 56.2044 49.286 55.4413 49.795 54.8787C50.304 54.3161 50.9944 54 51.7143 54L61.2857 54C62.0056 54 62.696 54.3161 63.205 54.8787C63.714 55.4413 64 56.2044 64 57C64 57.7956 63.714 58.5587 63.205 59.1213C62.696 59.6839 62.0056 60 61.2857 60Z" fill="#212b36"/>
<defs>
<clipPath id="clip0_1955_5118">
<rect width="39" height="39" fill="white" transform="translate(80)"/>
</clipPath>
<clipPath id="clip1_1955_5118">
<rect width="14" height="14" fill="white" transform="translate(89 121)"/>
</clipPath>
</defs>
</svg>
