<svg width="119" height="135" viewBox="0 0 119 135" fill="none" xmlns="http://www.w3.org/2000/svg">
<path d="M4.2948 15L7 17.8537L9.7052 15L11 16.3659L7 20.5854L3 16.3659L4.2948 15Z" fill="#212B36"/>
<path d="M4.2948 22.9512L7 25.8048L9.7052 22.9512L11 24.317L7 28.5365L3 24.317L4.2948 22.9512Z" fill="#212B36"/>
<path d="M3 31.7805L4.2948 30.4147L7 33.2683L9.7052 30.4147L11 31.7805L7 36L3 31.7805Z" fill="#212B36"/>
<path d="M32.5094 102.981C33.3327 102.981 34 102.314 34 101.49C34 100.667 33.3327 100 32.5094 100C31.6862 100 31.0188 100.667 31.0188 101.49C31.0188 102.314 31.6862 102.981 32.5094 102.981Z" fill="#6851FF"/>
<path d="M34 112.514C34 111.699 33.325 111.024 32.5094 111.024C31.6938 111.024 31.0188 111.699 31.0188 112.514C31.0188 113.33 31.6938 114.005 32.5094 114.005C33.3532 114.005 34 113.33 34 112.514Z" fill="#6851FF"/>
<path d="M34 123.51V123.481V123.453C34 122.638 33.325 121.963 32.5094 121.963C31.6938 121.963 31.0188 122.638 31.0188 123.453V123.481V123.51C31.0188 124.325 31.6938 125 32.5094 125C33.3532 125 34 124.325 34 123.51Z" fill="#6851FF"/>
<path d="M20.4999 102.981C21.3232 102.981 21.9905 102.314 21.9905 101.49C21.9905 100.667 21.3232 100 20.4999 100C19.6767 100 19.0093 100.667 19.0093 101.49C19.0093 102.314 19.6767 102.981 20.4999 102.981Z" fill="#6851FF"/>
<path d="M22.0188 112.514C22.0188 111.699 21.3438 111.024 20.5282 111.024C19.7126 111.024 19.0376 111.699 19.0376 112.514C19.0376 113.33 19.7126 114.005 20.5282 114.005C21.3438 114.005 22.0188 113.33 22.0188 112.514Z" fill="#6851FF"/>
<path d="M22.0188 123.51V123.481V123.453C22.0188 122.638 21.3438 121.963 20.5282 121.963C19.7126 121.963 19.0376 122.638 19.0376 123.453V123.481V123.51C19.0376 124.325 19.7126 125 20.5282 125C21.3438 125 22.0188 124.325 22.0188 123.51Z" fill="#6851FF"/>
<path d="M8.49063 102.981C9.31387 102.981 9.98125 102.314 9.98125 101.49C9.98125 100.667 9.31387 100 8.49063 100C7.66738 100 7 100.667 7 101.49C7 102.314 7.66738 102.981 8.49063 102.981Z" fill="#6851FF"/>
<path d="M10.0093 112.514C10.0093 111.699 9.33433 111.024 8.5187 111.024C7.70308 111.024 7.02808 111.699 7.02808 112.514C7.02808 113.33 7.70308 114.005 8.5187 114.005C9.33433 114.005 10.0093 113.33 10.0093 112.514Z" fill="#6851FF"/>
<path d="M10.0094 123.51V123.481V123.453C10.0094 122.638 9.33438 121.963 8.51875 121.963C7.675 121.935 7 122.61 7 123.425V123.453V123.481C7 124.297 7.675 124.972 8.49063 124.972C9.33438 125 10.0094 124.325 10.0094 123.51Z" fill="#6851FF"/>
<circle cx="59.5" cy="65.5" r="59.5" fill="#F7F5FF"/>
<g clip-path="url(#clip0_2074_4626)">
<path d="M82.7015 10.2173C82.7828 10.2173 82.8437 10.1969 82.9046 10.136L90.1156 2.92507C90.2375 2.8032 90.2375 2.62039 90.1156 2.49851C89.9937 2.37664 89.8109 2.37664 89.689 2.49851L82.4984 9.70945C82.3765 9.83132 82.3765 10.0141 82.4984 10.136C82.5593 10.1969 82.6406 10.2173 82.7015 10.2173Z" fill="#FFF6DB"/>
<path d="M80.5484 15.9047C80.6297 15.9047 80.6906 15.8844 80.7516 15.8235L95.8031 0.751611C95.925 0.629736 95.925 0.446924 95.8031 0.325049C95.6813 0.203174 95.4984 0.203174 95.3766 0.325049L80.3453 15.3969C80.2234 15.5188 80.2234 15.7016 80.3453 15.8235C80.4063 15.8641 80.4875 15.9047 80.5484 15.9047Z" fill="#FFF6DB"/>
<path d="M80.5077 19.5813L99.5812 0.507837C99.703 0.385962 99.703 0.203149 99.5812 0.0812744C99.4593 -0.0406006 99.2765 -0.0406006 99.1546 0.0812744L80.0812 19.1547C79.9593 19.2766 79.9593 19.4594 80.0812 19.5813C80.1421 19.6422 80.2233 19.6625 80.2843 19.6625C80.3452 19.6625 80.4468 19.6422 80.5077 19.5813Z" fill="#FFF6DB"/>
<path d="M102.933 0.24375C102.811 0.121875 102.628 0.121875 102.506 0.24375L80.2438 22.5266C80.1219 22.6484 80.1219 22.8312 80.2438 22.9531C80.3047 23.0141 80.3859 23.0344 80.4469 23.0344C80.5078 23.0344 80.5891 23.0141 80.65 22.9531L102.933 0.65C103.055 0.548438 103.055 0.365625 102.933 0.24375Z" fill="#FFF6DB"/>
<path d="M105.776 0.934424C105.654 0.812549 105.472 0.812549 105.35 0.934424L80.9342 25.35C80.8123 25.4719 80.8123 25.6547 80.9342 25.7766C80.9951 25.8375 81.0764 25.8579 81.1373 25.8579C81.2186 25.8579 81.2795 25.8375 81.3404 25.7766L105.776 1.34067C105.878 1.23911 105.878 1.03599 105.776 0.934424Z" fill="#FFF6DB"/>
<path d="M108.255 1.95005C108.133 1.82817 107.95 1.82817 107.828 1.95005L81.9703 27.8282C81.8484 27.95 81.8484 28.1329 81.9703 28.2547C82.0313 28.3157 82.1125 28.336 82.1734 28.336C82.2547 28.336 82.3156 28.3157 82.3766 28.2547L108.255 2.37661C108.377 2.25474 108.377 2.07192 108.255 1.95005Z" fill="#FFF6DB"/>
<path d="M110.489 3.22971C110.367 3.10784 110.184 3.10784 110.062 3.22971L83.2296 30.0828C83.1077 30.2047 83.1077 30.3875 83.2296 30.5094C83.2905 30.5703 83.3718 30.5907 83.4327 30.5907C83.514 30.5907 83.5749 30.5703 83.6358 30.5094L110.489 3.65627C110.611 3.5344 110.611 3.35159 110.489 3.22971Z" fill="#FFF6DB"/>
<path d="M112.459 4.77341C112.337 4.65154 112.155 4.65154 112.033 4.77341L84.7733 32.0531C84.6514 32.175 84.6514 32.3578 84.7733 32.4797C84.8342 32.5406 84.9155 32.5609 84.9764 32.5609C85.0577 32.5609 85.1186 32.5406 85.1795 32.4797L112.459 5.19998C112.581 5.0781 112.581 4.89529 112.459 4.77341Z" fill="#FFF6DB"/>
<path d="M114.227 6.54063C114.105 6.41875 113.922 6.41875 113.8 6.54063L86.5406 33.8C86.4188 33.9219 86.4188 34.1047 86.5406 34.2266C86.6016 34.2875 86.6828 34.3078 86.7437 34.3078C86.825 34.3078 86.8859 34.2875 86.9469 34.2266L114.227 6.94688C114.348 6.84531 114.348 6.64219 114.227 6.54063Z" fill="#FFF6DB"/>
<path d="M115.77 8.51096C115.648 8.38909 115.466 8.38909 115.344 8.51096L88.5108 35.3438C88.389 35.4657 88.389 35.6485 88.5108 35.7703C88.5718 35.8313 88.653 35.8516 88.714 35.8516C88.7952 35.8516 88.8562 35.8313 88.9171 35.7703L115.77 8.91721C115.892 8.81565 115.892 8.61252 115.77 8.51096Z" fill="#FFF6DB"/>
<path d="M117.05 10.7453C116.928 10.6235 116.745 10.6235 116.623 10.7453L90.7452 36.6235C90.6233 36.7453 90.6233 36.9281 90.7452 37.05C90.8062 37.111 90.8874 37.1313 90.9483 37.1313C91.0093 37.1313 91.0905 37.111 91.1515 37.05L117.05 11.1719C117.151 11.05 117.151 10.8672 117.05 10.7453Z" fill="#FFF6DB"/>
<path d="M118.066 13.2235C117.944 13.1016 117.761 13.1016 117.639 13.2235L93.2437 37.6594C93.1219 37.7813 93.1219 37.9641 93.2437 38.086C93.3047 38.1469 93.3859 38.1672 93.4469 38.1672C93.5281 38.1672 93.5891 38.1469 93.65 38.086L118.066 13.65C118.187 13.5282 118.187 13.3454 118.066 13.2235Z" fill="#FFF6DB"/>
<path d="M118.756 16.0672C118.634 15.9454 118.451 15.9454 118.329 16.0672L96.067 38.35C95.9451 38.4719 95.9451 38.6547 96.067 38.7766C96.1279 38.8375 96.2092 38.8579 96.2701 38.8579C96.3514 38.8579 96.4123 38.8375 96.4732 38.7766L118.756 16.4735C118.878 16.3719 118.878 16.1688 118.756 16.0672Z" fill="#FFF6DB"/>
<path d="M118.919 19.4188C118.797 19.2969 118.614 19.2969 118.492 19.4188L99.4186 38.4922C99.2967 38.6141 99.2967 38.7969 99.4186 38.9188C99.4795 38.9797 99.5607 39 99.6217 39C99.7029 39 99.7639 38.9797 99.8248 38.9188L118.898 19.8454C119.04 19.7235 119.04 19.5407 118.919 19.4188Z" fill="#FFF6DB"/>
<path d="M118.248 23.1969L103.197 38.2484C103.075 38.3703 103.075 38.5531 103.197 38.675C103.258 38.7359 103.339 38.7563 103.4 38.7563C103.481 38.7563 103.542 38.7359 103.603 38.675L118.655 23.6234C118.777 23.5016 118.777 23.3188 118.655 23.1969C118.553 23.075 118.35 23.075 118.248 23.1969Z" fill="#FFF6DB"/>
<path d="M116.075 28.8641L108.864 36.0751C108.742 36.1969 108.742 36.3797 108.864 36.5016C108.925 36.5626 109.006 36.5829 109.067 36.5829C109.128 36.5829 109.209 36.5626 109.27 36.5016L116.481 29.2907C116.603 29.1688 116.603 28.986 116.481 28.8641C116.379 28.7422 116.197 28.7422 116.075 28.8641Z" fill="#FFF6DB"/>
</g>
<g clip-path="url(#clip1_2074_4626)">
<path d="M96.0199 135C92.151 135 89 131.849 89 128.02C89 124.151 92.151 121 96.0199 121C99.8889 121 103.04 124.151 103.04 128.02C103 131.849 99.849 135 96.0199 135ZM96.2991 124.39C94.1852 124.39 92.51 125.946 92.51 127.821C92.51 129.695 94.2251 131.251 96.2991 131.251C98.3732 131.251 100.088 129.695 100.088 127.821C100.088 125.946 98.4131 124.39 96.2991 124.39Z" fill="#6851FF"/>
</g>
<path d="M60 82C66.0751 82 71 77.0751 71 71C71 64.9249 66.0751 60 60 60C53.9249 60 49 64.9249 49 71C49 77.0751 53.9249 82 60 82Z" stroke="#6851FF" stroke-width="5.5" stroke-linecap="round" stroke-linejoin="round"/>
<path d="M87.5818 82.1818C87.0857 83.306 86.9377 84.5531 87.1569 85.7622C87.3761 86.9713 87.9525 88.087 88.8118 88.9655L89.0355 89.1891C89.7286 89.8814 90.2784 90.7036 90.6535 91.6085C91.0287 92.5135 91.2218 93.4835 91.2218 94.4632C91.2218 95.4428 91.0287 96.4129 90.6535 97.3178C90.2784 98.2228 89.7286 99.0449 89.0355 99.7373C88.3431 100.43 87.521 100.98 86.616 101.355C85.711 101.73 84.741 101.924 83.7614 101.924C82.7817 101.924 81.8117 101.73 80.9067 101.355C80.0018 100.98 79.1796 100.43 78.4873 99.7373L78.2636 99.5136C77.3852 98.6544 76.2695 98.0779 75.0604 97.8587C73.8513 97.6395 72.6042 97.7875 71.48 98.2836C70.3776 98.7561 69.4374 99.5406 68.7751 100.541C68.1129 101.541 67.7575 102.712 67.7527 103.912V104.545C67.7527 106.523 66.9673 108.419 65.5693 109.817C64.1713 111.215 62.2753 112 60.2982 112C58.3211 112 56.425 111.215 55.027 109.817C53.629 108.419 52.8436 106.523 52.8436 104.545V104.21C52.8148 102.976 52.4154 101.78 51.6975 100.776C50.9796 99.7723 49.9764 99.0078 48.8182 98.5818C47.694 98.0857 46.4469 97.9377 45.2378 98.1569C44.0287 98.3761 42.913 98.9525 42.0345 99.8118L41.8109 100.035C41.1186 100.729 40.2964 101.278 39.3915 101.654C38.4865 102.029 37.5165 102.222 36.5368 102.222C35.5572 102.222 34.5871 102.029 33.6822 101.654C32.7772 101.278 31.9551 100.729 31.2627 100.035C30.5696 99.3431 30.0198 98.521 29.6446 97.616C29.2695 96.711 29.0764 95.741 29.0764 94.7614C29.0764 93.7817 29.2695 92.8117 29.6446 91.9067C30.0198 91.0018 30.5696 90.1796 31.2627 89.4873L31.4864 89.2636C32.3456 88.3852 32.9221 87.2695 33.1413 86.0604C33.3605 84.8513 33.2125 83.6042 32.7164 82.48C32.2439 81.3776 31.4594 80.4374 30.4594 79.7751C29.4594 79.1129 28.2876 78.7575 27.0882 78.7527H26.4545C24.4775 78.7527 22.5814 77.9673 21.1834 76.5693C19.7854 75.1713 19 73.2753 19 71.2982C19 69.3211 19.7854 67.425 21.1834 66.027C22.5814 64.629 24.4775 63.8436 26.4545 63.8436H26.79C28.0237 63.8148 29.2202 63.4154 30.2239 62.6975C31.2277 61.9796 31.9922 60.9764 32.4182 59.8182C32.9143 58.694 33.0623 57.4469 32.8431 56.2378C32.6239 55.0287 32.0475 53.913 31.1882 53.0345L30.9645 52.8109C30.2714 52.1186 29.7216 51.2964 29.3465 50.3915C28.9713 49.4865 28.7782 48.5165 28.7782 47.5368C28.7782 46.5572 28.9713 45.5871 29.3465 44.6822C29.7216 43.7772 30.2714 42.9551 30.9645 42.2627C31.6569 41.5696 32.479 41.0198 33.384 40.6446C34.289 40.2695 35.259 40.0764 36.2386 40.0764C37.2183 40.0764 38.1883 40.2695 39.0933 40.6446C39.9982 41.0198 40.8204 41.5696 41.5127 42.2627L41.7364 42.4864C42.6148 43.3456 43.7305 43.9221 44.9396 44.1413C46.1487 44.3605 47.3958 44.2125 48.52 43.7164H48.8182C49.9206 43.2439 50.8608 42.4594 51.523 41.4594C52.1853 40.4594 52.5407 39.2876 52.5455 38.0882V37.4545C52.5455 35.4775 53.3308 33.5814 54.7288 32.1834C56.1268 30.7854 58.0229 30 60 30C61.9771 30 63.8732 30.7854 65.2712 32.1834C66.6692 33.5814 67.4545 35.4775 67.4545 37.4545V37.79C67.4593 38.9894 67.8147 40.1612 68.477 41.1612C69.1392 42.1612 70.0794 42.9457 71.1818 43.4182C72.306 43.9143 73.5531 44.0623 74.7622 43.8431C75.9713 43.6239 77.087 43.0475 77.9655 42.1882L78.1891 41.9645C78.8814 41.2714 79.7036 40.7216 80.6085 40.3465C81.5135 39.9713 82.4835 39.7782 83.4632 39.7782C84.4428 39.7782 85.4129 39.9713 86.3178 40.3465C87.2228 40.7216 88.0449 41.2714 88.7373 41.9645C89.4304 42.6569 89.9802 43.479 90.3554 44.384C90.7305 45.289 90.9236 46.259 90.9236 47.2386C90.9236 48.2183 90.7305 49.1883 90.3554 50.0933C89.9802 50.9982 89.4304 51.8204 88.7373 52.5127L88.5136 52.7364C87.6544 53.6148 87.0779 54.7305 86.8587 55.9396C86.6395 57.1487 86.7875 58.3958 87.2836 59.52V59.8182C87.7561 60.9206 88.5406 61.8608 89.5406 62.523C90.5406 63.1853 91.7124 63.5407 92.9118 63.5455H93.5455C95.5225 63.5455 97.4186 64.3308 98.8166 65.7288C100.215 67.1268 101 69.0229 101 71C101 72.9771 100.215 74.8732 98.8166 76.2712C97.4186 77.6692 95.5225 78.4545 93.5455 78.4545H93.21C92.0106 78.4593 90.8388 78.8147 89.8388 79.477C88.8388 80.1392 88.0543 81.0794 87.5818 82.1818V82.1818Z" stroke="#212B36" stroke-width="5.5" stroke-linecap="round" stroke-linejoin="round"/>
<defs>
<clipPath id="clip0_2074_4626">
<rect width="39" height="39" fill="white" transform="translate(80)"/>
</clipPath>
<clipPath id="clip1_2074_4626">
<rect width="14" height="14" fill="white" transform="translate(89 121)"/>
</clipPath>
</defs>
</svg>
