<svg width="138" height="157" viewBox="0 0 138 157" fill="none" xmlns="http://www.w3.org/2000/svg">
<g clip-path="url(#clip0_2096_4521)">
<path d="M4.97034 17.3643L8.10194 20.6677L11.2335 17.3643L12.7324 18.9454L8.10194 23.83L3.47146 18.9454L4.97034 17.3643Z" fill="#212B36"/>
<path d="M4.97034 26.5687L8.10194 29.8722L11.2335 26.5687L12.7324 28.1499L8.10194 33.0345L3.47146 28.1499L4.97034 26.5687Z" fill="#212B36"/>
<path d="M3.47146 36.7896L4.97034 35.2085L8.10194 38.512L11.2335 35.2085L12.7324 36.7896L8.10194 41.6742L3.47146 36.7896Z" fill="#212B36"/>
</g>
<g clip-path="url(#clip1_2096_4521)">
<path d="M37.6338 119.213C38.5868 119.213 39.3594 118.44 39.3594 117.487C39.3594 116.534 38.5868 115.762 37.6338 115.762C36.6808 115.762 35.9082 116.534 35.9082 117.487C35.9082 118.44 36.6808 119.213 37.6338 119.213Z" fill="#6851FF"/>
<path d="M39.3594 130.248C39.3594 129.304 38.578 128.523 37.6338 128.523C36.6896 128.523 35.9082 129.304 35.9082 130.248C35.9082 131.192 36.6896 131.974 37.6338 131.974C38.6105 131.974 39.3594 131.192 39.3594 130.248Z" fill="#6851FF"/>
<path d="M39.3594 142.977V142.945V142.912C39.3594 141.968 38.578 141.187 37.6338 141.187C36.6896 141.187 35.9082 141.968 35.9082 142.912V142.945V142.977C35.9082 143.921 36.6896 144.702 37.6338 144.702C38.6105 144.702 39.3594 143.921 39.3594 142.977Z" fill="#6851FF"/>
<path d="M23.7314 119.213C24.6844 119.213 25.457 118.44 25.457 117.487C25.457 116.534 24.6844 115.762 23.7314 115.762C22.7784 115.762 22.0059 116.534 22.0059 117.487C22.0059 118.44 22.7784 119.213 23.7314 119.213Z" fill="#6851FF"/>
<path d="M25.4902 130.248C25.4902 129.304 24.7088 128.523 23.7646 128.523C22.8205 128.523 22.0391 129.304 22.0391 130.248C22.0391 131.192 22.8205 131.974 23.7646 131.974C24.7088 131.974 25.4902 131.192 25.4902 130.248Z" fill="#6851FF"/>
<path d="M25.4902 142.977V142.945V142.912C25.4902 141.968 24.7088 141.187 23.7646 141.187C22.8205 141.187 22.0391 141.968 22.0391 142.912V142.945V142.977C22.0391 143.921 22.8205 144.702 23.7646 144.702C24.7088 144.702 25.4902 143.921 25.4902 142.977Z" fill="#6851FF"/>
<path d="M9.82909 119.213C10.7821 119.213 11.5547 118.44 11.5547 117.487C11.5547 116.534 10.7821 115.762 9.82909 115.762C8.87608 115.762 8.10352 116.534 8.10352 117.487C8.10352 118.44 8.87608 119.213 9.82909 119.213Z" fill="#6851FF"/>
<path d="M11.5879 130.248C11.5879 129.304 10.8065 128.523 9.8623 128.523C8.91811 128.523 8.13672 129.304 8.13672 130.248C8.13672 131.192 8.91811 131.974 9.8623 131.974C10.8065 131.974 11.5879 131.192 11.5879 130.248Z" fill="#6851FF"/>
<path d="M11.5872 142.977V142.945V142.912C11.5872 141.968 10.8058 141.187 9.86165 141.187C8.88491 141.154 8.10352 141.935 8.10352 142.879V142.912V142.945C8.10352 143.889 8.88491 144.67 9.82909 144.67C10.8058 144.702 11.5872 143.921 11.5872 142.977Z" fill="#6851FF"/>
</g>
<circle cx="68.8784" cy="75.8242" r="68.8784" fill="white"/>
<g clip-path="url(#clip2_2096_4521)">
<path d="M95.7374 11.8276C95.8315 11.8276 95.902 11.8041 95.9726 11.7335L104.32 3.38599C104.461 3.2449 104.461 3.03328 104.32 2.89219C104.179 2.75111 103.967 2.75111 103.826 2.89219L95.5023 11.2397C95.3612 11.3808 95.3612 11.5924 95.5023 11.7335C95.5728 11.8041 95.6669 11.8276 95.7374 11.8276Z" fill="#FFF6DB"/>
<path d="M93.2453 18.4116C93.3393 18.4116 93.4099 18.3881 93.4804 18.3175L110.904 0.869997C111.045 0.728912 111.045 0.517284 110.904 0.376199C110.763 0.235114 110.552 0.235114 110.411 0.376199L93.0101 17.8237C92.869 17.9648 92.869 18.1764 93.0101 18.3175C93.0807 18.3645 93.1747 18.4116 93.2453 18.4116Z" fill="#FFF6DB"/>
<path d="M93.1973 22.6674L115.277 0.587648C115.418 0.446563 115.418 0.234936 115.277 0.0938508C115.136 -0.0472341 114.924 -0.0472341 114.783 0.0938508L92.7035 22.1736C92.5624 22.3147 92.5624 22.5264 92.7035 22.6674C92.774 22.738 92.8681 22.7615 92.9386 22.7615C93.0092 22.7615 93.1267 22.738 93.1973 22.6674Z" fill="#FFF6DB"/>
<path d="M119.156 0.282083C119.015 0.140998 118.804 0.140998 118.662 0.282083L92.891 26.0771C92.7499 26.2182 92.7499 26.4298 92.891 26.5709C92.9615 26.6415 93.0556 26.665 93.1261 26.665C93.1967 26.665 93.2907 26.6415 93.3613 26.5709L119.156 0.752367C119.297 0.634796 119.297 0.423168 119.156 0.282083Z" fill="#FFF6DB"/>
<path d="M122.45 1.08164C122.308 0.940559 122.097 0.940559 121.956 1.08164L93.6918 29.3457C93.5507 29.4867 93.5507 29.6984 93.6918 29.8395C93.7623 29.91 93.8564 29.9335 93.9269 29.9335C94.0209 29.9335 94.0915 29.91 94.162 29.8395L122.45 1.55193C122.567 1.43436 122.567 1.19921 122.45 1.08164Z" fill="#FFF6DB"/>
<path d="M125.318 2.2573C125.177 2.11622 124.966 2.11622 124.825 2.2573L94.891 32.2143C94.7499 32.3554 94.7499 32.5671 94.891 32.7081C94.9615 32.7787 95.0556 32.8022 95.1261 32.8022C95.2202 32.8022 95.2907 32.7787 95.3613 32.7081L125.318 2.7511C125.459 2.61002 125.459 2.39839 125.318 2.2573Z" fill="#FFF6DB"/>
<path d="M127.904 3.73875C127.763 3.59766 127.551 3.59766 127.41 3.73875L96.348 34.8245C96.2069 34.9656 96.2069 35.1772 96.348 35.3183C96.4185 35.3888 96.5126 35.4123 96.5831 35.4123C96.6772 35.4123 96.7477 35.3888 96.8183 35.3183L127.904 4.23255C128.045 4.09146 128.045 3.87983 127.904 3.73875Z" fill="#FFF6DB"/>
<path d="M130.185 5.52586C130.044 5.38477 129.832 5.38477 129.691 5.52586L98.1351 37.1054C97.994 37.2465 97.994 37.4581 98.1351 37.5992C98.2057 37.6697 98.2997 37.6932 98.3703 37.6932C98.4643 37.6932 98.5349 37.6697 98.6054 37.5992L130.185 6.01966C130.326 5.87857 130.326 5.66694 130.185 5.52586Z" fill="#FFF6DB"/>
<path d="M132.232 7.57151C132.091 7.43043 131.879 7.43043 131.738 7.57151L100.182 39.1275C100.041 39.2686 100.041 39.4802 100.182 39.6213C100.253 39.6919 100.347 39.7154 100.417 39.7154C100.511 39.7154 100.582 39.6919 100.652 39.6213L132.232 8.0418C132.373 7.92422 132.373 7.68908 132.232 7.57151Z" fill="#FFF6DB"/>
<path d="M134.017 9.8524C133.876 9.71131 133.665 9.71131 133.523 9.8524L102.461 40.9146C102.32 41.0557 102.32 41.2673 102.461 41.4084C102.532 41.4789 102.626 41.5024 102.696 41.5024C102.79 41.5024 102.861 41.4789 102.932 41.4084L134.017 10.3227C134.158 10.2051 134.158 9.96997 134.017 9.8524Z" fill="#FFF6DB"/>
<path d="M135.5 12.4389C135.359 12.2979 135.147 12.2979 135.006 12.4389L105.049 42.396C104.908 42.5371 104.908 42.7487 105.049 42.8898C105.12 42.9603 105.214 42.9838 105.284 42.9838C105.355 42.9838 105.449 42.9603 105.519 42.8898L135.5 12.9327C135.618 12.7917 135.618 12.58 135.5 12.4389Z" fill="#FFF6DB"/>
<path d="M136.676 15.3077C136.535 15.1666 136.323 15.1666 136.182 15.3077L107.942 43.5953C107.801 43.7363 107.801 43.948 107.942 44.0891C108.012 44.1596 108.106 44.1831 108.177 44.1831C108.271 44.1831 108.341 44.1596 108.412 44.0891L136.676 15.8015C136.817 15.6604 136.817 15.4488 136.676 15.3077Z" fill="#FFF6DB"/>
<path d="M137.475 18.5997C137.334 18.4586 137.122 18.4586 136.981 18.5997L111.209 44.3947C111.068 44.5358 111.068 44.7475 111.209 44.8885C111.28 44.9591 111.374 44.9826 111.444 44.9826C111.539 44.9826 111.609 44.9591 111.68 44.8885L137.475 19.07C137.616 18.9524 137.616 18.7173 137.475 18.5997Z" fill="#FFF6DB"/>
<path d="M137.662 22.4795C137.521 22.3384 137.309 22.3384 137.168 22.4795L115.088 44.5593C114.947 44.7004 114.947 44.912 115.088 45.0531C115.159 45.1236 115.253 45.1471 115.323 45.1471C115.417 45.1471 115.488 45.1236 115.559 45.0531L137.638 22.9733C137.803 22.8322 137.803 22.6206 137.662 22.4795Z" fill="#FFF6DB"/>
<path d="M136.887 26.8531L119.463 44.2771C119.322 44.4182 119.322 44.6298 119.463 44.7709C119.534 44.8415 119.628 44.865 119.698 44.865C119.792 44.865 119.863 44.8415 119.934 44.7709L137.358 27.3469C137.499 27.2058 137.499 26.9942 137.358 26.8531C137.24 26.712 137.005 26.712 136.887 26.8531Z" fill="#FFF6DB"/>
<path d="M134.371 33.4136L126.024 41.7611C125.883 41.9022 125.883 42.1138 126.024 42.2549C126.094 42.3254 126.188 42.3489 126.259 42.3489C126.329 42.3489 126.424 42.3254 126.494 42.2549L134.842 33.9073C134.983 33.7663 134.983 33.5546 134.842 33.4136C134.724 33.2725 134.512 33.2725 134.371 33.4136Z" fill="#FFF6DB"/>
</g>
<g clip-path="url(#clip3_2096_4521)">
<path d="M111.154 156.279C106.675 156.279 103.027 152.631 103.027 148.199C103.027 143.72 106.675 140.072 111.154 140.072C115.633 140.072 119.28 143.72 119.28 148.199C119.234 152.631 115.586 156.279 111.154 156.279ZM111.477 143.997C109.03 143.997 107.091 145.798 107.091 147.968C107.091 150.138 109.076 151.939 111.477 151.939C113.878 151.939 115.863 150.138 115.863 147.968C115.863 145.798 113.924 143.997 111.477 143.997Z" fill="#6851FF"/>
</g>
<path d="M78.622 47.4624C77.6754 47.4624 76.7675 47.8283 76.0981 48.4796C75.4287 49.1309 75.0527 50.0142 75.0527 50.9353V52.255L56.3494 61.3538H46.498C44.6047 61.3538 42.789 62.0856 41.4502 63.3882C40.1115 64.6908 39.3594 66.4574 39.3594 68.2996V75.2453C39.3635 76.6126 39.7823 77.9483 40.5632 79.085C41.3442 80.2218 42.4527 81.1089 43.7496 81.6353L46.6765 90.248C46.9794 91.1231 47.6272 91.8451 48.4773 92.2554C49.3274 92.6658 50.3102 92.7307 51.2095 92.436C52.1089 92.1412 52.851 91.5109 53.2727 90.6838C53.6944 89.8567 53.7612 88.9004 53.4582 88.0254L51.4594 82.191H56.3494L75.0527 91.2899V92.6096C75.0527 93.5307 75.4287 94.414 76.0981 95.0653C76.7675 95.7166 77.6754 96.0825 78.622 96.0825C79.5686 96.0825 80.4765 95.7166 81.1459 95.0653C81.8153 94.414 82.1913 93.5307 82.1913 92.6096V50.9353C82.1913 50.0142 81.8153 49.1309 81.1459 48.4796C80.4765 47.8283 79.5686 47.4624 78.622 47.4624ZM46.498 68.2996H53.6367V75.2453H46.498V68.2996ZM60.7754 76.565V66.9799L75.0527 60.0342V83.5107L60.7754 76.565Z" fill="#6851FF"/>
<path d="M99.5573 67.142H92.6115C91.6905 67.142 90.8071 67.5688 90.1558 68.3287C89.5046 69.0885 89.1387 70.1191 89.1387 71.1936C89.1387 72.2682 89.5046 73.2988 90.1558 74.0586C90.8071 74.8184 91.6905 75.2453 92.6115 75.2453H99.5573C100.478 75.2453 101.362 74.8184 102.013 74.0586C102.664 73.2988 103.03 72.2682 103.03 71.1936C103.03 70.1191 102.664 69.0885 102.013 68.3287C101.362 67.5688 100.478 67.142 99.5573 67.142Z" fill="#6851FF"/>
<path d="M92.6202 60.1962C94.4202 60.1962 94.8702 59.3986 98.5393 55.7224C98.862 55.399 99.118 55.0151 99.2927 54.5926C99.4674 54.1701 99.5573 53.7173 99.5573 53.26C99.5573 52.8027 99.4674 52.3499 99.2927 51.9274C99.118 51.5049 98.862 51.121 98.5393 50.7977C98.2165 50.4743 97.8334 50.2178 97.4117 50.0428C96.99 49.8678 96.5381 49.7777 96.0817 49.7777C95.6252 49.7777 95.1733 49.8678 94.7516 50.0428C94.3299 50.2178 93.9468 50.4743 93.6241 50.7977L90.1626 54.2658C89.6745 54.7509 89.3415 55.3706 89.2063 56.046C89.0711 56.7214 89.1396 57.4219 89.4033 58.0581C89.6669 58.6943 90.1137 59.2374 90.6866 59.6182C91.2596 59.999 91.9327 60.2002 92.6202 60.1962Z" fill="#6851FF"/>
<path d="M95.0719 83.2111C94.4201 82.558 93.536 82.1912 92.6143 82.1912C91.6925 82.1912 90.8085 82.558 90.1567 83.2111C89.5049 83.8642 89.1387 84.7499 89.1387 85.6735C89.1387 86.597 89.5049 87.4828 90.1567 88.1358C93.6181 91.6039 94.2411 92.6097 96.0757 92.6097C96.7632 92.6137 97.4364 92.4125 98.0093 92.0317C98.5822 91.6509 99.029 91.1077 99.2926 90.4715C99.5563 89.8353 99.6249 89.1349 99.4896 88.4595C99.3544 87.7841 99.0215 87.1643 98.5333 86.6792L95.0719 83.2111Z" fill="#6851FF"/>
<path d="M122.709 102.761H28.9422V42.9656C28.9422 42.0327 29.3081 41.1381 29.9594 40.4784C30.6107 39.8188 31.494 39.4482 32.4151 39.4482H108.818C109.739 39.4482 110.622 39.8188 111.274 40.4784C111.925 41.1381 112.291 42.0327 112.291 42.9656V92.209C112.291 93.1419 112.657 94.0365 113.308 94.6962C113.959 95.3558 114.843 95.7264 115.764 95.7264C116.685 95.7264 117.568 95.3558 118.219 94.6962C118.871 94.0365 119.237 93.1419 119.237 92.209V42.9656C119.237 40.167 118.139 37.483 116.185 35.5041C114.231 33.5252 111.581 32.4135 108.818 32.4135H32.4151C29.6519 32.4135 27.0019 33.5252 25.048 35.5041C23.0942 37.483 21.9965 40.167 21.9965 42.9656V102.761H18.5236C17.6026 102.761 16.7192 103.132 16.068 103.791C15.4167 104.451 15.0508 105.346 15.0508 106.279V113.313C15.0508 116.112 16.1485 118.796 18.1023 120.775C20.0562 122.754 22.7062 123.865 25.4694 123.865H115.764C118.527 123.865 121.177 122.754 123.131 120.775C125.085 118.796 126.182 116.112 126.182 113.313V106.279C126.182 105.346 125.816 104.451 125.165 103.791C124.514 103.132 123.631 102.761 122.709 102.761ZM119.237 113.313C119.237 114.246 118.871 115.141 118.219 115.8C117.568 116.46 116.685 116.831 115.764 116.831H25.4694C24.5483 116.831 23.665 116.46 23.0137 115.8C22.3624 115.141 21.9965 114.246 21.9965 113.313V109.796H119.237V113.313Z" fill="#212B36"/>
<defs>
<clipPath id="clip0_2096_4521">
<rect width="9.26096" height="24.31" fill="white" transform="matrix(-1 0 0 1 12.7324 17.3643)"/>
</clipPath>
<clipPath id="clip1_2096_4521">
<rect width="31.2557" height="28.9405" fill="white" transform="translate(8.10352 115.762)"/>
</clipPath>
<clipPath id="clip2_2096_4521">
<rect width="45.1472" height="45.1472" fill="white" transform="translate(92.6094)"/>
</clipPath>
<clipPath id="clip3_2096_4521">
<rect width="16.2067" height="16.2067" fill="white" transform="translate(103.027 140.072)"/>
</clipPath>
</defs>
</svg>
