<svg width="119" height="135" viewBox="0 0 119 135" fill="none" xmlns="http://www.w3.org/2000/svg">
<path d="M4.2948 15L7 17.8537L9.7052 15L11 16.3659L7 20.5854L3 16.3659L4.2948 15Z" fill="#212B36"/>
<path d="M4.2948 22.9512L7 25.8048L9.7052 22.9512L11 24.317L7 28.5365L3 24.317L4.2948 22.9512Z" fill="#212B36"/>
<path d="M3 31.7805L4.2948 30.4147L7 33.2683L9.7052 30.4147L11 31.7805L7 36L3 31.7805Z" fill="#212B36"/>
<path d="M32.5094 102.981C33.3327 102.981 34 102.314 34 101.49C34 100.667 33.3327 100 32.5094 100C31.6862 100 31.0188 100.667 31.0188 101.49C31.0188 102.314 31.6862 102.981 32.5094 102.981Z" fill="#6851FF"/>
<path d="M34 112.514C34 111.699 33.325 111.024 32.5094 111.024C31.6938 111.024 31.0188 111.699 31.0188 112.514C31.0188 113.33 31.6938 114.005 32.5094 114.005C33.3532 114.005 34 113.33 34 112.514Z" fill="#6851FF"/>
<path d="M34 123.51V123.481V123.453C34 122.638 33.325 121.963 32.5094 121.963C31.6938 121.963 31.0188 122.638 31.0188 123.453V123.481V123.51C31.0188 124.325 31.6938 125 32.5094 125C33.3532 125 34 124.325 34 123.51Z" fill="#6851FF"/>
<path d="M20.4999 102.981C21.3232 102.981 21.9905 102.314 21.9905 101.49C21.9905 100.667 21.3232 100 20.4999 100C19.6767 100 19.0093 100.667 19.0093 101.49C19.0093 102.314 19.6767 102.981 20.4999 102.981Z" fill="#6851FF"/>
<path d="M22.0188 112.514C22.0188 111.699 21.3438 111.024 20.5282 111.024C19.7126 111.024 19.0376 111.699 19.0376 112.514C19.0376 113.33 19.7126 114.005 20.5282 114.005C21.3438 114.005 22.0188 113.33 22.0188 112.514Z" fill="#6851FF"/>
<path d="M22.0188 123.51V123.481V123.453C22.0188 122.638 21.3438 121.963 20.5282 121.963C19.7126 121.963 19.0376 122.638 19.0376 123.453V123.481V123.51C19.0376 124.325 19.7126 125 20.5282 125C21.3438 125 22.0188 124.325 22.0188 123.51Z" fill="#6851FF"/>
<path d="M8.49063 102.981C9.31387 102.981 9.98125 102.314 9.98125 101.49C9.98125 100.667 9.31387 100 8.49063 100C7.66738 100 7 100.667 7 101.49C7 102.314 7.66738 102.981 8.49063 102.981Z" fill="#6851FF"/>
<path d="M10.0093 112.514C10.0093 111.699 9.33433 111.024 8.5187 111.024C7.70308 111.024 7.02808 111.699 7.02808 112.514C7.02808 113.33 7.70308 114.005 8.5187 114.005C9.33433 114.005 10.0093 113.33 10.0093 112.514Z" fill="#6851FF"/>
<path d="M10.0094 123.51V123.481V123.453C10.0094 122.638 9.33438 121.963 8.51875 121.963C7.675 121.935 7 122.61 7 123.425V123.453V123.481C7 124.297 7.675 124.972 8.49063 124.972C9.33438 125 10.0094 124.325 10.0094 123.51Z" fill="#6851FF"/>
<circle cx="59.5" cy="65.5" r="59.5" fill="#F4F2FC"/>
<g clip-path="url(#clip0_1955_4940)">
<path d="M82.7015 10.2173C82.7828 10.2173 82.8437 10.1969 82.9046 10.136L90.1156 2.92507C90.2375 2.8032 90.2375 2.62039 90.1156 2.49851C89.9937 2.37664 89.8109 2.37664 89.689 2.49851L82.4984 9.70945C82.3765 9.83132 82.3765 10.0141 82.4984 10.136C82.5593 10.1969 82.6406 10.2173 82.7015 10.2173Z" fill="#FFF6DB"/>
<path d="M80.5484 15.9047C80.6297 15.9047 80.6906 15.8844 80.7516 15.8235L95.8031 0.751611C95.925 0.629736 95.925 0.446924 95.8031 0.325049C95.6813 0.203174 95.4984 0.203174 95.3766 0.325049L80.3453 15.3969C80.2234 15.5188 80.2234 15.7016 80.3453 15.8235C80.4063 15.8641 80.4875 15.9047 80.5484 15.9047Z" fill="#FFF6DB"/>
<path d="M80.5077 19.5813L99.5812 0.507837C99.703 0.385962 99.703 0.203149 99.5812 0.0812744C99.4593 -0.0406006 99.2765 -0.0406006 99.1546 0.0812744L80.0812 19.1547C79.9593 19.2766 79.9593 19.4594 80.0812 19.5813C80.1421 19.6422 80.2233 19.6625 80.2843 19.6625C80.3452 19.6625 80.4468 19.6422 80.5077 19.5813Z" fill="#FFF6DB"/>
<path d="M102.933 0.24375C102.811 0.121875 102.628 0.121875 102.506 0.24375L80.2438 22.5266C80.1219 22.6484 80.1219 22.8312 80.2438 22.9531C80.3047 23.0141 80.3859 23.0344 80.4469 23.0344C80.5078 23.0344 80.5891 23.0141 80.65 22.9531L102.933 0.65C103.055 0.548438 103.055 0.365625 102.933 0.24375Z" fill="#FFF6DB"/>
<path d="M105.776 0.934424C105.654 0.812549 105.472 0.812549 105.35 0.934424L80.9342 25.35C80.8123 25.4719 80.8123 25.6547 80.9342 25.7766C80.9951 25.8375 81.0764 25.8579 81.1373 25.8579C81.2186 25.8579 81.2795 25.8375 81.3404 25.7766L105.776 1.34067C105.878 1.23911 105.878 1.03599 105.776 0.934424Z" fill="#FFF6DB"/>
<path d="M108.255 1.95005C108.133 1.82817 107.95 1.82817 107.828 1.95005L81.9703 27.8282C81.8484 27.95 81.8484 28.1329 81.9703 28.2547C82.0313 28.3157 82.1125 28.336 82.1734 28.336C82.2547 28.336 82.3156 28.3157 82.3766 28.2547L108.255 2.37661C108.377 2.25474 108.377 2.07192 108.255 1.95005Z" fill="#FFF6DB"/>
<path d="M110.489 3.22971C110.367 3.10784 110.184 3.10784 110.062 3.22971L83.2296 30.0828C83.1077 30.2047 83.1077 30.3875 83.2296 30.5094C83.2905 30.5703 83.3718 30.5907 83.4327 30.5907C83.514 30.5907 83.5749 30.5703 83.6358 30.5094L110.489 3.65627C110.611 3.5344 110.611 3.35159 110.489 3.22971Z" fill="#FFF6DB"/>
<path d="M112.459 4.77341C112.337 4.65154 112.155 4.65154 112.033 4.77341L84.7733 32.0531C84.6514 32.175 84.6514 32.3578 84.7733 32.4797C84.8342 32.5406 84.9155 32.5609 84.9764 32.5609C85.0577 32.5609 85.1186 32.5406 85.1795 32.4797L112.459 5.19998C112.581 5.0781 112.581 4.89529 112.459 4.77341Z" fill="#FFF6DB"/>
<path d="M114.227 6.54063C114.105 6.41875 113.922 6.41875 113.8 6.54063L86.5406 33.8C86.4188 33.9219 86.4188 34.1047 86.5406 34.2266C86.6016 34.2875 86.6828 34.3078 86.7437 34.3078C86.825 34.3078 86.8859 34.2875 86.9469 34.2266L114.227 6.94688C114.348 6.84531 114.348 6.64219 114.227 6.54063Z" fill="#FFF6DB"/>
<path d="M115.77 8.51096C115.648 8.38909 115.466 8.38909 115.344 8.51096L88.5108 35.3438C88.389 35.4657 88.389 35.6485 88.5108 35.7703C88.5718 35.8313 88.653 35.8516 88.714 35.8516C88.7952 35.8516 88.8562 35.8313 88.9171 35.7703L115.77 8.91721C115.892 8.81565 115.892 8.61252 115.77 8.51096Z" fill="#FFF6DB"/>
<path d="M117.05 10.7453C116.928 10.6235 116.745 10.6235 116.623 10.7453L90.7452 36.6235C90.6233 36.7453 90.6233 36.9281 90.7452 37.05C90.8062 37.111 90.8874 37.1313 90.9483 37.1313C91.0093 37.1313 91.0905 37.111 91.1515 37.05L117.05 11.1719C117.151 11.05 117.151 10.8672 117.05 10.7453Z" fill="#FFF6DB"/>
<path d="M118.066 13.2235C117.944 13.1016 117.761 13.1016 117.639 13.2235L93.2437 37.6594C93.1219 37.7813 93.1219 37.9641 93.2437 38.086C93.3047 38.1469 93.3859 38.1672 93.4469 38.1672C93.5281 38.1672 93.5891 38.1469 93.65 38.086L118.066 13.65C118.187 13.5282 118.187 13.3454 118.066 13.2235Z" fill="#FFF6DB"/>
<path d="M118.756 16.0672C118.634 15.9454 118.451 15.9454 118.329 16.0672L96.067 38.35C95.9451 38.4719 95.9451 38.6547 96.067 38.7766C96.1279 38.8375 96.2092 38.8579 96.2701 38.8579C96.3514 38.8579 96.4123 38.8375 96.4732 38.7766L118.756 16.4735C118.878 16.3719 118.878 16.1688 118.756 16.0672Z" fill="#FFF6DB"/>
<path d="M118.919 19.4188C118.797 19.2969 118.614 19.2969 118.492 19.4188L99.4186 38.4922C99.2967 38.6141 99.2967 38.7969 99.4186 38.9188C99.4795 38.9797 99.5607 39 99.6217 39C99.7029 39 99.7639 38.9797 99.8248 38.9188L118.898 19.8454C119.04 19.7235 119.04 19.5407 118.919 19.4188Z" fill="#FFF6DB"/>
<path d="M118.248 23.1969L103.197 38.2484C103.075 38.3703 103.075 38.5531 103.197 38.675C103.258 38.7359 103.339 38.7563 103.4 38.7563C103.481 38.7563 103.542 38.7359 103.603 38.675L118.655 23.6234C118.777 23.5016 118.777 23.3188 118.655 23.1969C118.553 23.075 118.35 23.075 118.248 23.1969Z" fill="#FFF6DB"/>
<path d="M116.075 28.8641L108.864 36.0751C108.742 36.1969 108.742 36.3797 108.864 36.5016C108.925 36.5626 109.006 36.5829 109.067 36.5829C109.128 36.5829 109.209 36.5626 109.27 36.5016L116.481 29.2907C116.603 29.1688 116.603 28.986 116.481 28.8641C116.379 28.7422 116.197 28.7422 116.075 28.8641Z" fill="#FFF6DB"/>
</g>
<path d="M91.0938 35.125C90.5437 35.125 90.0059 35.2881 89.5486 35.5937C89.0912 35.8993 88.7347 36.3337 88.5242 36.8419C88.3137 37.3501 88.2586 37.9093 88.3659 38.4488C88.4733 38.9884 88.7381 39.4839 89.1271 39.8729C89.5161 40.2619 90.0116 40.5267 90.5512 40.6341C91.0907 40.7414 91.6499 40.6863 92.1581 40.4758C92.6663 40.2653 93.1007 39.9088 93.4063 39.4514C93.7119 38.9941 93.875 38.4563 93.875 37.9063C93.875 37.1686 93.582 36.4612 93.0604 35.9396C92.5388 35.418 91.8314 35.125 91.0938 35.125Z" fill="#6851FF"/>
<path d="M79.9688 35.125C79.4187 35.125 78.8809 35.2881 78.4236 35.5937C77.9662 35.8993 77.6097 36.3337 77.3992 36.8419C77.1887 37.3501 77.1336 37.9093 77.2409 38.4488C77.3483 38.9884 77.6131 39.4839 78.0021 39.8729C78.3911 40.2619 78.8866 40.5267 79.4262 40.6341C79.9657 40.7414 80.5249 40.6863 81.0331 40.4758C81.5413 40.2653 81.9757 39.9088 82.2813 39.4514C82.5869 38.9941 82.75 38.4563 82.75 37.9063C82.75 37.1686 82.457 36.4612 81.9354 35.9396C81.4138 35.418 80.7064 35.125 79.9688 35.125Z" fill="#6851FF"/>
<path d="M68.8438 35.125C68.2937 35.125 67.7559 35.2881 67.2986 35.5937C66.8412 35.8993 66.4847 36.3337 66.2742 36.8419C66.0637 37.3501 66.0086 37.9093 66.1159 38.4488C66.2233 38.9884 66.4881 39.4839 66.8771 39.8729C67.2661 40.2619 67.7616 40.5267 68.3012 40.6341C68.8407 40.7414 69.3999 40.6863 69.9081 40.4758C70.4163 40.2653 70.8507 39.9088 71.1563 39.4514C71.4619 38.9941 71.625 38.4563 71.625 37.9063C71.625 37.1686 71.332 36.4612 70.8104 35.9396C70.2888 35.418 69.5814 35.125 68.8438 35.125Z" fill="#6851FF"/>
<path d="M101.25 51.5C101.979 51.5 102.679 51.2103 103.195 50.6945C103.71 50.1788 104 49.4793 104 48.75V32.25C104 30.062 103.131 27.9635 101.584 26.4164C100.036 24.8692 97.938 24 95.75 24H24.25C22.062 24 19.9635 24.8692 18.4164 26.4164C16.8692 27.9635 16 30.062 16 32.25V103.75C16 105.938 16.8692 108.036 18.4164 109.584C19.9635 111.131 22.062 112 24.25 112H95.75C97.938 112 100.036 111.131 101.584 109.584C103.131 108.036 104 105.938 104 103.75V59.75C104 59.0207 103.71 58.3212 103.195 57.8055C102.679 57.2897 101.979 57 101.25 57C100.521 57 99.8212 57.2897 99.3055 57.8055C98.7897 58.3212 98.5 59.0207 98.5 59.75V103.75C98.5 104.479 98.2103 105.179 97.6945 105.695C97.1788 106.21 96.4793 106.5 95.75 106.5H24.25C23.5207 106.5 22.8212 106.21 22.3055 105.695C21.7897 105.179 21.5 104.479 21.5 103.75V51.5H101.25ZM21.5 32.25C21.5 31.5207 21.7897 30.8212 22.3055 30.3055C22.8212 29.7897 23.5207 29.5 24.25 29.5H95.75C96.4793 29.5 97.1788 29.7897 97.6945 30.3055C98.2103 30.8212 98.5 31.5207 98.5 32.25V46H21.5V32.25Z" fill="#212B36"/>
<path d="M90.25 79H68.25C67.5207 79 66.8212 78.7103 66.3055 78.1945C65.7897 77.6788 65.5 76.9793 65.5 76.25V59.75C65.5 59.0207 65.7897 58.3212 66.3055 57.8055C66.8212 57.2897 67.5207 57 68.25 57H90.25C90.9793 57 91.6788 57.2897 92.1945 57.8055C92.7103 58.3212 93 59.0207 93 59.75V76.25C93 76.9793 92.7103 77.6788 92.1945 78.1945C91.6788 78.7103 90.9793 79 90.25 79ZM71 73.5H87.5V62.5H71V73.5Z" fill="#212B36"/>
<path d="M90.25 101H68.25C67.5207 101 66.8212 100.71 66.3055 100.195C65.7897 99.6788 65.5 98.9793 65.5 98.25C65.5 97.5207 65.7897 96.8212 66.3055 96.3055C66.8212 95.7897 67.5207 95.5 68.25 95.5H90.25C90.9793 95.5 91.6788 95.7897 92.1945 96.3055C92.7103 96.8212 93 97.5207 93 98.25C93 98.9793 92.7103 99.6788 92.1945 100.195C91.6788 100.71 90.9793 101 90.25 101Z" fill="#212B36"/>
<path d="M90.25 90H68.25C67.5207 90 66.8212 89.7103 66.3055 89.1945C65.7897 88.6788 65.5 87.9793 65.5 87.25C65.5 86.5207 65.7897 85.8212 66.3055 85.3055C66.8212 84.7897 67.5207 84.5 68.25 84.5H90.25C90.9793 84.5 91.6788 84.7897 92.1945 85.3055C92.7103 85.8212 93 86.5207 93 87.25C93 87.9793 92.7103 88.6788 92.1945 89.1945C91.6788 89.7103 90.9793 90 90.25 90Z" fill="#212B36"/>
<path d="M59.9999 59.75C59.9599 59.4903 59.9048 59.2332 59.8349 58.98C59.7568 58.6488 59.6066 58.3389 59.3949 58.0725C59.2266 57.8747 59.0427 57.6908 58.8449 57.5225C58.5982 57.3829 58.3407 57.2633 58.0749 57.165L57.2499 57C27.6324 57 29.3649 57 28.4299 57.385C26.4224 58.5125 26.9999 57 26.9999 98.25C27.0398 98.5097 27.0949 98.7668 27.1649 99.02C27.2429 99.3512 27.3932 99.6611 27.6049 99.9275C27.7732 100.125 27.9571 100.309 28.1549 100.477C28.6292 100.793 29.1806 100.974 29.7499 101C59.9999 101 57.8824 101.275 59.0099 100.312C59.5492 99.8432 59.8845 99.1824 59.9449 98.47C59.9999 97.645 59.9999 104.19 59.9999 59.75ZM40.1174 79L32.4999 89.67V68.33L40.1174 79ZM35.0849 62.5H51.9149L43.4999 74.27L35.0849 62.5ZM43.4999 83.73L51.9149 95.5H35.0849L43.4999 83.73ZM46.8824 79L54.4999 68.33V89.67L46.8824 79Z" fill="#6851FF"/>
<g clip-path="url(#clip1_1955_4940)">
<path d="M96.0199 135C92.151 135 89 131.849 89 128.02C89 124.151 92.151 121 96.0199 121C99.8889 121 103.04 124.151 103.04 128.02C103 131.849 99.849 135 96.0199 135ZM96.2991 124.39C94.1852 124.39 92.51 125.946 92.51 127.821C92.51 129.695 94.2251 131.251 96.2991 131.251C98.3732 131.251 100.088 129.695 100.088 127.821C100.088 125.946 98.4131 124.39 96.2991 124.39Z" fill="#6851FF"/>
</g>
<defs>
<clipPath id="clip0_1955_4940">
<rect width="39" height="39" fill="white" transform="translate(80)"/>
</clipPath>
<clipPath id="clip1_1955_4940">
<rect width="14" height="14" fill="white" transform="translate(89 121)"/>
</clipPath>
</defs>
</svg>
