<svg width="138" height="157" viewBox="0 0 138 157" fill="none" xmlns="http://www.w3.org/2000/svg">
<g clip-path="url(#clip0_2096_4614)">
<path d="M4.97034 17.3643L8.10194 20.6677L11.2335 17.3643L12.7324 18.9454L8.10194 23.83L3.47146 18.9454L4.97034 17.3643Z" fill="#212B36"/>
<path d="M4.97034 26.5687L8.10194 29.8722L11.2335 26.5687L12.7324 28.1499L8.10194 33.0345L3.47146 28.1499L4.97034 26.5687Z" fill="#212B36"/>
<path d="M3.47146 36.7896L4.97034 35.2085L8.10194 38.512L11.2335 35.2085L12.7324 36.7896L8.10194 41.6742L3.47146 36.7896Z" fill="#212B36"/>
</g>
<g clip-path="url(#clip1_2096_4614)">
<path d="M37.6338 119.213C38.5868 119.213 39.3594 118.44 39.3594 117.487C39.3594 116.534 38.5868 115.762 37.6338 115.762C36.6808 115.762 35.9082 116.534 35.9082 117.487C35.9082 118.44 36.6808 119.213 37.6338 119.213Z" fill="#6851FF"/>
<path d="M39.3594 130.248C39.3594 129.304 38.578 128.523 37.6338 128.523C36.6896 128.523 35.9082 129.304 35.9082 130.248C35.9082 131.192 36.6896 131.974 37.6338 131.974C38.6105 131.974 39.3594 131.192 39.3594 130.248Z" fill="#6851FF"/>
<path d="M39.3594 142.977V142.945V142.912C39.3594 141.968 38.578 141.187 37.6338 141.187C36.6896 141.187 35.9082 141.968 35.9082 142.912V142.945V142.977C35.9082 143.921 36.6896 144.702 37.6338 144.702C38.6105 144.702 39.3594 143.921 39.3594 142.977Z" fill="#6851FF"/>
<path d="M23.7314 119.213C24.6844 119.213 25.457 118.44 25.457 117.487C25.457 116.534 24.6844 115.762 23.7314 115.762C22.7784 115.762 22.0059 116.534 22.0059 117.487C22.0059 118.44 22.7784 119.213 23.7314 119.213Z" fill="#6851FF"/>
<path d="M25.4902 130.248C25.4902 129.304 24.7088 128.523 23.7646 128.523C22.8205 128.523 22.0391 129.304 22.0391 130.248C22.0391 131.192 22.8205 131.974 23.7646 131.974C24.7088 131.974 25.4902 131.192 25.4902 130.248Z" fill="#6851FF"/>
<path d="M25.4902 142.977V142.945V142.912C25.4902 141.968 24.7088 141.187 23.7646 141.187C22.8205 141.187 22.0391 141.968 22.0391 142.912V142.945V142.977C22.0391 143.921 22.8205 144.702 23.7646 144.702C24.7088 144.702 25.4902 143.921 25.4902 142.977Z" fill="#6851FF"/>
<path d="M9.82909 119.213C10.7821 119.213 11.5547 118.44 11.5547 117.487C11.5547 116.534 10.7821 115.762 9.82909 115.762C8.87608 115.762 8.10352 116.534 8.10352 117.487C8.10352 118.44 8.87608 119.213 9.82909 119.213Z" fill="#6851FF"/>
<path d="M11.5879 130.248C11.5879 129.304 10.8065 128.523 9.8623 128.523C8.91811 128.523 8.13672 129.304 8.13672 130.248C8.13672 131.192 8.91811 131.974 9.8623 131.974C10.8065 131.974 11.5879 131.192 11.5879 130.248Z" fill="#6851FF"/>
<path d="M11.5872 142.977V142.945V142.912C11.5872 141.968 10.8058 141.187 9.86165 141.187C8.88491 141.154 8.10352 141.935 8.10352 142.879V142.912V142.945C8.10352 143.889 8.88491 144.67 9.82909 144.67C10.8058 144.702 11.5872 143.921 11.5872 142.977Z" fill="#6851FF"/>
</g>
<circle cx="68.8784" cy="75.8242" r="68.8784" fill="white"/>
<g clip-path="url(#clip2_2096_4614)">
<path d="M95.7374 11.8276C95.8315 11.8276 95.902 11.8041 95.9726 11.7335L104.32 3.38599C104.461 3.2449 104.461 3.03328 104.32 2.89219C104.179 2.75111 103.967 2.75111 103.826 2.89219L95.5023 11.2397C95.3612 11.3808 95.3612 11.5924 95.5023 11.7335C95.5728 11.8041 95.6669 11.8276 95.7374 11.8276Z" fill="#FFF6DB"/>
<path d="M93.2453 18.4116C93.3393 18.4116 93.4099 18.3881 93.4804 18.3175L110.904 0.869997C111.045 0.728912 111.045 0.517284 110.904 0.376199C110.763 0.235114 110.552 0.235114 110.411 0.376199L93.0101 17.8237C92.869 17.9648 92.869 18.1764 93.0101 18.3175C93.0807 18.3645 93.1747 18.4116 93.2453 18.4116Z" fill="#FFF6DB"/>
<path d="M93.1973 22.6674L115.277 0.587648C115.418 0.446563 115.418 0.234936 115.277 0.0938508C115.136 -0.0472341 114.924 -0.0472341 114.783 0.0938508L92.7035 22.1736C92.5624 22.3147 92.5624 22.5264 92.7035 22.6674C92.774 22.738 92.8681 22.7615 92.9386 22.7615C93.0092 22.7615 93.1267 22.738 93.1973 22.6674Z" fill="#FFF6DB"/>
<path d="M119.156 0.282083C119.015 0.140998 118.804 0.140998 118.662 0.282083L92.891 26.0771C92.7499 26.2182 92.7499 26.4298 92.891 26.5709C92.9615 26.6415 93.0556 26.665 93.1261 26.665C93.1967 26.665 93.2907 26.6415 93.3613 26.5709L119.156 0.752367C119.297 0.634796 119.297 0.423168 119.156 0.282083Z" fill="#FFF6DB"/>
<path d="M122.45 1.08164C122.308 0.940559 122.097 0.940559 121.956 1.08164L93.6918 29.3457C93.5507 29.4867 93.5507 29.6984 93.6918 29.8395C93.7623 29.91 93.8564 29.9335 93.9269 29.9335C94.0209 29.9335 94.0915 29.91 94.162 29.8395L122.45 1.55193C122.567 1.43436 122.567 1.19921 122.45 1.08164Z" fill="#FFF6DB"/>
<path d="M125.318 2.2573C125.177 2.11622 124.966 2.11622 124.825 2.2573L94.891 32.2143C94.7499 32.3554 94.7499 32.5671 94.891 32.7081C94.9615 32.7787 95.0556 32.8022 95.1261 32.8022C95.2202 32.8022 95.2907 32.7787 95.3613 32.7081L125.318 2.7511C125.459 2.61002 125.459 2.39839 125.318 2.2573Z" fill="#FFF6DB"/>
<path d="M127.904 3.73875C127.763 3.59766 127.551 3.59766 127.41 3.73875L96.348 34.8245C96.2069 34.9656 96.2069 35.1772 96.348 35.3183C96.4185 35.3888 96.5126 35.4123 96.5831 35.4123C96.6772 35.4123 96.7477 35.3888 96.8183 35.3183L127.904 4.23255C128.045 4.09146 128.045 3.87983 127.904 3.73875Z" fill="#FFF6DB"/>
<path d="M130.185 5.52586C130.044 5.38477 129.832 5.38477 129.691 5.52586L98.1351 37.1054C97.994 37.2465 97.994 37.4581 98.1351 37.5992C98.2057 37.6697 98.2997 37.6932 98.3703 37.6932C98.4643 37.6932 98.5349 37.6697 98.6054 37.5992L130.185 6.01966C130.326 5.87857 130.326 5.66694 130.185 5.52586Z" fill="#FFF6DB"/>
<path d="M132.232 7.57151C132.091 7.43043 131.879 7.43043 131.738 7.57151L100.182 39.1275C100.041 39.2686 100.041 39.4802 100.182 39.6213C100.253 39.6919 100.347 39.7154 100.417 39.7154C100.511 39.7154 100.582 39.6919 100.652 39.6213L132.232 8.0418C132.373 7.92422 132.373 7.68908 132.232 7.57151Z" fill="#FFF6DB"/>
<path d="M134.017 9.8524C133.876 9.71131 133.665 9.71131 133.523 9.8524L102.461 40.9146C102.32 41.0557 102.32 41.2673 102.461 41.4084C102.532 41.4789 102.626 41.5024 102.696 41.5024C102.79 41.5024 102.861 41.4789 102.932 41.4084L134.017 10.3227C134.158 10.2051 134.158 9.96997 134.017 9.8524Z" fill="#FFF6DB"/>
<path d="M135.5 12.4389C135.359 12.2979 135.147 12.2979 135.006 12.4389L105.049 42.396C104.908 42.5371 104.908 42.7487 105.049 42.8898C105.12 42.9603 105.214 42.9838 105.284 42.9838C105.355 42.9838 105.449 42.9603 105.519 42.8898L135.5 12.9327C135.618 12.7917 135.618 12.58 135.5 12.4389Z" fill="#FFF6DB"/>
<path d="M136.676 15.3077C136.535 15.1666 136.323 15.1666 136.182 15.3077L107.942 43.5953C107.801 43.7363 107.801 43.948 107.942 44.0891C108.012 44.1596 108.106 44.1831 108.177 44.1831C108.271 44.1831 108.341 44.1596 108.412 44.0891L136.676 15.8015C136.817 15.6604 136.817 15.4488 136.676 15.3077Z" fill="#FFF6DB"/>
<path d="M137.475 18.5997C137.334 18.4586 137.122 18.4586 136.981 18.5997L111.209 44.3947C111.068 44.5358 111.068 44.7475 111.209 44.8885C111.28 44.9591 111.374 44.9826 111.444 44.9826C111.539 44.9826 111.609 44.9591 111.68 44.8885L137.475 19.07C137.616 18.9524 137.616 18.7173 137.475 18.5997Z" fill="#FFF6DB"/>
<path d="M137.662 22.4795C137.521 22.3384 137.309 22.3384 137.168 22.4795L115.088 44.5593C114.947 44.7004 114.947 44.912 115.088 45.0531C115.159 45.1236 115.253 45.1471 115.323 45.1471C115.417 45.1471 115.488 45.1236 115.559 45.0531L137.638 22.9733C137.803 22.8322 137.803 22.6206 137.662 22.4795Z" fill="#FFF6DB"/>
<path d="M136.887 26.8531L119.463 44.2771C119.322 44.4182 119.322 44.6298 119.463 44.7709C119.534 44.8415 119.628 44.865 119.698 44.865C119.792 44.865 119.863 44.8415 119.934 44.7709L137.358 27.3469C137.499 27.2058 137.499 26.9942 137.358 26.8531C137.24 26.712 137.005 26.712 136.887 26.8531Z" fill="#FFF6DB"/>
<path d="M134.371 33.4136L126.024 41.7611C125.883 41.9022 125.883 42.1138 126.024 42.2549C126.094 42.3254 126.188 42.3489 126.259 42.3489C126.329 42.3489 126.424 42.3254 126.494 42.2549L134.842 33.9073C134.983 33.7663 134.983 33.5546 134.842 33.4136C134.724 33.2725 134.512 33.2725 134.371 33.4136Z" fill="#FFF6DB"/>
</g>
<g clip-path="url(#clip3_2096_4614)">
<path d="M111.154 156.279C106.675 156.279 103.027 152.631 103.027 148.199C103.027 143.72 106.675 140.072 111.154 140.072C115.633 140.072 119.28 143.72 119.28 148.199C119.234 152.631 115.586 156.279 111.154 156.279ZM111.477 143.997C109.03 143.997 107.091 145.798 107.091 147.968C107.091 150.138 109.076 151.939 111.477 151.939C113.878 151.939 115.863 150.138 115.863 147.968C115.863 145.798 113.924 143.997 111.477 143.997Z" fill="#6851FF"/>
</g>
<path d="M55.8357 102.76C54.9029 102.76 54.0082 102.389 53.3486 101.73C52.6889 101.07 52.3184 100.175 52.3184 99.2425V57.0339C52.3185 56.413 52.4829 55.8033 52.7949 55.2666C53.107 54.7299 53.5555 54.2853 54.095 53.978C54.6345 53.6708 55.2457 53.5118 55.8665 53.5172C56.4873 53.5226 57.0956 53.6923 57.6296 54.0089L92.8035 75.1132C93.3283 75.4247 93.7631 75.8673 94.0651 76.3977C94.3671 76.928 94.5259 77.5279 94.5259 78.1382C94.5259 78.7485 94.3671 79.3483 94.0651 79.8787C93.7631 80.409 93.3283 80.8517 92.8035 81.1631C54.4288 104.202 57.2075 102.76 55.8357 102.76ZM59.3531 63.2596V93.0167L84.1859 78.1382L59.3531 63.2596Z" fill="#6851FF"/>
<path d="M115.629 32.4135H24.1772C21.3785 32.4135 18.6946 33.5252 16.7157 35.5041C14.7367 37.483 13.625 40.167 13.625 42.9656L13.625 113.313C13.625 116.112 14.7367 118.796 16.7157 120.775C18.6946 122.754 21.3785 123.865 24.1772 123.865H31.2119C32.1448 123.865 33.0395 123.495 33.6991 122.835C34.3587 122.176 34.7293 121.281 34.7293 120.348V39.4482H105.077V116.831H45.2815C44.3486 116.831 43.4539 117.201 42.7943 117.861C42.1347 118.521 41.7641 119.415 41.7641 120.348C41.7641 121.281 42.1347 122.176 42.7943 122.835C43.4539 123.495 44.3486 123.865 45.2815 123.865H115.629C118.428 123.865 121.112 122.754 123.091 120.775C125.07 118.796 126.181 116.112 126.181 113.313V42.9656C126.181 40.167 125.07 37.483 123.091 35.5041C121.112 33.5252 118.428 32.4135 115.629 32.4135ZM27.6945 116.831H24.1772C23.2443 116.831 22.3496 116.46 21.69 115.8C21.0303 115.141 20.6598 114.246 20.6598 113.313V42.9656C20.6598 42.0327 21.0303 41.1381 21.69 40.4784C22.3496 39.8188 23.2443 39.4482 24.1772 39.4482H27.6945V116.831ZM119.147 113.313C119.147 114.246 118.776 115.141 118.116 115.8C117.457 116.46 116.562 116.831 115.629 116.831H112.112V39.4482H115.629C116.562 39.4482 117.457 39.8188 118.116 40.4784C118.776 41.1381 119.147 42.0327 119.147 42.9656V113.313Z" fill="#212B36"/>
<defs>
<clipPath id="clip0_2096_4614">
<rect width="9.26096" height="24.31" fill="white" transform="matrix(-1 0 0 1 12.7324 17.3643)"/>
</clipPath>
<clipPath id="clip1_2096_4614">
<rect width="31.2557" height="28.9405" fill="white" transform="translate(8.10352 115.762)"/>
</clipPath>
<clipPath id="clip2_2096_4614">
<rect width="45.1472" height="45.1472" fill="white" transform="translate(92.6094)"/>
</clipPath>
<clipPath id="clip3_2096_4614">
<rect width="16.2067" height="16.2067" fill="white" transform="translate(103.027 140.072)"/>
</clipPath>
</defs>
</svg>
