<svg width="119" height="135" viewBox="0 0 119 135" fill="none" xmlns="http://www.w3.org/2000/svg">
<path d="M4.2948 15L7 17.8537L9.7052 15L11 16.3659L7 20.5854L3 16.3659L4.2948 15Z" fill="#212B36"/>
<path d="M4.2948 22.9512L7 25.8048L9.7052 22.9512L11 24.317L7 28.5365L3 24.317L4.2948 22.9512Z" fill="#212B36"/>
<path d="M3 31.7805L4.2948 30.4147L7 33.2683L9.7052 30.4147L11 31.7805L7 36L3 31.7805Z" fill="#212B36"/>
<path d="M32.5094 102.981C33.3327 102.981 34 102.314 34 101.49C34 100.667 33.3327 100 32.5094 100C31.6862 100 31.0188 100.667 31.0188 101.49C31.0188 102.314 31.6862 102.981 32.5094 102.981Z" fill="#6851FF"/>
<path d="M34 112.514C34 111.699 33.325 111.024 32.5094 111.024C31.6938 111.024 31.0188 111.699 31.0188 112.514C31.0188 113.33 31.6938 114.005 32.5094 114.005C33.3532 114.005 34 113.33 34 112.514Z" fill="#6851FF"/>
<path d="M34 123.51V123.481V123.453C34 122.638 33.325 121.963 32.5094 121.963C31.6938 121.963 31.0188 122.638 31.0188 123.453V123.481V123.51C31.0188 124.325 31.6938 125 32.5094 125C33.3532 125 34 124.325 34 123.51Z" fill="#6851FF"/>
<path d="M20.4999 102.981C21.3232 102.981 21.9905 102.314 21.9905 101.49C21.9905 100.667 21.3232 100 20.4999 100C19.6767 100 19.0093 100.667 19.0093 101.49C19.0093 102.314 19.6767 102.981 20.4999 102.981Z" fill="#6851FF"/>
<path d="M22.0188 112.514C22.0188 111.699 21.3438 111.024 20.5282 111.024C19.7126 111.024 19.0376 111.699 19.0376 112.514C19.0376 113.33 19.7126 114.005 20.5282 114.005C21.3438 114.005 22.0188 113.33 22.0188 112.514Z" fill="#6851FF"/>
<path d="M22.0188 123.51V123.481V123.453C22.0188 122.638 21.3438 121.963 20.5282 121.963C19.7126 121.963 19.0376 122.638 19.0376 123.453V123.481V123.51C19.0376 124.325 19.7126 125 20.5282 125C21.3438 125 22.0188 124.325 22.0188 123.51Z" fill="#6851FF"/>
<path d="M8.49063 102.981C9.31387 102.981 9.98125 102.314 9.98125 101.49C9.98125 100.667 9.31387 100 8.49063 100C7.66738 100 7 100.667 7 101.49C7 102.314 7.66738 102.981 8.49063 102.981Z" fill="#6851FF"/>
<path d="M10.0093 112.514C10.0093 111.699 9.33433 111.024 8.5187 111.024C7.70308 111.024 7.02808 111.699 7.02808 112.514C7.02808 113.33 7.70308 114.005 8.5187 114.005C9.33433 114.005 10.0093 113.33 10.0093 112.514Z" fill="#6851FF"/>
<path d="M10.0094 123.51V123.481V123.453C10.0094 122.638 9.33438 121.963 8.51875 121.963C7.675 121.935 7 122.61 7 123.425V123.453V123.481C7 124.297 7.675 124.972 8.49063 124.972C9.33438 125 10.0094 124.325 10.0094 123.51Z" fill="#6851FF"/>
<circle cx="59.5" cy="65.5" r="59.5" fill="#F7F5FF"/>
<g clip-path="url(#clip0_1955_4989)">
<path d="M82.7015 10.2173C82.7828 10.2173 82.8437 10.1969 82.9046 10.136L90.1156 2.92507C90.2375 2.8032 90.2375 2.62039 90.1156 2.49851C89.9937 2.37664 89.8109 2.37664 89.689 2.49851L82.4984 9.70945C82.3765 9.83132 82.3765 10.0141 82.4984 10.136C82.5593 10.1969 82.6406 10.2173 82.7015 10.2173Z" fill="#FFF6DB"/>
<path d="M80.5484 15.9047C80.6297 15.9047 80.6906 15.8844 80.7516 15.8235L95.8031 0.751611C95.925 0.629736 95.925 0.446924 95.8031 0.325049C95.6813 0.203174 95.4984 0.203174 95.3766 0.325049L80.3453 15.3969C80.2234 15.5188 80.2234 15.7016 80.3453 15.8235C80.4063 15.8641 80.4875 15.9047 80.5484 15.9047Z" fill="#FFF6DB"/>
<path d="M80.5077 19.5813L99.5812 0.507837C99.703 0.385962 99.703 0.203149 99.5812 0.0812744C99.4593 -0.0406006 99.2765 -0.0406006 99.1546 0.0812744L80.0812 19.1547C79.9593 19.2766 79.9593 19.4594 80.0812 19.5813C80.1421 19.6422 80.2233 19.6625 80.2843 19.6625C80.3452 19.6625 80.4468 19.6422 80.5077 19.5813Z" fill="#FFF6DB"/>
<path d="M102.933 0.24375C102.811 0.121875 102.628 0.121875 102.506 0.24375L80.2438 22.5266C80.1219 22.6484 80.1219 22.8312 80.2438 22.9531C80.3047 23.0141 80.3859 23.0344 80.4469 23.0344C80.5078 23.0344 80.5891 23.0141 80.65 22.9531L102.933 0.65C103.055 0.548438 103.055 0.365625 102.933 0.24375Z" fill="#FFF6DB"/>
<path d="M105.776 0.934424C105.654 0.812549 105.472 0.812549 105.35 0.934424L80.9342 25.35C80.8123 25.4719 80.8123 25.6547 80.9342 25.7766C80.9951 25.8375 81.0764 25.8579 81.1373 25.8579C81.2186 25.8579 81.2795 25.8375 81.3404 25.7766L105.776 1.34067C105.878 1.23911 105.878 1.03599 105.776 0.934424Z" fill="#FFF6DB"/>
<path d="M108.255 1.95005C108.133 1.82817 107.95 1.82817 107.828 1.95005L81.9703 27.8282C81.8484 27.95 81.8484 28.1329 81.9703 28.2547C82.0313 28.3157 82.1125 28.336 82.1734 28.336C82.2547 28.336 82.3156 28.3157 82.3766 28.2547L108.255 2.37661C108.377 2.25474 108.377 2.07192 108.255 1.95005Z" fill="#FFF6DB"/>
<path d="M110.489 3.22971C110.367 3.10784 110.184 3.10784 110.062 3.22971L83.2296 30.0828C83.1077 30.2047 83.1077 30.3875 83.2296 30.5094C83.2905 30.5703 83.3718 30.5907 83.4327 30.5907C83.514 30.5907 83.5749 30.5703 83.6358 30.5094L110.489 3.65627C110.611 3.5344 110.611 3.35159 110.489 3.22971Z" fill="#FFF6DB"/>
<path d="M112.459 4.77341C112.337 4.65154 112.155 4.65154 112.033 4.77341L84.7733 32.0531C84.6514 32.175 84.6514 32.3578 84.7733 32.4797C84.8342 32.5406 84.9155 32.5609 84.9764 32.5609C85.0577 32.5609 85.1186 32.5406 85.1795 32.4797L112.459 5.19998C112.581 5.0781 112.581 4.89529 112.459 4.77341Z" fill="#FFF6DB"/>
<path d="M114.227 6.54063C114.105 6.41875 113.922 6.41875 113.8 6.54063L86.5406 33.8C86.4188 33.9219 86.4188 34.1047 86.5406 34.2266C86.6016 34.2875 86.6828 34.3078 86.7437 34.3078C86.825 34.3078 86.8859 34.2875 86.9469 34.2266L114.227 6.94688C114.348 6.84531 114.348 6.64219 114.227 6.54063Z" fill="#FFF6DB"/>
<path d="M115.77 8.51096C115.648 8.38909 115.466 8.38909 115.344 8.51096L88.5108 35.3438C88.389 35.4657 88.389 35.6485 88.5108 35.7703C88.5718 35.8313 88.653 35.8516 88.714 35.8516C88.7952 35.8516 88.8562 35.8313 88.9171 35.7703L115.77 8.91721C115.892 8.81565 115.892 8.61252 115.77 8.51096Z" fill="#FFF6DB"/>
<path d="M117.05 10.7453C116.928 10.6235 116.745 10.6235 116.623 10.7453L90.7452 36.6235C90.6233 36.7453 90.6233 36.9281 90.7452 37.05C90.8062 37.111 90.8874 37.1313 90.9483 37.1313C91.0093 37.1313 91.0905 37.111 91.1515 37.05L117.05 11.1719C117.151 11.05 117.151 10.8672 117.05 10.7453Z" fill="#FFF6DB"/>
<path d="M118.066 13.2235C117.944 13.1016 117.761 13.1016 117.639 13.2235L93.2437 37.6594C93.1219 37.7813 93.1219 37.9641 93.2437 38.086C93.3047 38.1469 93.3859 38.1672 93.4469 38.1672C93.5281 38.1672 93.5891 38.1469 93.65 38.086L118.066 13.65C118.187 13.5282 118.187 13.3454 118.066 13.2235Z" fill="#FFF6DB"/>
<path d="M118.756 16.0672C118.634 15.9454 118.451 15.9454 118.329 16.0672L96.067 38.35C95.9451 38.4719 95.9451 38.6547 96.067 38.7766C96.1279 38.8375 96.2092 38.8579 96.2701 38.8579C96.3514 38.8579 96.4123 38.8375 96.4732 38.7766L118.756 16.4735C118.878 16.3719 118.878 16.1688 118.756 16.0672Z" fill="#FFF6DB"/>
<path d="M118.919 19.4188C118.797 19.2969 118.614 19.2969 118.492 19.4188L99.4186 38.4922C99.2967 38.6141 99.2967 38.7969 99.4186 38.9188C99.4795 38.9797 99.5607 39 99.6217 39C99.7029 39 99.7639 38.9797 99.8248 38.9188L118.898 19.8454C119.04 19.7235 119.04 19.5407 118.919 19.4188Z" fill="#FFF6DB"/>
<path d="M118.248 23.1969L103.197 38.2484C103.075 38.3703 103.075 38.5531 103.197 38.675C103.258 38.7359 103.339 38.7563 103.4 38.7563C103.481 38.7563 103.542 38.7359 103.603 38.675L118.655 23.6234C118.777 23.5016 118.777 23.3188 118.655 23.1969C118.553 23.075 118.35 23.075 118.248 23.1969Z" fill="#FFF6DB"/>
<path d="M116.075 28.8641L108.864 36.0751C108.742 36.1969 108.742 36.3797 108.864 36.5016C108.925 36.5626 109.006 36.5829 109.067 36.5829C109.128 36.5829 109.209 36.5626 109.27 36.5016L116.481 29.2907C116.603 29.1688 116.603 28.986 116.481 28.8641C116.379 28.7422 116.197 28.7422 116.075 28.8641Z" fill="#FFF6DB"/>
</g>
<g clip-path="url(#clip1_1955_4989)">
<path d="M96.0199 135C92.151 135 89 131.849 89 128.02C89 124.151 92.151 121 96.0199 121C99.8889 121 103.04 124.151 103.04 128.02C103 131.849 99.849 135 96.0199 135ZM96.2991 124.39C94.1852 124.39 92.51 125.946 92.51 127.821C92.51 129.695 94.2251 131.251 96.2991 131.251C98.3732 131.251 100.088 129.695 100.088 127.821C100.088 125.946 98.4131 124.39 96.2991 124.39Z" fill="#6851FF"/>
</g>
<path d="M48.2308 88.768C47.425 88.768 46.6522 88.4479 46.0823 87.8781C45.5125 87.3083 45.1924 86.5354 45.1924 85.7296V49.268C45.1925 48.7317 45.3345 48.205 45.6041 47.7414C45.8736 47.2777 46.2611 46.8937 46.7271 46.6283C47.1931 46.3629 47.7211 46.2255 48.2574 46.2302C48.7937 46.2349 49.3191 46.3814 49.7805 46.655L80.1651 64.8857C80.6185 65.1548 80.9941 65.5371 81.255 65.9953C81.5158 66.4534 81.653 66.9716 81.653 67.4988C81.653 68.026 81.5158 68.5442 81.255 69.0023C80.9941 69.4605 80.6185 69.8429 80.1651 70.1119C47.0155 90.0138 49.4158 88.768 48.2308 88.768ZM51.2693 54.6461V80.3515L72.7208 67.4988L51.2693 54.6461Z" fill="#6851FF"/>
<path d="M99.8847 28H20.8847C18.4671 28 16.1486 28.9604 14.4391 30.6698C12.7297 32.3793 11.7693 34.6978 11.7693 37.1154L11.7693 97.8846C11.7693 100.302 12.7297 102.621 14.4391 104.33C16.1486 106.04 18.4671 107 20.8847 107H26.9616C27.7674 107 28.5403 106.68 29.1101 106.11C29.6799 105.54 30.0001 104.767 30.0001 103.962V34.0769H90.7693V100.923H39.1154C38.3096 100.923 37.5367 101.243 36.9669 101.813C36.3971 102.383 36.077 103.156 36.077 103.962C36.077 104.767 36.3971 105.54 36.9669 106.11C37.5367 106.68 38.3096 107 39.1154 107H99.8847C102.302 107 104.621 106.04 106.33 104.33C108.04 102.621 109 100.302 109 97.8846V37.1154C109 34.6978 108.04 32.3793 106.33 30.6698C104.621 28.9604 102.302 28 99.8847 28ZM23.9231 100.923H20.8847C20.0788 100.923 19.306 100.603 18.7362 100.033C18.1663 99.4633 17.8462 98.6905 17.8462 97.8846V37.1154C17.8462 36.3095 18.1663 35.5367 18.7362 34.9669C19.306 34.397 20.0788 34.0769 20.8847 34.0769H23.9231V100.923ZM102.923 97.8846C102.923 98.6905 102.603 99.4633 102.033 100.033C101.463 100.603 100.691 100.923 99.8847 100.923H96.8462V34.0769H99.8847C100.691 34.0769 101.463 34.397 102.033 34.9669C102.603 35.5367 102.923 36.3095 102.923 37.1154V97.8846Z" fill="#212B36"/>
<defs>
<clipPath id="clip0_1955_4989">
<rect width="39" height="39" fill="white" transform="translate(80)"/>
</clipPath>
<clipPath id="clip1_1955_4989">
<rect width="14" height="14" fill="white" transform="translate(89 121)"/>
</clipPath>
</defs>
</svg>
