<svg width="138" height="157" viewBox="0 0 138 157" fill="none" xmlns="http://www.w3.org/2000/svg">
<g clip-path="url(#clip0_2096_4565)">
<path d="M4.97034 17.3643L8.10194 20.6677L11.2335 17.3643L12.7324 18.9454L8.10194 23.83L3.47146 18.9454L4.97034 17.3643Z" fill="#212B36"/>
<path d="M4.97034 26.5687L8.10194 29.8722L11.2335 26.5687L12.7324 28.1499L8.10194 33.0345L3.47146 28.1499L4.97034 26.5687Z" fill="#212B36"/>
<path d="M3.47146 36.7896L4.97034 35.2085L8.10194 38.512L11.2335 35.2085L12.7324 36.7896L8.10194 41.6742L3.47146 36.7896Z" fill="#212B36"/>
</g>
<g clip-path="url(#clip1_2096_4565)">
<path d="M37.6338 119.213C38.5868 119.213 39.3594 118.44 39.3594 117.487C39.3594 116.534 38.5868 115.762 37.6338 115.762C36.6808 115.762 35.9082 116.534 35.9082 117.487C35.9082 118.44 36.6808 119.213 37.6338 119.213Z" fill="#6851FF"/>
<path d="M39.3594 130.248C39.3594 129.304 38.578 128.523 37.6338 128.523C36.6896 128.523 35.9082 129.304 35.9082 130.248C35.9082 131.192 36.6896 131.974 37.6338 131.974C38.6105 131.974 39.3594 131.192 39.3594 130.248Z" fill="#6851FF"/>
<path d="M39.3594 142.977V142.945V142.912C39.3594 141.968 38.578 141.187 37.6338 141.187C36.6896 141.187 35.9082 141.968 35.9082 142.912V142.945V142.977C35.9082 143.921 36.6896 144.702 37.6338 144.702C38.6105 144.702 39.3594 143.921 39.3594 142.977Z" fill="#6851FF"/>
<path d="M23.7314 119.213C24.6844 119.213 25.457 118.44 25.457 117.487C25.457 116.534 24.6844 115.762 23.7314 115.762C22.7784 115.762 22.0059 116.534 22.0059 117.487C22.0059 118.44 22.7784 119.213 23.7314 119.213Z" fill="#6851FF"/>
<path d="M25.4902 130.248C25.4902 129.304 24.7088 128.523 23.7646 128.523C22.8205 128.523 22.0391 129.304 22.0391 130.248C22.0391 131.192 22.8205 131.974 23.7646 131.974C24.7088 131.974 25.4902 131.192 25.4902 130.248Z" fill="#6851FF"/>
<path d="M25.4902 142.977V142.945V142.912C25.4902 141.968 24.7088 141.187 23.7646 141.187C22.8205 141.187 22.0391 141.968 22.0391 142.912V142.945V142.977C22.0391 143.921 22.8205 144.702 23.7646 144.702C24.7088 144.702 25.4902 143.921 25.4902 142.977Z" fill="#6851FF"/>
<path d="M9.82909 119.213C10.7821 119.213 11.5547 118.44 11.5547 117.487C11.5547 116.534 10.7821 115.762 9.82909 115.762C8.87608 115.762 8.10352 116.534 8.10352 117.487C8.10352 118.44 8.87608 119.213 9.82909 119.213Z" fill="#6851FF"/>
<path d="M11.5879 130.248C11.5879 129.304 10.8065 128.523 9.8623 128.523C8.91811 128.523 8.13672 129.304 8.13672 130.248C8.13672 131.192 8.91811 131.974 9.8623 131.974C10.8065 131.974 11.5879 131.192 11.5879 130.248Z" fill="#6851FF"/>
<path d="M11.5872 142.977V142.945V142.912C11.5872 141.968 10.8058 141.187 9.86165 141.187C8.88491 141.154 8.10352 141.935 8.10352 142.879V142.912V142.945C8.10352 143.889 8.88491 144.67 9.82909 144.67C10.8058 144.702 11.5872 143.921 11.5872 142.977Z" fill="#6851FF"/>
</g>
<circle cx="68.8784" cy="75.8242" r="68.8784" fill="white"/>
<g clip-path="url(#clip2_2096_4565)">
<path d="M95.7374 11.8276C95.8315 11.8276 95.902 11.8041 95.9726 11.7335L104.32 3.38599C104.461 3.2449 104.461 3.03328 104.32 2.89219C104.179 2.75111 103.967 2.75111 103.826 2.89219L95.5023 11.2397C95.3612 11.3808 95.3612 11.5924 95.5023 11.7335C95.5728 11.8041 95.6669 11.8276 95.7374 11.8276Z" fill="#FFF6DB"/>
<path d="M93.2453 18.4116C93.3393 18.4116 93.4099 18.3881 93.4804 18.3175L110.904 0.869997C111.045 0.728912 111.045 0.517284 110.904 0.376199C110.763 0.235114 110.552 0.235114 110.411 0.376199L93.0101 17.8237C92.869 17.9648 92.869 18.1764 93.0101 18.3175C93.0807 18.3645 93.1747 18.4116 93.2453 18.4116Z" fill="#FFF6DB"/>
<path d="M93.1973 22.6674L115.277 0.587648C115.418 0.446563 115.418 0.234936 115.277 0.0938508C115.136 -0.0472341 114.924 -0.0472341 114.783 0.0938508L92.7035 22.1736C92.5624 22.3147 92.5624 22.5264 92.7035 22.6674C92.774 22.738 92.8681 22.7615 92.9386 22.7615C93.0092 22.7615 93.1267 22.738 93.1973 22.6674Z" fill="#FFF6DB"/>
<path d="M119.156 0.282083C119.015 0.140998 118.804 0.140998 118.662 0.282083L92.891 26.0771C92.7499 26.2182 92.7499 26.4298 92.891 26.5709C92.9615 26.6415 93.0556 26.665 93.1261 26.665C93.1967 26.665 93.2907 26.6415 93.3613 26.5709L119.156 0.752367C119.297 0.634796 119.297 0.423168 119.156 0.282083Z" fill="#FFF6DB"/>
<path d="M122.45 1.08164C122.308 0.940559 122.097 0.940559 121.956 1.08164L93.6918 29.3457C93.5507 29.4867 93.5507 29.6984 93.6918 29.8395C93.7623 29.91 93.8564 29.9335 93.9269 29.9335C94.0209 29.9335 94.0915 29.91 94.162 29.8395L122.45 1.55193C122.567 1.43436 122.567 1.19921 122.45 1.08164Z" fill="#FFF6DB"/>
<path d="M125.318 2.2573C125.177 2.11622 124.966 2.11622 124.825 2.2573L94.891 32.2143C94.7499 32.3554 94.7499 32.5671 94.891 32.7081C94.9615 32.7787 95.0556 32.8022 95.1261 32.8022C95.2202 32.8022 95.2907 32.7787 95.3613 32.7081L125.318 2.7511C125.459 2.61002 125.459 2.39839 125.318 2.2573Z" fill="#FFF6DB"/>
<path d="M127.904 3.73875C127.763 3.59766 127.551 3.59766 127.41 3.73875L96.348 34.8245C96.2069 34.9656 96.2069 35.1772 96.348 35.3183C96.4185 35.3888 96.5126 35.4123 96.5831 35.4123C96.6772 35.4123 96.7477 35.3888 96.8183 35.3183L127.904 4.23255C128.045 4.09146 128.045 3.87983 127.904 3.73875Z" fill="#FFF6DB"/>
<path d="M130.185 5.52586C130.044 5.38477 129.832 5.38477 129.691 5.52586L98.1351 37.1054C97.994 37.2465 97.994 37.4581 98.1351 37.5992C98.2057 37.6697 98.2997 37.6932 98.3703 37.6932C98.4643 37.6932 98.5349 37.6697 98.6054 37.5992L130.185 6.01966C130.326 5.87857 130.326 5.66694 130.185 5.52586Z" fill="#FFF6DB"/>
<path d="M132.232 7.57151C132.091 7.43043 131.879 7.43043 131.738 7.57151L100.182 39.1275C100.041 39.2686 100.041 39.4802 100.182 39.6213C100.253 39.6919 100.347 39.7154 100.417 39.7154C100.511 39.7154 100.582 39.6919 100.652 39.6213L132.232 8.0418C132.373 7.92422 132.373 7.68908 132.232 7.57151Z" fill="#FFF6DB"/>
<path d="M134.017 9.8524C133.876 9.71131 133.665 9.71131 133.523 9.8524L102.461 40.9146C102.32 41.0557 102.32 41.2673 102.461 41.4084C102.532 41.4789 102.626 41.5024 102.696 41.5024C102.79 41.5024 102.861 41.4789 102.932 41.4084L134.017 10.3227C134.158 10.2051 134.158 9.96997 134.017 9.8524Z" fill="#FFF6DB"/>
<path d="M135.5 12.4389C135.359 12.2979 135.147 12.2979 135.006 12.4389L105.049 42.396C104.908 42.5371 104.908 42.7487 105.049 42.8898C105.12 42.9603 105.214 42.9838 105.284 42.9838C105.355 42.9838 105.449 42.9603 105.519 42.8898L135.5 12.9327C135.618 12.7917 135.618 12.58 135.5 12.4389Z" fill="#FFF6DB"/>
<path d="M136.676 15.3077C136.535 15.1666 136.323 15.1666 136.182 15.3077L107.942 43.5953C107.801 43.7363 107.801 43.948 107.942 44.0891C108.012 44.1596 108.106 44.1831 108.177 44.1831C108.271 44.1831 108.341 44.1596 108.412 44.0891L136.676 15.8015C136.817 15.6604 136.817 15.4488 136.676 15.3077Z" fill="#FFF6DB"/>
<path d="M137.475 18.5997C137.334 18.4586 137.122 18.4586 136.981 18.5997L111.209 44.3947C111.068 44.5358 111.068 44.7475 111.209 44.8885C111.28 44.9591 111.374 44.9826 111.444 44.9826C111.539 44.9826 111.609 44.9591 111.68 44.8885L137.475 19.07C137.616 18.9524 137.616 18.7173 137.475 18.5997Z" fill="#FFF6DB"/>
<path d="M137.662 22.4795C137.521 22.3384 137.309 22.3384 137.168 22.4795L115.088 44.5593C114.947 44.7004 114.947 44.912 115.088 45.0531C115.159 45.1236 115.253 45.1471 115.323 45.1471C115.417 45.1471 115.488 45.1236 115.559 45.0531L137.638 22.9733C137.803 22.8322 137.803 22.6206 137.662 22.4795Z" fill="#FFF6DB"/>
<path d="M136.887 26.8531L119.463 44.2771C119.322 44.4182 119.322 44.6298 119.463 44.7709C119.534 44.8415 119.628 44.865 119.698 44.865C119.792 44.865 119.863 44.8415 119.934 44.7709L137.358 27.3469C137.499 27.2058 137.499 26.9942 137.358 26.8531C137.24 26.712 137.005 26.712 136.887 26.8531Z" fill="#FFF6DB"/>
<path d="M134.371 33.4136L126.024 41.7611C125.883 41.9022 125.883 42.1138 126.024 42.2549C126.094 42.3254 126.188 42.3489 126.259 42.3489C126.329 42.3489 126.424 42.3254 126.494 42.2549L134.842 33.9073C134.983 33.7663 134.983 33.5546 134.842 33.4136C134.724 33.2725 134.512 33.2725 134.371 33.4136Z" fill="#FFF6DB"/>
</g>
<path d="M105.454 40.6615C104.817 40.6615 104.195 40.8503 103.665 41.2041C103.136 41.5579 102.723 42.0607 102.479 42.649C102.236 43.2373 102.172 43.8847 102.296 44.5092C102.42 45.1338 102.727 45.7075 103.177 46.1578C103.628 46.608 104.201 46.9147 104.826 47.0389C105.45 47.1631 106.098 47.0994 106.686 46.8557C107.274 46.612 107.777 46.1993 108.131 45.6699C108.485 45.1404 108.674 44.5179 108.674 43.8811C108.674 43.0272 108.334 42.2083 107.731 41.6045C107.127 41.0007 106.308 40.6615 105.454 40.6615Z" fill="#6851FF"/>
<path d="M92.5771 40.6615C91.9403 40.6615 91.3178 40.8503 90.7883 41.2041C90.2589 41.5579 89.8462 42.0607 89.6025 42.649C89.3588 43.2373 89.2951 43.8847 89.4193 44.5092C89.5435 45.1338 89.8502 45.7075 90.3004 46.1578C90.7507 46.608 91.3244 46.9147 91.9489 47.0389C92.5735 47.1631 93.2208 47.0994 93.8092 46.8557C94.3975 46.612 94.9003 46.1993 95.2541 45.6699C95.6079 45.1404 95.7967 44.5179 95.7967 43.8811C95.7967 43.0272 95.4575 42.2083 94.8537 41.6045C94.2499 41.0007 93.431 40.6615 92.5771 40.6615Z" fill="#6851FF"/>
<path d="M79.6962 40.6615C79.0594 40.6615 78.4369 40.8503 77.9075 41.2041C77.378 41.5579 76.9653 42.0607 76.7216 42.649C76.478 43.2373 76.4142 43.8847 76.5384 44.5092C76.6627 45.1338 76.9693 45.7075 77.4196 46.1578C77.8698 46.608 78.4435 46.9147 79.0681 47.0389C79.6926 47.1631 80.34 47.0994 80.9283 46.8557C81.5166 46.612 82.0194 46.1993 82.3732 45.6699C82.727 45.1404 82.9158 44.5179 82.9158 43.8811C82.9158 43.0272 82.5766 42.2083 81.9728 41.6045C81.369 41.0007 80.5501 40.6615 79.6962 40.6615Z" fill="#6851FF"/>
<path d="M117.213 59.6175C118.057 59.6175 118.867 59.2821 119.464 58.6851C120.061 58.0881 120.396 57.2784 120.396 56.4341V37.3333C120.396 34.8004 119.39 32.3712 117.599 30.5802C115.808 28.7892 113.379 27.783 110.846 27.783H28.0758C25.5428 27.783 23.1137 28.7892 21.3226 30.5802C19.5316 32.3712 18.5254 34.8004 18.5254 37.3333V120.103C18.5254 122.636 19.5316 125.065 21.3226 126.856C23.1137 128.647 25.5428 129.654 28.0758 129.654H110.846C113.379 129.654 115.808 128.647 117.599 126.856C119.39 125.065 120.396 122.636 120.396 120.103V69.1679C120.396 68.3236 120.061 67.5139 119.464 66.9168C118.867 66.3198 118.057 65.9844 117.213 65.9844C116.368 65.9844 115.558 66.3198 114.961 66.9168C114.364 67.5139 114.029 68.3236 114.029 69.1679V120.103C114.029 120.947 113.694 121.757 113.097 122.354C112.5 122.951 111.69 123.287 110.846 123.287H28.0758C27.2315 123.287 26.4217 122.951 25.8247 122.354C25.2277 121.757 24.8923 120.947 24.8923 120.103V59.6175H117.213ZM24.8923 37.3333C24.8923 36.489 25.2277 35.6793 25.8247 35.0823C26.4217 34.4853 27.2315 34.1499 28.0758 34.1499H110.846C111.69 34.1499 112.5 34.4853 113.097 35.0823C113.694 35.6793 114.029 36.489 114.029 37.3333V53.2506H24.8923V37.3333Z" fill="#212B36"/>
<path d="M104.479 91.4521H79.0116C78.1673 91.4521 77.3575 91.1167 76.7605 90.5197C76.1635 89.9227 75.8281 89.113 75.8281 88.2687V69.168C75.8281 68.3236 76.1635 67.5139 76.7605 66.9169C77.3575 66.3199 78.1673 65.9845 79.0116 65.9845H104.479C105.324 65.9845 106.133 66.3199 106.73 66.9169C107.327 67.5139 107.663 68.3236 107.663 69.168V88.2687C107.663 89.113 107.327 89.9227 106.73 90.5197C106.133 91.1167 105.324 91.4521 104.479 91.4521ZM82.195 85.0852H101.296V72.3514H82.195V85.0852Z" fill="#212B36"/>
<path d="M104.479 116.92H79.0116C78.1673 116.92 77.3575 116.584 76.7605 115.987C76.1635 115.39 75.8281 114.581 75.8281 113.736C75.8281 112.892 76.1635 112.082 76.7605 111.485C77.3575 110.888 78.1673 110.553 79.0116 110.553H104.479C105.324 110.553 106.133 110.888 106.73 111.485C107.327 112.082 107.663 112.892 107.663 113.736C107.663 114.581 107.327 115.39 106.73 115.987C106.133 116.584 105.324 116.92 104.479 116.92Z" fill="#212B36"/>
<path d="M104.479 104.186H79.0116C78.1673 104.186 77.3575 103.851 76.7605 103.254C76.1635 102.657 75.8281 101.847 75.8281 101.003C75.8281 100.158 76.1635 99.3485 76.7605 98.7515C77.3575 98.1545 78.1673 97.8191 79.0116 97.8191H104.479C105.324 97.8191 106.133 98.1545 106.73 98.7515C107.327 99.3485 107.663 100.158 107.663 101.003C107.663 101.847 107.327 102.657 106.73 103.254C106.133 103.851 105.324 104.186 104.479 104.186Z" fill="#212B36"/>
<path d="M69.4606 69.168C69.4143 68.8674 69.3505 68.5697 69.2696 68.2766C69.1792 67.8932 69.0053 67.5344 68.7602 67.226C68.5654 66.9971 68.3525 66.7842 68.1235 66.5894C67.838 66.4277 67.5399 66.2893 67.2321 66.1755L66.2771 65.9845C31.9913 65.9845 33.9969 65.9845 32.9145 66.4302C30.5906 67.7354 31.2591 65.9845 31.2591 113.736C31.3053 114.037 31.3691 114.335 31.4501 114.628C31.5404 115.011 31.7144 115.37 31.9595 115.678C32.1543 115.907 32.3672 116.12 32.5961 116.315C33.1452 116.681 33.7835 116.89 34.4425 116.92C69.4606 116.92 67.0093 117.238 68.3145 116.124C68.9388 115.581 69.3271 114.816 69.3969 113.991C69.4606 113.036 69.4606 120.613 69.4606 69.168ZM46.4442 91.4521L37.626 103.804V79.1003L46.4442 91.4521ZM40.6185 72.3514H60.1012L50.3598 85.9766L40.6185 72.3514ZM50.3598 96.9277L60.1012 110.553H40.6185L50.3598 96.9277ZM54.2755 91.4521L63.0936 79.1003V103.804L54.2755 91.4521Z" fill="#6851FF"/>
<g clip-path="url(#clip3_2096_4565)">
<path d="M111.154 156.279C106.675 156.279 103.027 152.631 103.027 148.199C103.027 143.72 106.675 140.072 111.154 140.072C115.633 140.072 119.28 143.72 119.28 148.199C119.234 152.631 115.586 156.279 111.154 156.279ZM111.477 143.997C109.03 143.997 107.091 145.798 107.091 147.968C107.091 150.138 109.076 151.939 111.477 151.939C113.878 151.939 115.863 150.138 115.863 147.968C115.863 145.798 113.924 143.997 111.477 143.997Z" fill="#6851FF"/>
</g>
<defs>
<clipPath id="clip0_2096_4565">
<rect width="9.26096" height="24.31" fill="white" transform="matrix(-1 0 0 1 12.7324 17.3643)"/>
</clipPath>
<clipPath id="clip1_2096_4565">
<rect width="31.2557" height="28.9405" fill="white" transform="translate(8.10352 115.762)"/>
</clipPath>
<clipPath id="clip2_2096_4565">
<rect width="45.1472" height="45.1472" fill="white" transform="translate(92.6094)"/>
</clipPath>
<clipPath id="clip3_2096_4565">
<rect width="16.2067" height="16.2067" fill="white" transform="translate(103.027 140.072)"/>
</clipPath>
</defs>
</svg>
