<?xml version="1.0" standalone="no"?>
<!DOCTYPE svg PUBLIC "-//W3C//DTD SVG 20010904//EN"
 "http://www.w3.org/TR/2001/REC-SVG-20010904/DTD/svg10.dtd">
<svg version="1.0" xmlns="http://www.w3.org/2000/svg"
 width="225.000000pt" height="255.000000pt" viewBox="0 0 225.000000 255.000000"
 preserveAspectRatio="xMidYMid meet">

<g transform="translate(0.000000,255.000000) scale(0.100000,-0.100000)"
fill="#fff" stroke="none">
<path d="M1040 2528 c-139 -73 -960 -554 -984 -576 -57 -53 -56 -41 -56 -674
0 -544 2 -586 19 -623 10 -22 27 -47 37 -56 42 -36 997 -580 1032 -587 20 -5
54 -5 75 0 21 5 181 91 355 192 174 101 394 227 487 281 195 111 201 116 226
170 17 37 19 79 19 623 0 633 1 620 -56 674 -16 14 -249 153 -519 309 -548
317 -544 315 -635 267z m600 -337 c250 -145 466 -272 479 -284 50 -46 50 -47
52 -623 1 -452 -1 -545 -13 -574 -19 -44 -82 -101 -147 -134 -27 -14 -130 -72
-228 -129 -599 -349 -604 -351 -658 -351 -47 0 -76 15 -494 254 -327 188 -458
268 -496 305 l-53 50 -7 405 c-7 446 0 710 21 751 19 37 59 69 166 130 51 29
232 133 402 232 433 250 412 239 471 235 45 -4 104 -35 505 -267z"/>
<path d="M1083 2259 c-36 -11 -615 -343 -669 -384 -40 -30 -42 -46 -11 -75 30
-29 621 -370 677 -391 44 -17 47 -17 100 6 70 28 614 344 660 383 34 28 34 29
18 54 -14 21 -548 341 -656 393 -40 20 -83 25 -119 14z"/>
<path d="M283 1683 c-10 -36 -10 -827 0 -874 4 -19 20 -49 36 -65 32 -33 661
-399 703 -409 20 -5 29 -2 37 13 16 30 15 302 -1 306 -192 55 -287 106 -424
225 -51 44 -90 71 -105 71 -12 0 -54 -18 -92 -41 -38 -22 -71 -38 -75 -34 -14
13 26 61 76 92 87 51 173 68 357 68 88 0 180 -3 205 -7 l45 -7 -50 23 c-89 42
-185 59 -288 54 l-92 -6 39 34 c90 78 224 115 347 96 35 -5 66 -8 67 -7 7 6
-35 90 -50 102 -8 7 -163 98 -344 203 -206 119 -339 190 -356 190 -22 0 -29
-6 -35 -27z"/>
<path d="M1571 1518 c-361 -209 -384 -227 -385 -300 l-1 -41 160 -74 c199 -92
317 -133 384 -133 28 0 51 -3 51 -6 0 -15 -83 -103 -144 -151 -117 -91 -275
-154 -416 -165 l-35 -3 -3 -144 c-3 -157 3 -177 46 -166 32 8 659 370 691 398
50 46 51 55 51 520 0 456 0 457 -45 457 -12 0 -171 -87 -354 -192z"/>
</g>
</svg>
