<svg width="14" height="15" viewBox="0 0 14 15" fill="none" xmlns="http://www.w3.org/2000/svg">
<path d="M3.08674 1L1.08008 3.66667V13C1.08008 13.3536 1.22102 13.6928 1.4719 13.9428C1.72279 14.1929 2.06306 14.3333 2.41786 14.3333H11.7823C12.1371 14.3333 12.4774 14.1929 12.7283 13.9428C12.9791 13.6928 13.1201 13.3536 13.1201 13V3.66667L11.1134 1H3.08674Z" stroke="#637381" stroke-linecap="round" stroke-linejoin="round"/>
<path d="M1.08008 3.6665H13.1201" stroke="#637381" stroke-linecap="round" stroke-linejoin="round"/>
<path d="M9.77494 6.3335C9.77494 7.04074 9.49305 7.71902 8.99129 8.21912C8.48952 8.71921 7.80898 9.00016 7.09938 9.00016C6.38978 9.00016 5.70924 8.71921 5.20748 8.21912C4.70572 7.71902 4.42383 7.04074 4.42383 6.3335" stroke="#637381" stroke-linecap="round" stroke-linejoin="round"/>
</svg>
