<svg width="14" height="17" viewBox="0 0 14 17" fill="none" xmlns="http://www.w3.org/2000/svg">
<path d="M6.625 4V13.625" stroke="#637381" stroke-linecap="round" stroke-linejoin="round"/>
<path d="M8.8125 5.75H5.53125C5.12514 5.75 4.73566 5.91133 4.44849 6.19849C4.16133 6.48566 4 6.87514 4 7.28125C4 7.68736 4.16133 8.07684 4.44849 8.36401C4.73566 8.65117 5.12514 8.8125 5.53125 8.8125H7.71875C8.12486 8.8125 8.51434 8.97383 8.80151 9.26099C9.08867 9.54816 9.25 9.93764 9.25 10.3438C9.25 10.7499 9.08867 11.1393 8.80151 11.4265C8.51434 11.7137 8.12486 11.875 7.71875 11.875H4" stroke="#637381" stroke-linecap="round" stroke-linejoin="round"/>
<path d="M7.75 1H2.5C2.10218 1 1.72064 1.15804 1.43934 1.43934C1.15804 1.72064 1 2.10218 1 2.5V14.5C1 14.8978 1.15804 15.2794 1.43934 15.5607C1.72064 15.842 2.10218 16 2.5 16H11.5C11.8978 16 12.2794 15.842 12.5607 15.5607C12.842 15.2794 13 14.8978 13 14.5V6.25L7.75 1Z" stroke="#637381" stroke-linecap="round" stroke-linejoin="round"/>
</svg>
