<svg width="50" height="50" viewBox="0 0 50 50" fill="none" xmlns="http://www.w3.org/2000/svg">
<path d="M47.7692 49.8461H2.07692C0.934616 49.8461 5.27344e-08 48.9115 0 47.7692V2.07692C0 0.934616 0.934615 5.27344e-08 2.07692 0H47.7692C48.9115 0 49.8461 0.934615 49.8461 2.07692V47.7692C49.8461 48.9115 48.9115 49.8461 47.7692 49.8461ZM4.15385 45.6923H45.6923V4.15385H4.15385V45.6923ZM38.4231 18.6923H11.4231C10.8 18.6923 10.3846 18.2769 10.3846 17.6538V11.4231C10.3846 10.8 10.8 10.3846 11.4231 10.3846H38.4231C39.0462 10.3846 39.4615 10.8 39.4615 11.4231V17.6538C39.4615 18.2769 39.0462 18.6923 38.4231 18.6923ZM17.6538 39.4615H11.4231C10.8 39.4615 10.3846 39.0462 10.3846 38.4231V25.9615C10.3846 25.3385 10.8 24.9231 11.4231 24.9231H17.6538C18.2769 24.9231 18.6923 25.3385 18.6923 25.9615V38.4231C18.6923 39.0462 18.2769 39.4615 17.6538 39.4615ZM38.4231 39.4615H25.9615C25.3385 39.4615 24.9231 39.0462 24.9231 38.4231V25.9615C24.9231 25.3385 25.3385 24.9231 25.9615 24.9231H38.4231C39.0462 24.9231 39.4615 25.3385 39.4615 25.9615V38.4231C39.4615 39.0462 39.0462 39.4615 38.4231 39.4615Z" fill="#4B5971"/>
</svg>
