<svg width="53" height="52" viewBox="0 0 53 52" fill="none" xmlns="http://www.w3.org/2000/svg">
<path d="M15.4134 25.637L7.92181 21.1473C7.32144 20.7819 6.53835 20.9776 6.18596 21.578C5.82052 22.1784 6.01629 22.9615 6.61666 23.3269L14.1082 27.8166C14.7086 28.1821 15.4917 27.9863 15.8441 27.3729C16.2095 26.7712 16.0137 25.9881 15.4134 25.637ZM23.4009 51.9488C23.701 52.0402 24.0404 52.0141 24.3536 51.8313C24.0665 51.988 23.7272 52.0402 23.4009 51.9488ZM15.4134 25.637L7.92181 21.1473C7.32144 20.7819 6.53835 20.9776 6.18596 21.578C5.82052 22.1784 6.01629 22.9615 6.61666 23.3269L14.1082 27.8166C14.7086 28.1821 15.4917 27.9863 15.8441 27.3729C16.2095 26.7712 16.0137 25.9881 15.4134 25.637ZM15.4134 25.637L7.92181 21.1473C7.32144 20.7819 6.53835 20.9776 6.18596 21.578C5.82052 22.1784 6.01629 22.9615 6.61666 23.3269L14.1082 27.8166C14.7086 28.1821 15.4917 27.9863 15.8441 27.3729C16.2095 26.7712 16.0137 25.9881 15.4134 25.637ZM15.4134 25.637L7.92181 21.1473C7.32144 20.7819 6.53835 20.9776 6.18596 21.578C5.82052 22.1784 6.01629 22.9615 6.61666 23.3269L14.1082 27.8166C14.7086 28.1821 15.4917 27.9863 15.8441 27.3729C16.2095 26.7712 16.0137 25.9881 15.4134 25.637ZM15.4134 25.637L7.92181 21.1473C7.32144 20.7819 6.53835 20.9776 6.18596 21.578C5.82052 22.1784 6.01629 22.9615 6.61666 23.3269L14.1082 27.8166C14.7086 28.1821 15.4917 27.9863 15.8441 27.3729C16.2095 26.7712 16.0137 25.9881 15.4134 25.637ZM15.4134 25.637L7.92181 21.1473C7.32144 20.7819 6.53835 20.9776 6.18596 21.578C5.82052 22.1784 6.01629 22.9615 6.61666 23.3269L14.1082 27.8166C14.7086 28.1821 15.4917 27.9863 15.8441 27.3729C16.2095 26.7712 16.0137 25.9881 15.4134 25.637Z" fill="#4B5971"/>
<path d="M25.014 48.545V25.992L44.8784 14.7155L46.9118 13.4835C47.319 13.2185 47.396 12.8818 47.4495 12.6404C47.5017 12.1444 47.2668 11.6223 46.7578 11.3613L24.3093 0.137041C23.9438 -0.0456802 23.5262 -0.0456802 23.1607 0.137041L0.712179 11.3613C-0.123116 11.9095 0.00739881 13.1233 0.00739881 13.2538V37.2032C0.00739881 37.647 0.242325 38.0646 0.620818 38.2996C0.620818 38.2996 22.5865 51.5729 22.965 51.7426C23.735 52.1211 24.2179 52.0167 24.5833 51.834L31.8922 47.6053C32.5186 47.2398 32.7275 46.4437 32.362 45.8172C32.0096 45.1908 31.2004 44.9819 30.587 45.3343L25.5361 48.2709V48.2579L25.014 48.545ZM22.4559 25.992V48.4797L2.55244 36.4854V14.6894L22.4559 25.992ZM23.735 23.7733L3.9881 12.5751L23.735 2.70818L43.4819 12.5751L23.735 23.7733Z" fill="#4B5971"/>
<path d="M41.4458 46.6721L51.7435 40.4857C52.0306 40.303 52.2133 39.9897 52.2133 39.6373V28.2956C52.2133 27.8962 51.9131 27.6169 51.5868 27.4603L51.3258 27.3298C51.2997 27.3167 51.2606 27.3167 51.2345 27.3167H51.3128L41.3023 22.318C41.0282 22.1875 40.7019 22.1875 40.4278 22.318L30.4304 27.3167C29.6995 27.5974 29.5168 28.2238 29.5168 28.5762V39.6373C29.5168 39.9897 29.6995 40.303 29.9997 40.4857C29.9997 40.4857 40.2046 46.6081 40.2569 46.6212C40.2569 46.6225 40.8651 47.0728 41.4458 46.6721ZM39.8927 44.1662L31.4745 39.0892V29.9662L39.8927 34.73V44.1662ZM40.8716 33.0463L32.6622 28.387L40.8716 24.2888L49.0679 28.387L40.8716 33.0463ZM50.2556 39.0892L41.8504 44.1532V34.73L50.2556 29.9662V39.0892Z" fill="#4B5971"/>
</svg>
