<svg width="17" height="14" viewBox="0 0 17 14" fill="none" xmlns="http://www.w3.org/2000/svg">
<path d="M11.6667 13V11.6667C11.6667 10.9594 11.3857 10.2811 10.8856 9.78105C10.3855 9.28095 9.70725 9 9 9H3.66667C2.95942 9 2.28115 9.28095 1.78105 9.78105C1.28095 10.2811 1 10.9594 1 11.6667V13" stroke="#637381" stroke-linecap="round" stroke-linejoin="round"/>
<path d="M6.33342 6.33333C7.80617 6.33333 9.00008 5.13943 9.00008 3.66667C9.00008 2.19391 7.80617 1 6.33342 1C4.86066 1 3.66675 2.19391 3.66675 3.66667C3.66675 5.13943 4.86066 6.33333 6.33342 6.33333Z" stroke="#637381" stroke-linecap="round" stroke-linejoin="round"/>
<path d="M15.6667 13V11.6667C15.6663 11.0758 15.4697 10.5019 15.1077 10.0349C14.7457 9.56791 14.2388 9.23438 13.6667 9.08667" stroke="#637381" stroke-linecap="round" stroke-linejoin="round"/>
<path d="M11 1.08667C11.5736 1.23354 12.082 1.56714 12.4451 2.03488C12.8082 2.50262 13.0052 3.07789 13.0052 3.67C13.0052 4.26212 12.8082 4.83739 12.4451 5.30513C12.082 5.77287 11.5736 6.10647 11 6.25334" stroke="#637381" stroke-linecap="round" stroke-linejoin="round"/>
</svg>
