<svg width="36" height="27" viewBox="0 0 36 27" fill="currentColor" xmlns="http://www.w3.org/2000/svg">
<path d="M30.5224 2.54744C30.5124 2.52906 30.4958 2.51466 30.4756 2.50682C28.1415 1.49169 25.6784 0.767826 23.1479 0.353338C23.1249 0.349286 23.1011 0.352209 23.08 0.361691C23.0589 0.371172 23.0414 0.38673 23.0302 0.406151C22.6948 0.983195 22.3903 1.57591 22.1179 2.18205C19.3901 1.78954 16.6155 1.78954 13.8877 2.18205C13.6135 1.57438 13.3042 0.981508 12.9611 0.406151C12.9493 0.387152 12.9318 0.371953 12.9108 0.362533C12.8898 0.353113 12.8662 0.349909 12.8433 0.353338C10.3125 0.766956 7.8492 1.49088 5.51542 2.50688C5.49544 2.5149 5.47858 2.52861 5.46717 2.54611C0.800076 9.1528 -0.478418 15.597 0.148768 21.9615C0.150532 21.9771 0.155588 21.9922 0.163634 22.0059C0.17168 22.0196 0.182552 22.0316 0.195604 22.0413C2.91321 23.9487 5.95289 25.4046 9.18492 26.3469C9.20768 26.3534 9.23199 26.3531 9.25457 26.3461C9.27715 26.3391 9.29692 26.3257 9.31123 26.3077C10.0054 25.4123 10.6205 24.4643 11.1502 23.4731C11.1575 23.4595 11.1617 23.4446 11.1624 23.4293C11.1632 23.4141 11.1605 23.3989 11.1546 23.3847C11.1487 23.3705 11.1397 23.3577 11.1282 23.347C11.1167 23.3364 11.103 23.3281 11.0878 23.3229C10.1179 22.9711 9.17888 22.547 8.27959 22.0546C8.26326 22.0455 8.24954 22.0328 8.23964 22.0174C8.22975 22.0021 8.22399 21.9847 8.22287 21.9668C8.22175 21.9489 8.22531 21.9309 8.23323 21.9146C8.24114 21.8983 8.25318 21.8841 8.26827 21.8732C8.4575 21.7392 8.64345 21.6011 8.82596 21.459C8.84197 21.4465 8.86134 21.4385 8.88189 21.4359C8.90244 21.4333 8.92336 21.4361 8.94229 21.4442C14.8339 23.9929 21.2123 23.9929 27.0342 21.4442C27.0532 21.4356 27.0743 21.4323 27.0952 21.4347C27.116 21.4371 27.1357 21.4451 27.152 21.4577C27.3347 21.6005 27.5211 21.7391 27.7111 21.8732C27.7263 21.884 27.7384 21.8981 27.7464 21.9144C27.7545 21.9306 27.7582 21.9485 27.7572 21.9664C27.7562 21.9844 27.7506 22.0018 27.7408 22.0172C27.7311 22.0326 27.7174 22.0454 27.7012 22.0546C26.8039 22.5512 25.8641 22.975 24.8916 23.3216C24.8765 23.327 24.8627 23.3354 24.8513 23.3462C24.8399 23.3571 24.831 23.37 24.8252 23.3843C24.8194 23.3986 24.8169 23.4139 24.8178 23.4292C24.8187 23.4445 24.8229 23.4595 24.8303 23.4731C25.369 24.4588 25.9831 25.4056 26.6679 26.3061C26.6818 26.3246 26.7015 26.3384 26.7242 26.3457C26.7468 26.353 26.7714 26.3534 26.7942 26.3467C30.0321 25.4076 33.0771 23.9516 35.7981 22.0413C35.8113 22.0321 35.8224 22.0204 35.8304 22.0069C35.8385 21.9933 35.8435 21.9783 35.8449 21.9628C36.5958 14.6049 34.5878 8.21343 30.5224 2.54744ZM12.0301 18.0862C10.2563 18.0862 8.79474 16.5432 8.79474 14.6482C8.79474 12.7532 10.2279 11.2101 12.0301 11.2101C13.8463 11.2101 15.2937 12.7666 15.2654 14.6481C15.2654 16.5432 13.8321 18.0862 12.0301 18.0862ZM23.9922 18.0862C22.2184 18.0862 20.7569 16.5432 20.7569 14.6482C20.7569 12.7532 22.1901 11.2101 23.9922 11.2101C25.8085 11.2101 27.2559 12.7666 27.2275 14.6481C27.2275 16.5432 25.8085 18.0862 23.9922 18.0862Z"/>
</svg>
