<svg width="11" height="10" viewBox="0 0 11 10" fill="none" xmlns="http://www.w3.org/2000/svg">
<path d="M9.30602 1.70726C9.08611 1.48304 8.825 1.30517 8.53762 1.18381C8.25024 1.06246 7.94222 1 7.63115 1C7.32007 1 7.01205 1.06246 6.72467 1.18381C6.43729 1.30517 6.17619 1.48304 5.95628 1.70726L5.49989 2.17238L5.04349 1.70726C4.59929 1.25456 3.99682 1.00023 3.36862 1.00023C2.74043 1.00023 2.13796 1.25456 1.69375 1.70726C1.24955 2.15996 1 2.77395 1 3.41416C1 4.05438 1.24955 4.66837 1.69375 5.12107L2.15014 5.58619L5.49989 9L8.84962 5.58619L9.30602 5.12107C9.52603 4.89695 9.70056 4.63086 9.81963 4.33798C9.93871 4.0451 10 3.73119 10 3.41416C10 3.09714 9.93871 2.78322 9.81963 2.49035C9.70056 2.19747 9.52603 1.93137 9.30602 1.70726V1.70726Z" stroke="#212B36" stroke-linecap="round" stroke-linejoin="round"/>
</svg>
