<svg width="19" height="18" viewBox="0 0 19 18" fill="none" xmlns="http://www.w3.org/2000/svg">
<path d="M16.6891 2.41452C16.2738 1.96607 15.7806 1.61034 15.2377 1.36763C14.6949 1.12492 14.1131 1 13.5255 1C12.9379 1 12.3561 1.12492 11.8133 1.36763C11.2704 1.61034 10.7772 1.96607 10.3619 2.41452L9.49978 3.34476L8.63771 2.41452C7.79866 1.50912 6.66066 1.00047 5.47407 1.00047C4.28747 1.00047 3.14947 1.50912 2.31042 2.41452C1.47137 3.31992 1 4.5479 1 5.82833C1 7.10875 1.47137 8.33674 2.31042 9.24214L3.1725 10.1724L9.49978 17L15.8271 10.1724L16.6891 9.24214C17.1047 8.79391 17.4344 8.26171 17.6593 7.67596C17.8842 7.0902 18 6.46237 18 5.82833C18 5.19428 17.8842 4.56645 17.6593 3.9807C17.4344 3.39494 17.1047 2.86275 16.6891 2.41452V2.41452Z" stroke="white" stroke-linecap="round" stroke-linejoin="round"/>
</svg>
