<svg width="12" height="12" viewBox="0 0 12 12" fill="none" xmlns="http://www.w3.org/2000/svg">
<path d="M1.1709 9.33254V5.99953C1.1709 4.67357 1.69763 3.40192 2.63523 2.46433C3.57282 1.52673 4.84447 1 6.17042 1C7.49638 1 8.76803 1.52673 9.70562 2.46433C10.6432 3.40192 11.1699 4.67357 11.1699 5.99953V9.33254" stroke="#637381" stroke-linecap="round" stroke-linejoin="round"/>
<path d="M11.1699 9.88933C11.1699 10.184 11.0529 10.4666 10.8445 10.6749C10.6362 10.8833 10.3536 11.0003 10.0589 11.0003H9.50344C9.20878 11.0003 8.92619 10.8833 8.71784 10.6749C8.50949 10.4666 8.39243 10.184 8.39243 9.88933V8.22282C8.39243 7.92816 8.50949 7.64558 8.71784 7.43722C8.92619 7.22887 9.20878 7.11182 9.50344 7.11182H11.1699V9.88933ZM1.1709 9.88933C1.1709 10.184 1.28795 10.4666 1.4963 10.6749C1.70466 10.8833 1.98725 11.0003 2.2819 11.0003H2.83741C3.13206 11.0003 3.41465 10.8833 3.62301 10.6749C3.83136 10.4666 3.94841 10.184 3.94841 9.88933V8.22282C3.94841 7.92816 3.83136 7.64558 3.62301 7.43722C3.41465 7.22887 3.13206 7.11182 2.83741 7.11182H1.1709V9.88933Z" stroke="#637381" stroke-linecap="round" stroke-linejoin="round"/>
</svg>
