<svg width="13" height="13" viewBox="0 0 13 13" fill="none" xmlns="http://www.w3.org/2000/svg">
<path d="M6.5 12C9.53757 12 12 9.53757 12 6.5C12 3.46243 9.53757 1 6.5 1C3.46243 1 1 3.46243 1 6.5C1 9.53757 3.46243 12 6.5 12Z" stroke="#4B5971" stroke-linecap="round" stroke-linejoin="round"/>
<path d="M4.89954 4.85002C5.02884 4.48244 5.28407 4.17248 5.62001 3.97504C5.95595 3.77761 6.35093 3.70544 6.73498 3.77131C7.11904 3.83719 7.46739 4.03686 7.71833 4.33496C7.96927 4.63306 8.10662 5.01036 8.10604 5.40002C8.10604 6.50002 6.45604 7.05002 6.45604 7.05002" stroke="#4B5971" stroke-linecap="round" stroke-linejoin="round"/>
<path d="M6.5 9.25H6.505" stroke="#4B5971" stroke-linecap="round" stroke-linejoin="round"/>
</svg>
