<svg width="27" height="27" viewBox="0 0 27 27" fill="currentColor" xmlns="http://www.w3.org/2000/svg">
<path d="M13.8215 8.78174C11.4021 8.78174 9.42773 10.7561 9.42773 13.1755C9.42773 15.5949 11.4021 17.5693 13.8215 17.5693C16.2409 17.5693 18.2153 15.5949 18.2153 13.1755C18.2153 10.7561 16.2409 8.78174 13.8215 8.78174Z"/>
<path d="M26.9988 13.1757C26.9988 11.3562 27.0153 9.55321 26.9131 7.73703C26.8109 5.6275 26.3297 3.75529 24.7871 2.21269C23.2412 0.666802 21.3723 0.188861 19.2628 0.0866802C17.4433 -0.0155004 15.6403 0.000980419 13.8241 0.000980419C12.0046 0.000980419 10.2016 -0.0155004 8.38547 0.0866802C6.27594 0.188861 4.40373 0.670098 2.86113 2.21269C1.31524 3.75859 0.837298 5.6275 0.735118 7.73703C0.632937 9.55651 0.649418 11.3595 0.649418 13.1757C0.649418 14.9919 0.632937 16.7981 0.735118 18.6143C0.837298 20.7238 1.31854 22.5961 2.86113 24.1387C4.40702 25.6845 6.27594 26.1625 8.38547 26.2647C10.2049 26.3668 12.0079 26.3504 13.8241 26.3504C15.6436 26.3504 17.4466 26.3668 19.2628 26.2647C21.3723 26.1625 23.2445 25.6813 24.7871 24.1387C26.333 22.5928 26.8109 20.7238 26.9131 18.6143C27.0186 16.7981 26.9988 14.9951 26.9988 13.1757ZM13.8208 19.9361C10.0797 19.9361 7.06042 16.9168 7.06042 13.1757C7.06042 9.43455 10.0797 6.41528 13.8208 6.41528C17.5619 6.41528 20.5812 9.43455 20.5812 13.1757C20.5812 16.9168 17.5619 19.9361 13.8208 19.9361ZM20.8581 7.71726C19.9846 7.71726 19.2792 7.01188 19.2792 6.1384C19.2792 5.26493 19.9846 4.55955 20.8581 4.55955C21.7316 4.55955 22.4369 5.26493 22.4369 6.1384C22.4336 7.01518 21.7316 7.71726 20.8581 7.71726Z"/>
</svg>
