<svg width="16" height="18" viewBox="0 0 16 18" fill="none" xmlns="http://www.w3.org/2000/svg">
<path d="M13.0048 5.80191C13.0048 4.52837 12.4989 3.30698 11.5983 2.40645C10.6978 1.50591 9.47642 1 8.20287 1C6.92932 1 5.70794 1.50591 4.8074 2.40645C3.90687 3.30698 3.40096 4.52837 3.40096 5.80191C3.40096 11.4041 1 13.0048 1 13.0048H15.4057C15.4057 13.0048 13.0048 11.4041 13.0048 5.80191Z" stroke="#637381" stroke-linecap="round" stroke-linejoin="round"/>
<path d="M9.58697 16.2061C9.44627 16.4486 9.24431 16.65 9.00132 16.7899C8.75833 16.9299 8.48284 17.0035 8.20242 17.0035C7.92201 17.0035 7.64651 16.9299 7.40352 16.7899C7.16053 16.65 6.95858 16.4486 6.81787 16.2061" stroke="#637381" stroke-linecap="round" stroke-linejoin="round"/>
</svg>
