<svg width="12" height="15" viewBox="0 0 12 15" fill="none" xmlns="http://www.w3.org/2000/svg">
<path d="M7.25 1H2.25C1.91848 1 1.60054 1.13409 1.36612 1.37277C1.1317 1.61146 1 1.93518 1 2.27273V12.4545C1 12.7921 1.1317 13.1158 1.36612 13.3545C1.60054 13.5932 1.91848 13.7273 2.25 13.7273H9.75C10.0815 13.7273 10.3995 13.5932 10.6339 13.3545C10.8683 13.1158 11 12.7921 11 12.4545V4.81818L7.25 1Z" stroke="#212B36" stroke-linecap="round" stroke-linejoin="round"/>
<path d="M7.36353 1V4.63636H10.9999" stroke="#212B36" stroke-linecap="round" stroke-linejoin="round"/>
<path d="M9.18175 8.72729H2.81812" stroke="#212B36" stroke-linecap="round" stroke-linejoin="round"/>
<path d="M9.18175 11.4546H2.81812" stroke="#212B36" stroke-linecap="round" stroke-linejoin="round"/>
<path d="M3.72721 6H3.27266H2.81812" stroke="#212B36" stroke-linecap="round" stroke-linejoin="round"/>
</svg>
