<svg width="16" height="16" viewBox="0 0 16 16" fill="none" xmlns="http://www.w3.org/2000/svg">
<path d="M13.4444 1H2.55556C1.69645 1 1 1.69645 1 2.55556V13.4444C1 14.3036 1.69645 15 2.55556 15H13.4444C14.3036 15 15 14.3036 15 13.4444V2.55556C15 1.69645 14.3036 1 13.4444 1Z" stroke="#637381" stroke-linecap="round" stroke-linejoin="round"/>
<path d="M5.30764 6.38456C5.9024 6.38456 6.38456 5.9024 6.38456 5.30764C6.38456 4.71287 5.9024 4.23071 5.30764 4.23071C4.71287 4.23071 4.23071 4.71287 4.23071 5.30764C4.23071 5.9024 4.71287 6.38456 5.30764 6.38456Z" stroke="#637381" stroke-linecap="round" stroke-linejoin="round"/>
<path d="M15 10.3007L10.9615 6.38464L2.0769 15" stroke="#637381" stroke-linecap="round" stroke-linejoin="round"/>
</svg>
