<svg width="13" height="13" viewBox="0 0 13 13" fill="none" xmlns="http://www.w3.org/2000/svg">
<path d="M5.39972 3.0855L6.55681 1.92842C6.81006 1.67517 7.11071 1.47428 7.4416 1.33722C7.77249 1.20016 8.12713 1.12962 8.48528 1.12962C8.84343 1.12962 9.19808 1.20016 9.52896 1.33722C9.85985 1.47428 10.1605 1.67517 10.4138 1.92842C10.667 2.18167 10.8679 2.48232 11.005 2.81321C11.142 3.1441 11.2126 3.49874 11.2126 3.85689C11.2126 4.21504 11.142 4.56969 11.005 4.90058C10.8679 5.23146 10.667 5.53212 10.4138 5.78537L9.25667 6.94245M6.9425 9.25662L5.78542 10.4137C5.53217 10.667 5.23152 10.8678 4.90063 11.0049C4.56974 11.142 4.2151 11.2125 3.85695 11.2125C3.13363 11.2125 2.43994 10.9252 1.92847 10.4137C1.41701 9.90224 1.12967 9.20855 1.12967 8.48523C1.12967 7.76191 1.41701 7.06822 1.92847 6.55676L3.08556 5.39967" stroke="#637381" stroke-linecap="round" stroke-linejoin="round"/>
<path d="M4.62842 7.71387L7.71397 4.62831" stroke="#637381" stroke-linecap="round" stroke-linejoin="round"/>
</svg>
