<svg width="13" height="14" viewBox="0 0 13 14" fill="none" xmlns="http://www.w3.org/2000/svg">
<path d="M2.83333 1L1 3.4V11.8C1 12.1183 1.12877 12.4235 1.35798 12.6485C1.58719 12.8736 1.89807 13 2.22222 13H10.7778C11.1019 13 11.4128 12.8736 11.642 12.6485C11.8712 12.4235 12 12.1183 12 11.8V3.4L10.1667 1H2.83333Z" stroke="#212B36" stroke-linecap="round" stroke-linejoin="round"/>
<path d="M1 3.3999H12" stroke="#212B36" stroke-linecap="round" stroke-linejoin="round"/>
<path d="M8.94455 5.7998C8.94455 6.43632 8.68701 7.04677 8.22859 7.49686C7.77017 7.94695 7.14842 8.1998 6.50011 8.1998C5.8518 8.1998 5.23005 7.94695 4.77163 7.49686C4.3132 7.04677 4.05566 6.43632 4.05566 5.7998" stroke="#212B36" stroke-linecap="round" stroke-linejoin="round"/>
</svg>
