<svg width="14" height="7" viewBox="0 0 14 7" fill="none" xmlns="http://www.w3.org/2000/svg">
<path d="M8.63636 1H10.2727C10.6309 1 10.9855 1.07054 11.3164 1.2076C11.6473 1.34466 11.9479 1.54555 12.2012 1.7988C12.4545 2.05205 12.6553 2.3527 12.7924 2.68359C12.9295 3.01448 13 3.36912 13 3.72727C13 4.08542 12.9295 4.44007 12.7924 4.77095C12.6553 5.10184 12.4545 5.4025 12.2012 5.65575C11.9479 5.909 11.6473 6.10989 11.3164 6.24694C10.9855 6.384 10.6309 6.45455 10.2727 6.45455H8.63636M5.36364 6.45455H3.72727C3.36912 6.45455 3.01448 6.384 2.68359 6.24694C2.3527 6.10989 2.05205 5.909 1.7988 5.65575C1.28734 5.14428 1 4.45059 1 3.72727C1 3.00396 1.28734 2.31026 1.7988 1.7988C2.31026 1.28734 3.00396 1 3.72727 1H5.36364" stroke="#4B5971" stroke-linecap="round" stroke-linejoin="round"/>
<path d="M4.81812 3.72729H9.18175" stroke="#4B5971" stroke-linecap="round" stroke-linejoin="round"/>
</svg>
