<svg width="14" height="13" viewBox="0 0 14 13" fill="none" xmlns="http://www.w3.org/2000/svg">
<path d="M6.22883 3.64178L7.38591 2.4847C7.63916 2.23144 7.93981 2.03056 8.2707 1.8935C8.60159 1.75644 8.95623 1.6859 9.31438 1.6859C9.67253 1.6859 10.0272 1.75644 10.3581 1.8935C10.689 2.03056 10.9896 2.23144 11.2429 2.4847C11.4961 2.73795 11.697 3.0386 11.8341 3.36949C11.9711 3.70037 12.0417 4.05502 12.0417 4.41317C12.0417 4.77132 11.9711 5.12596 11.8341 5.45685C11.697 5.78774 11.4961 6.08839 11.2429 6.34164L10.0858 7.49873M7.7716 9.81289L6.61452 10.97C6.36127 11.2232 6.06062 11.4241 5.72973 11.5612C5.39884 11.6982 5.0442 11.7688 4.68605 11.7688C3.96273 11.7688 3.26904 11.4814 2.75757 10.97C2.24611 10.4585 1.95877 9.76482 1.95877 9.0415C1.95877 8.31819 2.24611 7.62449 2.75757 7.11303L3.91466 5.95595" stroke="#637381" stroke-linecap="round" stroke-linejoin="round"/>
<path d="M5.45703 8.27002L8.54259 5.18446" stroke="#637381" stroke-linecap="round" stroke-linejoin="round"/>
</svg>
