<svg width="12" height="12" viewBox="0 0 12 12" fill="none" xmlns="http://www.w3.org/2000/svg">
<path d="M1 9.33254V5.99953C1 4.67357 1.52673 3.40192 2.46433 2.46433C3.40192 1.52673 4.67357 1 5.99952 1C7.32548 1 8.59713 1.52673 9.53472 2.46433C10.4723 3.40192 10.999 4.67357 10.999 5.99953V9.33254" stroke="#637381" stroke-linecap="round" stroke-linejoin="round"/>
<path d="M10.999 9.88933C10.999 10.184 10.882 10.4666 10.6736 10.6749C10.4653 10.8833 10.1827 11.0003 9.88804 11.0003H9.33254C9.03788 11.0003 8.7553 10.8833 8.54694 10.6749C8.33859 10.4666 8.22154 10.184 8.22154 9.88933V8.22282C8.22154 7.92816 8.33859 7.64558 8.54694 7.43722C8.7553 7.22887 9.03788 7.11182 9.33254 7.11182H10.999V9.88933ZM1 9.88933C1 10.184 1.11705 10.4666 1.32541 10.6749C1.53376 10.8833 1.81635 11.0003 2.11101 11.0003H2.66651C2.96117 11.0003 3.24375 10.8833 3.45211 10.6749C3.66046 10.4666 3.77751 10.184 3.77751 9.88933V8.22282C3.77751 7.92816 3.66046 7.64558 3.45211 7.43722C3.24375 7.22887 2.96117 7.11182 2.66651 7.11182H1V9.88933Z" stroke="#637381" stroke-linecap="round" stroke-linejoin="round"/>
</svg>
