<svg width="19" height="18" viewBox="0 0 19 18" fill="none" xmlns="http://www.w3.org/2000/svg">
<path d="M15.6091 3.68418L15.6091 3.68417L15.6059 3.68117C14.7953 2.92552 13.8343 2.33151 12.7804 1.9321C11.7281 1.53331 10.603 1.33597 9.47047 1.35078C7.3354 1.34706 5.27841 2.13869 3.75315 3.56352C2.22525 4.99081 1.35546 6.93856 1.35003 8.98103C1.34459 11.0235 2.20401 12.9755 3.72442 14.41C5.24245 15.8424 7.2957 16.6437 9.43113 16.6497C9.98948 16.6577 10.539 16.4922 10.994 16.173C11.4509 15.8526 11.7893 15.393 11.9465 14.861L11.9494 14.851L11.9521 14.8409C12.053 14.4538 12.052 14.0488 11.949 13.6623C11.9014 13.4834 11.8328 13.3117 11.7454 13.15H12.4026C13.7121 13.1554 14.9818 12.6961 15.9558 11.8544C16.9313 11.0114 17.5394 9.84499 17.6445 8.5853L17.6458 8.56947L17.6463 8.55359C17.6773 7.65097 17.5115 6.75287 17.1602 5.9149C16.8089 5.07706 16.2803 4.31839 15.6091 3.68418ZM5.34818 10.3679L5.34817 10.3679L5.34458 10.3702C5.26674 10.4198 5.1709 10.449 5.06941 10.4497C4.96792 10.4504 4.87144 10.4226 4.79252 10.3739C4.71396 10.3253 4.659 10.2601 4.62815 10.1915C4.59756 10.1235 4.58999 10.0512 4.60418 9.98192C4.61845 9.91226 4.65556 9.8422 4.71784 9.78302C4.78055 9.72344 4.86551 9.67842 4.96399 9.65949C5.06257 9.64054 5.1646 9.64978 5.25561 9.68464C5.34638 9.71942 5.41762 9.77623 5.46474 9.84175L5.46472 9.84176L5.46735 9.84536C5.49853 9.88809 5.51877 9.9339 5.52894 9.97977C5.53909 10.0255 5.53946 10.0723 5.53008 10.1181C5.52068 10.164 5.50126 10.21 5.47093 10.2529C5.44051 10.296 5.39938 10.3357 5.34818 10.3679ZM6.21925 6.75135C6.18013 6.81938 6.11626 6.88143 6.03016 6.92363C5.94376 6.96599 5.84273 6.9843 5.74125 6.97345C5.63983 6.96261 5.54871 6.92386 5.47864 6.86755C5.40899 6.81159 5.36469 6.74232 5.34417 6.67226C5.32379 6.6027 5.32589 6.52971 5.35083 6.46049C5.37597 6.39071 5.42527 6.3228 5.49944 6.26985C5.57402 6.21662 5.66831 6.18273 5.77046 6.1774C5.87265 6.17206 5.97181 6.19589 6.05444 6.24228C6.16071 6.30196 6.22679 6.39085 6.25317 6.48091C6.27916 6.56965 6.2688 6.66519 6.21925 6.75135ZM8.79569 4.85052C8.69427 4.85052 8.59816 4.82211 8.5198 4.77295C8.4418 4.72402 8.38748 4.65866 8.35719 4.59001C8.32717 4.52196 8.32008 4.44972 8.33474 4.3805C8.34949 4.31089 8.38709 4.24097 8.44982 4.18208C8.51298 4.12278 8.59827 4.07821 8.69684 4.05981C8.79552 4.04138 8.8974 4.05115 8.98807 4.08641C9.07851 4.12157 9.14929 4.17861 9.19597 4.2442C9.24224 4.30921 9.26401 4.38098 9.26401 4.4506C9.26401 4.49722 9.25429 4.54446 9.2342 4.59001C9.21404 4.63569 9.18329 4.67995 9.14157 4.71912C9.09976 4.75838 9.04793 4.79152 8.98807 4.8148C8.92817 4.83809 8.86269 4.85052 8.79569 4.85052ZM12.7644 5.49371C12.6817 5.5401 12.5826 5.56393 12.4804 5.55859C12.3782 5.55326 12.284 5.51937 12.2094 5.46614C12.1352 5.41319 12.0859 5.34528 12.0608 5.2755C12.0358 5.20628 12.0337 5.13329 12.0541 5.06373C12.0746 4.99367 12.1189 4.9244 12.1886 4.86844C12.2586 4.81213 12.3498 4.77338 12.4512 4.76254C12.5527 4.75169 12.6537 4.77 12.7401 4.81236C12.8262 4.85456 12.8901 4.91661 12.9292 4.98464C12.9787 5.0708 12.9891 5.16634 12.9631 5.25508C12.9367 5.34514 12.8706 5.43404 12.7644 5.49371Z" stroke="white" stroke-width="1.3"/>
</svg>
