<svg width="13" height="16" viewBox="0 0 13 16" fill="none" xmlns="http://www.w3.org/2000/svg">
<path d="M7.875 1H2.375C2.01033 1 1.66059 1.1475 1.40273 1.41005C1.14487 1.6726 1 2.0287 1 2.4V13.6C1 13.9713 1.14487 14.3274 1.40273 14.5899C1.66059 14.8525 2.01033 15 2.375 15H10.625C10.9897 15 11.3394 14.8525 11.5973 14.5899C11.8551 14.3274 12 13.9713 12 13.6V5.2L7.875 1Z" stroke="#4B5971" stroke-linecap="round" stroke-linejoin="round"/>
<path d="M8 1V5H12" stroke="#4B5971" stroke-linecap="round" stroke-linejoin="round"/>
<path d="M10 9.5H3" stroke="#4B5971" stroke-linecap="round" stroke-linejoin="round"/>
<path d="M10 12.5H3" stroke="#4B5971" stroke-linecap="round" stroke-linejoin="round"/>
<path d="M4 6.5H3.5H3" stroke="#4B5971" stroke-linecap="round" stroke-linejoin="round"/>
</svg>
