<svg width="16" height="16" viewBox="0 0 16 16" fill="none" xmlns="http://www.w3.org/2000/svg">
<path d="M4.72318 7.85622L2.42751 6.48042C2.24353 6.36844 2.00357 6.42843 1.89558 6.6124C1.7836 6.79638 1.84359 7.03634 2.02756 7.14833L4.32324 8.52413C4.50721 8.63611 4.74718 8.57612 4.85516 8.38815C4.96714 8.20378 4.90715 7.96381 4.72318 7.85622ZM7.17083 15.9191C7.26282 15.9471 7.3668 15.9391 7.46279 15.8831C7.3748 15.9311 7.27082 15.9471 7.17083 15.9191ZM4.72318 7.85622L2.42751 6.48042C2.24353 6.36844 2.00357 6.42843 1.89558 6.6124C1.7836 6.79638 1.84359 7.03634 2.02756 7.14833L4.32324 8.52413C4.50721 8.63611 4.74718 8.57612 4.85516 8.38815C4.96714 8.20378 4.90715 7.96381 4.72318 7.85622ZM4.72318 7.85622L2.42751 6.48042C2.24353 6.36844 2.00357 6.42843 1.89558 6.6124C1.7836 6.79638 1.84359 7.03634 2.02756 7.14833L4.32324 8.52413C4.50721 8.63611 4.74718 8.57612 4.85516 8.38815C4.96714 8.20378 4.90715 7.96381 4.72318 7.85622ZM4.72318 7.85622L2.42751 6.48042C2.24353 6.36844 2.00357 6.42843 1.89558 6.6124C1.7836 6.79638 1.84359 7.03634 2.02756 7.14833L4.32324 8.52413C4.50721 8.63611 4.74718 8.57612 4.85516 8.38815C4.96714 8.20378 4.90715 7.96381 4.72318 7.85622ZM4.72318 7.85622L2.42751 6.48042C2.24353 6.36844 2.00357 6.42843 1.89558 6.6124C1.7836 6.79638 1.84359 7.03634 2.02756 7.14833L4.32324 8.52413C4.50721 8.63611 4.74718 8.57612 4.85516 8.38815C4.96714 8.20378 4.90715 7.96381 4.72318 7.85622ZM4.72318 7.85622L2.42751 6.48042C2.24353 6.36844 2.00357 6.42843 1.89558 6.6124C1.7836 6.79638 1.84359 7.03634 2.02756 7.14833L4.32324 8.52413C4.50721 8.63611 4.74718 8.57612 4.85516 8.38815C4.96714 8.20378 4.90715 7.96381 4.72318 7.85622Z" fill="#4B5971"/>
<path d="M7.66517 14.8759V7.96486L13.7523 4.50936L14.3754 4.13181C14.5002 4.05062 14.5238 3.94744 14.5402 3.87345C14.5562 3.72147 14.4842 3.56149 14.3282 3.4815L7.44921 0.041994C7.33722 -0.013998 7.20924 -0.013998 7.09726 0.041994L0.218236 3.4815C-0.0377271 3.64948 0.00226725 4.02143 0.00226725 4.06142V11.4004C0.00226725 11.5364 0.074257 11.6643 0.19024 11.7363C0.19024 11.7363 6.92128 15.8037 7.03726 15.8557C7.27323 15.9717 7.42121 15.9397 7.53319 15.8837L9.77287 14.5879C9.96485 14.4759 10.0288 14.232 9.91685 14.04C9.80887 13.848 9.5609 13.784 9.37293 13.892L7.82515 14.7919V14.7879L7.66517 14.8759ZM6.88129 7.96486V14.8559L0.782156 11.1804V4.50136L6.88129 7.96486ZM7.27323 7.28496L1.22209 3.85345L7.27323 0.829882L13.3244 3.85345L7.27323 7.28496Z" fill="#4B5971"/>
<path d="M12.7004 14.302L15.856 12.4063C15.9439 12.3503 15.9999 12.2543 15.9999 12.1463V8.67082C15.9999 8.54843 15.9079 8.46285 15.808 8.41485L15.728 8.37486C15.72 8.37086 15.708 8.37086 15.7 8.37086H15.724L12.6564 6.83908C12.5724 6.79908 12.4724 6.79908 12.3884 6.83908L9.32488 8.37086C9.10091 8.45685 9.04492 8.64882 9.04492 8.7568V12.1463C9.04492 12.2543 9.10091 12.3503 9.1929 12.4063C9.1929 12.4063 12.3201 14.2824 12.3361 14.2864C12.3361 14.2868 12.5224 14.4248 12.7004 14.302ZM12.2245 13.5341L9.64484 11.9783V9.18274L12.2245 10.6425V13.5341ZM12.5244 10.1266L10.0088 8.69881L12.5244 7.44299L15.0361 8.69881L12.5244 10.1266ZM15.4 11.9783L12.8244 13.5301V10.6425L15.4 9.18274V11.9783Z" fill="#4B5971"/>
</svg>
