<svg width="16" height="16" viewBox="0 0 16 16" fill="none" xmlns="http://www.w3.org/2000/svg">
<path d="M15.3333 16H0.666667C0.3 16 1.69271e-08 15.7 0 15.3333V0.666667C0 0.3 0.3 1.69271e-08 0.666667 0H15.3333C15.7 0 16 0.3 16 0.666667V15.3333C16 15.7 15.7 16 15.3333 16ZM1.33333 14.6667H14.6667V1.33333H1.33333V14.6667ZM12.3333 6H3.66667C3.46667 6 3.33333 5.86667 3.33333 5.66667V3.66667C3.33333 3.46667 3.46667 3.33333 3.66667 3.33333H12.3333C12.5333 3.33333 12.6667 3.46667 12.6667 3.66667V5.66667C12.6667 5.86667 12.5333 6 12.3333 6ZM5.66667 12.6667H3.66667C3.46667 12.6667 3.33333 12.5333 3.33333 12.3333V8.33333C3.33333 8.13333 3.46667 8 3.66667 8H5.66667C5.86667 8 6 8.13333 6 8.33333V12.3333C6 12.5333 5.86667 12.6667 5.66667 12.6667ZM12.3333 12.6667H8.33333C8.13333 12.6667 8 12.5333 8 12.3333V8.33333C8 8.13333 8.13333 8 8.33333 8H12.3333C12.5333 8 12.6667 8.13333 12.6667 8.33333V12.3333C12.6667 12.5333 12.5333 12.6667 12.3333 12.6667Z" fill="#4B5971"/>
</svg>
