<svg width="32" height="27" viewBox="0 0 32 27" fill="currentColor" xmlns="http://www.w3.org/2000/svg">
<path d="M32 3.43906C31.0931 4.76615 29.9966 5.89688 28.7107 6.83125C28.7242 7.02083 28.731 7.30521 28.731 7.68438C28.731 9.44479 28.4738 11.2018 27.9594 12.9555C27.445 14.7091 26.6633 16.3917 25.6142 18.0031C24.5651 19.6146 23.3164 21.0398 21.868 22.2789C20.4196 23.518 18.6734 24.5065 16.6294 25.2445C14.5854 25.9825 12.3993 26.3516 10.0711 26.3516C6.40271 26.3516 3.04569 25.3698 0 23.4062C0.473773 23.4604 1.00169 23.4875 1.58376 23.4875C4.62944 23.4875 7.34349 22.5531 9.72589 20.6844C8.30457 20.6573 7.03215 20.2206 5.90863 19.3742C4.78511 18.5279 4.01354 17.4479 3.59391 16.1344C4.04061 16.2021 4.45347 16.2359 4.83249 16.2359C5.41455 16.2359 5.98985 16.1615 6.55838 16.0125C5.0423 15.701 3.7868 14.9461 2.79188 13.7477C1.79695 12.5492 1.29949 11.1578 1.29949 9.57344V9.49219C2.21997 10.0068 3.20812 10.2844 4.26396 10.325C3.37056 9.72917 2.6599 8.95052 2.13198 7.98906C1.60406 7.0276 1.3401 5.9849 1.3401 4.86094C1.3401 3.66927 1.6379 2.56563 2.2335 1.55C3.8714 3.56771 5.86464 5.18255 8.2132 6.39453C10.5618 7.60651 13.0761 8.28021 15.7563 8.41562C15.6481 7.90104 15.5939 7.4 15.5939 6.9125C15.5939 5.09792 16.2335 3.55078 17.5127 2.27109C18.7919 0.991406 20.3384 0.351562 22.1523 0.351562C24.0474 0.351562 25.6447 1.04219 26.9442 2.42344C28.4196 2.13906 29.8071 1.61094 31.1066 0.839063C30.6058 2.39635 29.6447 3.60156 28.2234 4.45469C29.4822 4.31927 30.7411 3.98073 32 3.43906Z"/>
</svg>
