<svg width="16" height="18" viewBox="0 0 16 18" fill="none" xmlns="http://www.w3.org/2000/svg">
<path d="M11.5685 6.94459L4.4314 2.82886" stroke="#637381" stroke-linecap="round" stroke-linejoin="round"/>
<path d="M15.2742 12.1005V5.75644C15.2739 5.47831 15.2005 5.20515 15.0613 4.96435C14.9221 4.72356 14.7221 4.5236 14.4812 4.38453L8.93011 1.21249C8.68901 1.07328 8.41551 1 8.1371 1C7.8587 1 7.5852 1.07328 7.34409 1.21249L1.79301 4.38453C1.55214 4.5236 1.35208 4.72356 1.21289 4.96435C1.0737 5.20515 1.00029 5.47831 1 5.75644V12.1005C1.00029 12.3787 1.0737 12.6518 1.21289 12.8926C1.35208 13.1334 1.55214 13.3334 1.79301 13.4724L7.34409 16.6445C7.5852 16.7837 7.8587 16.857 8.1371 16.857C8.41551 16.857 8.68901 16.7837 8.93011 16.6445L14.4812 13.4724C14.7221 13.3334 14.9221 13.1334 15.0613 12.8926C15.2005 12.6518 15.2739 12.3787 15.2742 12.1005Z" stroke="#637381" stroke-linecap="round" stroke-linejoin="round"/>
<path d="M1.07715 5.00964L8.00014 9.01435L14.9231 5.00964" stroke="#637381" stroke-linecap="round" stroke-linejoin="round"/>
<path d="M8 17V9.00647" stroke="#637381" stroke-linecap="round" stroke-linejoin="round"/>
</svg>
