<svg width="110" height="110" viewBox="0 0 110 110" fill="none" xmlns="http://www.w3.org/2000/svg">
<circle cx="55" cy="55" r="55" fill="#FFECB4"/>
<mask id="mask0_904_4499" style="mask-type:alpha" maskUnits="userSpaceOnUse" x="0" y="0" width="110" height="110">
<circle cx="55" cy="55" r="55" fill="#FFECB4"/>
</mask>
<g mask="url(#mask0_904_4499)">
<path d="M109.911 102.211C95.5001 74.7932 81.183 63.2833 81.183 63.2833L76.1299 68.3364L71.0767 73.3896C70.9832 73.4831 82.493 87.8003 109.911 102.211Z" fill="url(#paint0_linear_904_4499)"/>
<path d="M40.2898 60.5696L47.2145 85.1801C48.0566 88.3617 52.0804 89.3911 54.4198 87.0517L63.3096 78.1619C64.9939 76.4776 64.9939 73.7638 63.3096 72.0795L47.4952 56.3587C44.4072 53.1771 39.1669 56.2651 40.2898 60.5696Z" fill="url(#paint1_linear_904_4499)"/>
<path d="M68.2685 32.5903L92.8791 39.5149C96.0606 40.3571 97.09 44.3809 94.7506 46.7203L85.8608 55.61C84.1765 57.2944 81.4628 57.2944 79.7784 55.61L64.0576 39.7957C60.876 36.7077 63.964 31.4674 68.2685 32.5903Z" fill="url(#paint2_linear_904_4499)"/>
<path d="M86.2354 67.8685L75.5677 78.5362C74.4448 79.6592 72.5733 79.6592 71.4504 78.5362L68.1752 75.2611C67.0523 74.1382 67.0523 72.2666 68.1752 71.1437L78.7493 60.5696C79.8722 59.4467 81.7437 59.4467 82.8667 60.5696L86.1418 63.8448C87.3583 64.8741 87.3583 66.7456 86.2354 67.8685Z" fill="url(#paint3_linear_904_4499)"/>
<path d="M60.2215 77.4134C63.4031 79.7528 67.8012 79.472 70.6085 76.6647L84.3642 62.909C87.1715 60.1018 87.4522 55.7037 85.1128 52.5221C67.7076 29.5959 68.7369 30.906 66.3975 28.5666C55.262 17.3374 39.4476 13.688 25.1304 17.431C21.2938 31.6546 25.0369 47.469 36.1724 58.6981C38.6054 61.0375 37.3889 60.1018 60.2215 77.4134Z" fill="url(#paint4_linear_904_4499)"/>
<path d="M60.2215 77.4132C63.4031 79.7526 67.8012 79.4719 70.6085 76.6646L77.5331 69.74C77.5331 69.74 66.2104 70.0207 45.6236 52.522C25.0369 35.0232 25.1304 17.4309 25.1304 17.4309C21.2938 31.6545 25.0369 47.4689 36.1724 58.698C38.6054 61.0374 37.3889 60.1016 60.2215 77.4132Z" fill="#ADADAD"/>
<path d="M41.3189 41.1993C45.5051 41.1993 48.8986 37.8058 48.8986 33.6196C48.8986 29.4335 45.5051 26.04 41.3189 26.04C37.1328 26.04 33.7393 29.4335 33.7393 33.6196C33.7393 37.8058 37.1328 41.1993 41.3189 41.1993Z" fill="url(#paint5_linear_904_4499)"/>
<path d="M41.3192 38.9536C44.265 38.9536 46.653 36.5655 46.653 33.6197C46.653 30.6739 44.265 28.2859 41.3192 28.2859C38.3734 28.2859 35.9854 30.6739 35.9854 33.6197C35.9854 36.5655 38.3734 38.9536 41.3192 38.9536Z" fill="url(#paint6_linear_904_4499)"/>
</g>
<path d="M49.7643 82.417C49.7643 90.623 43.1229 97.2643 34.917 97.2643C26.7429 97.2324 20.1016 90.591 20.1016 82.417C20.1016 74.2111 26.7429 67.5697 34.9489 67.5697C43.1229 67.5697 49.7643 74.2111 49.7643 82.417Z" fill="url(#paint7_linear_904_4499)"/>
<path d="M46.3164 82.417C46.3164 88.7071 41.2076 93.8159 34.9175 93.8159C28.6273 93.8159 23.5186 88.7071 23.5186 82.417C23.5186 76.1268 28.6273 71.0181 34.9175 71.0181C41.2396 71.0181 46.3164 76.1268 46.3164 82.417Z" fill="#EDEDED"/>
<path d="M49.7646 82.417C49.7646 74.2111 43.1232 67.5697 34.9492 67.5697V97.2324C43.1232 97.2324 49.7646 90.591 49.7646 82.417Z" fill="#535353"/>
<path d="M46.3159 82.417C46.3159 76.1268 41.2071 71.0181 34.917 71.0181V93.784C41.2391 93.784 46.3159 88.7071 46.3159 82.417Z" fill="url(#paint8_linear_904_4499)"/>
<path d="M37.9827 82.417C37.9827 84.1093 36.6097 85.4503 34.9493 85.4503C33.2571 85.4503 31.916 84.0773 31.916 82.417C31.916 80.7566 33.289 79.3837 34.9493 79.3837C36.6097 79.3517 37.9827 80.7247 37.9827 82.417Z" fill="#565656"/>
<path d="M40.7277 88.2602C40.5042 88.2602 40.3126 88.1963 40.121 88.0367L35.0442 84.0135C34.6291 83.6942 34.5652 83.1195 34.9165 82.7044C35.2358 82.3213 35.8424 82.2574 36.2575 82.5767L41.3343 86.5998C41.7494 86.9191 41.8133 87.4939 41.4621 87.909C41.2705 88.1325 40.9831 88.2602 40.7277 88.2602Z" fill="#565656"/>
<path d="M34.8536 82.6406C34.662 82.6406 34.4704 82.5767 34.3108 82.4171C33.9915 82.0978 33.9915 81.6189 34.3108 81.2996L38.1104 77.468C38.4297 77.1487 38.9086 77.1487 39.2279 77.468C39.5472 77.7873 39.5472 78.2662 39.2279 78.5855L35.3964 82.3852C35.2367 82.5448 35.0451 82.6406 34.8536 82.6406Z" fill="#565656"/>
<path d="M36.5455 82.4169C36.5455 83.311 35.8111 84.0134 34.949 84.0134C34.055 84.0134 33.3525 83.311 33.3525 82.4169C33.3525 81.5229 34.055 80.8205 34.949 80.8205C35.8111 80.7885 36.5455 81.5229 36.5455 82.4169Z" fill="#F2EED1"/>
<defs>
<linearGradient id="paint0_linear_904_4499" x1="87.7535" y1="90.4963" x2="98.1943" y2="80.0555" gradientUnits="userSpaceOnUse">
<stop stop-color="#FFCB44"/>
<stop offset="1" stop-color="#E31D72"/>
</linearGradient>
<linearGradient id="paint1_linear_904_4499" x1="41.9344" y1="65.7265" x2="58.6185" y2="82.4106" gradientUnits="userSpaceOnUse">
<stop stop-color="#FFBF00"/>
<stop offset="1" stop-color="#FFD964"/>
</linearGradient>
<linearGradient id="paint2_linear_904_4499" x1="69.1112" y1="29.9241" x2="91.1276" y2="51.9405" gradientUnits="userSpaceOnUse">
<stop stop-color="#FFD964"/>
<stop offset="1" stop-color="#FFC107"/>
</linearGradient>
<linearGradient id="paint3_linear_904_4499" x1="69.7935" y1="76.8497" x2="84.5469" y2="62.0962" gradientUnits="userSpaceOnUse">
<stop stop-color="#FFC107"/>
<stop offset="1" stop-color="#FFDA6A"/>
</linearGradient>
<linearGradient id="paint4_linear_904_4499" x1="66.8469" y1="28.1037" x2="36.857" y2="58.0936" gradientUnits="userSpaceOnUse">
<stop stop-color="#F2F2F2"/>
<stop offset="1" stop-color="#B3B3B3"/>
</linearGradient>
<linearGradient id="paint5_linear_904_4499" x1="35.8506" y1="39.126" x2="46.4483" y2="28.5283" gradientUnits="userSpaceOnUse">
<stop stop-color="#B3B3B3"/>
<stop offset="1" stop-color="#F2F2F2"/>
</linearGradient>
<linearGradient id="paint6_linear_904_4499" x1="37.4579" y1="37.5191" x2="44.9515" y2="30.0255" gradientUnits="userSpaceOnUse">
<stop stop-color="#FFC107"/>
<stop offset="1" stop-color="#E0A800"/>
</linearGradient>
<linearGradient id="paint7_linear_904_4499" x1="34.937" y1="66.053" x2="34.937" y2="95.5715" gradientUnits="userSpaceOnUse">
<stop stop-color="#828282"/>
<stop offset="1" stop-color="#555555"/>
</linearGradient>
<linearGradient id="paint8_linear_904_4499" x1="40.6287" y1="71.4303" x2="40.6287" y2="90.74" gradientUnits="userSpaceOnUse">
<stop stop-color="white"/>
<stop offset="1" stop-color="#DFDFDF"/>
</linearGradient>
</defs>
</svg>
