<svg width="158" height="158" viewBox="0 0 158 158" fill="none" xmlns="http://www.w3.org/2000/svg">
<path fill-rule="evenodd" clip-rule="evenodd" d="M79 0C122.628 0 158 35.3724 158 79C158 122.628 122.628 158 79 158C35.3724 158 0 122.581 0 79C0 35.3724 35.3724 0 79 0Z" fill="#FFECB4"/>
<path d="M75.6797 76.1407C76.9249 76.3713 77.9395 77.0631 78.6312 78.0315C79.323 79 79.5997 80.1991 79.3691 81.4443C79.1385 82.6894 78.4467 83.704 77.4783 84.3958C76.5098 85.0876 75.3107 85.3643 74.0655 85.1337C72.8204 84.9031 71.8058 84.2113 71.114 83.2429C70.4222 82.2744 70.1455 81.0753 70.3761 79.8301C70.6067 78.5849 71.2985 77.5704 72.2669 76.8786C73.2354 76.2329 74.4345 75.9101 75.6797 76.1407Z" fill="#D0AA53"/>
<path d="M83.75 47.9165C84.6723 48.101 85.4563 48.6083 85.9636 49.3461C86.4709 50.084 86.7015 50.9603 86.517 51.8826C86.3326 52.805 85.8253 53.589 85.0874 54.0963C84.3956 54.6036 83.4732 54.8342 82.597 54.6497C82.5509 54.6497 82.5509 54.6497 82.5048 54.6497C81.5824 54.4652 80.8445 53.9579 80.3372 53.2662C79.8299 52.5744 79.5993 51.652 79.7838 50.7758C79.7838 50.7297 79.7838 50.7297 79.7838 50.6836C79.9683 49.7612 80.4756 49.0233 81.1673 48.516C81.9052 48.0087 82.8276 47.7781 83.75 47.9165Z" fill="#D0AA53"/>
<path d="M69.7761 55.9872C70.8829 56.1716 71.8514 56.8173 72.451 57.6935C73.0505 58.5698 73.3272 59.6766 73.1427 60.7834C72.9582 61.8903 72.3126 62.8587 71.4364 63.4583C70.5601 64.0578 69.4533 64.3345 68.3465 64.15C67.2396 63.9656 66.2711 63.3199 65.6716 62.4437C65.0721 61.5674 64.7954 60.4606 64.9798 59.3538C65.1643 58.2469 65.81 57.2785 66.6862 56.6789C67.5625 56.0794 68.6693 55.8027 69.7761 55.9872Z" fill="#D0AA53"/>
<path d="M144.718 122.766L140.705 122.074C136.878 123.504 131.436 122.535 130.698 122.443H130.652L125.394 121.521C124.334 122.812 123.181 123.873 121.889 124.657C119.722 125.994 117.416 126.594 114.879 126.732C112.62 126.87 110.221 126.64 107.639 126.179L107.039 129.453C107.685 129.776 108.192 130.191 108.607 130.744C109.115 131.482 109.345 132.358 109.207 133.327C109.022 134.295 108.469 135.125 107.731 135.633C106.993 136.14 106.025 136.417 105.056 136.232L74.9413 130.929C73.9728 130.744 73.1427 130.191 72.6354 129.453C72.1281 128.715 71.8514 127.747 72.0359 126.778C72.2203 125.763 72.7737 125.072 73.5577 124.611C74.065 124.288 74.7107 124.103 75.3102 123.965L83.842 75.6794C83.7959 75.6794 83.7498 75.6794 83.7037 75.6333C83.6576 75.6333 83.6576 75.6333 83.6115 75.6333C81.3978 75.2182 79.5531 73.9731 78.354 72.2667C77.1549 70.5603 76.6015 68.3928 76.9705 66.133C76.9705 66.0869 76.9705 66.0869 76.9705 66.0408C77.3855 63.8271 78.6307 61.9824 80.3371 60.7833C82.0434 59.5843 84.211 59.0309 86.4708 59.3998C87.4854 56.8633 89.3301 54.788 91.5899 53.4506C94.0341 52.0209 96.9395 51.3753 99.9833 51.9287C101.828 52.2515 103.534 52.9894 104.964 54.004C106.301 54.9264 107.408 56.1254 108.238 57.509C108.7 57.3706 109.207 57.3245 109.714 57.2784C110.406 57.2323 111.144 57.2784 111.882 57.3706C114.188 57.7857 116.171 59.077 117.416 60.8756C118.661 62.6742 119.261 64.9339 118.846 67.286C118.799 67.4704 118.753 67.6549 118.707 67.8855C119.768 68.3928 120.598 69.1768 121.198 70.1453C121.889 71.2982 122.212 72.7279 121.935 74.1575C121.659 75.7255 120.736 77.063 119.537 77.9392C118.523 78.631 117.278 79.046 115.986 78.9999L115.433 82.2282C118.015 82.6893 120.321 83.2889 122.397 84.2112C124.749 85.2258 126.732 86.6094 128.3 88.5463C129.222 89.7454 129.96 91.0828 130.513 92.6969L133.603 93.2503C133.603 93.2042 133.603 93.1581 133.557 93.112C133.373 92.0052 133.096 90.3449 132.865 88.5463C132.727 87.4856 132.727 85.9637 132.773 84.5341C132.819 83.1044 132.958 81.767 133.188 80.9369C133.742 78.8154 134.895 77.5703 136.14 77.0168C136.785 76.7401 137.477 76.6479 138.169 76.694C138.815 76.7863 139.46 77.0168 140.014 77.3858C141.028 78.1237 141.674 79.3227 141.72 80.8907C141.72 82.3204 141.997 84.4418 142.366 86.4249C142.735 88.3618 143.242 90.1604 143.703 91.175C144.118 92.0052 144.994 93.3426 145.963 94.8184C147.577 97.2165 149.468 100.076 150.39 102.52L154.218 103.212C151.912 110.176 148.73 116.771 144.718 122.766Z" fill="#FFD761"/>
<path d="M50.4069 38.0474H54.5575C55.2954 38.0474 55.7566 38.6008 55.9411 39.2464C55.9872 39.4309 56.0333 39.6615 56.0333 39.8921C56.0333 40.0766 55.9872 40.3071 55.9411 40.5377C55.8488 40.8606 55.7105 41.1373 55.4799 41.3679L56.0333 43.6737C56.2639 44.55 56.2178 45.1034 56.0333 45.5185C55.895 45.8413 55.7105 46.0258 55.4799 46.2102L57.2785 66.3176C58.3853 66.9172 59.4922 68.2546 60.2762 69.961C61.0602 71.7134 61.6136 73.9732 61.6136 76.233V84.9493L62.6282 84.7648C62.6743 84.7648 62.6743 84.7648 62.7204 84.7648C63.8734 84.5803 64.9802 84.857 65.8564 85.5027C66.7327 86.1022 67.3783 87.0707 67.6089 88.2237C67.6089 88.2698 67.6089 88.2698 67.6089 88.3159C67.7934 89.3766 67.5628 90.3912 67.0094 91.2674C67.7011 91.3597 68.3468 91.6364 68.8541 92.0053C69.7303 92.651 70.4221 93.6195 70.6066 94.7724C70.791 95.9254 70.5143 97.0783 69.9148 97.9545C69.4536 98.6463 68.7619 99.1536 67.9779 99.4764C68.7157 100.076 69.223 100.952 69.4075 101.967C69.592 103.12 69.3153 104.273 68.7157 105.149C68.2084 105.887 67.4244 106.486 66.5021 106.763C67.1938 107.363 67.7011 108.239 67.8856 109.207C68.0701 110.36 67.7934 111.513 67.1938 112.389C66.5482 113.266 65.5797 113.957 64.4268 114.142L61.6136 114.649V117.462C61.6136 118.8 61.3369 119.999 60.7373 120.829C60.1378 121.705 59.2616 122.259 58.1086 122.259H42.6591C41.5062 122.259 40.6299 121.705 40.0304 120.829C39.5692 120.183 39.2925 119.307 39.2003 118.339C37.2172 118.431 34.8191 118.339 32.836 117.601L12.2213 121.244C8.3935 115.203 5.34972 108.608 3.27441 101.552L23.1974 98.0468C24.1197 95.6025 26.0105 92.7432 27.6247 90.3451C28.5932 88.8693 29.4694 87.578 29.8845 86.7018C30.3456 85.6872 30.8529 83.8886 31.2219 81.9516C31.5908 79.9685 31.8675 77.8471 31.8675 76.4175C31.8675 74.8495 32.5593 73.6504 33.5739 72.9125C34.1273 72.4975 34.773 72.2669 35.4186 72.2207C36.0643 72.1285 36.756 72.2207 37.4478 72.5436C38.1396 72.8664 38.7852 73.3737 39.3386 74.1116C39.5692 72.5897 39.9843 71.16 40.5377 69.961C41.3217 68.2546 42.3824 66.9172 43.5354 66.3176L45.334 46.2102C45.1034 46.0258 44.9189 45.8413 44.7805 45.5185C44.5961 45.0573 44.55 44.5039 44.7805 43.6737L45.334 41.3679C45.1034 41.1373 44.965 40.8606 44.8728 40.5377C44.8267 40.3533 44.7805 40.1227 44.7805 39.8921C44.7805 39.7076 44.8267 39.477 44.8728 39.2464C45.0573 38.5547 45.5184 38.0474 46.2563 38.0474H50.4069Z" fill="#FFD761"/>
<path fill-rule="evenodd" clip-rule="evenodd" d="M45.9793 31.6367H50.1299C51.0061 31.6367 51.0061 33.6659 50.1299 33.6659L50.8217 36.6175C51.1906 37.9549 50.8217 38.1855 50.2221 38.5544L52.113 59.6303C54.2344 60.3221 56.3558 64.5649 56.3558 69.0383C56.3558 83.4733 56.3558 95.7867 56.3558 110.222C56.3558 112.481 55.4796 114.188 53.681 114.188H38.2315C36.4329 114.188 35.5566 112.435 35.5566 110.222C35.5566 95.7867 35.5566 83.4733 35.5566 69.0383C35.5566 64.5649 37.6781 60.3682 39.7995 59.6303L41.6903 38.5544C41.0908 38.1855 40.7218 37.9549 41.0908 36.6175L41.7826 33.6659C40.9063 33.6659 40.9063 31.6367 41.7826 31.6367H45.9793Z" fill="#775D42"/>
<path fill-rule="evenodd" clip-rule="evenodd" d="M47.3631 72.3127C52.3438 72.3127 56.3561 74.2958 56.3561 76.7401C56.3561 81.029 56.3561 95.6023 56.3561 99.8913C56.3561 102.336 52.3438 104.319 47.3631 104.319C42.3824 104.319 38.3701 102.336 38.3701 99.8913V76.7401C38.3701 74.2958 42.3824 72.3127 47.3631 72.3127Z" fill="#E89823"/>
<path d="M41.9678 80.5677C41.9678 81.3056 41.3682 81.9513 40.5842 81.9513C39.8463 81.9513 39.2007 81.3518 39.2007 80.5677V68.0237C39.2007 65.2566 39.7541 61.5672 41.9678 59.6302L42.5212 45.0108C42.5673 44.2729 43.1668 43.6734 43.9047 43.7195C44.6426 43.7657 45.2421 44.3652 45.196 45.1031L44.7348 59.6302C44.7348 60.1375 44.4581 60.5987 43.9969 60.8754C43.5819 61.106 43.0746 61.89 42.7056 63.0891C42.2906 64.3804 42.0139 66.0867 42.0139 68.0698V80.5677H41.9678Z" fill="#DEA05E"/>
<path d="M39.2466 85.5488C39.2466 84.8109 39.8461 84.1653 40.6301 84.1653C41.368 84.1653 42.0137 84.7648 42.0137 85.5488V89.6072C42.0137 90.3451 41.4141 90.9907 40.6301 90.9907C39.8922 90.9907 39.2466 90.3912 39.2466 89.6072V85.5488Z" fill="white"/>
<path d="M41.9678 80.5681C41.9678 81.306 41.3682 81.9516 40.5842 81.9516C39.8463 81.9516 39.2007 81.3521 39.2007 80.5681V74.8033C39.8463 74.1577 40.7687 73.6043 41.9216 73.1892V80.5681H41.9678Z" fill="white"/>
<path d="M53.0359 109.392C53.0359 108.93 53.4048 108.561 53.866 108.561C54.3272 108.561 54.6961 108.93 54.6961 109.392C54.6961 110.129 54.3733 110.821 53.9121 111.329C53.4048 111.836 52.7592 112.113 51.9752 112.113H43.1205C42.6593 112.113 42.2904 111.744 42.2904 111.282C42.2904 110.821 42.6593 110.452 43.1205 110.452H51.9752C52.298 110.452 52.5286 110.314 52.7592 110.129C52.8975 109.945 53.0359 109.668 53.0359 109.392ZM45.9798 30.8066H50.1304C50.8683 30.8066 51.3295 31.3601 51.514 32.0057C51.5601 32.1902 51.6062 32.4208 51.6062 32.6514C51.6062 32.8358 51.5601 33.0664 51.514 33.297C51.4217 33.6198 51.2834 33.8965 51.0528 34.1271L51.6062 36.433C51.8368 37.3093 51.7907 37.8627 51.6062 38.2777C51.4679 38.6006 51.2834 38.785 51.0528 38.9695L52.8514 59.0769C53.9582 59.6765 55.0651 61.0139 55.8491 62.7202C56.6331 64.4727 57.1865 66.7325 57.1865 68.9923V110.222C57.1865 111.559 56.9098 112.758 56.3102 113.588C55.7107 114.465 54.8345 115.018 53.6815 115.018H38.232C37.0791 115.018 36.2028 114.465 35.6033 113.588C35.0038 112.712 34.7271 111.513 34.7271 110.222V69.0384C34.7271 66.7325 35.2805 64.5188 36.0645 62.7664C36.8485 61.06 37.9092 59.7226 39.0621 59.123L40.8607 39.0156C40.6301 38.8312 40.4457 38.6467 40.3073 38.3239C40.1228 37.8627 40.0767 37.3093 40.3073 36.4791L40.8607 34.1732C40.6301 33.9427 40.4918 33.666 40.3996 33.3431C40.3534 33.1587 40.3073 32.9281 40.3073 32.6975C40.3073 32.513 40.3534 32.2824 40.3996 32.0518C40.584 31.3601 41.0452 30.8528 41.7831 30.8528H45.9798V30.8066ZM45.9798 32.4669H41.9676C41.9676 32.513 41.9676 32.6052 41.9676 32.6514C41.9676 32.7436 41.9676 32.7897 42.0137 32.8819H42.0598C42.521 32.9742 42.7516 33.4354 42.6593 33.8504L41.9676 36.802C41.9676 36.802 41.9676 36.802 41.9676 36.8481C41.8292 37.3093 41.8292 37.5399 41.8753 37.6321C41.8753 37.6782 42.0598 37.7704 42.1982 37.9088C42.4287 38.0472 42.6132 38.37 42.5671 38.6467L40.6763 59.6765C40.6763 59.9993 40.4457 60.3221 40.1228 60.4143C39.2466 60.6911 38.3242 61.844 37.5864 63.412C36.8485 64.98 36.3873 66.9631 36.3873 69.0384V110.222C36.3873 111.236 36.5718 112.113 36.9868 112.712C37.2635 113.127 37.6786 113.404 38.2781 113.404H53.7276C54.281 113.404 54.6961 113.127 55.0189 112.712C55.3879 112.113 55.6185 111.236 55.6185 110.222V69.0384C55.6185 66.9631 55.1573 64.98 54.4194 63.412C53.6815 61.844 52.7592 60.6911 51.8829 60.4143C51.6062 60.3221 51.3756 60.0454 51.3295 59.7226L49.4848 39.3846H44.4118C43.9506 39.3846 43.5817 39.0156 43.5817 38.5544C43.5817 38.0933 43.9506 37.7243 44.4118 37.7243H49.9921C50.0843 37.6782 50.1304 37.6321 50.1304 37.586C50.1766 37.4937 50.1766 37.2631 50.0382 36.802V36.7558L49.4848 34.45H45.9798C45.5186 34.45 45.1497 34.081 45.1497 33.6198C45.1497 33.1587 45.5186 32.7897 45.9798 32.7897H49.946C49.946 32.7436 49.946 32.6514 49.946 32.6052C49.946 32.5591 49.946 32.4669 49.8998 32.4208H45.9798V32.4669ZM41.9214 32.8358C41.9214 32.8358 41.9676 32.8358 41.9214 32.8358H41.9676C41.9676 32.8358 41.9676 32.8358 41.9214 32.8358Z" fill="#58432E"/>
<path d="M45.5641 38.0472C45.5179 38.7851 44.9184 39.3847 44.1805 39.3385C43.4426 39.2924 42.8431 38.6929 42.8892 37.955L42.9353 37.171C42.9814 36.4331 43.581 35.8336 44.3189 35.8797C45.0568 35.9258 45.6563 36.5253 45.6102 37.2632L45.5641 38.0472Z" fill="#DEA05E"/>
<path fill-rule="evenodd" clip-rule="evenodd" d="M38.3234 109.899L59.8604 106.117C61.7051 105.794 62.9964 103.996 62.6736 102.105C62.3508 100.26 60.5522 98.969 58.6614 99.2918L61.3823 98.8306C63.227 98.5078 64.5183 96.7092 64.1955 94.8183C63.8727 92.9736 62.0741 91.6823 60.1833 92.0051L62.5814 91.5901C64.4261 91.2673 65.7174 89.4687 65.3946 87.5778C65.0718 85.7331 63.2732 84.4418 61.3823 84.7646L59.5376 85.0875C61.3823 84.7646 62.6736 82.966 62.3508 81.0752C62.028 79.2305 60.2294 77.9392 58.3385 78.262L34.5878 82.551C34.4956 82.551 35.0951 79.7839 35.4641 76.7401C35.6946 74.757 35.5563 71.0215 35.1412 69.4074C33.7577 64.0116 28.2697 65.1645 28.2697 69.1768C28.2697 72.1744 27.2089 77.6625 26.1943 79.7839C25.0414 82.182 20.6602 87.6239 19.3689 91.4978L1.56738 94.6339C2.85868 101.136 4.98011 107.316 7.7933 113.127L28.5002 109.484C32.1897 111.052 37.7699 109.991 38.3234 109.899Z" fill="#F2CB9B"/>
<path d="M7.42502 112.435L28.3626 108.746C28.547 108.7 28.6854 108.746 28.8237 108.792C32.2365 110.175 37.4478 109.253 38.1395 109.115H38.1857L59.7227 105.333C60.4145 105.195 61.014 104.78 61.4291 104.272C61.798 103.719 61.9825 103.027 61.8442 102.289C61.7058 101.598 61.2907 100.998 60.7834 100.583C60.23 100.214 59.5383 100.03 58.8004 100.168L51.8366 101.413C51.3754 101.505 50.9603 101.183 50.9142 100.767C50.822 100.306 51.1448 99.8912 51.5599 99.8451L58.5237 98.5999L61.2446 98.1387C61.9364 98.0004 62.5359 97.5853 62.951 97.078C63.3199 96.5246 63.5044 95.8328 63.366 95.0949C63.2277 94.4032 62.8126 93.8036 62.3053 93.3886C61.7519 93.0196 61.0602 92.8352 60.3223 92.9735L52.0672 94.4032C51.606 94.4954 51.1909 94.1726 51.1448 93.7575C51.0526 93.2963 51.3754 92.8813 51.7905 92.8352L60.0456 91.4055L62.4437 90.9904C63.1355 90.8521 63.735 90.437 64.1501 89.9297C64.519 89.3763 64.7035 88.6846 64.5651 87.9467C64.4268 87.2549 64.0117 86.6554 63.5044 86.2403C62.951 85.8714 62.2592 85.6869 61.5213 85.8252L59.6766 86.1481L51.4215 87.5777C50.9603 87.67 50.5453 87.3471 50.4992 86.9321C50.4069 86.4709 50.7297 86.0558 51.1448 86.0097L59.3999 84.5801C60.0917 84.4417 60.6912 84.0266 61.1063 83.5194C61.4752 82.9659 61.6597 82.2742 61.5213 81.5363C61.383 80.8445 60.9679 80.245 60.4606 79.8299C59.9072 79.461 59.2154 79.2765 58.4776 79.4149L34.7268 83.6116H34.6807C34.1734 83.7038 33.8506 83.4732 33.7584 82.9198C33.7584 82.8737 33.7584 82.8737 33.7584 82.8276C33.7584 82.7815 33.7584 82.7353 33.7584 82.6892C33.7584 82.4125 33.8506 81.9513 33.9428 81.3518C34.1273 80.2911 34.404 78.6308 34.6346 76.8784C34.7729 75.9099 34.7729 74.4802 34.7268 73.1428C34.6807 71.8515 34.5424 70.6063 34.3579 69.8684C33.9428 68.3004 33.1588 67.4242 32.3287 67.0552C31.9598 66.8708 31.5447 66.8247 31.1296 66.8708C30.7607 66.9169 30.3917 67.0552 30.0689 67.2858C29.4694 67.7009 29.0543 68.4849 29.0543 69.4534C29.0543 71.0214 28.7776 73.2351 28.3626 75.3104C27.9475 77.3857 27.4402 79.3226 26.8868 80.4294C26.4256 81.3979 25.5494 82.7353 24.4886 84.2572C22.8284 86.7476 20.8453 89.6992 20.0613 92.0512C19.9691 92.3279 19.6924 92.5585 19.4157 92.6046L1.75251 95.4639C1.66028 94.9105 1.52192 94.4032 1.42969 93.8498L18.77 90.806C19.6924 88.3617 21.5832 85.5024 23.1973 83.1043C24.1658 81.6285 25.0421 80.3372 25.4571 79.461C25.9183 78.4464 26.4256 76.6478 26.7945 74.7108C27.1635 72.7278 27.4402 70.6063 27.4402 69.1767C27.4402 67.6087 28.132 66.4096 29.1466 65.6717C29.7 65.2567 30.3456 65.0261 30.9913 64.9799C31.6369 64.8877 32.3287 64.9799 33.0205 65.3028C34.2656 65.8562 35.4186 67.1014 35.972 69.2228C36.2026 70.0529 36.341 71.4365 36.3871 72.82C36.4332 74.2496 36.4332 75.7715 36.2948 76.8323C36.0642 78.6309 35.7875 80.2911 35.6031 81.3979C35.6031 81.444 35.6031 81.4902 35.5569 81.5363L58.1547 77.5701C58.2008 77.5701 58.2008 77.5701 58.247 77.5701C59.3999 77.3857 60.5067 77.6624 61.383 78.308C62.2592 78.9076 62.9049 79.876 63.1355 81.029C63.1355 81.0751 63.1355 81.0751 63.1355 81.1212C63.3199 82.1819 63.0893 83.1965 62.5359 84.0728C63.2277 84.165 63.8734 84.4417 64.3806 84.8106C65.2569 85.4563 65.9487 86.4248 66.1331 87.5777C66.3176 88.7307 66.0409 89.8836 65.4414 90.7599C64.9802 91.4516 64.2884 91.9589 63.5044 92.2818C64.2423 92.8813 64.7496 93.7575 64.9341 94.7721C65.1185 95.9251 64.8418 97.078 64.2423 97.9543C63.735 98.6921 62.951 99.2917 62.0286 99.5684C62.7204 100.168 63.2277 101.044 63.4122 102.013C63.5966 103.166 63.3199 104.319 62.7204 105.195C62.0747 106.071 61.1063 106.763 59.9533 106.947L38.4163 110.729H38.3701C37.6323 110.867 32.1903 111.836 28.3626 110.36L8.11679 113.911C7.8862 113.45 7.65561 112.943 7.42502 112.435Z" fill="#58432E"/>
<path fill-rule="evenodd" clip-rule="evenodd" d="M71.1139 69.6841C73.1431 70.0531 74.5267 71.99 74.1577 74.0192C73.7888 76.0484 71.8518 77.4319 69.8226 77.063C67.7934 76.694 66.4099 74.7571 66.7789 72.7279C67.1017 70.6987 69.0386 69.3152 71.1139 69.6841Z" fill="white"/>
<path d="M120.737 99.3841C122.074 91.8207 121.429 87.3934 119.399 84.8108C117.416 82.2743 113.727 81.2136 109.161 80.3835L109.991 75.6794C115.618 76.694 120.23 78.1237 123.181 81.8592C126.087 85.5487 127.101 91.1289 125.487 100.214C123.873 109.299 121.014 114.234 117.047 116.678C112.989 119.169 108.193 118.984 102.566 117.97L103.397 113.266C108.008 114.096 111.79 114.326 114.557 112.62C117.324 110.867 119.399 106.947 120.737 99.3841Z" fill="white"/>
<path fill-rule="evenodd" clip-rule="evenodd" d="M110.822 70.9295L96.8478 68.4852C96.3867 70.9756 94.0346 72.6358 91.5443 72.2208C89.0539 71.7596 87.3937 69.4076 87.8087 66.9172L84.9033 66.4099C83.612 67.3323 81.9979 67.8396 80.2915 67.7934L71.5291 117.462C70.0072 117.739 68.5776 118.2 68.3009 119.722C68.0241 121.244 69.0387 122.674 70.5606 122.95L100.676 128.254C102.198 128.531 103.627 127.516 103.904 125.994C104.181 124.472 103.12 123.227 101.644 122.766L110.822 70.9295Z" fill="white"/>
<path fill-rule="evenodd" clip-rule="evenodd" d="M113.219 61.1984C115.571 61.9363 117.093 64.3344 116.632 66.8709C116.171 69.5919 113.542 71.4366 110.821 70.9293L96.8475 68.485C96.3863 70.9754 94.0343 72.6357 91.544 72.2206C89.0536 71.7594 87.3933 69.4074 87.8084 66.917L84.903 66.4097C83.335 67.5166 81.3519 68.0239 79.3227 67.701C75.3104 67.0093 72.5895 63.1354 73.3274 59.1231C74.0191 55.1108 77.8931 52.3899 81.9053 53.1278C82.1359 53.1739 82.3204 53.22 82.551 53.2661C84.3034 47.9626 89.7454 44.6421 95.3718 45.6567C98.9228 46.3023 101.782 48.4699 103.396 51.4214C104.595 51.0063 105.933 50.868 107.27 51.1447C111.467 51.8826 114.28 55.8948 113.542 60.1377C113.45 60.3683 113.358 60.7833 113.219 61.1984Z" fill="white"/>
<path fill-rule="evenodd" clip-rule="evenodd" d="M96.0174 121.705L77.2474 118.385C75.7717 118.108 74.8032 116.724 75.0799 115.248L83.5656 67.1014C84.0729 66.8708 84.5341 66.6402 84.9491 66.3174L87.8546 66.8247C87.3934 69.315 89.0997 71.6671 91.5901 72.1282C94.0805 72.5894 96.4325 70.8831 96.8937 68.3927L107.824 70.3296L99.1534 119.491C98.8767 121.013 97.4471 121.982 96.0174 121.705Z" fill="#F6DA4E"/>
<path fill-rule="evenodd" clip-rule="evenodd" d="M94.3118 121.428L89.8384 120.644C90.7607 120.829 91.268 119.584 91.4986 118.2L97.8168 82.4125C98.9697 82.597 100.03 81.813 100.261 80.66C100.445 79.5071 99.7076 78.4003 98.5547 78.1697L100.169 69.0383L105.426 69.9607L96.7561 119.122C96.5255 120.598 95.7876 121.659 94.3118 121.428Z" fill="#C9851F"/>
<path fill-rule="evenodd" clip-rule="evenodd" d="M98.5075 78.1699C99.6605 78.3543 100.444 79.5073 100.26 80.6602C100.076 81.8132 98.9226 82.5972 97.7696 82.4127C96.6167 82.2282 95.8327 81.0753 96.0171 79.9224C96.2016 78.7233 97.3546 77.9393 98.5075 78.1699Z" fill="white"/>
<path fill-rule="evenodd" clip-rule="evenodd" d="M92.328 72.2204L89.8376 86.3786C90.4833 86.7937 90.8522 87.5777 90.7139 88.4078C90.5755 89.2379 89.9299 89.8375 89.192 90.0219L85.7793 109.299C85.4564 111.052 83.7962 112.205 82.0437 111.928C80.2912 111.605 79.1383 109.945 79.415 108.192L86.7477 66.6863L87.8546 66.8707C87.3934 69.3611 89.0997 71.7131 91.5901 72.1743C92.9275 72.4049 92.0513 72.2204 92.328 72.2204Z" fill="white"/>
<path fill-rule="evenodd" clip-rule="evenodd" d="M91.5435 104.411C92.0967 104.503 92.4655 105.01 92.3733 105.563C92.2811 106.116 91.774 106.485 91.2208 106.393C90.6677 106.301 90.2989 105.794 90.3911 105.241C90.4833 104.641 90.9903 104.319 91.5435 104.411Z" fill="white"/>
<path fill-rule="evenodd" clip-rule="evenodd" d="M99.5686 72.4977C100.26 72.636 100.722 73.2817 100.629 73.9735C100.491 74.6652 99.8453 75.1264 99.1535 75.0342C98.4617 74.8958 98.0005 74.2502 98.0928 73.5584C98.185 72.8666 98.8768 72.3593 99.5686 72.4977Z" fill="white"/>
<path fill-rule="evenodd" clip-rule="evenodd" d="M94.2642 75.7719C94.8174 75.8641 95.1862 76.3712 95.094 76.9244C95.0018 77.4775 94.4947 77.8463 93.9415 77.7541C93.3884 77.6619 93.0196 77.1549 93.1118 76.6017C93.1579 76.0485 93.711 75.6797 94.2642 75.7719Z" fill="white"/>
<path fill-rule="evenodd" clip-rule="evenodd" d="M104.457 75.4491C104.918 75.5413 105.24 76.0022 105.148 76.4632C105.056 76.9242 104.595 77.2469 104.134 77.1547C103.673 77.0625 103.35 76.6015 103.443 76.1405C103.535 75.6796 103.996 75.403 104.457 75.4491Z" fill="white"/>
<path fill-rule="evenodd" clip-rule="evenodd" d="M100.214 93.6654C101.09 93.8038 101.69 94.6339 101.505 95.5102C101.367 96.3864 100.537 96.9859 99.6607 96.8015C98.7844 96.6631 98.1849 95.833 98.3694 94.9567C98.4616 94.0805 99.3378 93.5271 100.214 93.6654Z" fill="white"/>
<path fill-rule="evenodd" clip-rule="evenodd" d="M103.488 80.9831C103.949 81.0752 104.272 81.5362 104.179 81.9972C104.087 82.4582 103.626 82.7808 103.165 82.6887C102.704 82.5965 102.382 82.1355 102.474 81.6745C102.566 81.2135 103.027 80.8909 103.488 80.9831Z" fill="white"/>
<path fill-rule="evenodd" clip-rule="evenodd" d="M95.4168 86.0097C95.9699 86.1019 96.3387 86.6551 96.2465 87.2083C96.1543 87.7614 95.6012 88.1302 95.048 88.038C94.4948 87.9458 94.126 87.3926 94.2182 86.8395C94.3104 86.2863 94.8636 85.8714 95.4168 86.0097Z" fill="white"/>
<path d="M119.953 99.2457C120.599 95.5102 120.783 92.6047 120.552 90.2988C120.322 88.0852 119.722 86.4711 118.8 85.3181C117.878 84.1652 116.586 83.335 114.972 82.7355C113.312 82.0899 111.283 81.6287 109.023 81.2136L108.239 81.0753L108.377 80.2913L109.207 75.5872L109.346 74.8032L110.13 74.9416C112.989 75.4489 115.618 76.0945 117.924 77.063C120.276 78.0776 122.259 79.4611 123.827 81.3981C125.349 83.335 126.409 85.7793 126.824 88.9153C127.239 92.0052 127.101 95.7408 126.271 100.399C125.441 105.057 124.288 108.608 122.858 111.375C121.383 114.188 119.538 116.125 117.462 117.416C115.295 118.754 112.989 119.353 110.453 119.491C107.962 119.63 105.287 119.307 102.428 118.8L101.644 118.661L101.782 117.877L102.613 113.173L102.751 112.389L103.535 112.528C105.795 112.943 107.824 113.173 109.622 113.127C111.375 113.081 112.851 112.758 114.096 111.974C115.387 111.19 116.494 109.899 117.462 107.87C118.477 105.748 119.307 102.935 119.953 99.2457ZM122.167 90.1144C122.443 92.5586 122.259 95.6485 121.567 99.4763C120.875 103.35 119.999 106.302 118.938 108.515C117.831 110.821 116.494 112.297 114.972 113.266C113.45 114.188 111.698 114.603 109.669 114.649C107.962 114.695 106.071 114.511 104.042 114.142L103.489 117.232C105.933 117.647 108.239 117.877 110.36 117.739C112.666 117.601 114.742 117.093 116.632 115.894C118.523 114.741 120.137 112.989 121.475 110.452C122.858 107.87 123.919 104.411 124.749 99.9836C125.533 95.5102 125.671 91.913 125.303 89.0075C124.887 86.1482 123.965 83.9807 122.628 82.2743C121.244 80.5218 119.492 79.3228 117.37 78.4004C115.433 77.5703 113.22 77.0169 110.775 76.5557L110.222 79.6456C112.251 80.0145 114.096 80.4757 115.664 81.1214C117.509 81.8593 119.077 82.8277 120.137 84.2113C121.152 85.7332 121.89 87.624 122.167 90.1144Z" fill="#58432E"/>
<path d="M84.488 118.846C84.9492 118.938 85.2259 119.353 85.1336 119.768C85.0414 120.229 84.6263 120.506 84.2113 120.414L77.1091 119.169C76.6479 119.076 76.3712 118.661 76.4635 118.246C76.5557 117.785 76.9708 117.508 77.3858 117.601L84.488 118.846ZM99.1074 114.926C99.1996 114.465 99.6147 114.188 100.03 114.28C100.491 114.372 100.768 114.787 100.675 115.202L99.8914 119.676C99.8914 119.722 99.8914 119.722 99.8914 119.768C99.7069 120.691 99.1535 121.475 98.4617 121.936C97.7238 122.443 96.8015 122.674 95.833 122.535L87.5318 121.059C87.0706 120.967 86.7939 120.552 86.8861 120.137C86.9784 119.676 87.3934 119.399 87.8085 119.491L96.1097 120.967C96.617 121.059 97.1243 120.921 97.5394 120.644C97.9083 120.368 98.185 119.953 98.3234 119.491V119.445L99.1074 114.926Z" fill="#58432E"/>
<path d="M82.7354 66.9631C82.8276 66.5019 83.2427 66.2252 83.6577 66.3175C84.1189 66.4097 84.3956 66.8248 84.3034 67.2398L80.5217 88.6385C80.4295 89.0997 80.0144 89.3764 79.5994 89.2842C79.1382 89.192 78.8615 88.7769 78.9537 88.3618L82.7354 66.9631ZM78.677 99.6146C78.5848 100.076 78.1697 100.353 77.7546 100.26C77.2935 100.168 77.0167 99.753 77.109 99.3379L78.3542 92.3741C78.4464 91.9129 78.8615 91.6362 79.2765 91.7284C79.7377 91.8207 80.0144 92.2357 79.9222 92.6508L78.677 99.6146Z" fill="#58432E"/>
<path d="M79.507 67.6091C79.5993 67.1479 80.0143 66.8712 80.4294 66.9635C80.8906 67.0557 81.1673 67.4708 81.075 67.8858L72.3126 117.555C72.2665 117.924 71.9437 118.2 71.6209 118.247C70.9752 118.339 70.3296 118.523 69.8684 118.8C69.4994 119.031 69.2227 119.353 69.1305 119.815C69.0383 120.368 69.1766 120.875 69.4533 121.29C69.73 121.705 70.1912 121.982 70.6985 122.074L100.814 127.378C101.367 127.47 101.874 127.332 102.289 127.055C102.704 126.778 102.981 126.317 103.073 125.81C103.166 125.303 103.027 124.841 102.75 124.473C102.428 124.057 101.966 123.689 101.367 123.55C100.952 123.412 100.721 123.043 100.767 122.628L109.899 70.8374C109.991 70.3762 110.406 70.0995 110.821 70.1917C111.282 70.284 111.559 70.699 111.467 71.1141L102.612 122.213C103.258 122.536 103.765 122.951 104.18 123.504C104.687 124.242 104.918 125.118 104.78 126.087C104.595 127.055 104.042 127.885 103.304 128.393C102.566 128.9 101.598 129.177 100.629 128.992L70.514 123.689C69.5456 123.504 68.7154 122.951 68.2081 122.213C67.7008 121.475 67.4241 120.506 67.6086 119.538C67.7931 118.523 68.3465 117.832 69.1305 117.37C69.6378 117.048 70.2834 116.863 70.883 116.725L79.507 67.6091Z" fill="#58432E"/>
<path d="M98.3689 78.9539H98.3227C97.9538 78.9078 97.631 79 97.3543 79.1845C97.0776 79.369 96.8931 79.6918 96.8008 80.0146V80.0607C96.7547 80.4297 96.847 80.7525 97.0314 81.0292C97.2159 81.3059 97.5387 81.4904 97.9077 81.5826C98.2766 81.6288 98.6456 81.5365 98.9223 81.352C99.199 81.1676 99.3835 80.8448 99.4757 80.4758C99.5218 80.1069 99.4296 79.7379 99.2451 79.4612C99.0145 79.2306 98.7378 79.0461 98.3689 78.9539ZM96.4319 77.8471C97.0776 77.432 97.8616 77.2014 98.6456 77.3398C99.4296 77.4781 100.121 77.9393 100.583 78.585C100.998 79.2306 101.228 80.0146 101.09 80.7986C100.951 81.5826 100.49 82.2744 99.8446 82.7356C99.199 83.1507 98.415 83.3812 97.631 83.2429C96.847 83.1045 96.1552 82.6434 95.694 81.9977C95.2789 81.3521 95.0484 80.568 95.1867 79.784C95.3251 78.9539 95.7862 78.3083 96.4319 77.8471Z" fill="#58432E"/>
<path d="M89.2383 85.3181C90.0223 85.4565 90.6218 85.8715 91.0369 86.4711C91.4519 87.0706 91.6364 87.7624 91.498 88.5464C91.498 88.5925 91.498 88.5925 91.498 88.6386C91.3597 89.3765 90.9446 90.0222 90.3451 90.3911C89.7456 90.8062 89.0538 90.9906 88.2698 90.8523C88.2237 90.8523 88.2237 90.8523 88.1775 90.8523C87.4397 90.7139 86.794 90.2989 86.4251 89.6993C86.01 89.0998 85.8255 88.3619 85.9639 87.624C86.1022 86.84 86.5173 86.2405 87.1168 85.8254C87.7164 85.3642 88.4543 85.1798 89.2383 85.3181ZM89.6994 87.4396C89.515 87.209 89.2383 87.0245 88.9615 86.9784C88.6387 86.9323 88.3159 86.9784 88.0853 87.1628C87.8547 87.3473 87.6702 87.624 87.6241 87.9007C87.578 88.2236 87.6241 88.5464 87.8086 88.777C87.9931 89.0076 88.2237 89.192 88.5465 89.2382C88.8693 89.2843 89.1921 89.2382 89.4227 89.0537C89.6533 88.8692 89.8378 88.6386 89.8839 88.3158C89.9761 87.993 89.8839 87.6701 89.6994 87.4396Z" fill="#58432E"/>
<path d="M114.188 60.6914C115.249 61.1987 116.079 61.9827 116.679 62.9512C117.37 64.1041 117.693 65.5338 117.417 66.9634C117.14 68.5314 116.218 69.8688 115.018 70.7451C113.773 71.6213 112.251 71.9903 110.637 71.7136L97.4014 69.3615C97.0325 70.4684 96.2946 71.3907 95.3722 72.0364C94.2193 72.8204 92.7896 73.1893 91.36 72.9126C89.8842 72.6359 88.6851 71.8058 87.855 70.699C87.2093 69.7766 86.8404 68.6698 86.8865 67.4707L85.0418 67.1479C84.2117 67.6552 83.3354 68.0702 82.367 68.3008C81.3524 68.5314 80.2455 68.5775 79.1387 68.3931C79.0926 68.3931 79.0926 68.3931 79.0465 68.3931C76.8328 67.978 74.9881 66.7328 73.789 65.0265C72.59 63.3201 72.0365 61.1526 72.4055 58.8928C72.4055 58.8467 72.4055 58.8467 72.4055 58.8005C72.8205 56.5869 74.0657 54.7422 75.7721 53.5431C77.4785 52.344 79.646 51.7906 81.9058 52.1596C82.9204 49.6231 84.7651 47.5478 87.0249 46.2103C89.4691 44.7807 92.3745 44.135 95.4183 44.6885C97.263 45.0113 98.9694 45.7492 100.399 46.7638C101.736 47.6861 102.843 48.8852 103.673 50.2687C104.135 50.1304 104.642 50.0843 105.149 50.0381C105.841 49.992 106.579 50.0381 107.317 50.1304C109.623 50.5454 111.606 51.8367 112.851 53.6353C114.096 55.4339 114.696 57.6937 114.281 60.0457C114.281 60.2763 114.234 60.4608 114.188 60.6914ZM82.782 56.5869C82.782 57.0481 82.4131 57.417 81.9519 57.3709C81.4907 57.3709 81.1218 57.0019 81.1679 56.5408C81.1679 56.2179 81.214 55.8951 81.214 55.5723C81.2601 55.2495 81.3062 54.9266 81.3524 54.6038C81.3985 54.3271 81.4446 54.0504 81.5368 53.7737C79.8305 53.5431 78.1702 54.0043 76.8789 54.9266C75.4954 55.8951 74.4808 57.3709 74.158 59.1695C73.8351 60.9681 74.2963 62.7206 75.2648 64.1041C76.2333 65.4876 77.709 66.5022 79.5076 66.8251C80.3839 66.9634 81.3062 66.9634 82.1364 66.7789C82.9665 66.5945 83.7966 66.2255 84.4884 65.7182C84.6729 65.5799 84.9034 65.4876 85.134 65.5338L88.0395 66.0411C88.5006 66.1333 88.7773 66.5483 88.6851 66.9634C88.5006 67.978 88.7774 68.9926 89.2846 69.7766C89.8381 70.5606 90.6682 71.1601 91.7289 71.2985C92.7435 71.483 93.7581 71.2063 94.5421 70.699C95.3261 70.1455 95.9256 69.3154 96.064 68.2547C96.1562 67.7935 96.1562 67.3324 96.064 66.9173C95.9717 66.5022 95.8334 66.041 95.6028 65.6721C95.3722 65.3032 95.5106 64.7959 95.8795 64.5653C96.2484 64.3347 96.7558 64.473 96.9863 64.842C97.3092 65.3954 97.5398 65.9949 97.6781 66.6406C97.7242 67.0095 97.7703 67.3785 97.7703 67.7474L111.006 70.0994C112.159 70.2839 113.266 70.0072 114.142 69.4077C115.018 68.8081 115.664 67.8397 115.849 66.6867C116.033 65.626 115.802 64.6114 115.295 63.7813C114.926 63.1356 114.327 62.5822 113.635 62.2594C113.404 62.7206 113.174 63.1356 112.897 63.5507C112.436 64.1963 111.882 64.7498 111.283 65.257C110.914 65.5338 110.407 65.4876 110.13 65.1187C109.853 64.7498 109.899 64.2425 110.268 63.9657C110.776 63.5507 111.191 63.0895 111.56 62.5822C111.929 62.0749 112.205 61.4754 112.436 60.8758C112.482 60.6914 112.574 60.5069 112.62 60.3224C112.666 60.138 112.713 59.9535 112.759 59.769C113.081 57.8782 112.62 56.0335 111.606 54.6038C110.591 53.1742 109.023 52.0673 107.132 51.7445C106.533 51.6523 105.933 51.6061 105.38 51.6523C105.103 51.6523 104.826 51.6984 104.596 51.7445C104.873 52.4363 105.149 53.128 105.288 53.8198C105.518 54.8805 105.657 55.9412 105.61 57.0019C105.61 57.4631 105.241 57.7859 104.78 57.7859C104.319 57.7859 103.996 57.417 103.996 56.9558C104.042 56.0335 103.904 55.065 103.72 54.1887C103.489 53.2664 103.166 52.3901 102.705 51.6061C101.921 50.2226 100.86 49.0235 99.5689 48.1012C98.3238 47.2249 96.848 46.5793 95.2339 46.3026C92.6051 45.8414 90.0686 46.3948 87.9472 47.64C85.8258 48.8852 84.1656 50.9144 83.3354 53.3586C83.3354 53.4047 83.3354 53.4047 83.2893 53.4509C83.2432 53.6814 83.151 53.912 83.1048 54.1426C83.0587 54.3732 82.9665 54.6499 82.9204 54.8805C82.8743 55.1572 82.8281 55.4339 82.8281 55.7106C82.782 56.0335 82.782 56.3102 82.782 56.5869Z" fill="#58432E"/>
<path d="M71.2524 68.9002C72.4976 69.1308 73.5122 69.8226 74.204 70.7911C74.8957 71.7595 75.1725 72.9586 74.9419 74.2038C74.7113 75.449 74.0195 76.4636 73.051 77.1553C72.0825 77.8471 70.8835 78.1238 69.6383 77.8932C68.3931 77.6626 67.3785 76.9709 66.6868 76.0024C65.995 75.0339 65.7183 73.8348 65.9489 72.5897C66.1795 71.3445 66.8712 70.3299 67.8397 69.6381C68.8082 68.9925 70.0072 68.6696 71.2524 68.9002ZM72.8666 71.7134C72.4515 71.1139 71.7597 70.6527 70.9757 70.5143C70.1917 70.376 69.4077 70.5605 68.7621 71.0216C68.1625 71.4367 67.7013 72.1285 67.563 72.9125C67.4246 73.6965 67.6091 74.4805 68.0703 75.1261C68.4854 75.7257 69.1771 76.1869 69.9611 76.3252C70.7451 76.4636 71.5291 76.2791 72.1748 75.8179C72.7743 75.4028 73.2355 74.7111 73.3739 73.9271C73.4661 73.097 73.2816 72.3129 72.8666 71.7134Z" fill="#58432E"/>
<path fill-rule="evenodd" clip-rule="evenodd" d="M79.1384 41.506C80.5681 41.7366 81.4904 43.1201 81.2598 44.5037C81.0292 45.9333 79.6457 46.8557 78.2622 46.6251C76.8325 46.3945 75.9101 45.011 76.1407 43.6274C76.4174 42.1978 77.7549 41.2293 79.1384 41.506Z" fill="white"/>
<path d="M79.3227 40.676C80.2451 40.8605 81.0291 41.3678 81.5364 42.1057C82.0437 42.8436 82.2742 43.7198 82.0898 44.6422C81.9053 45.5645 81.398 46.3485 80.6601 46.8558C79.9683 47.3631 79.046 47.5937 78.1698 47.4092C78.1236 47.4092 78.1236 47.4092 78.0775 47.4092C77.1552 47.2248 76.4173 46.7175 75.91 46.0257C75.4027 45.3339 75.1721 44.4116 75.3566 43.5353C75.3566 43.4892 75.3566 43.4892 75.3566 43.4431C75.541 42.5207 76.0483 41.7828 76.7401 41.2756C77.478 40.7683 78.3542 40.5377 79.3227 40.676ZM80.1528 43.028C79.8761 42.6591 79.5072 42.3824 78.9999 42.2901C78.4926 42.1979 78.0314 42.3363 77.6625 42.5669C77.2935 42.8436 77.0168 43.2125 76.9246 43.7198C76.8323 44.2271 76.9707 44.6883 77.2013 45.0572C77.478 45.4262 77.8469 45.7029 78.3542 45.7951C78.8615 45.8873 79.3227 45.749 79.6916 45.5184C80.0606 45.2417 80.3373 44.8727 80.4295 44.3654C80.5679 43.9043 80.4295 43.397 80.1528 43.028Z" fill="#58432E"/>
<path fill-rule="evenodd" clip-rule="evenodd" d="M65.211 49.5769C67.0096 49.8997 68.2548 51.6522 67.932 53.4508C67.6092 55.2494 65.8567 56.4946 64.0581 56.1717C62.2595 55.8489 61.0143 54.0964 61.3371 52.2978C61.66 50.4531 63.3663 49.254 65.211 49.5769Z" fill="white"/>
<path d="M65.3489 48.7927C66.4557 48.9772 67.4242 49.6228 68.0237 50.4991C68.6232 51.3753 68.8999 52.4822 68.7155 53.589C68.531 54.6958 67.8853 55.6643 67.0091 56.2638C66.1329 56.8634 65.026 57.1401 63.9192 56.9556C62.8124 56.7711 61.8439 56.1255 61.2444 55.2492C60.6448 54.373 60.3681 53.2662 60.5526 52.1593C60.7371 51.0525 61.3827 50.084 62.259 49.4845C63.0891 48.8388 64.1959 48.5621 65.3489 48.7927ZM66.6863 51.4214C66.3173 50.9141 65.7639 50.4991 65.0722 50.4068C64.3804 50.2685 63.6886 50.453 63.1813 50.8219C62.674 51.1908 62.259 51.7443 62.1667 52.436C62.0284 53.1278 62.2128 53.8196 62.5818 54.3269C62.9507 54.8342 63.5041 55.2492 64.1959 55.3415C64.8877 55.4798 65.5795 55.2953 66.0867 54.9264C66.594 54.5575 67.0091 54.004 67.1013 53.3123C67.2397 52.6205 67.0552 51.9287 66.6863 51.4214Z" fill="#58432E"/>
<path fill-rule="evenodd" clip-rule="evenodd" d="M126.363 114.372L112.389 111.928C110.545 111.605 109.253 109.807 109.576 107.916C109.899 106.025 111.698 104.78 113.588 105.103L110.867 104.642C109.023 104.319 107.731 102.52 108.054 100.629C108.377 98.7846 110.176 97.4933 112.067 97.8161L109.668 97.4011C107.824 97.0783 106.532 95.2797 106.855 93.3888C107.178 91.5441 108.977 90.2528 110.867 90.5756L112.712 90.8985C110.867 90.5756 109.576 88.777 109.899 86.8862C110.222 85.0415 112.02 83.7502 113.911 84.073L130.099 86.9323C130.191 86.9323 129.591 84.1652 129.222 81.1214C128.992 79.1384 129.13 75.4028 129.545 73.7887C130.929 68.3929 136.417 69.5459 136.417 73.5581C136.417 76.5558 137.478 82.0438 138.492 84.1652C139.645 86.5634 144.026 92.0053 145.318 95.8792L155.694 97.7239C154.126 104.18 151.728 110.36 148.684 116.079L136.186 113.865C132.451 115.479 126.87 114.465 126.363 114.372Z" fill="#F2CB9B"/>
<path d="M148.269 116.955L136.278 114.834C132.45 116.263 127.009 115.295 126.271 115.202H126.225L112.251 112.758C111.098 112.574 110.129 111.882 109.484 111.006C108.838 110.13 108.561 108.977 108.792 107.824C108.976 106.855 109.484 105.979 110.176 105.379C109.253 105.103 108.515 104.503 107.962 103.765C107.316 102.889 107.04 101.736 107.27 100.583C107.455 99.5685 107.962 98.6923 108.7 98.0927C107.916 97.7699 107.224 97.2626 106.763 96.5708C106.117 95.6946 105.84 94.5416 106.071 93.3887C106.256 92.2357 106.947 91.2673 107.824 90.6216C108.377 90.2527 109.023 89.976 109.668 89.8837C109.161 89.0536 108.884 87.9929 109.069 86.9322C109.069 86.8861 109.069 86.8861 109.069 86.8399C109.299 85.687 109.945 84.7646 110.821 84.119C111.697 83.5195 112.804 83.1966 113.957 83.3811C114.003 83.3811 114.003 83.3811 114.049 83.3811L129.084 86.0559C129.084 86.0098 129.084 85.9637 129.038 85.9176C128.853 84.8108 128.577 83.1505 128.346 81.3519C128.208 80.2912 128.208 78.7693 128.254 77.3397C128.3 75.91 128.438 74.5726 128.669 73.7425C129.222 71.621 130.375 70.3758 131.62 69.8224C132.266 69.5457 132.958 69.4535 133.65 69.4996C134.295 69.5918 134.941 69.8224 135.494 70.1914C136.509 70.9293 137.155 72.1283 137.201 73.6963C137.201 75.126 137.477 77.2474 137.846 79.2305C138.215 81.1674 138.723 82.966 139.184 83.9806C139.599 84.8108 140.475 86.1482 141.443 87.624C143.058 90.0221 144.948 92.8814 145.871 95.3256L155.832 97.0781C155.694 97.6315 155.602 98.1388 155.463 98.6461L145.133 96.8475C144.856 96.8014 144.579 96.5708 144.487 96.2941C143.703 93.9882 141.72 90.9906 140.06 88.5002C139.045 86.9783 138.123 85.5948 137.662 84.6724C137.108 83.5656 136.601 81.5825 136.186 79.5533C135.771 77.478 135.494 75.2643 135.494 73.6963C135.494 72.7279 135.079 71.9439 134.48 71.5288C134.157 71.2982 133.788 71.1599 133.419 71.1137C133.05 71.0676 132.635 71.1137 132.22 71.2982C131.39 71.6672 130.606 72.5895 130.191 74.1114C130.006 74.8493 129.868 76.0945 129.822 77.3858C129.776 78.7232 129.776 80.1528 129.914 81.1213C130.098 82.8738 130.421 84.5341 130.606 85.5948C130.698 86.1943 130.79 86.6555 130.79 86.9322C130.79 86.9783 130.79 87.0244 130.79 87.0705C130.79 87.1167 130.79 87.1628 130.79 87.1628C130.698 87.6701 130.421 87.9007 129.868 87.8545H129.822L113.634 84.9952C112.896 84.8569 112.205 85.0413 111.651 85.4103C111.098 85.7792 110.683 86.3788 110.591 87.1167C110.452 87.8545 110.637 88.5463 111.006 89.0997C111.375 89.6531 111.974 90.0682 112.712 90.1604L116.309 90.8061C116.77 90.8983 117.047 91.3134 116.955 91.7284C116.863 92.1896 116.448 92.4663 116.033 92.3741L112.528 91.7746L110.683 91.4517C109.945 91.3134 109.253 91.4979 108.7 91.8668C108.146 92.2357 107.731 92.8353 107.639 93.5732C107.501 94.3111 107.685 95.0028 108.054 95.5562C108.423 96.1096 109.023 96.5247 109.76 96.6169L112.159 97.032L115.202 97.5854C115.664 97.6777 115.94 98.0927 115.848 98.5078C115.756 98.969 115.341 99.2457 114.926 99.1534L111.882 98.6C111.144 98.4617 110.452 98.6461 109.899 99.0151C109.345 99.384 108.93 99.9836 108.838 100.721C108.7 101.459 108.884 102.151 109.253 102.705C109.622 103.258 110.222 103.673 110.96 103.765L113.68 104.226L116.54 104.734C117.001 104.826 117.278 105.241 117.185 105.656C117.093 106.117 116.678 106.394 116.263 106.302L113.404 105.794C112.666 105.656 111.974 105.841 111.421 106.209C110.867 106.578 110.452 107.178 110.36 107.916C110.222 108.608 110.406 109.346 110.775 109.899C111.144 110.452 111.744 110.867 112.481 110.96L126.455 113.404H126.501C127.193 113.542 132.404 114.465 135.817 113.081C135.955 113.035 136.14 112.989 136.278 113.035L149.007 115.295C148.822 115.94 148.546 116.448 148.269 116.955Z" fill="#58432E"/>
<path fill-rule="evenodd" clip-rule="evenodd" d="M63.7813 37.6783C65.3032 36.6637 66.0872 39.6613 68.1625 41.9672C70.1456 44.1348 72.5437 45.7489 72.2209 46.2101C71.4369 47.363 59.4923 40.6298 63.7813 37.6783Z" fill="white"/>
<path fill-rule="evenodd" clip-rule="evenodd" d="M129.822 47.8704C129.592 49.6229 124.795 49.1156 123.089 49.5306C120.368 50.1763 119.123 51.7904 118.8 51.3754C118.062 50.2685 130.33 44.0426 129.822 47.8704Z" fill="white"/>
<path fill-rule="evenodd" clip-rule="evenodd" d="M126.179 33.2971C127.147 35.5108 123.135 36.3409 119.768 38.9696C116.54 41.5061 114.003 44.6883 113.496 44.181C112.251 42.9358 123.458 27.0251 126.179 33.2971Z" fill="white"/>
<path fill-rule="evenodd" clip-rule="evenodd" d="M82.0436 23.7968C84.3034 23.7968 83.0582 26.7944 83.6116 29.8382C84.1189 32.7898 85.5025 35.4646 84.8568 35.6491C83.2427 36.2025 75.541 23.7506 82.0436 23.7968Z" fill="white"/>
<path fill-rule="evenodd" clip-rule="evenodd" d="M81.6751 15.311C85.0417 15.311 84.4883 21.537 81.1217 21.537C77.7551 21.5831 78.3085 15.311 81.6751 15.311Z" fill="white"/>
<path fill-rule="evenodd" clip-rule="evenodd" d="M115.387 8.85466C114.372 14.5733 103.073 37.8167 102.889 38.0012C101.736 39.0158 108.469 12.129 113.219 7.79395C113.957 8.11677 114.649 8.48571 115.387 8.85466Z" fill="white"/>
<path fill-rule="evenodd" clip-rule="evenodd" d="M120.322 16.6488C122.535 18.2629 119.353 22.5519 117.14 20.9378C114.926 19.3237 118.108 15.0347 120.322 16.6488Z" fill="white"/>
</svg>
