<svg width="204" height="150" viewBox="0 0 204 150" fill="none" xmlns="http://www.w3.org/2000/svg">
<g opacity="0.2">
<path fill-rule="evenodd" clip-rule="evenodd" d="M0 82.8253C0 100.099 6.35179 115.84 16.8041 127.736C28.7952 141.388 46.1836 149.971 65.5659 150C74.0367 150.012 82.1364 148.38 89.5763 145.401C93.4231 143.861 97.7286 144.037 101.454 145.863C105.825 148.002 110.719 149.201 115.886 149.201C118.021 149.201 120.111 148.995 122.133 148.603C127.905 147.491 133.158 144.858 137.472 141.128C140.182 138.784 143.654 137.605 147.203 137.609H147.263C158.989 137.609 169.88 133.971 178.923 127.736C187.007 122.169 193.608 114.529 198.006 105.559C201.841 97.7421 204 88.9116 204 79.5658C204 47.5113 178.596 21.5222 147.263 21.5222C144.069 21.5222 140.94 21.7982 137.886 22.3132C129.802 8.92503 115.326 0 98.8118 0C91.8396 0 85.2296 1.5907 79.3129 4.44218C73.6861 7.14514 68.6833 10.9859 64.5908 15.6667C50.6946 15.8933 37.8454 20.5375 27.3288 28.2881C10.7744 40.4813 0 60.3676 0 82.8253Z" fill="url(#paint0_linear_981_4949)"/>
</g>
<g clip-path="url(#clip0_981_4949)">
<g opacity="0.24">
<g opacity="0.24">
<g opacity="0.24">
<path opacity="0.24" fill-rule="evenodd" clip-rule="evenodd" d="M0 82.8253C0 100.099 6.35179 115.84 16.8041 127.736C28.7952 141.388 46.1836 149.971 65.5659 150C74.0367 150.012 82.1364 148.38 89.5763 145.401C93.4231 143.861 97.7286 144.037 101.454 145.863C105.825 148.002 110.719 149.201 115.886 149.201C118.021 149.201 120.111 148.995 122.133 148.603C127.905 147.491 133.158 144.858 137.472 141.128C140.182 138.784 143.654 137.605 147.203 137.609H147.263C158.989 137.609 169.88 133.971 178.923 127.736C187.007 122.169 193.608 114.529 198.006 105.559C201.841 97.7421 204 88.9116 204 79.5658C204 47.5113 178.596 21.5222 147.263 21.5222C144.069 21.5222 140.94 21.7982 137.886 22.3132C129.802 8.92502 115.326 0 98.8118 0C91.8396 0 85.2296 1.5907 79.3129 4.44218C73.6861 7.14514 68.6833 10.9859 64.5908 15.6667C50.6946 15.8933 37.8454 20.5375 27.3288 28.2881C10.7744 40.4813 0 60.3676 0 82.8253Z" fill="url(#paint1_linear_981_4949)"/>
</g>
</g>
</g>
<path opacity="0.545118" d="M115.57 31.5157C114.499 31.5157 113.428 31.1169 112.613 30.3188C110.982 28.7228 110.982 26.126 112.613 24.5302C114.242 22.9347 116.896 22.9341 118.526 24.5302C120.157 26.1263 120.157 28.723 118.526 30.3188C117.711 31.1169 116.641 31.5157 115.57 31.5157ZM115.57 26.1548C115.237 26.1548 114.905 26.2784 114.652 26.5263C114.146 27.0214 114.146 27.8273 114.652 28.3228C115.158 28.8179 115.981 28.8182 116.487 28.3228C116.993 27.8276 116.993 27.0217 116.487 26.5263C116.234 26.2787 115.902 26.1548 115.57 26.1548Z" fill="#C4CDD5"/>
<path opacity="0.545118" d="M82.6937 127.083C81.6229 127.083 80.5517 126.684 79.7367 125.886C78.106 124.29 78.106 121.694 79.7367 120.098C81.3668 118.502 84.0207 118.502 85.6508 120.098C87.2815 121.694 87.2815 124.291 85.6508 125.886C84.8358 126.684 83.7646 127.083 82.6937 127.083ZM82.6937 121.722C82.3615 121.722 82.029 121.846 81.7757 122.094C81.2699 122.589 81.2699 123.395 81.7757 123.89C82.2822 124.386 83.105 124.386 83.6115 123.89C84.1173 123.395 84.1173 122.589 83.6115 122.094C83.3585 121.846 83.026 121.722 82.6937 121.722Z" fill="#C4CDD5"/>
<path d="M155.808 107.805C155.439 107.805 155.069 107.667 154.788 107.392L153.068 105.708L151.347 107.392C150.785 107.943 149.871 107.943 149.308 107.392C148.745 106.84 148.745 105.947 149.308 105.396L152.048 102.714C152.611 102.163 153.524 102.163 154.087 102.714L156.827 105.396C157.39 105.947 157.39 106.841 156.827 107.392C156.546 107.667 156.176 107.805 155.808 107.805Z" fill="#DFE3E8"/>
<path d="M54.0966 102.427C53.7277 102.427 53.3582 102.29 53.077 102.014L51.3567 100.33L49.6363 102.014C49.0736 102.565 48.1599 102.565 47.5973 102.014C47.034 101.463 47.034 100.569 47.5973 100.018L50.3372 97.3362C50.8998 96.7852 51.8135 96.7852 52.3762 97.3362L55.1161 100.018C55.6794 100.569 55.6794 101.463 55.1161 102.014C54.8346 102.289 54.4655 102.427 54.0966 102.427Z" fill="#D5DBE0"/>
<g filter="url(#filter0_d_981_4949)">
<mask id="mask0_981_4949" style="mask-type:alpha" maskUnits="userSpaceOnUse" x="60" y="41" width="85" height="68">
<path d="M138.816 41.5693H66.2359C62.9909 41.5693 60.3604 44.1483 60.3604 47.3296V102.994C60.3604 106.175 62.9909 108.754 66.2359 108.754H138.816C142.061 108.754 144.691 106.175 144.691 102.994V47.3296C144.691 44.1483 142.061 41.5693 138.816 41.5693Z" fill="white"/>
</mask>
<g mask="url(#mask0_981_4949)">
<path d="M138.816 41.5693H66.2359C62.9909 41.5693 60.3604 44.1483 60.3604 47.3296V102.994C60.3604 106.175 62.9909 108.754 66.2359 108.754H138.816C142.061 108.754 144.691 106.175 144.691 102.994V47.3296C144.691 44.1483 142.061 41.5693 138.816 41.5693Z" fill="#DFE3E8" stroke="#919EAB" stroke-opacity="0.48" stroke-width="1.72811"/>
<path opacity="0.32" d="M142.221 41.5693C143.605 41.5693 144.691 42.4138 144.691 43.4888V60.765H60.3604V43.4888C60.3604 42.4138 61.4473 41.5693 62.831 41.5693H142.221ZM73.1081 48.7677C71.7351 48.7677 70.6566 49.8233 70.6566 51.1671C70.6566 52.5107 71.7351 53.5666 73.1081 53.5666C74.4811 53.5666 75.5596 52.5107 75.5596 51.1671C75.5596 49.8233 74.4811 48.7677 73.1081 48.7677ZM82.914 48.7677C81.541 48.7677 80.4625 49.8233 80.4625 51.1671C80.4625 52.5107 81.541 53.5666 82.914 53.5666C84.287 53.5666 85.3655 52.5107 85.3655 51.1671C85.3655 49.8233 84.287 48.7677 82.914 48.7677ZM92.72 48.7677C91.347 48.7677 90.2685 49.8233 90.2685 51.1671C90.2685 52.5107 91.347 53.5666 92.72 53.5666C94.0929 53.5666 95.1714 52.5107 95.1714 51.1671C95.1714 49.8233 94.0929 48.7677 92.72 48.7677Z" fill="#919EAB"/>
<path d="M131.944 67.4835H107.429C106.074 67.4835 104.978 68.5567 104.978 69.883V98.6766C104.978 100.003 106.074 101.076 107.429 101.076H131.944C133.299 101.076 134.395 100.003 134.395 98.6766V69.883C134.395 68.5567 133.299 67.4835 131.944 67.4835Z" fill="#919EAB" fill-opacity="0.48" stroke="#A7B4C1" stroke-width="1.38249"/>
<path opacity="0.72" d="M73.1077 72.2825H82.9137C84.2687 72.2825 85.3652 71.2093 85.3652 69.883C85.3652 68.5567 84.2687 67.4835 82.9137 67.4835H73.1077C71.7527 67.4835 70.6562 68.5567 70.6562 69.883C70.6562 71.2093 71.7527 72.2825 73.1077 72.2825Z" stroke="#919EAB" stroke-width="1.38249"/>
<path opacity="0.72" d="M97.6226 77.0814H73.1077C71.7527 77.0814 70.6562 78.1546 70.6562 79.4808C70.6562 80.8071 71.7527 81.8803 73.1077 81.8803H97.6226C98.9776 81.8803 100.074 80.8071 100.074 79.4808C100.074 78.1546 98.9776 77.0814 97.6226 77.0814Z" stroke="#A7B4C1" stroke-width="1.38249"/>
<path opacity="0.72" d="M97.6226 86.6792H73.1077C71.7527 86.6792 70.6562 87.7524 70.6562 89.0787C70.6562 90.405 71.7527 91.4782 73.1077 91.4782H97.6226C98.9776 91.4782 100.074 90.405 100.074 89.0787C100.074 87.7524 98.9776 86.6792 97.6226 86.6792Z" stroke="#A7B4C1" stroke-width="1.38249"/>
<path opacity="0.72" d="M97.6226 96.2771H73.1077C71.7527 96.2771 70.6562 97.3503 70.6562 98.6765C70.6562 100.003 71.7527 101.076 73.1077 101.076H97.6226C98.9776 101.076 100.074 100.003 100.074 98.6765C100.074 97.3503 98.9776 96.2771 97.6226 96.2771Z" stroke="#A7B4C1" stroke-width="1.38249"/>
</g>
</g>
</g>
<defs>
<filter id="filter0_d_981_4949" x="46.3604" y="27.5693" width="140.331" height="123.185" filterUnits="userSpaceOnUse" color-interpolation-filters="sRGB">
<feFlood flood-opacity="0" result="BackgroundImageFix"/>
<feColorMatrix in="SourceAlpha" type="matrix" values="0 0 0 0 0 0 0 0 0 0 0 0 0 0 0 0 0 0 127 0" result="hardAlpha"/>
<feOffset dx="14" dy="14"/>
<feGaussianBlur stdDeviation="14"/>
<feColorMatrix type="matrix" values="0 0 0 0 0.270588 0 0 0 0 0.309804 0 0 0 0 0.356863 0 0 0 0.24 0"/>
<feBlend mode="normal" in2="BackgroundImageFix" result="effect1_dropShadow_981_4949"/>
<feBlend mode="normal" in="SourceGraphic" in2="effect1_dropShadow_981_4949" result="shape"/>
</filter>
<linearGradient id="paint0_linear_981_4949" x1="139.744" y1="176.68" x2="212.341" y2="9.78734" gradientUnits="userSpaceOnUse">
<stop stop-color="#919EAB"/>
<stop offset="1" stop-color="#919EAB" stop-opacity="0.01"/>
</linearGradient>
<linearGradient id="paint1_linear_981_4949" x1="39.7716" y1="107.733" x2="124.057" y2="-1.25778" gradientUnits="userSpaceOnUse">
<stop stop-color="#00AB55"/>
<stop offset="1" stop-color="#00AB55" stop-opacity="0"/>
</linearGradient>
<clipPath id="clip0_981_4949">
<rect width="204" height="150" fill="white"/>
</clipPath>
</defs>
</svg>
