<svg width="204" height="150" viewBox="0 0 204 150" fill="none" xmlns="http://www.w3.org/2000/svg">
<g opacity="0.2">
<path fill-rule="evenodd" clip-rule="evenodd" d="M0 82.8253C0 100.099 6.35179 115.84 16.8041 127.736C28.7952 141.388 46.1836 149.971 65.5659 150C74.0367 150.012 82.1364 148.38 89.5763 145.401C93.4231 143.861 97.7286 144.037 101.454 145.863C105.825 148.002 110.719 149.201 115.886 149.201C118.021 149.201 120.111 148.995 122.133 148.603C127.905 147.491 133.158 144.858 137.472 141.128C140.182 138.784 143.654 137.605 147.203 137.609H147.263C158.989 137.609 169.88 133.971 178.923 127.736C187.007 122.169 193.608 114.529 198.006 105.559C201.841 97.7421 204 88.9116 204 79.5658C204 47.5113 178.596 21.5222 147.263 21.5222C144.069 21.5222 140.94 21.7982 137.886 22.3132C129.802 8.92503 115.326 0 98.8118 0C91.8396 0 85.2296 1.5907 79.3129 4.44218C73.6861 7.14514 68.6833 10.9859 64.5908 15.6667C50.6946 15.8933 37.8454 20.5375 27.3288 28.2881C10.7744 40.4813 0 60.3676 0 82.8253Z" fill="url(#paint0_linear_978_4836)"/>
</g>
<g clip-path="url(#clip0_978_4836)">
<g opacity="0.24">
<g opacity="0.24">
<g opacity="0.24">
<path opacity="0.24" fill-rule="evenodd" clip-rule="evenodd" d="M0 82.8253C0 100.099 6.35179 115.84 16.8041 127.736C28.7952 141.388 46.1836 149.971 65.5659 150C74.0367 150.012 82.1364 148.38 89.5763 145.401C93.4231 143.861 97.7286 144.037 101.454 145.863C105.825 148.002 110.719 149.201 115.886 149.201C118.021 149.201 120.111 148.995 122.133 148.603C127.905 147.491 133.158 144.858 137.472 141.128C140.182 138.784 143.654 137.605 147.203 137.609H147.263C158.989 137.609 169.88 133.971 178.923 127.736C187.007 122.169 193.608 114.529 198.006 105.559C201.841 97.7421 204 88.9116 204 79.5658C204 47.5113 178.596 21.5222 147.263 21.5222C144.069 21.5222 140.94 21.7982 137.886 22.3132C129.802 8.92502 115.326 0 98.8118 0C91.8396 0 85.2296 1.5907 79.3129 4.44218C73.6861 7.14514 68.6833 10.9859 64.5908 15.6667C50.6946 15.8933 37.8454 20.5375 27.3288 28.2881C10.7744 40.4813 0 60.3676 0 82.8253Z" fill="url(#paint1_linear_978_4836)"/>
</g>
</g>
</g>
<path opacity="0.545118" d="M115.57 31.5158C114.499 31.5158 113.428 31.1169 112.613 30.3189C110.982 28.7228 110.982 26.126 112.613 24.5302C114.242 22.9347 116.896 22.9341 118.526 24.5302C120.157 26.1263 120.157 28.7231 118.526 30.3189C117.711 31.1169 116.641 31.5158 115.57 31.5158ZM115.57 26.1548C115.237 26.1548 114.905 26.2784 114.652 26.5263C114.146 27.0214 114.146 27.8274 114.652 28.3228C115.158 28.8179 115.981 28.8182 116.487 28.3228C116.993 27.8276 116.993 27.0217 116.487 26.5263C116.234 26.2787 115.902 26.1548 115.57 26.1548Z" fill="#C4CDD5"/>
<path opacity="0.545118" d="M82.6937 127.083C81.6229 127.083 80.5517 126.684 79.7367 125.886C78.106 124.29 78.106 121.694 79.7367 120.098C81.3668 118.502 84.0207 118.502 85.6508 120.098C87.2815 121.694 87.2815 124.291 85.6508 125.886C84.8358 126.684 83.7646 127.083 82.6937 127.083ZM82.6937 121.722C82.3615 121.722 82.029 121.846 81.7757 122.094C81.2699 122.589 81.2699 123.395 81.7757 123.89C82.2822 124.386 83.105 124.386 83.6115 123.89C84.1173 123.395 84.1173 122.589 83.6115 122.094C83.3585 121.846 83.026 121.722 82.6937 121.722Z" fill="#C4CDD5"/>
<path d="M155.808 107.805C155.439 107.805 155.069 107.667 154.788 107.392L153.068 105.708L151.347 107.392C150.785 107.943 149.871 107.943 149.308 107.392C148.745 106.84 148.745 105.947 149.308 105.396L152.048 102.714C152.611 102.163 153.524 102.163 154.087 102.714L156.827 105.396C157.39 105.947 157.39 106.841 156.827 107.392C156.546 107.667 156.176 107.805 155.808 107.805Z" fill="#DFE3E8"/>
<path d="M54.0966 102.427C53.7277 102.427 53.3582 102.29 53.077 102.014L51.3567 100.33L49.6363 102.014C49.0736 102.565 48.1599 102.565 47.5973 102.014C47.034 101.463 47.034 100.569 47.5973 100.018L50.3372 97.3362C50.8998 96.7852 51.8135 96.7852 52.3762 97.3362L55.1161 100.018C55.6794 100.569 55.6794 101.463 55.1161 102.014C54.8346 102.289 54.4655 102.427 54.0966 102.427Z" fill="#D5DBE0"/>
<g filter="url(#filter0_d_978_4836)">
<path opacity="0.24" d="M86.1434 51.9686H127.27C128.756 51.9686 129.961 53.1499 129.961 54.6072V99.3568C129.961 100.814 128.756 101.995 127.27 101.995H86.1434C84.6571 101.995 83.4521 100.814 83.4521 99.3568V54.6072C83.4521 53.1499 84.6571 51.9686 86.1434 51.9686Z" fill="#919EAB" fill-opacity="0.16" stroke="#919EAB" stroke-width="1.4438" stroke-dasharray="2.41 2.41"/>
<path opacity="0.8" d="M77.1171 59.4951H109.86C111.346 59.4951 112.551 60.6764 112.551 62.1336V103.952C112.551 105.409 111.346 106.591 109.86 106.591H77.1171C75.6307 106.591 74.4258 105.409 74.4258 103.952V62.1336C74.4258 60.6764 75.6307 59.4951 77.1171 59.4951Z" fill="#919EAB" fill-opacity="0.16" stroke="#919EAB" stroke-width="1.4438" stroke-dasharray="2.41 2.41"/>
<path d="M94.3681 67.8381H121.616C123.102 67.8381 124.307 69.0194 124.307 70.4767V105.407C124.307 106.864 123.102 108.045 121.616 108.045H94.3681C92.8817 108.045 91.6768 106.864 91.6768 105.407V70.4767C91.6768 69.0194 92.8817 67.8381 94.3681 67.8381Z" fill="#919EAB" fill-opacity="0.48" stroke="#919EAB" stroke-width="1.4438" stroke-dasharray="2.41 2.41"/>
<path d="M124.307 85.6277H80.085V108.045H124.307V85.6277Z" fill="#C4CDD5"/>
<path fill-rule="evenodd" clip-rule="evenodd" d="M67.5752 81.4412L74.9519 108.964C75.4053 110.816 77.4274 112.145 79.7669 112.145H124.498C126.838 112.145 128.851 110.807 129.313 108.964L136.69 81.4412H67.5752ZM87.1708 104.592C87.1708 105.694 86.001 106.591 84.5638 106.591C83.1265 106.591 81.9658 105.698 81.9658 104.592V88.7045C81.9658 87.6025 83.1265 86.7057 84.5638 86.7057C85.2262 86.6946 85.8736 86.9002 86.4045 87.2902C86.8728 87.6159 87.1569 88.1403 87.1708 88.7045V104.592ZM98.8864 104.592C98.8864 105.694 97.7257 106.591 96.2885 106.591C94.8512 106.591 93.686 105.698 93.686 104.592V88.7045C93.686 87.6025 94.8512 86.7056 96.2885 86.7056C96.9415 86.7009 97.5784 86.9061 98.102 87.2902C98.5686 87.6168 98.8509 88.1411 98.8637 88.7045L98.8864 104.592ZM110.607 104.592C110.607 105.694 109.441 106.591 108.004 106.591C106.567 106.591 105.406 105.698 105.406 104.592V88.7045C105.406 87.6025 106.567 86.7057 108.004 86.7057C108.666 86.6953 109.314 86.9008 109.845 87.2902C110.311 87.6168 110.594 88.1411 110.607 88.7045V104.592ZM122.327 104.592C122.327 105.694 121.166 106.591 119.729 106.591C118.292 106.591 117.122 105.698 117.122 104.592V88.7045C117.122 87.6025 118.292 86.7057 119.729 86.7057C120.39 86.696 121.035 86.9014 121.565 87.2902C122.032 87.6168 122.314 88.1411 122.327 88.7045V104.592Z" fill="#DFE3E8" stroke="#919EAB" stroke-opacity="0.48" stroke-width="1.80475"/>
<path d="M97.6029 45.8073C99.9341 45.8073 101.824 43.9476 101.824 41.6536C101.824 39.3597 99.9341 37.5 97.6029 37.5C95.2717 37.5 93.3818 39.3597 93.3818 41.6536C93.3818 43.9476 95.2717 45.8073 97.6029 45.8073Z" fill="#DFE3E8" stroke="#919EAB" stroke-opacity="0.48" stroke-width="1.80475"/>
<path fill-rule="evenodd" clip-rule="evenodd" d="M76.7425 78.617C75.8708 78.9991 74.8479 78.7804 74.2159 78.0768C73.5839 77.3732 73.489 76.3474 73.9814 75.5431L95.8575 40.3687C96.2624 39.712 96.9927 39.3178 97.7731 39.3345C98.5535 39.3512 99.2656 39.7764 99.6411 40.4499C100.017 41.1233 99.9984 41.9427 99.5934 42.5994L77.7218 77.7738C77.4907 78.1468 77.1489 78.4411 76.7425 78.617Z" fill="#DFE3E8" stroke="#919EAB" stroke-opacity="0.48" stroke-width="1.80475"/>
<path d="M106.661 45.8073C108.993 45.8073 110.883 43.9476 110.883 41.6536C110.883 39.3597 108.993 37.5 106.661 37.5C104.33 37.5 102.44 39.3597 102.44 41.6536C102.44 43.9476 104.33 45.8073 106.661 45.8073Z" fill="#DFE3E8" stroke="#919EAB" stroke-opacity="0.48" stroke-width="1.80475"/>
<path fill-rule="evenodd" clip-rule="evenodd" d="M127.545 78.6171C128.417 78.9992 129.44 78.7805 130.072 78.0769C130.704 77.3733 130.799 76.3475 130.306 75.5431L108.43 40.3688C107.804 39.3536 106.46 39.03 105.429 39.646C104.397 40.262 104.068 41.5843 104.694 42.5995L126.566 77.7739C126.797 78.1468 127.139 78.4411 127.545 78.6171Z" fill="#DFE3E8" stroke="#919EAB" stroke-opacity="0.48" stroke-width="1.80475"/>
<path d="M137.503 73.879H66.7571C64.6271 73.879 62.9004 75.5719 62.9004 77.6601C62.9004 79.7484 64.6271 81.4412 66.7571 81.4412H137.503C139.633 81.4412 141.36 79.7484 141.36 77.6601C141.36 75.5719 139.633 73.879 137.503 73.879Z" fill="#DFE3E8" stroke="#919EAB" stroke-opacity="0.48" stroke-width="1.80475"/>
</g>
</g>
<defs>
<filter id="filter0_d_978_4836" x="47.998" y="22.5977" width="138.264" height="134.45" filterUnits="userSpaceOnUse" color-interpolation-filters="sRGB">
<feFlood flood-opacity="0" result="BackgroundImageFix"/>
<feColorMatrix in="SourceAlpha" type="matrix" values="0 0 0 0 0 0 0 0 0 0 0 0 0 0 0 0 0 0 127 0" result="hardAlpha"/>
<feOffset dx="15" dy="15"/>
<feGaussianBlur stdDeviation="14.5"/>
<feColorMatrix type="matrix" values="0 0 0 0 0.270588 0 0 0 0 0.309804 0 0 0 0 0.356863 0 0 0 0.24 0"/>
<feBlend mode="normal" in2="BackgroundImageFix" result="effect1_dropShadow_978_4836"/>
<feBlend mode="normal" in="SourceGraphic" in2="effect1_dropShadow_978_4836" result="shape"/>
</filter>
<linearGradient id="paint0_linear_978_4836" x1="139.744" y1="176.68" x2="212.341" y2="9.78734" gradientUnits="userSpaceOnUse">
<stop stop-color="#919EAB"/>
<stop offset="1" stop-color="#919EAB" stop-opacity="0.01"/>
</linearGradient>
<linearGradient id="paint1_linear_978_4836" x1="39.7716" y1="107.733" x2="124.057" y2="-1.25778" gradientUnits="userSpaceOnUse">
<stop stop-color="#00AB55"/>
<stop offset="1" stop-color="#00AB55" stop-opacity="0"/>
</linearGradient>
<clipPath id="clip0_978_4836">
<rect width="204" height="150" fill="white"/>
</clipPath>
</defs>
</svg>
