<svg width="204" height="150" viewBox="0 0 204 150" fill="none" xmlns="http://www.w3.org/2000/svg">
<g opacity="0.2">
<path fill-rule="evenodd" clip-rule="evenodd" d="M0 82.8253C0 100.099 6.35179 115.84 16.8041 127.736C28.7952 141.388 46.1836 149.971 65.5659 150C74.0367 150.012 82.1364 148.38 89.5763 145.401C93.4231 143.861 97.7286 144.037 101.454 145.863C105.825 148.002 110.719 149.201 115.886 149.201C118.021 149.201 120.111 148.995 122.133 148.603C127.905 147.491 133.158 144.858 137.472 141.128C140.182 138.784 143.654 137.605 147.203 137.609H147.263C158.989 137.609 169.88 133.971 178.923 127.736C187.007 122.169 193.608 114.529 198.006 105.559C201.841 97.7421 204 88.9116 204 79.5658C204 47.5113 178.596 21.5222 147.263 21.5222C144.069 21.5222 140.94 21.7982 137.886 22.3132C129.802 8.92503 115.326 0 98.8118 0C91.8396 0 85.2296 1.5907 79.3129 4.44218C73.6861 7.14514 68.6833 10.9859 64.5908 15.6667C50.6946 15.8933 37.8454 20.5375 27.3288 28.2881C10.7744 40.4813 0 60.3676 0 82.8253Z" fill="url(#paint0_linear_1001_4813)"/>
</g>
<g clip-path="url(#clip0_1001_4813)">
<g opacity="0.24">
<g opacity="0.24">
<g opacity="0.24">
<path opacity="0.24" fill-rule="evenodd" clip-rule="evenodd" d="M0 82.8253C0 100.099 6.35179 115.84 16.8041 127.736C28.7952 141.388 46.1836 149.971 65.5659 150C74.0367 150.012 82.1364 148.38 89.5763 145.401C93.4231 143.861 97.7286 144.037 101.454 145.863C105.825 148.002 110.719 149.201 115.886 149.201C118.021 149.201 120.111 148.995 122.133 148.603C127.905 147.491 133.158 144.858 137.472 141.128C140.182 138.784 143.654 137.605 147.203 137.609H147.263C158.989 137.609 169.88 133.971 178.923 127.736C187.007 122.169 193.608 114.529 198.006 105.559C201.841 97.7421 204 88.9116 204 79.5658C204 47.5113 178.596 21.5222 147.263 21.5222C144.069 21.5222 140.94 21.7982 137.886 22.3132C129.802 8.92502 115.326 0 98.8118 0C91.8396 0 85.2296 1.5907 79.3129 4.44218C73.6861 7.14514 68.6833 10.9859 64.5908 15.6667C50.6946 15.8933 37.8454 20.5375 27.3288 28.2881C10.7744 40.4813 0 60.3676 0 82.8253Z" fill="url(#paint1_linear_1001_4813)"/>
</g>
</g>
</g>
<path opacity="0.545118" d="M115.569 31.5158C114.498 31.5158 113.427 31.1169 112.612 30.3189C110.981 28.7228 110.981 26.126 112.612 24.5302C114.242 22.9347 116.896 22.9341 118.526 24.5302C120.157 26.1263 120.157 28.7231 118.526 30.3189C117.711 31.1169 116.64 31.5158 115.569 31.5158ZM115.569 26.1548C115.237 26.1548 114.904 26.2784 114.651 26.5263C114.145 27.0214 114.145 27.8274 114.651 28.3228C115.158 28.8179 115.98 28.8182 116.487 28.3228C116.993 27.8276 116.993 27.0217 116.487 26.5263C116.234 26.2787 115.901 26.1548 115.569 26.1548Z" fill="#C4CDD5"/>
<path opacity="0.545118" d="M82.6937 127.083C81.6229 127.083 80.5517 126.684 79.7367 125.886C78.106 124.29 78.106 121.694 79.7367 120.098C81.3668 118.502 84.0207 118.502 85.6508 120.098C87.2815 121.694 87.2815 124.291 85.6508 125.886C84.8358 126.684 83.7646 127.083 82.6937 127.083ZM82.6937 121.722C82.3615 121.722 82.029 121.846 81.7757 122.094C81.2699 122.589 81.2699 123.395 81.7757 123.89C82.2822 124.386 83.105 124.386 83.6115 123.89C84.1173 123.395 84.1173 122.589 83.6115 122.094C83.3585 121.846 83.026 121.722 82.6937 121.722Z" fill="#C4CDD5"/>
<path d="M155.808 107.805C155.439 107.805 155.07 107.667 154.788 107.392L153.068 105.708L151.348 107.392C150.785 107.943 149.871 107.943 149.309 107.392C148.745 106.84 148.745 105.947 149.309 105.396L152.049 102.714C152.611 102.163 153.525 102.163 154.088 102.714L156.828 105.396C157.391 105.947 157.391 106.841 156.828 107.392C156.546 107.667 156.177 107.805 155.808 107.805Z" fill="#DFE3E8"/>
<path d="M54.0966 102.427C53.7277 102.427 53.3582 102.29 53.077 102.014L51.3567 100.33L49.6363 102.014C49.0736 102.565 48.1599 102.565 47.5973 102.014C47.034 101.463 47.034 100.569 47.5973 100.018L50.3372 97.3362C50.8998 96.7852 51.8135 96.7852 52.3762 97.3362L55.1161 100.018C55.6794 100.569 55.6794 101.463 55.1161 102.014C54.8346 102.289 54.4655 102.427 54.0966 102.427Z" fill="#D5DBE0"/>
</g>
<g clip-path="url(#clip1_1001_4813)" filter="url(#filter0_d_1001_4813)">
<path d="M76.9275 87.2574C73.3082 87.3619 69.9034 85.0888 68.8846 81.5355L68.2948 79.4975C67.276 75.9442 68.965 72.2864 72.1286 70.5358L76.9275 87.2574ZM89.3672 65.3887L94.3806 82.868C112.021 79.4453 126.15 83.9915 130.842 85.8465L118.751 43.7814C115.694 47.9356 106.07 59.3533 89.3672 65.3887Z" fill="#919EAB" fill-opacity="0.48"/>
<path d="M136.847 85.2194L133.228 72.626C136.15 71.0845 138 68.106 138 64.8139C138 59.9019 133.898 55.9045 128.858 55.9045C128.697 55.9045 128.563 55.9045 128.402 55.9045L124.193 41.1947C123.978 40.437 123.442 39.7838 122.745 39.3919C122.021 39 121.19 38.8955 120.413 39.1045L119.474 39.3658C117.839 39.81 116.874 41.4821 117.33 43.0759L129.984 87.1006C130.359 88.4331 131.592 89.2953 132.96 89.2953C133.228 89.2953 133.523 89.2692 133.791 89.1908L134.729 88.9295C136.338 88.4853 137.303 86.8132 136.847 85.2194ZM135.614 64.8139C135.614 67.0609 134.461 69.1249 132.558 70.3007L131.834 67.7924L129.099 58.2559C132.692 58.3604 135.614 61.2606 135.614 64.8139ZM134.059 86.6564L133.121 86.9177C132.772 87.0222 132.397 86.8132 132.289 86.4735L119.635 42.4488C119.528 42.1092 119.743 41.7434 120.091 41.6389L121.029 41.3776C121.083 41.3515 121.163 41.3515 121.217 41.3515C121.378 41.3515 121.485 41.4037 121.539 41.4299C121.619 41.4821 121.807 41.5866 121.861 41.8218L126.365 57.4982L130.627 72.3125L134.515 85.8465C134.622 86.1861 134.407 86.578 134.059 86.6564ZM97.8927 105.494C97.7318 104.919 97.3297 104.423 96.7667 104.136C96.579 104.031 96.3913 103.953 96.1769 103.927C95.6675 102.646 94.6487 99.9553 94.2466 98.5705C93.898 97.3687 93.2814 95.2001 92.6648 93.0576L93.3082 92.5612C93.7908 92.1693 93.898 91.49 93.5495 90.9936L91.6192 88.2241L92.6648 87.5448C93.1206 87.2312 93.4423 86.7871 93.6031 86.2906C94.2734 86.0032 94.8096 85.5068 95.1849 84.8798C95.6407 84.0959 95.7479 83.1815 95.5066 82.3193L90.52 65.0752C90.0106 63.2985 88.0803 62.2534 86.2573 62.7498L73.2278 66.3032C71.4047 66.7996 70.3055 68.6546 70.8417 70.4574L75.7747 87.6493C76.016 88.5115 76.6058 89.243 77.4101 89.6872C77.6514 89.8178 77.9195 89.9224 78.1608 90.0007L80.2251 92.9793C80.6273 93.5279 81.2171 93.8676 81.8873 93.946L85.9088 108.76L86.3645 110.354C86.5254 110.929 86.9275 111.425 87.4637 111.713C87.8122 111.896 88.2144 112 88.6165 112C88.831 112 89.0455 111.974 89.2332 111.922L96.713 109.884C97.9463 109.544 98.6702 108.29 98.3216 107.088L97.8927 105.494ZM79.394 87.7276C79.1259 87.806 78.831 87.7538 78.5897 87.6231C78.3484 87.4925 78.1608 87.2574 78.0803 86.9961L73.1206 69.7781C72.9597 69.2294 73.2814 68.6546 73.8444 68.524L86.8739 64.9707C86.9811 64.9445 87.0616 64.9445 87.1688 64.9445C87.6246 64.9445 88.0535 65.2319 88.1876 65.7022L93.1474 82.9202C93.2278 83.1815 93.201 83.4689 93.0401 83.704C92.9061 83.9392 92.6648 84.1221 92.3967 84.2004L92.075 84.2788L83.0669 86.7348L79.394 87.7276ZM88.6702 109.649L88.2412 108.133L83.9517 92.2999C83.8444 91.9342 83.5763 91.6468 83.2278 91.5161C83.0937 91.4639 82.9329 91.4377 82.7988 91.4377C82.5844 91.4377 82.3967 91.49 82.209 91.5945L80.9222 89.7656L88.7774 87.6231C88.7774 87.6754 88.7506 87.7276 88.7506 87.7799C88.7506 87.806 88.7506 87.806 88.7506 87.8322C88.7506 87.8844 88.7506 87.9367 88.7506 87.9889C88.7506 88.015 88.7506 88.015 88.7506 88.0412C88.7506 88.0934 88.7774 88.1718 88.7774 88.2241C89.394 90.3404 91.2439 96.7939 91.9409 99.2237C92.5039 101.183 94.1393 105.338 94.2198 105.52C94.4342 106.069 95.024 106.356 95.587 106.252L96.016 107.715L88.6702 109.649Z" fill="#919EAB" fill-opacity="0.48"/>
</g>
<defs>
<filter id="filter0_d_1001_4813" x="43" y="14" width="128" height="131" filterUnits="userSpaceOnUse" color-interpolation-filters="sRGB">
<feFlood flood-opacity="0" result="BackgroundImageFix"/>
<feColorMatrix in="SourceAlpha" type="matrix" values="0 0 0 0 0 0 0 0 0 0 0 0 0 0 0 0 0 0 127 0" result="hardAlpha"/>
<feOffset dx="4" dy="4"/>
<feGaussianBlur stdDeviation="14.5"/>
<feColorMatrix type="matrix" values="0 0 0 0 0.270588 0 0 0 0 0.309804 0 0 0 0 0.356863 0 0 0 0.24 0"/>
<feBlend mode="normal" in2="BackgroundImageFix" result="effect1_dropShadow_1001_4813"/>
<feBlend mode="normal" in="SourceGraphic" in2="effect1_dropShadow_1001_4813" result="shape"/>
</filter>
<linearGradient id="paint0_linear_1001_4813" x1="139.744" y1="176.68" x2="212.341" y2="9.78734" gradientUnits="userSpaceOnUse">
<stop stop-color="#919EAB"/>
<stop offset="1" stop-color="#919EAB" stop-opacity="0.01"/>
</linearGradient>
<linearGradient id="paint1_linear_1001_4813" x1="39.7716" y1="107.733" x2="124.057" y2="-1.25778" gradientUnits="userSpaceOnUse">
<stop stop-color="#00AB55"/>
<stop offset="1" stop-color="#00AB55" stop-opacity="0"/>
</linearGradient>
<clipPath id="clip0_1001_4813">
<rect width="204" height="150" fill="white"/>
</clipPath>
<clipPath id="clip1_1001_4813">
<rect width="70" height="73" fill="white" transform="translate(68 39)"/>
</clipPath>
</defs>
</svg>
